<svg width="178" height="132" viewBox="0 0 178 132" fill="none" xmlns="http://www.w3.org/2000/svg"><path d="M14.008 1h6.072a271.034 271.034 0 00-.072 4.008A451.387 451.387 0 0019.984 10c0 1.904.008 3.56.024 4.968.016 1.392.04 2.736.072 4.032h-6.072c.016-.432.024-.912.024-1.44.016-.528.024-1.072.024-1.632.016-.576.024-1.152.024-1.728.016-.576.024-1.12.024-1.632a37.034 37.034 0 00-1.368-.024H9.88c-.464 0-.912.008-1.344.024v3.336l.048 1.656c.016.528.032 1.008.048 1.44H2.56c.048-1.296.072-2.64.072-4.032.016-1.408.024-3.064.024-4.968s-.008-3.568-.024-4.992c0-1.44-.024-2.776-.072-4.008h6.072c-.016.416-.032.896-.048 1.44l-.048 1.656v3.456L9.88 7.6h2.856l1.368-.048c0-.544-.008-1.112-.024-1.704 0-.592-.008-1.176-.024-1.752 0-.576-.008-1.128-.024-1.656 0-.544-.008-1.024-.024-1.44zM28.78 15.688c.736 0 1.312-.232 1.728-.696.432-.48.648-1.176.648-2.088a16.83 16.83 0 00-.96-.072c-.336-.016-.68-.024-1.032-.024-.736 0-1.28.12-1.632.36-.336.224-.504.584-.504 1.08 0 .512.128.88.384 1.104.272.224.728.336 1.368.336zm2.4-4.752v-1.2c0-.592-.144-1.04-.432-1.344-.288-.32-.776-.48-1.464-.48-.72 0-1.248.168-1.584.504-.336.32-.48.872-.432 1.656a18.975 18.975 0 00-1.032-.024c-.4-.016-.816-.024-1.248-.024-.512 0-1.016.008-1.512.024-.496 0-.904.024-1.224.072-.096-2.016.408-3.576 1.512-4.68 1.104-1.104 2.984-1.656 5.64-1.656 2.576 0 4.424.496 5.544 1.488 1.136.976 1.704 2.352 1.704 4.128 0 1.008-.016 1.912-.048 2.712-.016.784-.024 1.632-.024 2.544 0 .416.008.848.024 1.296l.048 1.248c.032.4.072.76.12 1.08.048.32.096.56.144.72h-4.512c-.496 0-.816-.064-.96-.192-.128-.128-.192-.472-.192-1.032v-.6l.048-.672h-.144c-.304.912-.856 1.592-1.656 2.04-.784.448-1.792.672-3.024.672-1.52 0-2.68-.296-3.48-.888-.8-.592-1.2-1.648-1.2-3.168 0-1.552.528-2.664 1.584-3.336 1.072-.688 2.72-1.032 4.944-1.032.544 0 1.056.008 1.536.024.496.016.936.056 1.32.12zm13.344.048v3.504c.304.16.64.288 1.008.384.384.096.808.144 1.272.144.864 0 1.496-.272 1.896-.816.4-.544.6-1.488.6-2.832 0-1.328-.192-2.224-.576-2.688-.368-.48-.936-.72-1.704-.72-.688 0-1.28.216-1.776.648-.48.432-.72 1.224-.72 2.376zm.072-4.728l.12.048c.448-.848 1.088-1.472 1.92-1.872.832-.416 1.8-.624 2.904-.624.864 0 1.632.128 2.304.384.688.256 1.256.68 1.704 1.272.448.576.784 1.36 1.008 2.352.24.976.36 2.184.36 3.624 0 2.848-.472 4.864-1.416 6.048-.928 1.168-2.248 1.752-3.96 1.752-1.344 0-2.392-.24-3.144-.72-.736-.48-1.28-1.024-1.632-1.632l-.144.024v1.464l.048.624h-5.76c.016-1.248.032-2.592.048-4.032.016-1.456.024-3.136.024-5.04 0-2.032-.008-3.832-.024-5.4 0-1.584-.008-2.952-.024-4.104h5.76a53.094 53.094 0 00-.024 1.608V3.88c-.016.464-.032.88-.048 1.248 0 .352-.008.728-.024 1.128zM62.305 19h-5.736c.032-1.376.048-2.872.048-4.488a509.346 509.346 0 000-9.72c0-1.472-.016-2.928-.048-4.368h5.736a353.508 353.508 0 00-.072 4.32v10.08c.016 1.392.04 2.784.072 4.176zm8.63-3.312c.735 0 1.311-.232 1.727-.696.432-.48.648-1.176.648-2.088a16.83 16.83 0 00-.96-.072c-.336-.016-.68-.024-1.032-.024-.736 0-1.28.12-1.632.36-.336.224-.504.584-.504 1.08 0 .512.128.88.384 1.104.272.224.728.336 1.368.336zm2.4-4.752v-1.2c0-.592-.145-1.04-.433-1.344-.288-.32-.776-.48-1.464-.48-.72 0-1.248.168-1.584.504-.336.32-.48.872-.432 1.656a18.975 18.975 0 00-1.032-.024c-.4-.016-.816-.024-1.248-.024-.512 0-1.016.008-1.512.024-.496 0-.904.024-1.224.072-.096-2.016.408-3.576 1.512-4.68 1.104-1.104 2.984-1.656 5.64-1.656 2.576 0 4.424.496 5.544 1.488 1.136.976 1.704 2.352 1.704 4.128 0 1.008-.016 1.912-.048 2.712-.016.784-.024 1.632-.024 2.544 0 .416.008.848.024 1.296l.048 1.248c.032.4.072.76.12 1.08.048.32.096.56.144.72h-4.512c-.496 0-.816-.064-.96-.192-.128-.128-.192-.472-.192-1.032v-.6l.048-.672h-.144c-.304.912-.856 1.592-1.656 2.04-.784.448-1.792.672-3.024.672-1.52 0-2.68-.296-3.48-.888-.8-.592-1.2-1.648-1.2-3.168 0-1.552.528-2.664 1.584-3.336 1.072-.688 2.72-1.032 4.944-1.032.544 0 1.056.008 1.536.024.496.016.936.056 1.32.12zm23.058 2.16v-.432c.352.032.736.056 1.152.072h1.32c.48 0 .952-.008 1.416-.024l1.32-.048V13c.016.096.024.2.024.312 0 .992-.128 1.864-.384 2.616a4.125 4.125 0 01-1.272 1.872c-.592.496-1.384.872-2.376 1.128-.976.256-2.184.384-3.624.384-2.688 0-4.664-.632-5.928-1.896-1.264-1.264-1.896-3.28-1.896-6.048 0-2.704.648-4.648 1.944-5.832 1.296-1.2 3.272-1.8 5.928-1.8 2.528 0 4.416.408 5.664 1.224 1.248.816 1.872 2.296 1.872 4.44v.384c0 .128-.008.264-.024.408-.352-.016-.76-.024-1.224-.024a41.25 41.25 0 00-2.856 0c-.432 0-.784.008-1.056.024v-.336c-.016-.768-.184-1.304-.504-1.608-.32-.304-.904-.456-1.752-.456-.88 0-1.52.24-1.92.72-.384.48-.576 1.432-.576 2.856s.192 2.392.576 2.904c.384.496 1.032.744 1.944.744.816 0 1.384-.168 1.704-.504.336-.352.512-.824.528-1.416zm16.872-1.776c0-1.248-.232-2.12-.696-2.616-.448-.496-1.08-.744-1.896-.744-.8 0-1.432.24-1.896.72-.464.48-.696 1.36-.696 2.64s.224 2.192.672 2.736c.464.544 1.104.816 1.92.816.832 0 1.472-.272 1.92-.816.448-.56.672-1.472.672-2.736zm5.568-.096c0 2.656-.688 4.672-2.064 6.048-1.376 1.36-3.408 2.04-6.096 2.04s-4.704-.68-6.048-2.04c-1.344-1.376-2.016-3.392-2.016-6.048s.704-4.568 2.112-5.736c1.424-1.168 3.408-1.752 5.952-1.752s4.536.584 5.976 1.752c1.456 1.168 2.184 3.08 2.184 5.736zM136.098 19h-5.76c.016-1.04.032-2.264.048-3.672.016-1.424.024-3.008.024-4.752 0-.784-.144-1.344-.432-1.68-.272-.336-.752-.504-1.44-.504s-1.272.224-1.752.672c-.464.432-.696 1.184-.696 2.256v5.016c.016.576.024 1.072.024 1.488.016.416.024.808.024 1.176h-5.712l.048-3.24c.016-1.12.024-2.52.024-4.2 0-1.584-.008-2.976-.024-4.176-.016-1.2-.032-2.312-.048-3.336h5.712c-.016.464-.032.888-.048 1.272 0 .384-.008.784-.024 1.2l.144.048c.448-.96 1.088-1.656 1.92-2.088.832-.432 1.848-.648 3.048-.648 1.536 0 2.728.384 3.576 1.152.864.768 1.296 2.04 1.296 3.816 0 1.2-.008 2.168-.024 2.904a104.98 104.98 0 00-.024 2.28c0 .928.008 1.8.024 2.616.016.816.04 1.616.072 2.4zm17.726-14.952h5.736l-.048 3.264v8.352c.016 1.184.032 2.296.048 3.336h-5.712c.016-.464.024-.888.024-1.272l.048-1.2-.144-.024c-.432.944-1.064 1.64-1.896 2.088-.816.432-1.848.648-3.096.648-1.472 0-2.656-.376-3.552-1.128-.88-.768-1.32-1.992-1.32-3.672 0-1.248.008-2.264.024-3.048a128.834 128.834 0 000-4.968c0-.8-.016-1.592-.048-2.376h5.76c-.032 1.056-.056 2.32-.072 3.792v4.872c0 .752.144 1.296.432 1.632.288.32.76.48 1.416.48.688 0 1.264-.224 1.728-.672.48-.448.72-1.2.72-2.256V8.872c0-.832-.008-1.536-.024-2.112 0-.592-.008-1.096-.024-1.512v-1.2zM177.479 19h-5.76c.016-1.04.032-2.264.048-3.672.016-1.424.024-3.008.024-4.752 0-.784-.144-1.344-.432-1.68-.272-.336-.752-.504-1.44-.504s-1.272.224-1.752.672c-.464.432-.696 1.184-.696 2.256v5.016c.016.576.024 1.072.024 1.488.016.416.024.808.024 1.176h-5.712l.048-3.24c.016-1.12.024-2.52.024-4.2 0-1.584-.008-2.976-.024-4.176-.016-1.2-.032-2.312-.048-3.336h5.712c-.016.464-.032.888-.048 1.272 0 .384-.008.784-.024 1.2l.144.048c.448-.96 1.088-1.656 1.92-2.088.832-.432 1.848-.648 3.048-.648 1.536 0 2.728.384 3.576 1.152.864.768 1.296 2.04 1.296 3.816 0 1.2-.008 2.168-.024 2.904a104.98 104.98 0 00-.024 2.28c0 .928.008 1.8.024 2.616.016.816.04 1.616.072 2.4zM12.136 40.064v-3.792a4.55 4.55 0 00-1.056-.336 6.12 6.12 0 00-1.248-.12c-.848 0-1.488.264-1.92.792-.432.528-.648 1.488-.648 2.88 0 1.328.2 2.256.6 2.784.416.512.976.768 1.68.768.736 0 1.352-.24 1.848-.72s.744-1.232.744-2.256zm-.12-11.64h5.76c-.032 1.296-.048 2.68-.048 4.152V43.016c0 1.392.016 2.728.048 4.008H12.04v-.768c.016-.272.024-.552.024-.84v-.552c0-.192.008-.384.024-.576l-.168-.024c-.304.768-.824 1.456-1.56 2.064-.72.592-1.752.888-3.096.888-1.696 0-3.04-.584-4.032-1.752-.992-1.184-1.488-3.152-1.488-5.904 0-1.392.152-2.576.456-3.552.304-.992.712-1.792 1.224-2.4a4.77 4.77 0 011.848-1.368 6.146 6.146 0 012.304-.432c1.04 0 1.928.184 2.664.552a3.977 3.977 0 011.776 1.632l.072-.024a375.75 375.75 0 00-.048-1.2V31.52v-1.608c0-.496-.008-.992-.024-1.488zM30.013 39.32c0-1.248-.232-2.12-.696-2.616-.448-.496-1.08-.744-1.896-.744-.8 0-1.432.24-1.896.72-.464.48-.696 1.36-.696 2.64s.224 2.192.672 2.736c.464.544 1.104.816 1.92.816.832 0 1.472-.272 1.92-.816.448-.56.672-1.472.672-2.736zm5.568-.096c0 2.656-.688 4.672-2.064 6.048-1.376 1.36-3.408 2.04-6.096 2.04s-4.704-.68-6.048-2.04c-1.344-1.376-2.016-3.392-2.016-6.048s.704-4.568 2.112-5.736c1.424-1.168 3.408-1.752 5.952-1.752s4.536.584 5.976 1.752c1.456 1.168 2.184 3.08 2.184 5.736zm11.193 1.872v-.432c.352.032.736.056 1.152.072h1.32c.48 0 .952-.008 1.416-.024l1.32-.048V41c.016.096.024.2.024.312 0 .992-.128 1.864-.384 2.616A4.127 4.127 0 0150.35 45.8c-.592.496-1.384.872-2.376 1.128-.976.256-2.184.384-3.624.384-2.688 0-4.664-.632-5.928-1.896-1.264-1.264-1.896-3.28-1.896-6.048 0-2.704.648-4.648 1.944-5.832 1.296-1.2 3.272-1.8 5.928-1.8 2.528 0 4.416.408 5.664 1.224 1.248.816 1.872 2.296 1.872 4.44v.384c0 .128-.008.264-.024.408-.352-.016-.76-.024-1.224-.024a41.22 41.22 0 00-2.856 0c-.432 0-.784.008-1.056.024v-.336c-.016-.768-.184-1.304-.504-1.608-.32-.304-.904-.456-1.752-.456-.88 0-1.52.24-1.92.72-.384.48-.576 1.432-.576 2.856s.192 2.392.576 2.904c.384.496 1.032.744 1.944.744.816 0 1.384-.168 1.704-.504.336-.352.512-.824.528-1.416zm5.952-9.048l1.536.024c.016-.512.024-1.008.024-1.488v-1.368l1.344.048h2.832l1.368-.048-.048 1.416-.048 1.464h2.496c.816-.016 1.568-.032 2.256-.048-.016.736-.04 1.528-.072 2.376-.032.832-.04 1.624-.024 2.376a145.28 145.28 0 00-2.016-.048l-2.712-.048a68.475 68.475 0 00-.024 1.848v1.992c0 .544.136.928.408 1.152.272.224.744.336 1.416.336.56 0 1.08-.04 1.56-.12.48-.08.904-.192 1.272-.336.032.752.104 1.6.216 2.544s.216 1.784.312 2.52c-.704.176-1.392.312-2.064.408a16.12 16.12 0 01-2.304.144c-1.216 0-2.232-.128-3.048-.384-.8-.272-1.44-.648-1.92-1.128a4.13 4.13 0 01-1.032-1.728 8.372 8.372 0 01-.288-2.256v-2.328l.048-2.736-1.464-.024v-2.304c0-.864-.008-1.616-.024-2.256zm23.331 7.272c0-1.248-.232-2.12-.696-2.616-.448-.496-1.08-.744-1.896-.744-.8 0-1.432.24-1.896.72-.464.48-.696 1.36-.696 2.64s.224 2.192.672 2.736c.464.544 1.104.816 1.92.816.832 0 1.472-.272 1.92-.816.448-.56.672-1.472.672-2.736zm5.568-.096c0 2.656-.688 4.672-2.064 6.048-1.376 1.36-3.408 2.04-6.096 2.04s-4.704-.68-6.048-2.04c-1.344-1.376-2.016-3.392-2.016-6.048s.704-4.568 2.112-5.736c1.424-1.168 3.408-1.752 5.952-1.752s4.536.584 5.976 1.752c1.456 1.168 2.184 3.08 2.184 5.736zm6.201-3.96h.192c.336-1.216.856-2.08 1.56-2.592.72-.528 1.568-.792 2.544-.792.304 0 .592.024.864.072.288.032.56.08.816.144-.064.848-.128 1.8-.192 2.856A69.188 69.188 0 0093.49 38a5.909 5.909 0 00-.84-.192 5.839 5.839 0 00-.912-.072c-.96.016-1.632.264-2.016.744-.384.48-.576 1.392-.576 2.736 0 .944.008 1.944.024 3 .016 1.04.048 1.968.096 2.784h-6.048c.016-1.04.032-2.16.048-3.36.016-1.2.024-2.6.024-4.2 0-1.568-.008-2.928-.024-4.08 0-1.152-.016-2.256-.048-3.312h4.728c-.016.512-.04 1.032-.072 1.56a394.19 394.19 0 00-.048 1.656zm21.925 1.632v-.264c0-.448-.152-.776-.456-.984-.288-.224-.832-.336-1.632-.336-.768 0-1.296.088-1.584.264-.272.176-.408.416-.408.72 0 .16.032.32.096.48.08.144.24.28.48.408.24.128.584.248 1.032.36a22.72 22.72 0 001.8.288c2.192.304 3.696.816 4.512 1.536.816.72 1.224 1.808 1.224 3.264 0 1.536-.552 2.704-1.656 3.504-1.104.784-2.984 1.176-5.64 1.176-1.44 0-2.64-.096-3.6-.288-.944-.192-1.696-.472-2.256-.84-.544-.384-.928-.856-1.152-1.416-.224-.56-.336-1.208-.336-1.944v-.408l.048-.456c.336.016.736.04 1.2.072.464.032 1 .048 1.608.048.368 0 .72-.008 1.056-.024.352-.016.656-.032.912-.048 0 .064-.008.12-.024.168v.144c0 .448.168.792.504 1.032.336.224.936.336 1.8.336.752 0 1.272-.088 1.56-.264.288-.176.432-.44.432-.792 0-.4-.224-.712-.672-.936-.432-.224-1.328-.416-2.688-.576-1.152-.144-2.104-.344-2.856-.6-.736-.272-1.32-.6-1.752-.984a3.402 3.402 0 01-.888-1.392 6.456 6.456 0 01-.24-1.824c0-1.6.576-2.752 1.728-3.456 1.168-.72 3.016-1.08 5.544-1.08 2.672 0 4.528.352 5.568 1.056 1.056.704 1.584 1.792 1.584 3.264 0 .128-.008.264-.024.408 0 .144-.008.296-.024.456a22.57 22.57 0 00-1.32-.072 25.405 25.405 0 00-2.664-.024c-.336 0-.608.008-.816.024zm16.652 2.424c0-1.248-.232-2.12-.696-2.616-.448-.496-1.08-.744-1.896-.744-.8 0-1.432.24-1.896.72-.464.48-.696 1.36-.696 2.64s.224 2.192.672 2.736c.464.544 1.104.816 1.92.816.832 0 1.472-.272 1.92-.816.448-.56.672-1.472.672-2.736zm5.568-.096c0 2.656-.688 4.672-2.064 6.048-1.376 1.36-3.408 2.04-6.096 2.04s-4.704-.68-6.048-2.04c-1.344-1.376-2.016-3.392-2.016-6.048s.704-4.568 2.112-5.736c1.424-1.168 3.408-1.752 5.952-1.752s4.536.584 5.976 1.752c1.456 1.168 2.184 3.08 2.184 5.736zm7.209-.24v3.504c.304.16.64.288 1.008.384.384.096.808.144 1.272.144.864 0 1.496-.272 1.896-.816.4-.544.6-1.488.6-2.832 0-1.328-.192-2.224-.576-2.688-.368-.48-.936-.72-1.704-.72-.688 0-1.28.216-1.776.648-.48.432-.72 1.224-.72 2.376zm.072-4.728l.12.048c.448-.848 1.088-1.472 1.92-1.872.832-.416 1.8-.624 2.904-.624.864 0 1.632.128 2.304.384.688.256 1.256.68 1.704 1.272.448.576.784 1.36 1.008 2.352.24.976.36 2.184.36 3.624 0 2.848-.472 4.864-1.416 6.048-.928 1.168-2.248 1.752-3.96 1.752-1.344 0-2.392-.24-3.144-.72-.736-.48-1.28-1.024-1.632-1.632l-.144.024v1.464l.048.624h-5.76c.016-1.248.032-2.592.048-4.032.016-1.456.024-3.136.024-5.04 0-2.032-.008-3.832-.024-5.4 0-1.584-.008-2.952-.024-4.104h5.76a53.094 53.094 0 00-.024 1.608v1.848c-.016.464-.032.88-.048 1.248 0 .352-.008.728-.024 1.128zm16.58 1.008h.192c.336-1.216.856-2.08 1.56-2.592.72-.528 1.568-.792 2.544-.792.304 0 .592.024.864.072.288.032.56.08.816.144-.064.848-.128 1.8-.192 2.856a69.188 69.188 0 00-.12 3.048 5.909 5.909 0 00-.84-.192 5.839 5.839 0 00-.912-.072c-.96.016-1.632.264-2.016.744-.384.48-.576 1.392-.576 2.736 0 .944.008 1.944.024 3 .016 1.04.048 1.968.096 2.784h-6.048c.016-1.04.032-2.16.048-3.36.016-1.2.024-2.6.024-4.2 0-1.568-.008-2.928-.024-4.08 0-1.152-.016-2.256-.048-3.312h4.728c-.016.512-.04 1.032-.072 1.56a394.19 394.19 0 00-.048 1.656zm14.066-.072c-.736 0-1.304.208-1.704.624-.384.4-.624 1.24-.72 2.52.688.016 1.416.024 2.184.024.768 0 1.544-.008 2.328-.024a1.9 1.9 0 00.024-.312v-.336c0-.912-.16-1.552-.48-1.92-.32-.384-.864-.576-1.632-.576zm4.464 6.816c.496 0 .968-.008 1.416-.024.448-.016.856-.032 1.224-.048.032.864-.04 1.632-.216 2.304a3.354 3.354 0 01-1.056 1.704c-.512.448-1.248.792-2.208 1.032-.944.224-2.176.336-3.696.336-2.576 0-4.52-.608-5.832-1.824-1.296-1.232-1.944-3.208-1.944-5.928 0-2.864.68-4.88 2.04-6.048 1.376-1.184 3.344-1.776 5.904-1.776 1.36 0 2.496.136 3.408.408.912.272 1.632.664 2.16 1.176.544.512.928 1.152 1.152 1.92.224.768.336 1.64.336 2.616 0 .608-.016 1.152-.048 1.632-.016.48-.04.88-.072 1.2-.736-.016-1.624-.024-2.664-.024-1.04-.016-2.056-.024-3.048-.024h-2.088c-.64 0-1.2.008-1.68.024.064 1.168.288 1.976.672 2.424.4.448 1.016.672 1.848.672.768 0 1.288-.152 1.56-.456.288-.304.44-.76.456-1.368.288.016.632.032 1.032.048.416.016.864.024 1.344.024zM12.28 60.048h5.736l-.048 3.264v8.352c.016 1.184.032 2.296.048 3.336h-5.712c.016-.464.024-.888.024-1.272l.048-1.2-.144-.024c-.432.944-1.064 1.64-1.896 2.088-.816.432-1.848.648-3.096.648-1.472 0-2.656-.376-3.552-1.128-.88-.768-1.32-1.992-1.32-3.672 0-1.248.008-2.264.024-3.048a128.834 128.834 0 000-4.968c0-.8-.016-1.592-.048-2.376h5.76c-.032 1.056-.056 2.32-.072 3.792v4.872c0 .752.144 1.296.432 1.632.288.32.76.48 1.416.48.688 0 1.264-.224 1.728-.672.48-.448.72-1.2.72-2.256v-3.024c0-.832-.008-1.536-.024-2.112 0-.592-.008-1.096-.024-1.512v-1.2zM35.935 75h-5.76c.016-1.04.032-2.264.048-3.672.016-1.424.024-3.008.024-4.752 0-.784-.144-1.344-.432-1.68-.272-.336-.752-.504-1.44-.504s-1.272.224-1.752.672c-.464.432-.696 1.184-.696 2.256v5.016c.016.576.024 1.072.024 1.488.016.416.024.808.024 1.176h-5.712l.048-3.24c.016-1.12.024-2.52.024-4.2 0-1.584-.008-2.976-.024-4.176-.016-1.2-.032-2.312-.048-3.336h5.712c-.016.464-.032.888-.048 1.272 0 .384-.008.784-.024 1.2l.144.048c.448-.96 1.088-1.656 1.92-2.088.832-.432 1.848-.648 3.048-.648 1.536 0 2.728.384 3.576 1.152.864.768 1.296 2.04 1.296 3.816 0 1.2-.008 2.168-.024 2.904a104.98 104.98 0 00-.024 2.28c0 .928.008 1.8.024 2.616.016.816.04 1.616.072 2.4zm8.49-3.312c.736 0 1.312-.232 1.728-.696.432-.48.648-1.176.648-2.088a16.83 16.83 0 00-.96-.072c-.336-.016-.68-.024-1.032-.024-.736 0-1.28.12-1.632.36-.336.224-.504.584-.504 1.08 0 .512.128.88.384 1.104.272.224.728.336 1.368.336zm2.4-4.752v-1.2c0-.592-.144-1.04-.432-1.344-.288-.32-.776-.48-1.464-.48-.72 0-1.248.168-1.584.504-.336.32-.48.872-.432 1.656a18.975 18.975 0 00-1.032-.024c-.4-.016-.816-.024-1.248-.024-.512 0-1.016.008-1.512.024-.496 0-.904.024-1.224.072-.096-2.016.408-3.576 1.512-4.68 1.104-1.104 2.984-1.656 5.64-1.656 2.576 0 4.424.496 5.544 1.488 1.136.976 1.704 2.352 1.704 4.128 0 1.008-.016 1.912-.048 2.712-.016.784-.024 1.632-.024 2.544 0 .416.008.848.024 1.296l.048 1.248c.032.4.072.76.12 1.08.048.32.096.56.144.72H48.05c-.496 0-.816-.064-.96-.192-.128-.128-.192-.472-.192-1.032v-.6l.048-.672h-.144c-.304.912-.856 1.592-1.656 2.04-.784.448-1.792.672-3.024.672-1.52 0-2.68-.296-3.48-.888-.8-.592-1.2-1.648-1.2-3.168 0-1.552.528-2.664 1.584-3.336 1.072-.688 2.72-1.032 4.944-1.032.544 0 1.056.008 1.536.024.496.016.936.056 1.32.12zm22.89-6.888h5.689c-.288.944-.648 2.152-1.08 3.624-.416 1.472-.832 2.952-1.248 4.44A952.247 952.247 0 0171.9 72.24c-.352 1.28-.608 2.2-.768 2.76a45.154 45.154 0 00-1.584-.024 111.84 111.84 0 00-4.656 0c-.704 0-1.192.008-1.464.024-.16-.544-.432-1.448-.816-2.712-.368-1.28-.768-2.656-1.2-4.128-.432-1.488-.864-2.968-1.296-4.44-.432-1.488-.8-2.712-1.104-3.672h6.144c.048.304.12.72.216 1.248.112.512.232 1.088.36 1.728l.408 2.04c.16.72.312 1.424.456 2.112.144.704.272 1.376.384 2.016.128.624.24 1.192.336 1.704h.24c.096-.512.2-1.08.312-1.704.128-.64.272-1.32.432-2.04.144-.704.288-1.416.432-2.136.16-.72.304-1.4.432-2.04.128-.64.24-1.216.336-1.728.112-.512.184-.912.216-1.2zm12.622 11.64c.736 0 1.312-.232 1.728-.696.432-.48.648-1.176.648-2.088a16.83 16.83 0 00-.96-.072c-.336-.016-.68-.024-1.032-.024-.736 0-1.28.12-1.632.36-.336.224-.504.584-.504 1.08 0 .512.128.88.384 1.104.272.224.728.336 1.368.336zm2.4-4.752v-1.2c0-.592-.144-1.04-.432-1.344-.288-.32-.776-.48-1.464-.48-.72 0-1.248.168-1.584.504-.336.32-.48.872-.432 1.656a18.975 18.975 0 00-1.032-.024c-.4-.016-.816-.024-1.248-.024-.512 0-1.016.008-1.512.024-.496 0-.904.024-1.224.072-.096-2.016.408-3.576 1.512-4.68 1.104-1.104 2.984-1.656 5.64-1.656 2.576 0 4.424.496 5.544 1.488 1.136.976 1.704 2.352 1.704 4.128 0 1.008-.016 1.912-.048 2.712-.016.784-.024 1.632-.024 2.544 0 .416.008.848.024 1.296l.048 1.248c.032.4.072.76.12 1.08.048.32.096.56.144.72H85.96c-.496 0-.816-.064-.96-.192-.128-.128-.192-.472-.192-1.032v-.6l.048-.672h-.144c-.304.912-.856 1.592-1.656 2.04-.784.448-1.792.672-3.024.672-1.52 0-2.68-.296-3.48-.888-.8-.592-1.2-1.648-1.2-3.168 0-1.552.528-2.664 1.584-3.336 1.072-.688 2.72-1.032 4.944-1.032.544 0 1.056.008 1.536.024.496.016.936.056 1.32.12zm17.328 2.16v-.432c.352.032.736.056 1.152.072h1.32c.48 0 .952-.008 1.416-.024l1.32-.048V69c.016.096.024.2.024.312 0 .992-.128 1.864-.384 2.616a4.127 4.127 0 01-1.272 1.872c-.592.496-1.384.872-2.376 1.128-.976.256-2.184.384-3.624.384-2.688 0-4.664-.632-5.928-1.896-1.264-1.264-1.896-3.28-1.896-6.048 0-2.704.648-4.648 1.944-5.832 1.296-1.2 3.272-1.8 5.928-1.8 2.528 0 4.416.408 5.664 1.224 1.248.816 1.872 2.296 1.872 4.44v.384c0 .128-.008.264-.024.408-.352-.016-.76-.024-1.224-.024a41.22 41.22 0 00-2.856 0c-.432 0-.784.008-1.056.024v-.336c-.016-.768-.184-1.304-.504-1.608-.32-.304-.904-.456-1.752-.456-.88 0-1.52.24-1.92.72-.384.48-.576 1.432-.576 2.856s.192 2.392.576 2.904c.384.496 1.032.744 1.944.744.816 0 1.384-.168 1.704-.504.336-.352.512-.824.528-1.416zm16.8-9.048h5.736l-.048 3.264v8.352c.016 1.184.032 2.296.048 3.336h-5.712c.016-.464.024-.888.024-1.272l.048-1.2-.144-.024c-.432.944-1.064 1.64-1.896 2.088-.816.432-1.848.648-3.096.648-1.472 0-2.656-.376-3.552-1.128-.88-.768-1.32-1.992-1.32-3.672 0-1.248.008-2.264.024-3.048a128.834 128.834 0 000-4.968c0-.8-.016-1.592-.048-2.376h5.76c-.032 1.056-.056 2.32-.072 3.792v4.872c0 .752.144 1.296.432 1.632.288.32.76.48 1.416.48.688 0 1.264-.224 1.728-.672.48-.448.72-1.2.72-2.256v-3.024c0-.832-.008-1.536-.024-2.112 0-.592-.008-1.096-.024-1.512v-1.2zM142.52 75h-5.76c.016-1.04.032-2.264.048-3.672.016-1.424.024-3.008.024-4.752 0-.784-.144-1.344-.432-1.68-.272-.336-.752-.504-1.44-.504s-1.272.224-1.752.672c-.464.432-.696 1.184-.696 2.256v5.016c.016.576.024 1.072.024 1.488.016.416.024.808.024 1.176h-5.712l.048-3.24c.016-1.12.024-2.52.024-4.2 0-1.584-.008-2.976-.024-4.176-.016-1.2-.032-2.312-.048-3.336h5.712c-.016.464-.032.888-.048 1.272 0 .384-.008.784-.024 1.2l.144.048c.448-.96 1.088-1.656 1.92-2.088.832-.432 1.848-.648 3.048-.648 1.536 0 2.728.384 3.576 1.152.864.768 1.296 2.04 1.296 3.816 0 1.2-.008 2.168-.024 2.904a104.98 104.98 0 00-.024 2.28c0 .928.008 1.8.024 2.616.016.816.04 1.616.072 2.4zm8.491-3.312c.736 0 1.312-.232 1.728-.696.432-.48.648-1.176.648-2.088a16.83 16.83 0 00-.96-.072c-.336-.016-.68-.024-1.032-.024-.736 0-1.28.12-1.632.36-.336.224-.504.584-.504 1.08 0 .512.128.88.384 1.104.272.224.728.336 1.368.336zm2.4-4.752v-1.2c0-.592-.144-1.04-.432-1.344-.288-.32-.776-.48-1.464-.48-.72 0-1.248.168-1.584.504-.336.32-.48.872-.432 1.656a18.975 18.975 0 00-1.032-.024c-.4-.016-.816-.024-1.248-.024-.512 0-1.016.008-1.512.024-.496 0-.904.024-1.224.072-.096-2.016.408-3.576 1.512-4.68 1.104-1.104 2.984-1.656 5.64-1.656 2.576 0 4.424.496 5.544 1.488 1.136.976 1.704 2.352 1.704 4.128 0 1.008-.016 1.912-.048 2.712-.016.784-.024 1.632-.024 2.544 0 .416.008.848.024 1.296l.048 1.248c.032.4.072.76.12 1.08.048.32.096.56.144.72h-4.512c-.496 0-.816-.064-.96-.192-.128-.128-.192-.472-.192-1.032v-.6l.048-.672h-.144c-.304.912-.856 1.592-1.656 2.04-.784.448-1.792.672-3.024.672-1.52 0-2.68-.296-3.48-.888-.8-.592-1.2-1.648-1.2-3.168 0-1.552.528-2.664 1.584-3.336 1.072-.688 2.72-1.032 4.944-1.032.544 0 1.056.008 1.536.024.496.016.936.056 1.32.12zM11.488 97.096v-.432c.352.032.736.056 1.152.072h1.32c.48 0 .952-.008 1.416-.024l1.32-.048V97c.016.096.024.2.024.312 0 .992-.128 1.864-.384 2.616a4.127 4.127 0 01-1.272 1.872c-.592.496-1.384.872-2.376 1.128-.976.256-2.184.384-3.624.384-2.688 0-4.664-.632-5.928-1.896-1.264-1.264-1.896-3.28-1.896-6.048 0-2.704.648-4.648 1.944-5.832 1.296-1.2 3.272-1.8 5.928-1.8 2.528 0 4.416.408 5.664 1.224 1.248.816 1.872 2.296 1.872 4.44v.384c0 .128-.008.264-.024.408-.352-.016-.76-.024-1.224-.024a41.22 41.22 0 00-2.856 0c-.432 0-.784.008-1.056.024v-.336c-.016-.768-.184-1.304-.504-1.608-.32-.304-.904-.456-1.752-.456-.88 0-1.52.24-1.92.72-.384.48-.576 1.432-.576 2.856s.192 2.392.576 2.904c.384.496 1.032.744 1.944.744.816 0 1.384-.168 1.704-.504.336-.352.512-.824.528-1.416zm16.873-1.776c0-1.248-.232-2.12-.696-2.616-.448-.496-1.08-.744-1.896-.744-.8 0-1.432.24-1.896.72-.464.48-.696 1.36-.696 2.64s.224 2.192.672 2.736c.464.544 1.104.816 1.92.816.832 0 1.472-.272 1.92-.816.448-.56.672-1.472.672-2.736zm5.568-.096c0 2.656-.688 4.672-2.064 6.048-1.376 1.36-3.408 2.04-6.096 2.04s-4.704-.68-6.048-2.04c-1.344-1.376-2.016-3.392-2.016-6.048s.704-4.568 2.112-5.736c1.424-1.168 3.408-1.752 5.952-1.752s4.536.584 5.976 1.752c1.456 1.168 2.184 3.08 2.184 5.736zM51.194 103h-5.76c.016-1.04.032-2.264.048-3.672.016-1.424.024-3.008.024-4.752 0-.784-.144-1.344-.432-1.68-.272-.336-.752-.504-1.44-.504s-1.272.224-1.752.672c-.464.432-.696 1.184-.696 2.256v5.016c.016.576.024 1.072.024 1.488.016.416.024.808.024 1.176h-5.712l.048-3.24c.016-1.12.024-2.52.024-4.2 0-1.584-.008-2.976-.024-4.176-.016-1.2-.032-2.312-.048-3.336h5.712c-.016.464-.032.888-.048 1.272 0 .384-.008.784-.024 1.2l.144.048c.448-.96 1.088-1.656 1.92-2.088.832-.432 1.848-.648 3.048-.648 1.536 0 2.728.384 3.576 1.152.864.768 1.296 2.04 1.296 3.816 0 1.2-.008 2.168-.024 2.904a104.98 104.98 0 00-.024 2.28c0 .928.008 1.8.024 2.616.016.816.04 1.616.072 2.4zm1.146-14.952l1.536.024c.016-.512.024-1.008.024-1.488v-1.368l1.344.048h2.832l1.368-.048-.048 1.416-.048 1.464h2.496c.816-.016 1.568-.032 2.256-.048-.016.736-.04 1.528-.072 2.376-.032.832-.04 1.624-.024 2.376a145.28 145.28 0 00-2.016-.048l-2.712-.048a68.475 68.475 0 00-.024 1.848v1.992c0 .544.136.928.408 1.152.272.224.744.336 1.416.336.56 0 1.08-.04 1.56-.12.48-.08.904-.192 1.272-.336.032.752.104 1.6.216 2.544s.216 1.784.312 2.52c-.704.176-1.392.312-2.064.408a16.12 16.12 0 01-2.304.144c-1.216 0-2.232-.128-3.048-.384-.8-.272-1.44-.648-1.92-1.128a4.13 4.13 0 01-1.032-1.728 8.372 8.372 0 01-.288-2.256v-2.328l.048-2.736-1.464-.024v-2.304c0-.864-.008-1.616-.024-2.256zm18.119 3.216h.192c.336-1.216.856-2.08 1.56-2.592.72-.528 1.568-.792 2.544-.792.304 0 .592.024.864.072.288.032.56.08.816.144-.064.848-.128 1.8-.192 2.856a69.188 69.188 0 00-.12 3.048 5.909 5.909 0 00-.84-.192 5.839 5.839 0 00-.912-.072c-.96.016-1.632.264-2.016.744-.384.48-.576 1.392-.576 2.736 0 .944.008 1.944.024 3 .016 1.04.048 1.968.096 2.784H65.85c.016-1.04.032-2.16.048-3.36.016-1.2.024-2.6.024-4.2 0-1.568-.008-2.928-.024-4.08 0-1.152-.016-2.256-.048-3.312h4.728c-.016.512-.04 1.032-.072 1.56a394.19 394.19 0 00-.048 1.656zm12.992 8.424c.736 0 1.312-.232 1.728-.696.432-.48.648-1.176.648-2.088a16.83 16.83 0 00-.96-.072c-.336-.016-.68-.024-1.032-.024-.736 0-1.28.12-1.632.36-.336.224-.504.584-.504 1.08 0 .512.128.88.384 1.104.272.224.728.336 1.368.336zm2.4-4.752v-1.2c0-.592-.144-1.04-.432-1.344-.288-.32-.776-.48-1.464-.48-.72 0-1.248.168-1.584.504-.336.32-.48.872-.432 1.656a18.975 18.975 0 00-1.032-.024c-.4-.016-.816-.024-1.248-.024-.512 0-1.016.008-1.512.024-.496 0-.904.024-1.224.072-.096-2.016.408-3.576 1.512-4.68 1.104-1.104 2.984-1.656 5.64-1.656 2.576 0 4.424.496 5.544 1.488 1.136.976 1.704 2.352 1.704 4.128 0 1.008-.016 1.912-.048 2.712-.016.784-.024 1.632-.024 2.544 0 .416.008.848.024 1.296l.048 1.248c.032.4.072.76.12 1.08.048.32.096.56.144.72h-4.512c-.496 0-.816-.064-.96-.192-.128-.128-.192-.472-.192-1.032v-.6l.048-.672h-.144c-.304.912-.856 1.592-1.656 2.04-.784.448-1.792.672-3.024.672-1.52 0-2.68-.296-3.48-.888-.8-.592-1.2-1.648-1.2-3.168 0-1.552.528-2.664 1.584-3.336 1.072-.688 2.72-1.032 4.944-1.032.544 0 1.056.008 1.536.024.496.016.936.056 1.32.12zm20.682-3.744c-.736 0-1.304.208-1.704.624-.384.4-.624 1.24-.72 2.52.688.016 1.416.024 2.184.024.768 0 1.544-.008 2.328-.024a1.9 1.9 0 00.024-.312v-.336c0-.912-.16-1.552-.48-1.92-.32-.384-.864-.576-1.632-.576zm4.464 6.816c.496 0 .968-.008 1.416-.024.448-.016.856-.032 1.224-.048.032.864-.04 1.632-.216 2.304a3.354 3.354 0 01-1.056 1.704c-.512.448-1.248.792-2.208 1.032-.944.224-2.176.336-3.696.336-2.576 0-4.52-.608-5.832-1.824-1.296-1.232-1.944-3.208-1.944-5.928 0-2.864.68-4.88 2.04-6.048 1.376-1.184 3.344-1.776 5.904-1.776 1.36 0 2.496.136 3.408.408.912.272 1.632.664 2.16 1.176.544.512.928 1.152 1.152 1.92.224.768.336 1.64.336 2.616 0 .608-.016 1.152-.048 1.632-.016.48-.04.88-.072 1.2-.736-.016-1.624-.024-2.664-.024-1.04-.016-2.056-.024-3.048-.024h-2.088c-.64 0-1.2.008-1.68.024.064 1.168.288 1.976.672 2.424.4.448 1.016.672 1.848.672.768 0 1.288-.152 1.56-.456.288-.304.44-.76.456-1.368.288.016.632.032 1.032.048.416.016.864.024 1.344.024zM121.3 103h-5.736c.032-1.376.048-2.872.048-4.488a509.346 509.346 0 000-9.72c0-1.472-.016-2.928-.048-4.368h5.736a353.508 353.508 0 00-.072 4.32v10.08c.016 1.392.04 2.784.072 4.176zM12.712 113h6.144c-.32 1.12-.704 2.568-1.152 4.344-.448 1.76-.896 3.536-1.344 5.328-.432 1.776-.84 3.44-1.224 4.992a581.275 581.275 0 00-.792 3.336 69.463 69.463 0 00-1.992-.024c-.784-.016-1.632-.024-2.544-.024-1.2 0-2.168.008-2.904.024-.736 0-1.304.008-1.704.024l-.792-3.384a360.021 360.021 0 00-1.224-5.04 371.381 371.381 0 00-1.368-5.352c-.448-1.76-.84-3.168-1.176-4.224h6.552c.048.448.136 1.072.264 1.872.144.8.312 1.688.504 2.664.192.976.392 2.008.6 3.096.224 1.072.44 2.096.648 3.072.144.592.272 1.168.384 1.728.128.56.232 1.08.312 1.56h.048c.08-.48.176-1 .288-1.56.128-.576.264-1.16.408-1.752.208-.976.416-2.008.624-3.096A210.762 210.762 0 0012.4 114.8c.16-.8.264-1.4.312-1.8zm15.998 8.688c.784 0 1.36-.192 1.728-.576.384-.384.576-.976.576-1.776 0-.96-.216-1.592-.648-1.896-.416-.304-1.072-.456-1.968-.456-.256 0-.64.008-1.152.024-.512 0-1 .008-1.464.024v2.352c0 .768.008 1.52.024 2.256.336.016.752.024 1.248.024.512 0 1.064.008 1.656.024zm3.792 2.016v.144c1.232.16 2.136.48 2.712.96.592.464 1.04 1.296 1.344 2.496.192.688.376 1.376.552 2.064.176.688.32 1.232.432 1.632H32.19c-.448 0-.752-.128-.912-.384-.16-.272-.344-.864-.552-1.776-.144-.752-.28-1.36-.408-1.824-.128-.464-.28-.824-.456-1.08-.16-.256-.36-.424-.6-.504-.24-.096-.544-.144-.912-.144h-1.152a19.163 19.163 0 00-1.368 0c.016 1.152.048 2.216.096 3.192s.104 1.816.168 2.52h-6.072l.048-4.032c.032-1.408.048-3.064.048-4.968s-.008-3.552-.024-4.944c-.016-1.408-.04-2.76-.072-4.056h9.816c2.192 0 3.888.432 5.088 1.296 1.216.864 1.824 2.24 1.824 4.128 0 1.632-.328 2.864-.984 3.696-.656.816-1.744 1.344-3.264 1.584zm11.315 1.416v.336c0 .688.192 1.176.576 1.464.384.272 1.088.408 2.112.408 1.008 0 1.688-.112 2.04-.336.352-.24.528-.584.528-1.032 0-.256-.048-.488-.144-.696-.08-.224-.256-.424-.528-.6-.256-.176-.624-.336-1.104-.48-.48-.144-1.112-.272-1.896-.384-1.36-.192-2.488-.448-3.384-.768-.896-.32-1.6-.712-2.112-1.176a4.074 4.074 0 01-1.056-1.656c-.192-.624-.288-1.328-.288-2.112 0-1.696.64-3.024 1.92-3.984 1.28-.96 3.296-1.44 6.048-1.44 1.536 0 2.816.112 3.84.336 1.04.208 1.864.528 2.472.96.624.416 1.064.936 1.32 1.56.272.624.408 1.336.408 2.136 0 .16-.008.336-.024.528 0 .176-.008.36-.024.552a86.97 86.97 0 00-1.344-.048 53.914 53.914 0 00-1.584-.024h-1.176c-.368 0-.68.008-.936.024.016-.08.024-.16.024-.24v-.24c0-.48-.184-.864-.552-1.152-.368-.288-1.12-.432-2.256-.432-.864 0-1.464.12-1.8.36-.336.224-.504.528-.504.912 0 .208.032.416.096.624.08.192.248.376.504.552.272.176.656.344 1.152.504.496.144 1.168.28 2.016.408 2.448.368 4.168.992 5.16 1.872.992.88 1.488 2.192 1.488 3.936 0 1.744-.616 3.104-1.848 4.08-1.216.976-3.272 1.464-6.168 1.464-1.552 0-2.864-.112-3.936-.336-1.056-.208-1.904-.52-2.544-.936-.64-.416-1.104-.936-1.392-1.56-.272-.64-.408-1.376-.408-2.208v-.624l.048-.648c.4.032.88.064 1.44.096.56.032 1.12.048 1.68.048h1.152c.384-.016.712-.032.984-.048zm14.279-.048c.912 0 1.616.248 2.112.744s.744 1.256.744 2.28c0 1.04-.248 1.824-.744 2.352-.496.512-1.2.768-2.112.768-.912 0-1.616-.256-2.112-.768-.48-.528-.72-1.312-.72-2.352 0-1.024.248-1.784.744-2.28.496-.496 1.192-.744 2.088-.744z" fill="#fff"/><path d="M14.008 1h6.072a271.034 271.034 0 00-.072 4.008A451.387 451.387 0 0019.984 10c0 1.904.008 3.56.024 4.968.016 1.392.04 2.736.072 4.032h-6.072c.016-.432.024-.912.024-1.44.016-.528.024-1.072.024-1.632.016-.576.024-1.152.024-1.728.016-.576.024-1.12.024-1.632a37.034 37.034 0 00-1.368-.024H9.88c-.464 0-.912.008-1.344.024v3.336l.048 1.656c.016.528.032 1.008.048 1.44H2.56c.048-1.296.072-2.64.072-4.032.016-1.408.024-3.064.024-4.968s-.008-3.568-.024-4.992c0-1.44-.024-2.776-.072-4.008h6.072c-.016.416-.032.896-.048 1.44l-.048 1.656v3.456L9.88 7.6h2.856l1.368-.048c0-.544-.008-1.112-.024-1.704 0-.592-.008-1.176-.024-1.752 0-.576-.008-1.128-.024-1.656 0-.544-.008-1.024-.024-1.44zM28.78 15.688c.736 0 1.312-.232 1.728-.696.432-.48.648-1.176.648-2.088a16.83 16.83 0 00-.96-.072c-.336-.016-.68-.024-1.032-.024-.736 0-1.28.12-1.632.36-.336.224-.504.584-.504 1.08 0 .512.128.88.384 1.104.272.224.728.336 1.368.336zm2.4-4.752v-1.2c0-.592-.144-1.04-.432-1.344-.288-.32-.776-.48-1.464-.48-.72 0-1.248.168-1.584.504-.336.32-.48.872-.432 1.656a18.975 18.975 0 00-1.032-.024c-.4-.016-.816-.024-1.248-.024-.512 0-1.016.008-1.512.024-.496 0-.904.024-1.224.072-.096-2.016.408-3.576 1.512-4.68 1.104-1.104 2.984-1.656 5.64-1.656 2.576 0 4.424.496 5.544 1.488 1.136.976 1.704 2.352 1.704 4.128 0 1.008-.016 1.912-.048 2.712-.016.784-.024 1.632-.024 2.544 0 .416.008.848.024 1.296l.048 1.248c.032.4.072.76.12 1.08.048.32.096.56.144.72h-4.512c-.496 0-.816-.064-.96-.192-.128-.128-.192-.472-.192-1.032v-.6l.048-.672h-.144c-.304.912-.856 1.592-1.656 2.04-.784.448-1.792.672-3.024.672-1.52 0-2.68-.296-3.48-.888-.8-.592-1.2-1.648-1.2-3.168 0-1.552.528-2.664 1.584-3.336 1.072-.688 2.72-1.032 4.944-1.032.544 0 1.056.008 1.536.024.496.016.936.056 1.32.12zm13.344.048v3.504c.304.16.64.288 1.008.384.384.096.808.144 1.272.144.864 0 1.496-.272 1.896-.816.4-.544.6-1.488.6-2.832 0-1.328-.192-2.224-.576-2.688-.368-.48-.936-.72-1.704-.72-.688 0-1.28.216-1.776.648-.48.432-.72 1.224-.72 2.376zm.072-4.728l.12.048c.448-.848 1.088-1.472 1.92-1.872.832-.416 1.8-.624 2.904-.624.864 0 1.632.128 2.304.384.688.256 1.256.68 1.704 1.272.448.576.784 1.36 1.008 2.352.24.976.36 2.184.36 3.624 0 2.848-.472 4.864-1.416 6.048-.928 1.168-2.248 1.752-3.96 1.752-1.344 0-2.392-.24-3.144-.72-.736-.48-1.28-1.024-1.632-1.632l-.144.024v1.464l.048.624h-5.76c.016-1.248.032-2.592.048-4.032.016-1.456.024-3.136.024-5.04 0-2.032-.008-3.832-.024-5.4 0-1.584-.008-2.952-.024-4.104h5.76a53.094 53.094 0 00-.024 1.608V3.88c-.016.464-.032.88-.048 1.248 0 .352-.008.728-.024 1.128zM62.305 19h-5.736c.032-1.376.048-2.872.048-4.488a509.346 509.346 0 000-9.72c0-1.472-.016-2.928-.048-4.368h5.736a353.508 353.508 0 00-.072 4.32v10.08c.016 1.392.04 2.784.072 4.176zm8.63-3.312c.735 0 1.311-.232 1.727-.696.432-.48.648-1.176.648-2.088a16.83 16.83 0 00-.96-.072c-.336-.016-.68-.024-1.032-.024-.736 0-1.28.12-1.632.36-.336.224-.504.584-.504 1.08 0 .512.128.88.384 1.104.272.224.728.336 1.368.336zm2.4-4.752v-1.2c0-.592-.145-1.04-.433-1.344-.288-.32-.776-.48-1.464-.48-.72 0-1.248.168-1.584.504-.336.32-.48.872-.432 1.656a18.975 18.975 0 00-1.032-.024c-.4-.016-.816-.024-1.248-.024-.512 0-1.016.008-1.512.024-.496 0-.904.024-1.224.072-.096-2.016.408-3.576 1.512-4.68 1.104-1.104 2.984-1.656 5.64-1.656 2.576 0 4.424.496 5.544 1.488 1.136.976 1.704 2.352 1.704 4.128 0 1.008-.016 1.912-.048 2.712-.016.784-.024 1.632-.024 2.544 0 .416.008.848.024 1.296l.048 1.248c.032.4.072.76.12 1.08.048.32.096.56.144.72h-4.512c-.496 0-.816-.064-.96-.192-.128-.128-.192-.472-.192-1.032v-.6l.048-.672h-.144c-.304.912-.856 1.592-1.656 2.04-.784.448-1.792.672-3.024.672-1.52 0-2.68-.296-3.48-.888-.8-.592-1.2-1.648-1.2-3.168 0-1.552.528-2.664 1.584-3.336 1.072-.688 2.72-1.032 4.944-1.032.544 0 1.056.008 1.536.024.496.016.936.056 1.32.12zm23.058 2.16v-.432c.352.032.736.056 1.152.072h1.32c.48 0 .952-.008 1.416-.024l1.32-.048V13c.016.096.024.2.024.312 0 .992-.128 1.864-.384 2.616a4.125 4.125 0 01-1.272 1.872c-.592.496-1.384.872-2.376 1.128-.976.256-2.184.384-3.624.384-2.688 0-4.664-.632-5.928-1.896-1.264-1.264-1.896-3.28-1.896-6.048 0-2.704.648-4.648 1.944-5.832 1.296-1.2 3.272-1.8 5.928-1.8 2.528 0 4.416.408 5.664 1.224 1.248.816 1.872 2.296 1.872 4.44v.384c0 .128-.008.264-.024.408-.352-.016-.76-.024-1.224-.024a41.25 41.25 0 00-2.856 0c-.432 0-.784.008-1.056.024v-.336c-.016-.768-.184-1.304-.504-1.608-.32-.304-.904-.456-1.752-.456-.88 0-1.52.24-1.92.72-.384.48-.576 1.432-.576 2.856s.192 2.392.576 2.904c.384.496 1.032.744 1.944.744.816 0 1.384-.168 1.704-.504.336-.352.512-.824.528-1.416zm16.872-1.776c0-1.248-.232-2.12-.696-2.616-.448-.496-1.08-.744-1.896-.744-.8 0-1.432.24-1.896.72-.464.48-.696 1.36-.696 2.64s.224 2.192.672 2.736c.464.544 1.104.816 1.92.816.832 0 1.472-.272 1.92-.816.448-.56.672-1.472.672-2.736zm5.568-.096c0 2.656-.688 4.672-2.064 6.048-1.376 1.36-3.408 2.04-6.096 2.04s-4.704-.68-6.048-2.04c-1.344-1.376-2.016-3.392-2.016-6.048s.704-4.568 2.112-5.736c1.424-1.168 3.408-1.752 5.952-1.752s4.536.584 5.976 1.752c1.456 1.168 2.184 3.08 2.184 5.736zM136.098 19h-5.76c.016-1.04.032-2.264.048-3.672.016-1.424.024-3.008.024-4.752 0-.784-.144-1.344-.432-1.68-.272-.336-.752-.504-1.44-.504s-1.272.224-1.752.672c-.464.432-.696 1.184-.696 2.256v5.016c.016.576.024 1.072.024 1.488.016.416.024.808.024 1.176h-5.712l.048-3.24c.016-1.12.024-2.52.024-4.2 0-1.584-.008-2.976-.024-4.176-.016-1.2-.032-2.312-.048-3.336h5.712c-.016.464-.032.888-.048 1.272 0 .384-.008.784-.024 1.2l.144.048c.448-.96 1.088-1.656 1.92-2.088.832-.432 1.848-.648 3.048-.648 1.536 0 2.728.384 3.576 1.152.864.768 1.296 2.04 1.296 3.816 0 1.2-.008 2.168-.024 2.904a104.98 104.98 0 00-.024 2.28c0 .928.008 1.8.024 2.616.016.816.04 1.616.072 2.4zm17.726-14.952h5.736l-.048 3.264v8.352c.016 1.184.032 2.296.048 3.336h-5.712c.016-.464.024-.888.024-1.272l.048-1.2-.144-.024c-.432.944-1.064 1.64-1.896 2.088-.816.432-1.848.648-3.096.648-1.472 0-2.656-.376-3.552-1.128-.88-.768-1.32-1.992-1.32-3.672 0-1.248.008-2.264.024-3.048a128.834 128.834 0 000-4.968c0-.8-.016-1.592-.048-2.376h5.76c-.032 1.056-.056 2.32-.072 3.792v4.872c0 .752.144 1.296.432 1.632.288.32.76.48 1.416.48.688 0 1.264-.224 1.728-.672.48-.448.72-1.2.72-2.256V8.872c0-.832-.008-1.536-.024-2.112 0-.592-.008-1.096-.024-1.512v-1.2zM177.479 19h-5.76c.016-1.04.032-2.264.048-3.672.016-1.424.024-3.008.024-4.752 0-.784-.144-1.344-.432-1.68-.272-.336-.752-.504-1.44-.504s-1.272.224-1.752.672c-.464.432-.696 1.184-.696 2.256v5.016c.016.576.024 1.072.024 1.488.016.416.024.808.024 1.176h-5.712l.048-3.24c.016-1.12.024-2.52.024-4.2 0-1.584-.008-2.976-.024-4.176-.016-1.2-.032-2.312-.048-3.336h5.712c-.016.464-.032.888-.048 1.272 0 .384-.008.784-.024 1.2l.144.048c.448-.96 1.088-1.656 1.92-2.088.832-.432 1.848-.648 3.048-.648 1.536 0 2.728.384 3.576 1.152.864.768 1.296 2.04 1.296 3.816 0 1.2-.008 2.168-.024 2.904a104.98 104.98 0 00-.024 2.28c0 .928.008 1.8.024 2.616.016.816.04 1.616.072 2.4zM12.136 40.064v-3.792a4.55 4.55 0 00-1.056-.336 6.12 6.12 0 00-1.248-.12c-.848 0-1.488.264-1.92.792-.432.528-.648 1.488-.648 2.88 0 1.328.2 2.256.6 2.784.416.512.976.768 1.68.768.736 0 1.352-.24 1.848-.72s.744-1.232.744-2.256zm-.12-11.64h5.76c-.032 1.296-.048 2.68-.048 4.152V43.016c0 1.392.016 2.728.048 4.008H12.04v-.768c.016-.272.024-.552.024-.84v-.552c0-.192.008-.384.024-.576l-.168-.024c-.304.768-.824 1.456-1.56 2.064-.72.592-1.752.888-3.096.888-1.696 0-3.04-.584-4.032-1.752-.992-1.184-1.488-3.152-1.488-5.904 0-1.392.152-2.576.456-3.552.304-.992.712-1.792 1.224-2.4a4.77 4.77 0 011.848-1.368 6.146 6.146 0 012.304-.432c1.04 0 1.928.184 2.664.552a3.977 3.977 0 011.776 1.632l.072-.024a375.75 375.75 0 00-.048-1.2V31.52v-1.608c0-.496-.008-.992-.024-1.488zM30.013 39.32c0-1.248-.232-2.12-.696-2.616-.448-.496-1.08-.744-1.896-.744-.8 0-1.432.24-1.896.72-.464.48-.696 1.36-.696 2.64s.224 2.192.672 2.736c.464.544 1.104.816 1.92.816.832 0 1.472-.272 1.92-.816.448-.56.672-1.472.672-2.736zm5.568-.096c0 2.656-.688 4.672-2.064 6.048-1.376 1.36-3.408 2.04-6.096 2.04s-4.704-.68-6.048-2.04c-1.344-1.376-2.016-3.392-2.016-6.048s.704-4.568 2.112-5.736c1.424-1.168 3.408-1.752 5.952-1.752s4.536.584 5.976 1.752c1.456 1.168 2.184 3.08 2.184 5.736zm11.193 1.872v-.432c.352.032.736.056 1.152.072h1.32c.48 0 .952-.008 1.416-.024l1.32-.048V41c.016.096.024.2.024.312 0 .992-.128 1.864-.384 2.616A4.127 4.127 0 0150.35 45.8c-.592.496-1.384.872-2.376 1.128-.976.256-2.184.384-3.624.384-2.688 0-4.664-.632-5.928-1.896-1.264-1.264-1.896-3.28-1.896-6.048 0-2.704.648-4.648 1.944-5.832 1.296-1.2 3.272-1.8 5.928-1.8 2.528 0 4.416.408 5.664 1.224 1.248.816 1.872 2.296 1.872 4.44v.384c0 .128-.008.264-.024.408-.352-.016-.76-.024-1.224-.024a41.22 41.22 0 00-2.856 0c-.432 0-.784.008-1.056.024v-.336c-.016-.768-.184-1.304-.504-1.608-.32-.304-.904-.456-1.752-.456-.88 0-1.52.24-1.92.72-.384.48-.576 1.432-.576 2.856s.192 2.392.576 2.904c.384.496 1.032.744 1.944.744.816 0 1.384-.168 1.704-.504.336-.352.512-.824.528-1.416zm5.952-9.048l1.536.024c.016-.512.024-1.008.024-1.488v-1.368l1.344.048h2.832l1.368-.048-.048 1.416-.048 1.464h2.496c.816-.016 1.568-.032 2.256-.048-.016.736-.04 1.528-.072 2.376-.032.832-.04 1.624-.024 2.376a145.28 145.28 0 00-2.016-.048l-2.712-.048a68.475 68.475 0 00-.024 1.848v1.992c0 .544.136.928.408 1.152.272.224.744.336 1.416.336.56 0 1.08-.04 1.56-.12.48-.08.904-.192 1.272-.336.032.752.104 1.6.216 2.544s.216 1.784.312 2.52c-.704.176-1.392.312-2.064.408a16.12 16.12 0 01-2.304.144c-1.216 0-2.232-.128-3.048-.384-.8-.272-1.44-.648-1.92-1.128a4.13 4.13 0 01-1.032-1.728 8.372 8.372 0 01-.288-2.256v-2.328l.048-2.736-1.464-.024v-2.304c0-.864-.008-1.616-.024-2.256zm23.331 7.272c0-1.248-.232-2.12-.696-2.616-.448-.496-1.08-.744-1.896-.744-.8 0-1.432.24-1.896.72-.464.48-.696 1.36-.696 2.64s.224 2.192.672 2.736c.464.544 1.104.816 1.92.816.832 0 1.472-.272 1.92-.816.448-.56.672-1.472.672-2.736zm5.568-.096c0 2.656-.688 4.672-2.064 6.048-1.376 1.36-3.408 2.04-6.096 2.04s-4.704-.68-6.048-2.04c-1.344-1.376-2.016-3.392-2.016-6.048s.704-4.568 2.112-5.736c1.424-1.168 3.408-1.752 5.952-1.752s4.536.584 5.976 1.752c1.456 1.168 2.184 3.08 2.184 5.736zm6.201-3.96h.192c.336-1.216.856-2.08 1.56-2.592.72-.528 1.568-.792 2.544-.792.304 0 .592.024.864.072.288.032.56.08.816.144-.064.848-.128 1.8-.192 2.856A69.188 69.188 0 0093.49 38a5.909 5.909 0 00-.84-.192 5.839 5.839 0 00-.912-.072c-.96.016-1.632.264-2.016.744-.384.48-.576 1.392-.576 2.736 0 .944.008 1.944.024 3 .016 1.04.048 1.968.096 2.784h-6.048c.016-1.04.032-2.16.048-3.36.016-1.2.024-2.6.024-4.2 0-1.568-.008-2.928-.024-4.08 0-1.152-.016-2.256-.048-3.312h4.728c-.016.512-.04 1.032-.072 1.56a394.19 394.19 0 00-.048 1.656zm21.925 1.632v-.264c0-.448-.152-.776-.456-.984-.288-.224-.832-.336-1.632-.336-.768 0-1.296.088-1.584.264-.272.176-.408.416-.408.72 0 .16.032.32.096.48.08.144.24.28.48.408.24.128.584.248 1.032.36a22.72 22.72 0 001.8.288c2.192.304 3.696.816 4.512 1.536.816.72 1.224 1.808 1.224 3.264 0 1.536-.552 2.704-1.656 3.504-1.104.784-2.984 1.176-5.64 1.176-1.44 0-2.64-.096-3.6-.288-.944-.192-1.696-.472-2.256-.84-.544-.384-.928-.856-1.152-1.416-.224-.56-.336-1.208-.336-1.944v-.408l.048-.456c.336.016.736.04 1.2.072.464.032 1 .048 1.608.048.368 0 .72-.008 1.056-.024.352-.016.656-.032.912-.048 0 .064-.008.12-.024.168v.144c0 .448.168.792.504 1.032.336.224.936.336 1.8.336.752 0 1.272-.088 1.56-.264.288-.176.432-.44.432-.792 0-.4-.224-.712-.672-.936-.432-.224-1.328-.416-2.688-.576-1.152-.144-2.104-.344-2.856-.6-.736-.272-1.32-.6-1.752-.984a3.402 3.402 0 01-.888-1.392 6.456 6.456 0 01-.24-1.824c0-1.6.576-2.752 1.728-3.456 1.168-.72 3.016-1.08 5.544-1.08 2.672 0 4.528.352 5.568 1.056 1.056.704 1.584 1.792 1.584 3.264 0 .128-.008.264-.024.408 0 .144-.008.296-.024.456a22.57 22.57 0 00-1.32-.072 25.405 25.405 0 00-2.664-.024c-.336 0-.608.008-.816.024zm16.652 2.424c0-1.248-.232-2.12-.696-2.616-.448-.496-1.08-.744-1.896-.744-.8 0-1.432.24-1.896.72-.464.48-.696 1.36-.696 2.64s.224 2.192.672 2.736c.464.544 1.104.816 1.92.816.832 0 1.472-.272 1.92-.816.448-.56.672-1.472.672-2.736zm5.568-.096c0 2.656-.688 4.672-2.064 6.048-1.376 1.36-3.408 2.04-6.096 2.04s-4.704-.68-6.048-2.04c-1.344-1.376-2.016-3.392-2.016-6.048s.704-4.568 2.112-5.736c1.424-1.168 3.408-1.752 5.952-1.752s4.536.584 5.976 1.752c1.456 1.168 2.184 3.08 2.184 5.736zm7.209-.24v3.504c.304.16.64.288 1.008.384.384.096.808.144 1.272.144.864 0 1.496-.272 1.896-.816.4-.544.6-1.488.6-2.832 0-1.328-.192-2.224-.576-2.688-.368-.48-.936-.72-1.704-.72-.688 0-1.28.216-1.776.648-.48.432-.72 1.224-.72 2.376zm.072-4.728l.12.048c.448-.848 1.088-1.472 1.92-1.872.832-.416 1.8-.624 2.904-.624.864 0 1.632.128 2.304.384.688.256 1.256.68 1.704 1.272.448.576.784 1.36 1.008 2.352.24.976.36 2.184.36 3.624 0 2.848-.472 4.864-1.416 6.048-.928 1.168-2.248 1.752-3.96 1.752-1.344 0-2.392-.24-3.144-.72-.736-.48-1.28-1.024-1.632-1.632l-.144.024v1.464l.048.624h-5.76c.016-1.248.032-2.592.048-4.032.016-1.456.024-3.136.024-5.04 0-2.032-.008-3.832-.024-5.4 0-1.584-.008-2.952-.024-4.104h5.76a53.094 53.094 0 00-.024 1.608v1.848c-.016.464-.032.88-.048 1.248 0 .352-.008.728-.024 1.128zm16.58 1.008h.192c.336-1.216.856-2.08 1.56-2.592.72-.528 1.568-.792 2.544-.792.304 0 .592.024.864.072.288.032.56.08.816.144-.064.848-.128 1.8-.192 2.856a69.188 69.188 0 00-.12 3.048 5.909 5.909 0 00-.84-.192 5.839 5.839 0 00-.912-.072c-.96.016-1.632.264-2.016.744-.384.48-.576 1.392-.576 2.736 0 .944.008 1.944.024 3 .016 1.04.048 1.968.096 2.784h-6.048c.016-1.04.032-2.16.048-3.36.016-1.2.024-2.6.024-4.2 0-1.568-.008-2.928-.024-4.08 0-1.152-.016-2.256-.048-3.312h4.728c-.016.512-.04 1.032-.072 1.56a394.19 394.19 0 00-.048 1.656zm14.066-.072c-.736 0-1.304.208-1.704.624-.384.4-.624 1.24-.72 2.52.688.016 1.416.024 2.184.024.768 0 1.544-.008 2.328-.024a1.9 1.9 0 00.024-.312v-.336c0-.912-.16-1.552-.48-1.92-.32-.384-.864-.576-1.632-.576zm4.464 6.816c.496 0 .968-.008 1.416-.024.448-.016.856-.032 1.224-.048.032.864-.04 1.632-.216 2.304a3.354 3.354 0 01-1.056 1.704c-.512.448-1.248.792-2.208 1.032-.944.224-2.176.336-3.696.336-2.576 0-4.52-.608-5.832-1.824-1.296-1.232-1.944-3.208-1.944-5.928 0-2.864.68-4.88 2.04-6.048 1.376-1.184 3.344-1.776 5.904-1.776 1.36 0 2.496.136 3.408.408.912.272 1.632.664 2.16 1.176.544.512.928 1.152 1.152 1.92.224.768.336 1.64.336 2.616 0 .608-.016 1.152-.048 1.632-.016.48-.04.88-.072 1.2-.736-.016-1.624-.024-2.664-.024-1.04-.016-2.056-.024-3.048-.024h-2.088c-.64 0-1.2.008-1.68.024.064 1.168.288 1.976.672 2.424.4.448 1.016.672 1.848.672.768 0 1.288-.152 1.56-.456.288-.304.44-.76.456-1.368.288.016.632.032 1.032.048.416.016.864.024 1.344.024zM12.28 60.048h5.736l-.048 3.264v8.352c.016 1.184.032 2.296.048 3.336h-5.712c.016-.464.024-.888.024-1.272l.048-1.2-.144-.024c-.432.944-1.064 1.64-1.896 2.088-.816.432-1.848.648-3.096.648-1.472 0-2.656-.376-3.552-1.128-.88-.768-1.32-1.992-1.32-3.672 0-1.248.008-2.264.024-3.048a128.834 128.834 0 000-4.968c0-.8-.016-1.592-.048-2.376h5.76c-.032 1.056-.056 2.32-.072 3.792v4.872c0 .752.144 1.296.432 1.632.288.32.76.48 1.416.48.688 0 1.264-.224 1.728-.672.48-.448.72-1.2.72-2.256v-3.024c0-.832-.008-1.536-.024-2.112 0-.592-.008-1.096-.024-1.512v-1.2zM35.935 75h-5.76c.016-1.04.032-2.264.048-3.672.016-1.424.024-3.008.024-4.752 0-.784-.144-1.344-.432-1.68-.272-.336-.752-.504-1.44-.504s-1.272.224-1.752.672c-.464.432-.696 1.184-.696 2.256v5.016c.016.576.024 1.072.024 1.488.016.416.024.808.024 1.176h-5.712l.048-3.24c.016-1.12.024-2.52.024-4.2 0-1.584-.008-2.976-.024-4.176-.016-1.2-.032-2.312-.048-3.336h5.712c-.016.464-.032.888-.048 1.272 0 .384-.008.784-.024 1.2l.144.048c.448-.96 1.088-1.656 1.92-2.088.832-.432 1.848-.648 3.048-.648 1.536 0 2.728.384 3.576 1.152.864.768 1.296 2.04 1.296 3.816 0 1.2-.008 2.168-.024 2.904a104.98 104.98 0 00-.024 2.28c0 .928.008 1.8.024 2.616.016.816.04 1.616.072 2.4zm8.49-3.312c.736 0 1.312-.232 1.728-.696.432-.48.648-1.176.648-2.088a16.83 16.83 0 00-.96-.072c-.336-.016-.68-.024-1.032-.024-.736 0-1.28.12-1.632.36-.336.224-.504.584-.504 1.08 0 .512.128.88.384 1.104.272.224.728.336 1.368.336zm2.4-4.752v-1.2c0-.592-.144-1.04-.432-1.344-.288-.32-.776-.48-1.464-.48-.72 0-1.248.168-1.584.504-.336.32-.48.872-.432 1.656a18.975 18.975 0 00-1.032-.024c-.4-.016-.816-.024-1.248-.024-.512 0-1.016.008-1.512.024-.496 0-.904.024-1.224.072-.096-2.016.408-3.576 1.512-4.68 1.104-1.104 2.984-1.656 5.64-1.656 2.576 0 4.424.496 5.544 1.488 1.136.976 1.704 2.352 1.704 4.128 0 1.008-.016 1.912-.048 2.712-.016.784-.024 1.632-.024 2.544 0 .416.008.848.024 1.296l.048 1.248c.032.4.072.76.12 1.08.048.32.096.56.144.72H48.05c-.496 0-.816-.064-.96-.192-.128-.128-.192-.472-.192-1.032v-.6l.048-.672h-.144c-.304.912-.856 1.592-1.656 2.04-.784.448-1.792.672-3.024.672-1.52 0-2.68-.296-3.48-.888-.8-.592-1.2-1.648-1.2-3.168 0-1.552.528-2.664 1.584-3.336 1.072-.688 2.72-1.032 4.944-1.032.544 0 1.056.008 1.536.024.496.016.936.056 1.32.12zm22.89-6.888h5.689c-.288.944-.648 2.152-1.08 3.624-.416 1.472-.832 2.952-1.248 4.44A952.247 952.247 0 0171.9 72.24c-.352 1.28-.608 2.2-.768 2.76a45.154 45.154 0 00-1.584-.024 111.84 111.84 0 00-4.656 0c-.704 0-1.192.008-1.464.024-.16-.544-.432-1.448-.816-2.712-.368-1.28-.768-2.656-1.2-4.128-.432-1.488-.864-2.968-1.296-4.44-.432-1.488-.8-2.712-1.104-3.672h6.144c.048.304.12.72.216 1.248.112.512.232 1.088.36 1.728l.408 2.04c.16.72.312 1.424.456 2.112.144.704.272 1.376.384 2.016.128.624.24 1.192.336 1.704h.24c.096-.512.2-1.08.312-1.704.128-.64.272-1.32.432-2.04.144-.704.288-1.416.432-2.136.16-.72.304-1.4.432-2.04.128-.64.24-1.216.336-1.728.112-.512.184-.912.216-1.2zm12.622 11.64c.736 0 1.312-.232 1.728-.696.432-.48.648-1.176.648-2.088a16.83 16.83 0 00-.96-.072c-.336-.016-.68-.024-1.032-.024-.736 0-1.28.12-1.632.36-.336.224-.504.584-.504 1.08 0 .512.128.88.384 1.104.272.224.728.336 1.368.336zm2.4-4.752v-1.2c0-.592-.144-1.04-.432-1.344-.288-.32-.776-.48-1.464-.48-.72 0-1.248.168-1.584.504-.336.32-.48.872-.432 1.656a18.975 18.975 0 00-1.032-.024c-.4-.016-.816-.024-1.248-.024-.512 0-1.016.008-1.512.024-.496 0-.904.024-1.224.072-.096-2.016.408-3.576 1.512-4.68 1.104-1.104 2.984-1.656 5.64-1.656 2.576 0 4.424.496 5.544 1.488 1.136.976 1.704 2.352 1.704 4.128 0 1.008-.016 1.912-.048 2.712-.016.784-.024 1.632-.024 2.544 0 .416.008.848.024 1.296l.048 1.248c.032.4.072.76.12 1.08.048.32.096.56.144.72H85.96c-.496 0-.816-.064-.96-.192-.128-.128-.192-.472-.192-1.032v-.6l.048-.672h-.144c-.304.912-.856 1.592-1.656 2.04-.784.448-1.792.672-3.024.672-1.52 0-2.68-.296-3.48-.888-.8-.592-1.2-1.648-1.2-3.168 0-1.552.528-2.664 1.584-3.336 1.072-.688 2.72-1.032 4.944-1.032.544 0 1.056.008 1.536.024.496.016.936.056 1.32.12zm17.328 2.16v-.432c.352.032.736.056 1.152.072h1.32c.48 0 .952-.008 1.416-.024l1.32-.048V69c.016.096.024.2.024.312 0 .992-.128 1.864-.384 2.616a4.127 4.127 0 01-1.272 1.872c-.592.496-1.384.872-2.376 1.128-.976.256-2.184.384-3.624.384-2.688 0-4.664-.632-5.928-1.896-1.264-1.264-1.896-3.28-1.896-6.048 0-2.704.648-4.648 1.944-5.832 1.296-1.2 3.272-1.8 5.928-1.8 2.528 0 4.416.408 5.664 1.224 1.248.816 1.872 2.296 1.872 4.44v.384c0 .128-.008.264-.024.408-.352-.016-.76-.024-1.224-.024a41.22 41.22 0 00-2.856 0c-.432 0-.784.008-1.056.024v-.336c-.016-.768-.184-1.304-.504-1.608-.32-.304-.904-.456-1.752-.456-.88 0-1.52.24-1.92.72-.384.48-.576 1.432-.576 2.856s.192 2.392.576 2.904c.384.496 1.032.744 1.944.744.816 0 1.384-.168 1.704-.504.336-.352.512-.824.528-1.416zm16.8-9.048h5.736l-.048 3.264v8.352c.016 1.184.032 2.296.048 3.336h-5.712c.016-.464.024-.888.024-1.272l.048-1.2-.144-.024c-.432.944-1.064 1.64-1.896 2.088-.816.432-1.848.648-3.096.648-1.472 0-2.656-.376-3.552-1.128-.88-.768-1.32-1.992-1.32-3.672 0-1.248.008-2.264.024-3.048a128.834 128.834 0 000-4.968c0-.8-.016-1.592-.048-2.376h5.76c-.032 1.056-.056 2.32-.072 3.792v4.872c0 .752.144 1.296.432 1.632.288.32.76.48 1.416.48.688 0 1.264-.224 1.728-.672.48-.448.72-1.2.72-2.256v-3.024c0-.832-.008-1.536-.024-2.112 0-.592-.008-1.096-.024-1.512v-1.2zM142.52 75h-5.76c.016-1.04.032-2.264.048-3.672.016-1.424.024-3.008.024-4.752 0-.784-.144-1.344-.432-1.68-.272-.336-.752-.504-1.44-.504s-1.272.224-1.752.672c-.464.432-.696 1.184-.696 2.256v5.016c.016.576.024 1.072.024 1.488.016.416.024.808.024 1.176h-5.712l.048-3.24c.016-1.12.024-2.52.024-4.2 0-1.584-.008-2.976-.024-4.176-.016-1.2-.032-2.312-.048-3.336h5.712c-.016.464-.032.888-.048 1.272 0 .384-.008.784-.024 1.2l.144.048c.448-.96 1.088-1.656 1.92-2.088.832-.432 1.848-.648 3.048-.648 1.536 0 2.728.384 3.576 1.152.864.768 1.296 2.04 1.296 3.816 0 1.2-.008 2.168-.024 2.904a104.98 104.98 0 00-.024 2.28c0 .928.008 1.8.024 2.616.016.816.04 1.616.072 2.4zm8.491-3.312c.736 0 1.312-.232 1.728-.696.432-.48.648-1.176.648-2.088a16.83 16.83 0 00-.96-.072c-.336-.016-.68-.024-1.032-.024-.736 0-1.28.12-1.632.36-.336.224-.504.584-.504 1.08 0 .512.128.88.384 1.104.272.224.728.336 1.368.336zm2.4-4.752v-1.2c0-.592-.144-1.04-.432-1.344-.288-.32-.776-.48-1.464-.48-.72 0-1.248.168-1.584.504-.336.32-.48.872-.432 1.656a18.975 18.975 0 00-1.032-.024c-.4-.016-.816-.024-1.248-.024-.512 0-1.016.008-1.512.024-.496 0-.904.024-1.224.072-.096-2.016.408-3.576 1.512-4.68 1.104-1.104 2.984-1.656 5.64-1.656 2.576 0 4.424.496 5.544 1.488 1.136.976 1.704 2.352 1.704 4.128 0 1.008-.016 1.912-.048 2.712-.016.784-.024 1.632-.024 2.544 0 .416.008.848.024 1.296l.048 1.248c.032.4.072.76.12 1.08.048.32.096.56.144.72h-4.512c-.496 0-.816-.064-.96-.192-.128-.128-.192-.472-.192-1.032v-.6l.048-.672h-.144c-.304.912-.856 1.592-1.656 2.04-.784.448-1.792.672-3.024.672-1.52 0-2.68-.296-3.48-.888-.8-.592-1.2-1.648-1.2-3.168 0-1.552.528-2.664 1.584-3.336 1.072-.688 2.72-1.032 4.944-1.032.544 0 1.056.008 1.536.024.496.016.936.056 1.32.12zM11.488 97.096v-.432c.352.032.736.056 1.152.072h1.32c.48 0 .952-.008 1.416-.024l1.32-.048V97c.016.096.024.2.024.312 0 .992-.128 1.864-.384 2.616a4.127 4.127 0 01-1.272 1.872c-.592.496-1.384.872-2.376 1.128-.976.256-2.184.384-3.624.384-2.688 0-4.664-.632-5.928-1.896-1.264-1.264-1.896-3.28-1.896-6.048 0-2.704.648-4.648 1.944-5.832 1.296-1.2 3.272-1.8 5.928-1.8 2.528 0 4.416.408 5.664 1.224 1.248.816 1.872 2.296 1.872 4.44v.384c0 .128-.008.264-.024.408-.352-.016-.76-.024-1.224-.024a41.22 41.22 0 00-2.856 0c-.432 0-.784.008-1.056.024v-.336c-.016-.768-.184-1.304-.504-1.608-.32-.304-.904-.456-1.752-.456-.88 0-1.52.24-1.92.72-.384.48-.576 1.432-.576 2.856s.192 2.392.576 2.904c.384.496 1.032.744 1.944.744.816 0 1.384-.168 1.704-.504.336-.352.512-.824.528-1.416zm16.873-1.776c0-1.248-.232-2.12-.696-2.616-.448-.496-1.08-.744-1.896-.744-.8 0-1.432.24-1.896.72-.464.48-.696 1.36-.696 2.64s.224 2.192.672 2.736c.464.544 1.104.816 1.92.816.832 0 1.472-.272 1.92-.816.448-.56.672-1.472.672-2.736zm5.568-.096c0 2.656-.688 4.672-2.064 6.048-1.376 1.36-3.408 2.04-6.096 2.04s-4.704-.68-6.048-2.04c-1.344-1.376-2.016-3.392-2.016-6.048s.704-4.568 2.112-5.736c1.424-1.168 3.408-1.752 5.952-1.752s4.536.584 5.976 1.752c1.456 1.168 2.184 3.08 2.184 5.736zM51.194 103h-5.76c.016-1.04.032-2.264.048-3.672.016-1.424.024-3.008.024-4.752 0-.784-.144-1.344-.432-1.68-.272-.336-.752-.504-1.44-.504s-1.272.224-1.752.672c-.464.432-.696 1.184-.696 2.256v5.016c.016.576.024 1.072.024 1.488.016.416.024.808.024 1.176h-5.712l.048-3.24c.016-1.12.024-2.52.024-4.2 0-1.584-.008-2.976-.024-4.176-.016-1.2-.032-2.312-.048-3.336h5.712c-.016.464-.032.888-.048 1.272 0 .384-.008.784-.024 1.2l.144.048c.448-.96 1.088-1.656 1.92-2.088.832-.432 1.848-.648 3.048-.648 1.536 0 2.728.384 3.576 1.152.864.768 1.296 2.04 1.296 3.816 0 1.2-.008 2.168-.024 2.904a104.98 104.98 0 00-.024 2.28c0 .928.008 1.8.024 2.616.016.816.04 1.616.072 2.4zm1.146-14.952l1.536.024c.016-.512.024-1.008.024-1.488v-1.368l1.344.048h2.832l1.368-.048-.048 1.416-.048 1.464h2.496c.816-.016 1.568-.032 2.256-.048-.016.736-.04 1.528-.072 2.376-.032.832-.04 1.624-.024 2.376a145.28 145.28 0 00-2.016-.048l-2.712-.048a68.475 68.475 0 00-.024 1.848v1.992c0 .544.136.928.408 1.152.272.224.744.336 1.416.336.56 0 1.08-.04 1.56-.12.48-.08.904-.192 1.272-.336.032.752.104 1.6.216 2.544s.216 1.784.312 2.52c-.704.176-1.392.312-2.064.408a16.12 16.12 0 01-2.304.144c-1.216 0-2.232-.128-3.048-.384-.8-.272-1.44-.648-1.92-1.128a4.13 4.13 0 01-1.032-1.728 8.372 8.372 0 01-.288-2.256v-2.328l.048-2.736-1.464-.024v-2.304c0-.864-.008-1.616-.024-2.256zm18.119 3.216h.192c.336-1.216.856-2.08 1.56-2.592.72-.528 1.568-.792 2.544-.792.304 0 .592.024.864.072.288.032.56.08.816.144-.064.848-.128 1.8-.192 2.856a69.188 69.188 0 00-.12 3.048 5.909 5.909 0 00-.84-.192 5.839 5.839 0 00-.912-.072c-.96.016-1.632.264-2.016.744-.384.48-.576 1.392-.576 2.736 0 .944.008 1.944.024 3 .016 1.04.048 1.968.096 2.784H65.85c.016-1.04.032-2.16.048-3.36.016-1.2.024-2.6.024-4.2 0-1.568-.008-2.928-.024-4.08 0-1.152-.016-2.256-.048-3.312h4.728c-.016.512-.04 1.032-.072 1.56a394.19 394.19 0 00-.048 1.656zm12.992 8.424c.736 0 1.312-.232 1.728-.696.432-.48.648-1.176.648-2.088a16.83 16.83 0 00-.96-.072c-.336-.016-.68-.024-1.032-.024-.736 0-1.28.12-1.632.36-.336.224-.504.584-.504 1.08 0 .512.128.88.384 1.104.272.224.728.336 1.368.336zm2.4-4.752v-1.2c0-.592-.144-1.04-.432-1.344-.288-.32-.776-.48-1.464-.48-.72 0-1.248.168-1.584.504-.336.32-.48.872-.432 1.656a18.975 18.975 0 00-1.032-.024c-.4-.016-.816-.024-1.248-.024-.512 0-1.016.008-1.512.024-.496 0-.904.024-1.224.072-.096-2.016.408-3.576 1.512-4.68 1.104-1.104 2.984-1.656 5.64-1.656 2.576 0 4.424.496 5.544 1.488 1.136.976 1.704 2.352 1.704 4.128 0 1.008-.016 1.912-.048 2.712-.016.784-.024 1.632-.024 2.544 0 .416.008.848.024 1.296l.048 1.248c.032.4.072.76.12 1.08.048.32.096.56.144.72h-4.512c-.496 0-.816-.064-.96-.192-.128-.128-.192-.472-.192-1.032v-.6l.048-.672h-.144c-.304.912-.856 1.592-1.656 2.04-.784.448-1.792.672-3.024.672-1.52 0-2.68-.296-3.48-.888-.8-.592-1.2-1.648-1.2-3.168 0-1.552.528-2.664 1.584-3.336 1.072-.688 2.72-1.032 4.944-1.032.544 0 1.056.008 1.536.024.496.016.936.056 1.32.12zm20.682-3.744c-.736 0-1.304.208-1.704.624-.384.4-.624 1.24-.72 2.52.688.016 1.416.024 2.184.024.768 0 1.544-.008 2.328-.024a1.9 1.9 0 00.024-.312v-.336c0-.912-.16-1.552-.48-1.92-.32-.384-.864-.576-1.632-.576zm4.464 6.816c.496 0 .968-.008 1.416-.024.448-.016.856-.032 1.224-.048.032.864-.04 1.632-.216 2.304a3.354 3.354 0 01-1.056 1.704c-.512.448-1.248.792-2.208 1.032-.944.224-2.176.336-3.696.336-2.576 0-4.52-.608-5.832-1.824-1.296-1.232-1.944-3.208-1.944-5.928 0-2.864.68-4.88 2.04-6.048 1.376-1.184 3.344-1.776 5.904-1.776 1.36 0 2.496.136 3.408.408.912.272 1.632.664 2.16 1.176.544.512.928 1.152 1.152 1.92.224.768.336 1.64.336 2.616 0 .608-.016 1.152-.048 1.632-.016.48-.04.88-.072 1.2-.736-.016-1.624-.024-2.664-.024-1.04-.016-2.056-.024-3.048-.024h-2.088c-.64 0-1.2.008-1.68.024.064 1.168.288 1.976.672 2.424.4.448 1.016.672 1.848.672.768 0 1.288-.152 1.56-.456.288-.304.44-.76.456-1.368.288.016.632.032 1.032.048.416.016.864.024 1.344.024zM121.3 103h-5.736c.032-1.376.048-2.872.048-4.488a509.346 509.346 0 000-9.72c0-1.472-.016-2.928-.048-4.368h5.736a353.508 353.508 0 00-.072 4.32v10.08c.016 1.392.04 2.784.072 4.176zM12.712 113h6.144c-.32 1.12-.704 2.568-1.152 4.344-.448 1.76-.896 3.536-1.344 5.328-.432 1.776-.84 3.44-1.224 4.992a581.275 581.275 0 00-.792 3.336 69.463 69.463 0 00-1.992-.024c-.784-.016-1.632-.024-2.544-.024-1.2 0-2.168.008-2.904.024-.736 0-1.304.008-1.704.024l-.792-3.384a360.021 360.021 0 00-1.224-5.04 371.381 371.381 0 00-1.368-5.352c-.448-1.76-.84-3.168-1.176-4.224h6.552c.048.448.136 1.072.264 1.872.144.8.312 1.688.504 2.664.192.976.392 2.008.6 3.096.224 1.072.44 2.096.648 3.072.144.592.272 1.168.384 1.728.128.56.232 1.08.312 1.56h.048c.08-.48.176-1 .288-1.56.128-.576.264-1.16.408-1.752.208-.976.416-2.008.624-3.096A210.762 210.762 0 0012.4 114.8c.16-.8.264-1.4.312-1.8zm15.998 8.688c.784 0 1.36-.192 1.728-.576.384-.384.576-.976.576-1.776 0-.96-.216-1.592-.648-1.896-.416-.304-1.072-.456-1.968-.456-.256 0-.64.008-1.152.024-.512 0-1 .008-1.464.024v2.352c0 .768.008 1.52.024 2.256.336.016.752.024 1.248.024.512 0 1.064.008 1.656.024zm3.792 2.016v.144c1.232.16 2.136.48 2.712.96.592.464 1.04 1.296 1.344 2.496.192.688.376 1.376.552 2.064.176.688.32 1.232.432 1.632H32.19c-.448 0-.752-.128-.912-.384-.16-.272-.344-.864-.552-1.776-.144-.752-.28-1.36-.408-1.824-.128-.464-.28-.824-.456-1.08-.16-.256-.36-.424-.6-.504-.24-.096-.544-.144-.912-.144h-1.152a19.163 19.163 0 00-1.368 0c.016 1.152.048 2.216.096 3.192s.104 1.816.168 2.52h-6.072l.048-4.032c.032-1.408.048-3.064.048-4.968s-.008-3.552-.024-4.944c-.016-1.408-.04-2.76-.072-4.056h9.816c2.192 0 3.888.432 5.088 1.296 1.216.864 1.824 2.24 1.824 4.128 0 1.632-.328 2.864-.984 3.696-.656.816-1.744 1.344-3.264 1.584zm11.315 1.416v.336c0 .688.192 1.176.576 1.464.384.272 1.088.408 2.112.408 1.008 0 1.688-.112 2.04-.336.352-.24.528-.584.528-1.032 0-.256-.048-.488-.144-.696-.08-.224-.256-.424-.528-.6-.256-.176-.624-.336-1.104-.48-.48-.144-1.112-.272-1.896-.384-1.36-.192-2.488-.448-3.384-.768-.896-.32-1.6-.712-2.112-1.176a4.074 4.074 0 01-1.056-1.656c-.192-.624-.288-1.328-.288-2.112 0-1.696.64-3.024 1.92-3.984 1.28-.96 3.296-1.44 6.048-1.44 1.536 0 2.816.112 3.84.336 1.04.208 1.864.528 2.472.96.624.416 1.064.936 1.32 1.56.272.624.408 1.336.408 2.136 0 .16-.008.336-.024.528 0 .176-.008.36-.024.552a86.97 86.97 0 00-1.344-.048 53.914 53.914 0 00-1.584-.024h-1.176c-.368 0-.68.008-.936.024.016-.08.024-.16.024-.24v-.24c0-.48-.184-.864-.552-1.152-.368-.288-1.12-.432-2.256-.432-.864 0-1.464.12-1.8.36-.336.224-.504.528-.504.912 0 .208.032.416.096.624.08.192.248.376.504.552.272.176.656.344 1.152.504.496.144 1.168.28 2.016.408 2.448.368 4.168.992 5.16 1.872.992.88 1.488 2.192 1.488 3.936 0 1.744-.616 3.104-1.848 4.08-1.216.976-3.272 1.464-6.168 1.464-1.552 0-2.864-.112-3.936-.336-1.056-.208-1.904-.52-2.544-.936-.64-.416-1.104-.936-1.392-1.56-.272-.64-.408-1.376-.408-2.208v-.624l.048-.648c.4.032.88.064 1.44.096.56.032 1.12.048 1.68.048h1.152c.384-.016.712-.032.984-.048zm14.279-.048c.912 0 1.616.248 2.112.744s.744 1.256.744 2.28c0 1.04-.248 1.824-.744 2.352-.496.512-1.2.768-2.112.768-.912 0-1.616-.256-2.112-.768-.48-.528-.72-1.312-.72-2.352 0-1.024.248-1.784.744-2.28.496-.496 1.192-.744 2.088-.744z" fill="#fff"/></svg>