<svg width="934" height="408" viewBox="0 0 934 408" fill="none" xmlns="http://www.w3.org/2000/svg">
<g clip-path="url(#clip0_2115_2167)">
<mask id="mask0_2115_2167" style="mask-type:alpha" maskUnits="userSpaceOnUse" x="0" y="0" width="300" height="408">
<path d="M300 0H0V408H300V0Z" fill="#D9D9D9"/>
</mask>
<g mask="url(#mask0_2115_2167)">
<path d="M-147.868 456.39C-117.98 421.647 -80.1413 398.396 -37.0716 390.111C20.7552 378.975 77.3189 396.878 117.23 415.525C64.6909 316.383 73.1211 222.642 122.863 190.476C171.441 159.043 238.891 200.511 252.563 235.101C263.094 261.766 249.013 291.783 216.641 289.012C172.612 285.242 125.524 191.536 134.333 126.298C143.185 60.7844 216.233 13.372 314.601 21.5449" stroke="#CAFFD4" stroke-width="24" stroke-linejoin="bevel"/>
</g>
<mask id="mask1_2115_2167" style="mask-type:alpha" maskUnits="userSpaceOnUse" x="321" y="0" width="300" height="408">
<path d="M621 0H321V408H621V0Z" fill="#D9D9D9"/>
</mask>
<g mask="url(#mask1_2115_2167)">
<path d="M551.704 449.296C530.456 413.512 521.4 374.213 526.741 334.745C533.9 281.75 565.687 238.251 593.292 209.299C492.75 225.812 414.51 191.414 401.228 139.288C388.24 88.3766 443.461 42.3308 477.191 40.5794C503.19 39.2364 524.948 60.0473 513.19 87.1061C497.196 123.91 402.911 137.305 349.313 110.833C295.49 84.245 275.834 7.64576 311.351 -74.6516" stroke="#C9E19D" stroke-width="24" stroke-linejoin="bevel"/>
</g>
<mask id="mask2_2115_2167" style="mask-type:alpha" maskUnits="userSpaceOnUse" x="634" y="0" width="300" height="408">
<path d="M934 0H634V408H934V0Z" fill="#D9D9D9"/>
</mask>
<g mask="url(#mask2_2115_2167)">
<path d="M1004.97 -14.2004C966.516 2.23434 935.836 28.6981 916.699 63.7812C890.994 110.881 890.853 164.81 895.975 204.504C824.467 131.897 740.741 113.628 699.019 147.979C658.257 181.522 675.556 251.32 701.797 272.613C722.027 289.02 751.994 285.001 758.565 256.178C767.501 216.973 699.202 150.576 640.118 140.413C580.782 130.212 519.361 180.611 499.178 268.132" stroke="#C9E19D" stroke-width="24" stroke-linejoin="bevel"/>
</g>
</g>
<defs>
<clipPath id="clip0_2115_2167">
<rect width="934" height="408" fill="white"/>
</clipPath>
</defs>
</svg>
