<svg width="300" height="150" viewBox="0 0 300 150" fill="none" xmlns="http://www.w3.org/2000/svg"><path fill-rule="evenodd" clip-rule="evenodd" d="M90.585 62.378C28.655 74.458-37.728 79.391-99 78.376l.837-36.495c93.451 1.55 197-11.53 274.13-41.881l26.843 26.723-17.83-10.16c17.83 10.16 17.825 10.165 17.821 10.171l-.034.042-.059.074-.168.21c-.134.166-.314.386-.538.657-.448.54-1.076 1.285-1.883 2.208a179.63 179.63 0 01-6.998 7.53c-6.096 6.214-15.1 14.632-26.998 23.76-.299.23-.599.458-.901.688 12.531-.926 25.151-1.542 37.311-1.671 5.619-.081 11.143 1.248 15.88 3.822 4.774 2.594 8.534 6.336 10.803 10.75s2.945 9.302 1.942 14.043c-1.002 4.741-3.639 9.123-7.574 12.588l-.026.022c-9.967 8.747-25.722 19.457-48.958 28.042 54.184.087 112.47-9.76 162.632-33.343L358 128.1c-107.94 50.746-247.02 45.836-328.968 12.881l11.643-34.628a419.52 419.52 0 0015.5 1.242l-9.194-29.76a249.478 249.478 0 0043.604-15.457zm-4.212 45.823c22.943-.559 41.592-3.53 56.61-7.576-12.806 1.362-25.189 2.95-36.43 4.542a1202.424 1202.424 0 00-20.18 3.034z" fill="#F69170"/></svg>