<svg width="259" height="79" viewBox="0 0 259 79" fill="none" xmlns="http://www.w3.org/2000/svg"><path d="M10.248 9.688c.784 0 1.36-.192 1.728-.576.384-.384.576-.976.576-1.776 0-.96-.216-1.592-.648-1.896-.416-.304-1.072-.456-1.968-.456-.256 0-.64.008-1.152.024-.512 0-1 .008-1.464.024v2.352c0 .768.008 1.52.024 2.256.336.016.752.024 1.248.024.512 0 1.064.008 1.656.024zm3.792 2.016v.144c1.232.16 2.136.48 2.712.96.592.464 1.04 1.296 1.344 2.496.192.688.376 1.376.552 2.064.176.688.32 1.232.432 1.632h-5.352c-.448 0-.752-.128-.912-.384-.16-.272-.344-.864-.552-1.776-.144-.752-.28-1.36-.408-1.824-.128-.464-.28-.824-.456-1.08-.16-.256-.36-.424-.6-.504-.24-.096-.544-.144-.912-.144H8.736a19.163 19.163 0 00-1.368 0c.016 1.152.048 2.216.096 3.192s.104 1.816.168 2.52H1.56l.048-4.032c.032-1.408.048-3.064.048-4.968s-.008-3.552-.024-4.944C1.616 3.648 1.592 2.296 1.56 1h9.816c2.192 0 3.888.432 5.088 1.296 1.216.864 1.824 2.24 1.824 4.128 0 1.632-.328 2.864-.984 3.696-.656.816-1.744 1.344-3.264 1.584zm13.455-4.512c-.736 0-1.304.208-1.704.624-.384.4-.624 1.24-.72 2.52.688.016 1.416.024 2.184.024.768 0 1.544-.008 2.328-.024a1.9 1.9 0 00.024-.312v-.336c0-.912-.16-1.552-.48-1.92-.32-.384-.864-.576-1.632-.576zm4.464 6.816c.496 0 .968-.008 1.416-.024.448-.016.856-.032 1.224-.048.032.864-.04 1.632-.216 2.304a3.354 3.354 0 01-1.056 1.704c-.512.448-1.248.792-2.208 1.032-.944.224-2.176.336-3.696.336-2.576 0-4.52-.608-5.832-1.824-1.296-1.232-1.944-3.208-1.944-5.928 0-2.864.68-4.88 2.04-6.048 1.376-1.184 3.344-1.776 5.904-1.776 1.36 0 2.496.136 3.408.408.912.272 1.632.664 2.16 1.176.544.512.928 1.152 1.152 1.92.224.768.336 1.64.336 2.616 0 .608-.016 1.152-.048 1.632-.016.48-.04.88-.072 1.2-.736-.016-1.624-.024-2.664-.024-1.04-.016-2.056-.024-3.048-.024h-2.088c-.64 0-1.2.008-1.68.024.064 1.168.288 1.976.672 2.424.4.448 1.016.672 1.848.672.768 0 1.288-.152 1.56-.456.288-.304.44-.76.456-1.368.288.016.632.032 1.032.048.416.016.864.024 1.344.024zm14.166-.912v-.432c.352.032.736.056 1.152.072h1.32c.48 0 .952-.008 1.416-.024l1.32-.048V13c.016.096.024.2.024.312 0 .992-.128 1.864-.384 2.616a4.127 4.127 0 01-1.272 1.872c-.592.496-1.384.872-2.376 1.128-.976.256-2.184.384-3.624.384-2.688 0-4.664-.632-5.928-1.896-1.264-1.264-1.896-3.28-1.896-6.048 0-2.704.648-4.648 1.944-5.832 1.296-1.2 3.272-1.8 5.928-1.8 2.528 0 4.416.408 5.664 1.224 1.248.816 1.872 2.296 1.872 4.44v.384c0 .128-.008.264-.024.408-.352-.016-.76-.024-1.224-.024a41.22 41.22 0 00-2.856 0c-.432 0-.784.008-1.056.024v-.336c-.016-.768-.184-1.304-.504-1.608-.32-.304-.904-.456-1.752-.456-.88 0-1.52.24-1.92.72-.384.48-.576 1.432-.576 2.856s.192 2.392.576 2.904c.384.496 1.032.744 1.944.744.816 0 1.384-.168 1.704-.504.336-.352.512-.824.528-1.416zM59.158 1.672c0 .176-.04.352-.12.528-.064.176-.208.328-.432.456s-.552.232-.984.312c-.432.08-1 .12-1.704.12-.72 0-1.296-.04-1.728-.12-.432-.08-.768-.184-1.008-.312-.224-.128-.376-.28-.456-.456a1.536 1.536 0 01-.096-.528c0-.208.04-.392.12-.552.08-.16.232-.296.456-.408.24-.112.576-.2 1.008-.264.432-.064 1-.096 1.704-.096.688 0 1.248.032 1.68.096.432.064.76.152.984.264.224.112.376.248.456.408.08.16.12.344.12.552zM58.75 19h-5.712c.032-1.152.048-2.368.048-3.648a333.137 333.137 0 000-7.872l-.048-3.432h5.712a247.345 247.345 0 00-.072 3.48v8.136c.016 1.12.04 2.232.072 3.336zm7.884-8.016v3.504c.304.16.64.288 1.008.384.384.096.808.144 1.272.144.864 0 1.496-.272 1.896-.816.4-.544.6-1.488.6-2.832 0-1.328-.192-2.224-.576-2.688-.368-.48-.936-.72-1.704-.72-.688 0-1.28.216-1.776.648-.48.432-.72 1.224-.72 2.376zm.072-4.728l.12.048c.448-.848 1.088-1.472 1.92-1.872.832-.416 1.8-.624 2.904-.624.864 0 1.632.128 2.304.384.688.256 1.256.68 1.704 1.272.448.576.784 1.36 1.008 2.352.24.976.36 2.184.36 3.624 0 2.848-.472 4.864-1.416 6.048-.928 1.168-2.248 1.752-3.96 1.752-1.344 0-2.392-.24-3.144-.72-.736-.48-1.28-1.024-1.632-1.632l-.144.024v1.464l.048.624h-5.76c.016-1.248.032-2.592.048-4.032.016-1.456.024-3.136.024-5.04 0-2.032-.008-3.832-.024-5.4 0-1.584-.008-2.952-.024-4.104h5.76a53.094 53.094 0 00-.024 1.608V3.88c-.016.464-.032.88-.048 1.248 0 .352-.008.728-.024 1.128zm19.197.936c-.736 0-1.304.208-1.704.624-.384.4-.624 1.24-.72 2.52.688.016 1.416.024 2.184.024.768 0 1.544-.008 2.328-.024a1.9 1.9 0 00.024-.312v-.336c0-.912-.16-1.552-.48-1.92-.32-.384-.864-.576-1.632-.576zm4.464 6.816c.496 0 .968-.008 1.416-.024.448-.016.856-.032 1.224-.048.032.864-.04 1.632-.216 2.304a3.354 3.354 0 01-1.056 1.704c-.512.448-1.248.792-2.208 1.032-.944.224-2.176.336-3.696.336-2.576 0-4.52-.608-5.832-1.824-1.296-1.232-1.944-3.208-1.944-5.928 0-2.864.68-4.88 2.04-6.048 1.376-1.184 3.344-1.776 5.904-1.776 1.36 0 2.496.136 3.408.408.912.272 1.632.664 2.16 1.176.544.512.928 1.152 1.152 1.92.224.768.336 1.64.336 2.616 0 .608-.016 1.152-.048 1.632-.016.48-.04.88-.072 1.2-.736-.016-1.624-.024-2.664-.024-1.04-.016-2.056-.024-3.048-.024h-2.088c-.64 0-1.2.008-1.68.024.064 1.168.288 1.976.672 2.424.4.448 1.016.672 1.848.672.768 0 1.288-.152 1.56-.456.288-.304.44-.76.456-1.368.288.016.632.032 1.032.048.416.016.864.024 1.344.024zm9.361-9.96l1.536.024c.016-.512.024-1.008.024-1.488V1.216l1.344.048h2.832l1.368-.048-.048 1.416-.048 1.464h2.496c.816-.016 1.568-.032 2.256-.048-.016.736-.04 1.528-.072 2.376-.032.832-.04 1.624-.024 2.376a145.28 145.28 0 00-2.016-.048l-2.712-.048a68.475 68.475 0 00-.024 1.848v1.992c0 .544.136.928.408 1.152.272.224.744.336 1.416.336.56 0 1.08-.04 1.56-.12.48-.08.904-.192 1.272-.336.032.752.104 1.6.216 2.544s.216 1.784.312 2.52c-.704.176-1.392.312-2.064.408a16.12 16.12 0 01-2.304.144c-1.216 0-2.232-.128-3.048-.384-.8-.272-1.44-.648-1.92-1.128a4.13 4.13 0 01-1.032-1.728 8.372 8.372 0 01-.288-2.256v-2.328l.048-2.736-1.464-.024V6.304c0-.864-.008-1.616-.024-2.256zm23.259 0h5.736l-.048 3.264v8.352c.016 1.184.032 2.296.048 3.336h-5.712c.016-.464.024-.888.024-1.272l.048-1.2-.144-.024c-.432.944-1.064 1.64-1.896 2.088-.816.432-1.848.648-3.096.648-1.472 0-2.656-.376-3.552-1.128-.88-.768-1.32-1.992-1.32-3.672 0-1.248.008-2.264.024-3.048a128.834 128.834 0 000-4.968c0-.8-.016-1.592-.048-2.376h5.76c-.032 1.056-.056 2.32-.072 3.792v4.872c0 .752.144 1.296.432 1.632.288.32.76.48 1.416.48.688 0 1.264-.224 1.728-.672.48-.448.72-1.2.72-2.256V8.872c0-.832-.008-1.536-.024-2.112 0-.592-.008-1.096-.024-1.512v-1.2zm23.146 0h5.688c-.288.944-.648 2.152-1.08 3.624-.416 1.472-.832 2.952-1.248 4.44a952.247 952.247 0 01-1.176 4.128c-.352 1.28-.608 2.2-.768 2.76a45.154 45.154 0 00-1.584-.024 111.84 111.84 0 00-4.656 0c-.704 0-1.192.008-1.464.024-.16-.544-.432-1.448-.816-2.712-.368-1.28-.768-2.656-1.2-4.128-.432-1.488-.864-2.968-1.296-4.44-.432-1.488-.8-2.712-1.104-3.672h6.144c.048.304.12.72.216 1.248.112.512.232 1.088.36 1.728l.408 2.04c.16.72.312 1.424.456 2.112.144.704.272 1.376.384 2.016.128.624.24 1.192.336 1.704h.24c.096-.512.2-1.08.312-1.704.128-.64.272-1.32.432-2.04.144-.704.288-1.416.432-2.136.16-.72.304-1.4.432-2.04.128-.64.24-1.216.336-1.728.112-.512.184-.912.216-1.2zm12.621 11.64c.736 0 1.312-.232 1.728-.696.432-.48.648-1.176.648-2.088a16.83 16.83 0 00-.96-.072c-.336-.016-.68-.024-1.032-.024-.736 0-1.28.12-1.632.36-.336.224-.504.584-.504 1.08 0 .512.128.88.384 1.104.272.224.728.336 1.368.336zm2.4-4.752v-1.2c0-.592-.144-1.04-.432-1.344-.288-.32-.776-.48-1.464-.48-.72 0-1.248.168-1.584.504-.336.32-.48.872-.432 1.656a18.975 18.975 0 00-1.032-.024c-.4-.016-.816-.024-1.248-.024-.512 0-1.016.008-1.512.024-.496 0-.904.024-1.224.072-.096-2.016.408-3.576 1.512-4.68 1.104-1.104 2.984-1.656 5.64-1.656 2.576 0 4.424.496 5.544 1.488 1.136.976 1.704 2.352 1.704 4.128 0 1.008-.016 1.912-.048 2.712-.016.784-.024 1.632-.024 2.544 0 .416.008.848.024 1.296l.048 1.248c.032.4.072.76.12 1.08.048.32.096.56.144.72h-4.512c-.496 0-.816-.064-.96-.192-.128-.128-.192-.472-.192-1.032v-.6l.048-.672h-.144c-.304.912-.856 1.592-1.656 2.04-.784.448-1.792.672-3.024.672-1.52 0-2.68-.296-3.48-.888-.8-.592-1.2-1.648-1.2-3.168 0-1.552.528-2.664 1.584-3.336 1.072-.688 2.72-1.032 4.944-1.032.544 0 1.056.008 1.536.024.496.016.936.056 1.32.12zm17.327 2.16v-.432c.352.032.736.056 1.152.072h1.32c.48 0 .952-.008 1.416-.024l1.32-.048V13c.016.096.024.2.024.312 0 .992-.128 1.864-.384 2.616a4.127 4.127 0 01-1.272 1.872c-.592.496-1.384.872-2.376 1.128-.976.256-2.184.384-3.624.384-2.688 0-4.664-.632-5.928-1.896-1.264-1.264-1.896-3.28-1.896-6.048 0-2.704.648-4.648 1.944-5.832 1.296-1.2 3.272-1.8 5.928-1.8 2.528 0 4.416.408 5.664 1.224 1.248.816 1.872 2.296 1.872 4.44v.384c0 .128-.008.264-.024.408-.352-.016-.76-.024-1.224-.024a41.22 41.22 0 00-2.856 0c-.432 0-.784.008-1.056.024v-.336c-.016-.768-.184-1.304-.504-1.608-.32-.304-.904-.456-1.752-.456-.88 0-1.52.24-1.92.72-.384.48-.576 1.432-.576 2.856s.192 2.392.576 2.904c.384.496 1.032.744 1.944.744.816 0 1.384-.168 1.704-.504.336-.352.512-.824.528-1.416zm16.801-9.048h5.736l-.048 3.264v8.352c.016 1.184.032 2.296.048 3.336h-5.712c.016-.464.024-.888.024-1.272l.048-1.2-.144-.024c-.432.944-1.064 1.64-1.896 2.088-.816.432-1.848.648-3.096.648-1.472 0-2.656-.376-3.552-1.128-.88-.768-1.32-1.992-1.32-3.672 0-1.248.008-2.264.024-3.048a128.834 128.834 0 000-4.968c0-.8-.016-1.592-.048-2.376h5.76c-.032 1.056-.056 2.32-.072 3.792v4.872c0 .752.144 1.296.432 1.632.288.32.76.48 1.416.48.688 0 1.264-.224 1.728-.672.48-.448.72-1.2.72-2.256V8.872c0-.832-.008-1.536-.024-2.112 0-.592-.008-1.096-.024-1.512v-1.2zM218.937 19h-5.76c.016-1.04.032-2.264.048-3.672.016-1.424.024-3.008.024-4.752 0-.784-.144-1.344-.432-1.68-.272-.336-.752-.504-1.44-.504s-1.272.224-1.752.672c-.464.432-.696 1.184-.696 2.256v5.016c.016.576.024 1.072.024 1.488.016.416.024.808.024 1.176h-5.712l.048-3.24c.016-1.12.024-2.52.024-4.2 0-1.584-.008-2.976-.024-4.176-.016-1.2-.032-2.312-.048-3.336h5.712c-.016.464-.032.888-.048 1.272 0 .384-.008.784-.024 1.2l.144.048c.448-.96 1.088-1.656 1.92-2.088.832-.432 1.848-.648 3.048-.648 1.536 0 2.728.384 3.576 1.152.864.768 1.296 2.04 1.296 3.816 0 1.2-.008 2.168-.024 2.904a104.98 104.98 0 00-.024 2.28c0 .928.008 1.8.024 2.616.016.816.04 1.616.072 2.4zm8.491-3.312c.736 0 1.312-.232 1.728-.696.432-.48.648-1.176.648-2.088a16.83 16.83 0 00-.96-.072c-.336-.016-.68-.024-1.032-.024-.736 0-1.28.12-1.632.36-.336.224-.504.584-.504 1.08 0 .512.128.88.384 1.104.272.224.728.336 1.368.336zm2.4-4.752v-1.2c0-.592-.144-1.04-.432-1.344-.288-.32-.776-.48-1.464-.48-.72 0-1.248.168-1.584.504-.336.32-.48.872-.432 1.656a18.975 18.975 0 00-1.032-.024c-.4-.016-.816-.024-1.248-.024-.512 0-1.016.008-1.512.024-.496 0-.904.024-1.224.072-.096-2.016.408-3.576 1.512-4.68 1.104-1.104 2.984-1.656 5.64-1.656 2.576 0 4.424.496 5.544 1.488 1.136.976 1.704 2.352 1.704 4.128 0 1.008-.016 1.912-.048 2.712-.016.784-.024 1.632-.024 2.544 0 .416.008.848.024 1.296l.048 1.248c.032.4.072.76.12 1.08.048.32.096.56.144.72h-4.512c-.496 0-.816-.064-.96-.192-.128-.128-.192-.472-.192-1.032v-.6l.048-.672h-.144c-.304.912-.856 1.592-1.656 2.04-.784.448-1.792.672-3.024.672-1.52 0-2.68-.296-3.48-.888-.8-.592-1.2-1.648-1.2-3.168 0-1.552.528-2.664 1.584-3.336 1.072-.688 2.72-1.032 4.944-1.032.544 0 1.056.008 1.536.024.496.016.936.056 1.32.12zm22.89-6.888h5.64c-.24.704-.528 1.648-.864 2.832-.336 1.168-.68 2.368-1.032 3.6a304.496 304.496 0 01-.984 3.528 81.66 81.66 0 01-.768 2.568c-.32 1.04-.68 1.944-1.08 2.712-.4.768-.888 1.392-1.464 1.872-.56.496-1.24.864-2.04 1.104-.8.24-1.752.36-2.856.36-1.104 0-2.04-.072-2.808-.216a20.923 20.923 0 01-2.184-.48c.032-.192.08-.496.144-.912.08-.4.152-.832.216-1.296.08-.448.152-.88.216-1.296.064-.416.104-.728.12-.936.576.208 1.224.368 1.944.48.736.096 1.448.144 2.136.144.704 0 1.24-.112 1.608-.336.368-.224.656-.624.864-1.2a51.779 51.779 0 00-2.232 0c-.656 0-1.136.008-1.44.024a404.13 404.13 0 01-.696-2.28l-1.032-3.456a252.424 252.424 0 00-1.128-3.72 95.613 95.613 0 00-.96-3.096h6.12c.048.272.12.632.216 1.08a420.602 420.602 0 01.768 3.264c.144.608.288 1.208.432 1.8.176.736.32 1.432.432 2.088.128.64.24 1.232.336 1.776h.12c.112-.544.24-1.144.384-1.8.16-.656.32-1.352.48-2.088.144-.592.288-1.2.432-1.824.144-.624.28-1.208.408-1.752a114.834 114.834 0 00.552-2.544zM10.392 36.896v-.264c0-.448-.152-.776-.456-.984-.288-.224-.832-.336-1.632-.336-.768 0-1.296.088-1.584.264-.272.176-.408.416-.408.72 0 .16.032.32.096.48.08.144.24.28.48.408.24.128.584.248 1.032.36a22.72 22.72 0 001.8.288c2.192.304 3.696.816 4.512 1.536.816.72 1.224 1.808 1.224 3.264 0 1.536-.552 2.704-1.656 3.504-1.104.784-2.984 1.176-5.64 1.176-1.44 0-2.64-.096-3.6-.288-.944-.192-1.696-.472-2.256-.84-.544-.384-.928-.856-1.152-1.416-.224-.56-.336-1.208-.336-1.944v-.408l.048-.456c.336.016.736.04 1.2.072.464.032 1 .048 1.608.048.368 0 .72-.008 1.056-.024.352-.016.656-.032.912-.048 0 .064-.008.12-.024.168v.144c0 .448.168.792.504 1.032.336.224.936.336 1.8.336.752 0 1.272-.088 1.56-.264.288-.176.432-.44.432-.792 0-.4-.224-.712-.672-.936-.432-.224-1.328-.416-2.688-.576-1.152-.144-2.104-.344-2.856-.6-.736-.272-1.32-.6-1.752-.984a3.402 3.402 0 01-.888-1.392 6.456 6.456 0 01-.24-1.824c0-1.6.576-2.752 1.728-3.456 1.168-.72 3.016-1.08 5.544-1.08 2.672 0 4.528.352 5.568 1.056 1.056.704 1.584 1.792 1.584 3.264 0 .128-.008.264-.024.408 0 .144-.008.296-.024.456a22.57 22.57 0 00-1.32-.072 25.405 25.405 0 00-2.664-.024c-.336 0-.608.008-.816.024zm12.812-7.224c0 .176-.04.352-.12.528-.064.176-.208.328-.432.456s-.552.232-.984.312c-.432.08-1 .12-1.704.12-.72 0-1.296-.04-1.728-.12-.432-.08-.768-.184-1.008-.312-.224-.128-.376-.28-.456-.456a1.536 1.536 0 01-.096-.528c0-.208.04-.392.12-.552.08-.16.232-.296.456-.408.24-.112.576-.2 1.008-.264.432-.064 1-.096 1.704-.096.688 0 1.248.032 1.68.096.432.064.76.152.984.264.224.112.376.248.456.408.08.16.12.344.12.552zM22.796 47h-5.712c.032-1.152.048-2.368.048-3.648a333.137 333.137 0 000-7.872l-.048-3.432h5.712a247.345 247.345 0 00-.072 3.48v8.136c.016 1.12.04 2.232.072 3.336zm9.54.696c1.568 0 2.616-.088 3.144-.264.544-.176.816-.432.816-.768 0-.208-.08-.36-.24-.456-.144-.096-.456-.144-.936-.144-.864 0-1.824.04-2.88.12-1.04.08-1.952.12-2.736.12h-.384c-.112 0-.224-.008-.336-.024a.64.64 0 00-.144.216.59.59 0 00-.048.216c0 .176.048.328.144.456.096.128.28.232.552.312.272.08.648.136 1.128.168a30.99 30.99 0 001.92.048zm-.192-12.408c-.816 0-1.416.16-1.8.48-.384.32-.576.752-.576 1.296 0 .576.184 1.008.552 1.296.384.272.992.408 1.824.408.848 0 1.456-.136 1.824-.408.384-.288.576-.72.576-1.296 0-.544-.192-.976-.576-1.296-.384-.32-.992-.48-1.824-.48zm5.088.072v.144c.848.208 1.448.496 1.8.864.368.352.552.872.552 1.56 0 1.264-.552 2.232-1.656 2.904-1.104.656-3.056.984-5.856.984-.4 0-.792-.008-1.176-.024-.368-.032-.72-.064-1.056-.096-.064.144-.12.288-.168.432a1.578 1.578 0 00-.048.384c0 .208.08.368.24.48.16.096.408.144.744.144 1.168 0 2.24-.048 3.216-.144.992-.112 1.88-.168 2.664-.168 1.488 0 2.56.28 3.216.84.656.56.984 1.456.984 2.688 0 .736-.128 1.376-.384 1.92s-.704.984-1.344 1.32c-.624.336-1.488.584-2.592.744-1.104.176-2.488.264-4.152.264-1.728 0-3.12-.056-4.176-.168-1.056-.112-1.864-.272-2.424-.48-.544-.192-.904-.44-1.08-.744a1.849 1.849 0 01-.264-.984c0-.56.216-1 .648-1.32.432-.336 1.08-.584 1.944-.744v-.12c-.688-.176-1.168-.432-1.44-.768a1.91 1.91 0 01-.408-1.2c0-.672.264-1.224.792-1.656.544-.448 1.248-.784 2.112-1.008v-.072c-1.12-.352-1.928-.88-2.424-1.584-.496-.704-.744-1.576-.744-2.616 0-1.696.584-2.968 1.752-3.816 1.184-.864 3.04-1.296 5.568-1.296.144 0 .504.008 1.08.024h2.088c.816 0 1.696.008 2.64.024h2.664a10.56 10.56 0 00-.048.672v2.04c.016.336.024.584.024.744-.352 0-.832-.016-1.44-.048a88.888 88.888 0 01-1.848-.12zm14.585-3.312h5.736l-.048 3.264v8.352c.016 1.184.032 2.296.048 3.336H51.84c.016-.464.024-.888.024-1.272l.048-1.2-.144-.024c-.432.944-1.064 1.64-1.896 2.088-.816.432-1.848.648-3.096.648-1.472 0-2.656-.376-3.552-1.128-.88-.768-1.32-1.992-1.32-3.672 0-1.248.008-2.264.024-3.048a128.834 128.834 0 000-4.968c0-.8-.016-1.592-.048-2.376h5.76c-.032 1.056-.056 2.32-.072 3.792v4.872c0 .752.144 1.296.432 1.632.288.32.76.48 1.416.48.688 0 1.264-.224 1.728-.672.48-.448.72-1.2.72-2.256v-3.024c0-.832-.008-1.536-.024-2.112 0-.592-.008-1.096-.024-1.512v-1.2zm15.207 3.144c-.736 0-1.304.208-1.704.624-.384.4-.624 1.24-.72 2.52.688.016 1.416.024 2.184.024.768 0 1.544-.008 2.328-.024a1.9 1.9 0 00.024-.312v-.336c0-.912-.16-1.552-.48-1.92-.32-.384-.864-.576-1.632-.576zm4.464 6.816c.496 0 .968-.008 1.416-.024.448-.016.856-.032 1.224-.048.032.864-.04 1.632-.216 2.304a3.354 3.354 0 01-1.056 1.704c-.512.448-1.248.792-2.208 1.032-.944.224-2.176.336-3.696.336-2.576 0-4.52-.608-5.832-1.824-1.296-1.232-1.944-3.208-1.944-5.928 0-2.864.68-4.88 2.04-6.048 1.376-1.184 3.344-1.776 5.904-1.776 1.36 0 2.496.136 3.408.408.912.272 1.632.664 2.16 1.176.544.512.928 1.152 1.152 1.92.224.768.336 1.64.336 2.616 0 .608-.016 1.152-.048 1.632-.016.48-.04.88-.072 1.2-.736-.016-1.624-.024-2.664-.024-1.04-.016-2.056-.024-3.048-.024h-2.088c-.64 0-1.2.008-1.68.024.064 1.168.288 1.976.672 2.424.4.448 1.016.672 1.848.672.768 0 1.288-.152 1.56-.456.288-.304.44-.76.456-1.368.288.016.632.032 1.032.048.416.016.864.024 1.344.024zM97.457 47h-5.76c.016-1.056.032-2.28.048-3.672.016-1.408.024-2.992.024-4.752 0-.784-.144-1.344-.432-1.68-.272-.336-.752-.504-1.44-.504s-1.264.232-1.728.696c-.464.464-.696 1.256-.696 2.376v6.384L87.52 47h-5.736l.048-3.504c.016-1.2.024-2.712.024-4.536v-2.904c0-.976-.008-1.912-.024-2.808 0-.912-.008-1.776-.024-2.592 0-.832-.008-1.576-.024-2.232h5.784c-.016.704-.032 1.344-.048 1.92a63.992 63.992 0 00-.024 1.776c0 .432-.008.832-.024 1.2l-.048 1.176.144.024c.432-.944 1.056-1.632 1.872-2.064.832-.448 1.872-.672 3.12-.672 1.488 0 2.664.384 3.528 1.152.88.752 1.32 1.976 1.32 3.672 0 1.216-.008 2.224-.024 3.024v4.992c.016.8.04 1.592.072 2.376zm8.514-3.312c.736 0 1.312-.232 1.728-.696.432-.48.648-1.176.648-2.088a16.83 16.83 0 00-.96-.072c-.336-.016-.68-.024-1.032-.024-.736 0-1.28.12-1.632.36-.336.224-.504.584-.504 1.08 0 .512.128.88.384 1.104.272.224.728.336 1.368.336zm2.4-4.752v-1.2c0-.592-.144-1.04-.432-1.344-.288-.32-.776-.48-1.464-.48-.72 0-1.248.168-1.584.504-.336.32-.48.872-.432 1.656a18.975 18.975 0 00-1.032-.024c-.4-.016-.816-.024-1.248-.024-.512 0-1.016.008-1.512.024-.496 0-.904.024-1.224.072-.096-2.016.408-3.576 1.512-4.68 1.104-1.104 2.984-1.656 5.64-1.656 2.576 0 4.424.496 5.544 1.488 1.136.976 1.704 2.352 1.704 4.128 0 1.008-.016 1.912-.048 2.712-.016.784-.024 1.632-.024 2.544 0 .416.008.848.024 1.296l.048 1.248c.032.4.072.76.12 1.08.048.32.096.56.144.72h-4.512c-.496 0-.816-.064-.96-.192-.128-.128-.192-.472-.192-1.032v-.6l.048-.672h-.144c-.304.912-.856 1.592-1.656 2.04-.784.448-1.792.672-3.024.672-1.52 0-2.68-.296-3.48-.888-.8-.592-1.2-1.648-1.2-3.168 0-1.552.528-2.664 1.584-3.336 1.072-.688 2.72-1.032 4.944-1.032.544 0 1.056.008 1.536.024.496.016.936.056 1.32.12zm17.327 2.16v-.432c.352.032.736.056 1.152.072h1.32c.48 0 .952-.008 1.416-.024l1.32-.048V41c.016.096.024.2.024.312 0 .992-.128 1.864-.384 2.616a4.127 4.127 0 01-1.272 1.872c-.592.496-1.384.872-2.376 1.128-.976.256-2.184.384-3.624.384-2.688 0-4.664-.632-5.928-1.896-1.264-1.264-1.896-3.28-1.896-6.048 0-2.704.648-4.648 1.944-5.832 1.296-1.2 3.272-1.8 5.928-1.8 2.528 0 4.416.408 5.664 1.224 1.248.816 1.872 2.296 1.872 4.44v.384c0 .128-.008.264-.024.408-.352-.016-.76-.024-1.224-.024a41.22 41.22 0 00-2.856 0c-.432 0-.784.008-1.056.024v-.336c-.016-.768-.184-1.304-.504-1.608-.32-.304-.904-.456-1.752-.456-.88 0-1.52.24-1.92.72-.384.48-.576 1.432-.576 2.856s.192 2.392.576 2.904c.384.496 1.032.744 1.944.744.816 0 1.384-.168 1.704-.504.336-.352.512-.824.528-1.416zm13.033-11.424c0 .176-.04.352-.12.528-.064.176-.208.328-.432.456s-.552.232-.984.312c-.432.08-1 .12-1.704.12-.72 0-1.296-.04-1.728-.12-.432-.08-.768-.184-1.008-.312-.224-.128-.376-.28-.456-.456a1.536 1.536 0 01-.096-.528c0-.208.04-.392.12-.552.08-.16.232-.296.456-.408.24-.112.576-.2 1.008-.264.432-.064 1-.096 1.704-.096.688 0 1.248.032 1.68.096.432.064.76.152.984.264.224.112.376.248.456.408.08.16.12.344.12.552zM138.323 47h-5.712c.032-1.152.048-2.368.048-3.648a333.137 333.137 0 000-7.872l-.048-3.432h5.712a247.345 247.345 0 00-.072 3.48v8.136c.016 1.12.04 2.232.072 3.336zm9.492-11.808c-.736 0-1.304.208-1.704.624-.384.4-.624 1.24-.72 2.52.688.016 1.416.024 2.184.024.768 0 1.544-.008 2.328-.024a1.9 1.9 0 00.024-.312v-.336c0-.912-.16-1.552-.48-1.92-.32-.384-.864-.576-1.632-.576zm4.464 6.816c.496 0 .968-.008 1.416-.024.448-.016.856-.032 1.224-.048.032.864-.04 1.632-.216 2.304a3.354 3.354 0 01-1.056 1.704c-.512.448-1.248.792-2.208 1.032-.944.224-2.176.336-3.696.336-2.576 0-4.52-.608-5.832-1.824-1.296-1.232-1.944-3.208-1.944-5.928 0-2.864.68-4.88 2.04-6.048 1.376-1.184 3.344-1.776 5.904-1.776 1.36 0 2.496.136 3.408.408.912.272 1.632.664 2.16 1.176.544.512.928 1.152 1.152 1.92.224.768.336 1.64.336 2.616 0 .608-.016 1.152-.048 1.632-.016.48-.04.88-.072 1.2-.736-.016-1.624-.024-2.664-.024-1.04-.016-2.056-.024-3.048-.024h-2.088c-.64 0-1.2.008-1.68.024.064 1.168.288 1.976.672 2.424.4.448 1.016.672 1.848.672.768 0 1.288-.152 1.56-.456.288-.304.44-.76.456-1.368.288.016.632.032 1.032.048.416.016.864.024 1.344.024zM172.518 47h-5.76c.016-1.04.032-2.264.048-3.672.016-1.424.024-3.008.024-4.752 0-.784-.144-1.344-.432-1.68-.272-.336-.752-.504-1.44-.504s-1.272.224-1.752.672c-.464.432-.696 1.184-.696 2.256v5.016c.016.576.024 1.072.024 1.488.016.416.024.808.024 1.176h-5.712l.048-3.24c.016-1.12.024-2.52.024-4.2 0-1.584-.008-2.976-.024-4.176-.016-1.2-.032-2.312-.048-3.336h5.712c-.016.464-.032.888-.048 1.272 0 .384-.008.784-.024 1.2l.144.048c.448-.96 1.088-1.656 1.92-2.088.832-.432 1.848-.648 3.048-.648 1.536 0 2.728.384 3.576 1.152.864.768 1.296 2.04 1.296 3.816 0 1.2-.008 2.168-.024 2.904a104.98 104.98 0 00-.024 2.28c0 .928.008 1.8.024 2.616.016.816.04 1.616.072 2.4zm11.85-6.936v-3.792a4.55 4.55 0 00-1.056-.336 6.12 6.12 0 00-1.248-.12c-.848 0-1.488.264-1.92.792-.432.528-.648 1.488-.648 2.88 0 1.328.2 2.256.6 2.784.416.512.976.768 1.68.768.736 0 1.352-.24 1.848-.72s.744-1.232.744-2.256zm-.12-11.64h5.76c-.032 1.296-.048 2.68-.048 4.152V43.016c0 1.392.016 2.728.048 4.008h-5.736v-.768c.016-.272.024-.552.024-.84v-.552c0-.192.008-.384.024-.576l-.168-.024c-.304.768-.824 1.456-1.56 2.064-.72.592-1.752.888-3.096.888-1.696 0-3.04-.584-4.032-1.752-.992-1.184-1.488-3.152-1.488-5.904 0-1.392.152-2.576.456-3.552.304-.992.712-1.792 1.224-2.4a4.77 4.77 0 011.848-1.368 6.146 6.146 0 012.304-.432c1.04 0 1.928.184 2.664.552a3.977 3.977 0 011.776 1.632l.072-.024a375.75 375.75 0 00-.048-1.2V31.52v-1.608c0-.496-.008-.992-.024-1.488zm17.997 10.896c0-1.248-.232-2.12-.696-2.616-.448-.496-1.08-.744-1.896-.744-.8 0-1.432.24-1.896.72-.464.48-.696 1.36-.696 2.64s.224 2.192.672 2.736c.464.544 1.104.816 1.92.816.832 0 1.472-.272 1.92-.816.448-.56.672-1.472.672-2.736zm5.568-.096c0 2.656-.688 4.672-2.064 6.048-1.376 1.36-3.408 2.04-6.096 2.04s-4.704-.68-6.048-2.04c-1.344-1.376-2.016-3.392-2.016-6.048s.704-4.568 2.112-5.736c1.424-1.168 3.408-1.752 5.952-1.752s4.536.584 5.976 1.752c1.456 1.168 2.184 3.08 2.184 5.736zM11.088 68.064v-3.576a7.342 7.342 0 00-1.008-.432c-.368-.128-.8-.192-1.296-.192-.864 0-1.496.256-1.896.768-.384.496-.576 1.44-.576 2.832 0 1.44.192 2.408.576 2.904.384.48.92.72 1.608.72.736 0 1.352-.24 1.848-.72.496-.496.744-1.264.744-2.304zm-.072-8.016h5.76a236.66 236.66 0 00-.072 3.768V73.728c.016.832.024 1.632.024 2.4.016.784.032 1.488.048 2.112h-5.784c.016-.528.024-1.08.024-1.656.016-.576.024-1.128.024-1.656v-1.2l.048-1.104-.192-.048a4.515 4.515 0 01-1.728 1.944c-.752.48-1.752.72-3 .72-1.712 0-3.048-.592-4.008-1.776-.944-1.2-1.416-3.16-1.416-5.88 0-2.784.472-4.768 1.416-5.952.96-1.2 2.288-1.8 3.984-1.8 1.2 0 2.192.224 2.976.672.784.432 1.376.952 1.776 1.56l.144-.024v-.672a10.14 10.14 0 01-.024-.672v-.648zm17.901 0h5.736l-.048 3.264v8.352c.016 1.184.032 2.296.048 3.336h-5.712c.016-.464.024-.888.024-1.272l.048-1.2-.144-.024c-.432.944-1.064 1.64-1.896 2.088-.816.432-1.848.648-3.096.648-1.472 0-2.656-.376-3.552-1.128-.88-.768-1.32-1.992-1.32-3.672 0-1.248.008-2.264.024-3.048a128.834 128.834 0 000-4.968c0-.8-.016-1.592-.048-2.376h5.76c-.032 1.056-.056 2.32-.072 3.792v4.872c0 .752.144 1.296.432 1.632.288.32.76.48 1.416.48.688 0 1.264-.224 1.728-.672.48-.448.72-1.2.72-2.256v-3.024c0-.832-.008-1.536-.024-2.112 0-.592-.008-1.096-.024-1.512v-1.2zm15.207 3.144c-.736 0-1.304.208-1.704.624-.384.4-.624 1.24-.72 2.52.688.016 1.416.024 2.184.024.768 0 1.544-.008 2.328-.024a1.9 1.9 0 00.024-.312v-.336c0-.912-.16-1.552-.48-1.92-.32-.384-.864-.576-1.632-.576zm4.464 6.816c.496 0 .968-.008 1.416-.024.448-.016.856-.032 1.224-.048.032.864-.04 1.632-.216 2.304a3.354 3.354 0 01-1.056 1.704c-.512.448-1.248.792-2.208 1.032-.944.224-2.176.336-3.696.336-2.576 0-4.52-.608-5.832-1.824-1.296-1.232-1.944-3.208-1.944-5.928 0-2.864.68-4.88 2.04-6.048 1.376-1.184 3.344-1.776 5.904-1.776 1.36 0 2.496.136 3.408.408.912.272 1.632.664 2.16 1.176.544.512.928 1.152 1.152 1.92.224.768.336 1.64.336 2.616 0 .608-.016 1.152-.048 1.632-.016.48-.04.88-.072 1.2-.736-.016-1.624-.024-2.664-.024-1.04-.016-2.056-.024-3.048-.024h-2.088c-.64 0-1.2.008-1.68.024.064 1.168.288 1.976.672 2.424.4.448 1.016.672 1.848.672.768 0 1.288-.152 1.56-.456.288-.304.44-.76.456-1.368.288.016.632.032 1.032.048.416.016.864.024 1.344.024zm16.705 1.68c.736 0 1.313-.232 1.728-.696.433-.48.648-1.176.648-2.088a16.83 16.83 0 00-.96-.072c-.335-.016-.68-.024-1.032-.024-.736 0-1.28.12-1.632.36-.336.224-.504.584-.504 1.08 0 .512.129.88.385 1.104.272.224.727.336 1.367.336zm2.4-4.752v-1.2c0-.592-.144-1.04-.431-1.344-.288-.32-.776-.48-1.465-.48-.72 0-1.248.168-1.584.504-.335.32-.48.872-.431 1.656a18.975 18.975 0 00-1.032-.024c-.4-.016-.816-.024-1.248-.024-.513 0-1.017.008-1.513.024-.495 0-.903.024-1.223.072-.096-2.016.407-3.576 1.512-4.68 1.104-1.104 2.983-1.656 5.64-1.656 2.575 0 4.423.496 5.543 1.488 1.136.976 1.704 2.352 1.704 4.128 0 1.008-.016 1.912-.047 2.712-.016.784-.024 1.632-.024 2.544 0 .416.008.848.024 1.296l.047 1.248c.032.4.072.76.12 1.08.049.32.097.56.145.72h-4.513c-.496 0-.816-.064-.96-.192-.127-.128-.191-.472-.191-1.032v-.6l.047-.672h-.144c-.303.912-.855 1.592-1.656 2.04-.784.448-1.791.672-3.024.672-1.52 0-2.68-.296-3.48-.888-.8-.592-1.2-1.648-1.2-3.168 0-1.552.529-2.664 1.585-3.336 1.072-.688 2.72-1.032 4.944-1.032.544 0 1.056.008 1.536.024.496.016.936.056 1.32.12zM98.365 75h-5.208c.032-1.104.048-2.376.048-3.816.016-1.44.024-3.04.024-4.8 0-.688-.136-1.184-.408-1.488-.272-.32-.688-.48-1.248-.48-.592 0-1.096.2-1.512.6-.416.4-.624 1.112-.624 2.136v4.872c0 .608.008 1.152.024 1.632s.032.928.048 1.344h-5.16c.032-1.088.056-2.304.072-3.648.016-1.344.024-3.008.024-4.992 0-.64-.128-1.12-.384-1.44-.256-.336-.68-.504-1.272-.504s-1.104.2-1.536.6c-.416.4-.624 1.112-.624 2.136v4.872c.016 1.216.032 2.208.048 2.976h-5.256c.016-1.072.024-2.184.024-3.336.016-1.168.024-2.536.024-4.104 0-1.6-.008-2.984-.024-4.152 0-1.168-.008-2.288-.024-3.36h5.352c-.016.448-.032.864-.048 1.248-.016.368-.032.768-.048 1.2l.144.048c.432-.928 1-1.608 1.704-2.04.704-.448 1.568-.672 2.592-.672 1.104 0 2.016.256 2.736.768.72.496 1.184 1.192 1.392 2.088h.168c.432-1.056 1.056-1.792 1.872-2.208.816-.432 1.728-.648 2.736-.648 1.36 0 2.416.376 3.168 1.128.768.736 1.152 1.792 1.152 3.168 0 1.248-.016 2.344-.048 3.288-.016.928-.024 1.872-.024 2.832 0 .848.008 1.68.024 2.496.016.8.04 1.552.072 2.256zm8.508-3.312c.736 0 1.312-.232 1.728-.696.432-.48.648-1.176.648-2.088a16.83 16.83 0 00-.96-.072c-.336-.016-.68-.024-1.032-.024-.736 0-1.28.12-1.632.36-.336.224-.504.584-.504 1.08 0 .512.128.88.384 1.104.272.224.728.336 1.368.336zm2.4-4.752v-1.2c0-.592-.144-1.04-.432-1.344-.288-.32-.776-.48-1.464-.48-.72 0-1.248.168-1.584.504-.336.32-.48.872-.432 1.656a18.975 18.975 0 00-1.032-.024c-.4-.016-.816-.024-1.248-.024-.512 0-1.016.008-1.512.024-.496 0-.904.024-1.224.072-.096-2.016.408-3.576 1.512-4.68 1.104-1.104 2.984-1.656 5.64-1.656 2.576 0 4.424.496 5.544 1.488 1.136.976 1.704 2.352 1.704 4.128 0 1.008-.016 1.912-.048 2.712-.016.784-.024 1.632-.024 2.544 0 .416.008.848.024 1.296l.048 1.248c.032.4.072.76.12 1.08.048.32.096.56.144.72h-4.512c-.496 0-.816-.064-.96-.192-.128-.128-.192-.472-.192-1.032v-.6l.048-.672h-.144c-.304.912-.856 1.592-1.656 2.04-.784.448-1.792.672-3.024.672-1.52 0-2.68-.296-3.48-.888-.8-.592-1.2-1.648-1.2-3.168 0-1.552.528-2.664 1.584-3.336 1.072-.688 2.72-1.032 4.944-1.032.544 0 1.056.008 1.536.024.496.016.936.056 1.32.12zm16.751-2.04v-.264c0-.448-.152-.776-.456-.984-.288-.224-.832-.336-1.632-.336-.768 0-1.296.088-1.584.264-.272.176-.408.416-.408.72 0 .16.032.32.096.48.08.144.24.28.48.408.24.128.584.248 1.032.36a22.72 22.72 0 001.8.288c2.192.304 3.696.816 4.512 1.536.816.72 1.224 1.808 1.224 3.264 0 1.536-.552 2.704-1.656 3.504-1.104.784-2.984 1.176-5.64 1.176-1.44 0-2.64-.096-3.6-.288-.944-.192-1.696-.472-2.256-.84-.544-.384-.928-.856-1.152-1.416-.224-.56-.336-1.208-.336-1.944v-.408l.048-.456c.336.016.736.04 1.2.072.464.032 1 .048 1.608.048.368 0 .72-.008 1.056-.024.352-.016.656-.032.912-.048 0 .064-.008.12-.024.168v.144c0 .448.168.792.504 1.032.336.224.936.336 1.8.336.752 0 1.272-.088 1.56-.264.288-.176.432-.44.432-.792 0-.4-.224-.712-.672-.936-.432-.224-1.328-.416-2.688-.576-1.152-.144-2.104-.344-2.856-.6-.736-.272-1.32-.6-1.752-.984a3.402 3.402 0 01-.888-1.392 6.456 6.456 0 01-.24-1.824c0-1.6.576-2.752 1.728-3.456 1.168-.72 3.016-1.08 5.544-1.08 2.672 0 4.528.352 5.568 1.056 1.056.704 1.584 1.792 1.584 3.264 0 .128-.008.264-.024.408 0 .144-.008.296-.024.456a22.57 22.57 0 00-1.32-.072 25.405 25.405 0 00-2.664-.024c-.336 0-.608.008-.816.024zm8.3 4.176c.912 0 1.616.248 2.112.744s.744 1.256.744 2.28c0 1.04-.248 1.824-.744 2.352-.496.512-1.2.768-2.112.768-.912 0-1.616-.256-2.112-.768-.48-.528-.72-1.312-.72-2.352 0-1.024.248-1.784.744-2.28.496-.496 1.192-.744 2.088-.744z" fill="#fff"/><path d="M10.248 9.688c.784 0 1.36-.192 1.728-.576.384-.384.576-.976.576-1.776 0-.96-.216-1.592-.648-1.896-.416-.304-1.072-.456-1.968-.456-.256 0-.64.008-1.152.024-.512 0-1 .008-1.464.024v2.352c0 .768.008 1.52.024 2.256.336.016.752.024 1.248.024.512 0 1.064.008 1.656.024zm3.792 2.016v.144c1.232.16 2.136.48 2.712.96.592.464 1.04 1.296 1.344 2.496.192.688.376 1.376.552 2.064.176.688.32 1.232.432 1.632h-5.352c-.448 0-.752-.128-.912-.384-.16-.272-.344-.864-.552-1.776-.144-.752-.28-1.36-.408-1.824-.128-.464-.28-.824-.456-1.08-.16-.256-.36-.424-.6-.504-.24-.096-.544-.144-.912-.144H8.736a19.163 19.163 0 00-1.368 0c.016 1.152.048 2.216.096 3.192s.104 1.816.168 2.52H1.56l.048-4.032c.032-1.408.048-3.064.048-4.968s-.008-3.552-.024-4.944C1.616 3.648 1.592 2.296 1.56 1h9.816c2.192 0 3.888.432 5.088 1.296 1.216.864 1.824 2.24 1.824 4.128 0 1.632-.328 2.864-.984 3.696-.656.816-1.744 1.344-3.264 1.584zm13.455-4.512c-.736 0-1.304.208-1.704.624-.384.4-.624 1.24-.72 2.52.688.016 1.416.024 2.184.024.768 0 1.544-.008 2.328-.024a1.9 1.9 0 00.024-.312v-.336c0-.912-.16-1.552-.48-1.92-.32-.384-.864-.576-1.632-.576zm4.464 6.816c.496 0 .968-.008 1.416-.024.448-.016.856-.032 1.224-.048.032.864-.04 1.632-.216 2.304a3.354 3.354 0 01-1.056 1.704c-.512.448-1.248.792-2.208 1.032-.944.224-2.176.336-3.696.336-2.576 0-4.52-.608-5.832-1.824-1.296-1.232-1.944-3.208-1.944-5.928 0-2.864.68-4.88 2.04-6.048 1.376-1.184 3.344-1.776 5.904-1.776 1.36 0 2.496.136 3.408.408.912.272 1.632.664 2.16 1.176.544.512.928 1.152 1.152 1.92.224.768.336 1.64.336 2.616 0 .608-.016 1.152-.048 1.632-.016.48-.04.88-.072 1.2-.736-.016-1.624-.024-2.664-.024-1.04-.016-2.056-.024-3.048-.024h-2.088c-.64 0-1.2.008-1.68.024.064 1.168.288 1.976.672 2.424.4.448 1.016.672 1.848.672.768 0 1.288-.152 1.56-.456.288-.304.44-.76.456-1.368.288.016.632.032 1.032.048.416.016.864.024 1.344.024zm14.166-.912v-.432c.352.032.736.056 1.152.072h1.32c.48 0 .952-.008 1.416-.024l1.32-.048V13c.016.096.024.2.024.312 0 .992-.128 1.864-.384 2.616a4.127 4.127 0 01-1.272 1.872c-.592.496-1.384.872-2.376 1.128-.976.256-2.184.384-3.624.384-2.688 0-4.664-.632-5.928-1.896-1.264-1.264-1.896-3.28-1.896-6.048 0-2.704.648-4.648 1.944-5.832 1.296-1.2 3.272-1.8 5.928-1.8 2.528 0 4.416.408 5.664 1.224 1.248.816 1.872 2.296 1.872 4.44v.384c0 .128-.008.264-.024.408-.352-.016-.76-.024-1.224-.024a41.22 41.22 0 00-2.856 0c-.432 0-.784.008-1.056.024v-.336c-.016-.768-.184-1.304-.504-1.608-.32-.304-.904-.456-1.752-.456-.88 0-1.52.24-1.92.72-.384.48-.576 1.432-.576 2.856s.192 2.392.576 2.904c.384.496 1.032.744 1.944.744.816 0 1.384-.168 1.704-.504.336-.352.512-.824.528-1.416zM59.158 1.672c0 .176-.04.352-.12.528-.064.176-.208.328-.432.456s-.552.232-.984.312c-.432.08-1 .12-1.704.12-.72 0-1.296-.04-1.728-.12-.432-.08-.768-.184-1.008-.312-.224-.128-.376-.28-.456-.456a1.536 1.536 0 01-.096-.528c0-.208.04-.392.12-.552.08-.16.232-.296.456-.408.24-.112.576-.2 1.008-.264.432-.064 1-.096 1.704-.096.688 0 1.248.032 1.68.096.432.064.76.152.984.264.224.112.376.248.456.408.08.16.12.344.12.552zM58.75 19h-5.712c.032-1.152.048-2.368.048-3.648a333.137 333.137 0 000-7.872l-.048-3.432h5.712a247.345 247.345 0 00-.072 3.48v8.136c.016 1.12.04 2.232.072 3.336zm7.884-8.016v3.504c.304.16.64.288 1.008.384.384.096.808.144 1.272.144.864 0 1.496-.272 1.896-.816.4-.544.6-1.488.6-2.832 0-1.328-.192-2.224-.576-2.688-.368-.48-.936-.72-1.704-.72-.688 0-1.28.216-1.776.648-.48.432-.72 1.224-.72 2.376zm.072-4.728l.12.048c.448-.848 1.088-1.472 1.92-1.872.832-.416 1.8-.624 2.904-.624.864 0 1.632.128 2.304.384.688.256 1.256.68 1.704 1.272.448.576.784 1.36 1.008 2.352.24.976.36 2.184.36 3.624 0 2.848-.472 4.864-1.416 6.048-.928 1.168-2.248 1.752-3.96 1.752-1.344 0-2.392-.24-3.144-.72-.736-.48-1.28-1.024-1.632-1.632l-.144.024v1.464l.048.624h-5.76c.016-1.248.032-2.592.048-4.032.016-1.456.024-3.136.024-5.04 0-2.032-.008-3.832-.024-5.4 0-1.584-.008-2.952-.024-4.104h5.76a53.094 53.094 0 00-.024 1.608V3.88c-.016.464-.032.88-.048 1.248 0 .352-.008.728-.024 1.128zm19.197.936c-.736 0-1.304.208-1.704.624-.384.4-.624 1.24-.72 2.52.688.016 1.416.024 2.184.024.768 0 1.544-.008 2.328-.024a1.9 1.9 0 00.024-.312v-.336c0-.912-.16-1.552-.48-1.92-.32-.384-.864-.576-1.632-.576zm4.464 6.816c.496 0 .968-.008 1.416-.024.448-.016.856-.032 1.224-.048.032.864-.04 1.632-.216 2.304a3.354 3.354 0 01-1.056 1.704c-.512.448-1.248.792-2.208 1.032-.944.224-2.176.336-3.696.336-2.576 0-4.52-.608-5.832-1.824-1.296-1.232-1.944-3.208-1.944-5.928 0-2.864.68-4.88 2.04-6.048 1.376-1.184 3.344-1.776 5.904-1.776 1.36 0 2.496.136 3.408.408.912.272 1.632.664 2.16 1.176.544.512.928 1.152 1.152 1.92.224.768.336 1.64.336 2.616 0 .608-.016 1.152-.048 1.632-.016.48-.04.88-.072 1.2-.736-.016-1.624-.024-2.664-.024-1.04-.016-2.056-.024-3.048-.024h-2.088c-.64 0-1.2.008-1.68.024.064 1.168.288 1.976.672 2.424.4.448 1.016.672 1.848.672.768 0 1.288-.152 1.56-.456.288-.304.44-.76.456-1.368.288.016.632.032 1.032.048.416.016.864.024 1.344.024zm9.361-9.96l1.536.024c.016-.512.024-1.008.024-1.488V1.216l1.344.048h2.832l1.368-.048-.048 1.416-.048 1.464h2.496c.816-.016 1.568-.032 2.256-.048-.016.736-.04 1.528-.072 2.376-.032.832-.04 1.624-.024 2.376a145.28 145.28 0 00-2.016-.048l-2.712-.048a68.475 68.475 0 00-.024 1.848v1.992c0 .544.136.928.408 1.152.272.224.744.336 1.416.336.56 0 1.08-.04 1.56-.12.48-.08.904-.192 1.272-.336.032.752.104 1.6.216 2.544s.216 1.784.312 2.52c-.704.176-1.392.312-2.064.408a16.12 16.12 0 01-2.304.144c-1.216 0-2.232-.128-3.048-.384-.8-.272-1.44-.648-1.92-1.128a4.13 4.13 0 01-1.032-1.728 8.372 8.372 0 01-.288-2.256v-2.328l.048-2.736-1.464-.024V6.304c0-.864-.008-1.616-.024-2.256zm23.259 0h5.736l-.048 3.264v8.352c.016 1.184.032 2.296.048 3.336h-5.712c.016-.464.024-.888.024-1.272l.048-1.2-.144-.024c-.432.944-1.064 1.64-1.896 2.088-.816.432-1.848.648-3.096.648-1.472 0-2.656-.376-3.552-1.128-.88-.768-1.32-1.992-1.32-3.672 0-1.248.008-2.264.024-3.048a128.834 128.834 0 000-4.968c0-.8-.016-1.592-.048-2.376h5.76c-.032 1.056-.056 2.32-.072 3.792v4.872c0 .752.144 1.296.432 1.632.288.32.76.48 1.416.48.688 0 1.264-.224 1.728-.672.48-.448.72-1.2.72-2.256V8.872c0-.832-.008-1.536-.024-2.112 0-.592-.008-1.096-.024-1.512v-1.2zm23.146 0h5.688c-.288.944-.648 2.152-1.08 3.624-.416 1.472-.832 2.952-1.248 4.44a952.247 952.247 0 01-1.176 4.128c-.352 1.28-.608 2.2-.768 2.76a45.154 45.154 0 00-1.584-.024 111.84 111.84 0 00-4.656 0c-.704 0-1.192.008-1.464.024-.16-.544-.432-1.448-.816-2.712-.368-1.28-.768-2.656-1.2-4.128-.432-1.488-.864-2.968-1.296-4.44-.432-1.488-.8-2.712-1.104-3.672h6.144c.048.304.12.72.216 1.248.112.512.232 1.088.36 1.728l.408 2.04c.16.72.312 1.424.456 2.112.144.704.272 1.376.384 2.016.128.624.24 1.192.336 1.704h.24c.096-.512.2-1.08.312-1.704.128-.64.272-1.32.432-2.04.144-.704.288-1.416.432-2.136.16-.72.304-1.4.432-2.04.128-.64.24-1.216.336-1.728.112-.512.184-.912.216-1.2zm12.621 11.64c.736 0 1.312-.232 1.728-.696.432-.48.648-1.176.648-2.088a16.83 16.83 0 00-.96-.072c-.336-.016-.68-.024-1.032-.024-.736 0-1.28.12-1.632.36-.336.224-.504.584-.504 1.08 0 .512.128.88.384 1.104.272.224.728.336 1.368.336zm2.4-4.752v-1.2c0-.592-.144-1.04-.432-1.344-.288-.32-.776-.48-1.464-.48-.72 0-1.248.168-1.584.504-.336.32-.48.872-.432 1.656a18.975 18.975 0 00-1.032-.024c-.4-.016-.816-.024-1.248-.024-.512 0-1.016.008-1.512.024-.496 0-.904.024-1.224.072-.096-2.016.408-3.576 1.512-4.68 1.104-1.104 2.984-1.656 5.64-1.656 2.576 0 4.424.496 5.544 1.488 1.136.976 1.704 2.352 1.704 4.128 0 1.008-.016 1.912-.048 2.712-.016.784-.024 1.632-.024 2.544 0 .416.008.848.024 1.296l.048 1.248c.032.4.072.76.12 1.08.048.32.096.56.144.72h-4.512c-.496 0-.816-.064-.96-.192-.128-.128-.192-.472-.192-1.032v-.6l.048-.672h-.144c-.304.912-.856 1.592-1.656 2.04-.784.448-1.792.672-3.024.672-1.52 0-2.68-.296-3.48-.888-.8-.592-1.2-1.648-1.2-3.168 0-1.552.528-2.664 1.584-3.336 1.072-.688 2.72-1.032 4.944-1.032.544 0 1.056.008 1.536.024.496.016.936.056 1.32.12zm17.327 2.16v-.432c.352.032.736.056 1.152.072h1.32c.48 0 .952-.008 1.416-.024l1.32-.048V13c.016.096.024.2.024.312 0 .992-.128 1.864-.384 2.616a4.127 4.127 0 01-1.272 1.872c-.592.496-1.384.872-2.376 1.128-.976.256-2.184.384-3.624.384-2.688 0-4.664-.632-5.928-1.896-1.264-1.264-1.896-3.28-1.896-6.048 0-2.704.648-4.648 1.944-5.832 1.296-1.2 3.272-1.8 5.928-1.8 2.528 0 4.416.408 5.664 1.224 1.248.816 1.872 2.296 1.872 4.44v.384c0 .128-.008.264-.024.408-.352-.016-.76-.024-1.224-.024a41.22 41.22 0 00-2.856 0c-.432 0-.784.008-1.056.024v-.336c-.016-.768-.184-1.304-.504-1.608-.32-.304-.904-.456-1.752-.456-.88 0-1.52.24-1.92.72-.384.48-.576 1.432-.576 2.856s.192 2.392.576 2.904c.384.496 1.032.744 1.944.744.816 0 1.384-.168 1.704-.504.336-.352.512-.824.528-1.416zm16.801-9.048h5.736l-.048 3.264v8.352c.016 1.184.032 2.296.048 3.336h-5.712c.016-.464.024-.888.024-1.272l.048-1.2-.144-.024c-.432.944-1.064 1.64-1.896 2.088-.816.432-1.848.648-3.096.648-1.472 0-2.656-.376-3.552-1.128-.88-.768-1.32-1.992-1.32-3.672 0-1.248.008-2.264.024-3.048a128.834 128.834 0 000-4.968c0-.8-.016-1.592-.048-2.376h5.76c-.032 1.056-.056 2.32-.072 3.792v4.872c0 .752.144 1.296.432 1.632.288.32.76.48 1.416.48.688 0 1.264-.224 1.728-.672.48-.448.72-1.2.72-2.256V8.872c0-.832-.008-1.536-.024-2.112 0-.592-.008-1.096-.024-1.512v-1.2zM218.937 19h-5.76c.016-1.04.032-2.264.048-3.672.016-1.424.024-3.008.024-4.752 0-.784-.144-1.344-.432-1.68-.272-.336-.752-.504-1.44-.504s-1.272.224-1.752.672c-.464.432-.696 1.184-.696 2.256v5.016c.016.576.024 1.072.024 1.488.016.416.024.808.024 1.176h-5.712l.048-3.24c.016-1.12.024-2.52.024-4.2 0-1.584-.008-2.976-.024-4.176-.016-1.2-.032-2.312-.048-3.336h5.712c-.016.464-.032.888-.048 1.272 0 .384-.008.784-.024 1.2l.144.048c.448-.96 1.088-1.656 1.92-2.088.832-.432 1.848-.648 3.048-.648 1.536 0 2.728.384 3.576 1.152.864.768 1.296 2.04 1.296 3.816 0 1.2-.008 2.168-.024 2.904a104.98 104.98 0 00-.024 2.28c0 .928.008 1.8.024 2.616.016.816.04 1.616.072 2.4zm8.491-3.312c.736 0 1.312-.232 1.728-.696.432-.48.648-1.176.648-2.088a16.83 16.83 0 00-.96-.072c-.336-.016-.68-.024-1.032-.024-.736 0-1.28.12-1.632.36-.336.224-.504.584-.504 1.08 0 .512.128.88.384 1.104.272.224.728.336 1.368.336zm2.4-4.752v-1.2c0-.592-.144-1.04-.432-1.344-.288-.32-.776-.48-1.464-.48-.72 0-1.248.168-1.584.504-.336.32-.48.872-.432 1.656a18.975 18.975 0 00-1.032-.024c-.4-.016-.816-.024-1.248-.024-.512 0-1.016.008-1.512.024-.496 0-.904.024-1.224.072-.096-2.016.408-3.576 1.512-4.68 1.104-1.104 2.984-1.656 5.64-1.656 2.576 0 4.424.496 5.544 1.488 1.136.976 1.704 2.352 1.704 4.128 0 1.008-.016 1.912-.048 2.712-.016.784-.024 1.632-.024 2.544 0 .416.008.848.024 1.296l.048 1.248c.032.4.072.76.12 1.08.048.32.096.56.144.72h-4.512c-.496 0-.816-.064-.96-.192-.128-.128-.192-.472-.192-1.032v-.6l.048-.672h-.144c-.304.912-.856 1.592-1.656 2.04-.784.448-1.792.672-3.024.672-1.52 0-2.68-.296-3.48-.888-.8-.592-1.2-1.648-1.2-3.168 0-1.552.528-2.664 1.584-3.336 1.072-.688 2.72-1.032 4.944-1.032.544 0 1.056.008 1.536.024.496.016.936.056 1.32.12zm22.89-6.888h5.64c-.24.704-.528 1.648-.864 2.832-.336 1.168-.68 2.368-1.032 3.6a304.496 304.496 0 01-.984 3.528 81.66 81.66 0 01-.768 2.568c-.32 1.04-.68 1.944-1.08 2.712-.4.768-.888 1.392-1.464 1.872-.56.496-1.24.864-2.04 1.104-.8.24-1.752.36-2.856.36-1.104 0-2.04-.072-2.808-.216a20.923 20.923 0 01-2.184-.48c.032-.192.08-.496.144-.912.08-.4.152-.832.216-1.296.08-.448.152-.88.216-1.296.064-.416.104-.728.12-.936.576.208 1.224.368 1.944.48.736.096 1.448.144 2.136.144.704 0 1.24-.112 1.608-.336.368-.224.656-.624.864-1.2a51.779 51.779 0 00-2.232 0c-.656 0-1.136.008-1.44.024a404.13 404.13 0 01-.696-2.28l-1.032-3.456a252.424 252.424 0 00-1.128-3.72 95.613 95.613 0 00-.96-3.096h6.12c.048.272.12.632.216 1.08a420.602 420.602 0 01.768 3.264c.144.608.288 1.208.432 1.8.176.736.32 1.432.432 2.088.128.64.24 1.232.336 1.776h.12c.112-.544.24-1.144.384-1.8.16-.656.32-1.352.48-2.088.144-.592.288-1.2.432-1.824.144-.624.28-1.208.408-1.752a114.834 114.834 0 00.552-2.544zM10.392 36.896v-.264c0-.448-.152-.776-.456-.984-.288-.224-.832-.336-1.632-.336-.768 0-1.296.088-1.584.264-.272.176-.408.416-.408.72 0 .16.032.32.096.48.08.144.24.28.48.408.24.128.584.248 1.032.36a22.72 22.72 0 001.8.288c2.192.304 3.696.816 4.512 1.536.816.72 1.224 1.808 1.224 3.264 0 1.536-.552 2.704-1.656 3.504-1.104.784-2.984 1.176-5.64 1.176-1.44 0-2.64-.096-3.6-.288-.944-.192-1.696-.472-2.256-.84-.544-.384-.928-.856-1.152-1.416-.224-.56-.336-1.208-.336-1.944v-.408l.048-.456c.336.016.736.04 1.2.072.464.032 1 .048 1.608.048.368 0 .72-.008 1.056-.024.352-.016.656-.032.912-.048 0 .064-.008.12-.024.168v.144c0 .448.168.792.504 1.032.336.224.936.336 1.8.336.752 0 1.272-.088 1.56-.264.288-.176.432-.44.432-.792 0-.4-.224-.712-.672-.936-.432-.224-1.328-.416-2.688-.576-1.152-.144-2.104-.344-2.856-.6-.736-.272-1.32-.6-1.752-.984a3.402 3.402 0 01-.888-1.392 6.456 6.456 0 01-.24-1.824c0-1.6.576-2.752 1.728-3.456 1.168-.72 3.016-1.08 5.544-1.08 2.672 0 4.528.352 5.568 1.056 1.056.704 1.584 1.792 1.584 3.264 0 .128-.008.264-.024.408 0 .144-.008.296-.024.456a22.57 22.57 0 00-1.32-.072 25.405 25.405 0 00-2.664-.024c-.336 0-.608.008-.816.024zm12.812-7.224c0 .176-.04.352-.12.528-.064.176-.208.328-.432.456s-.552.232-.984.312c-.432.08-1 .12-1.704.12-.72 0-1.296-.04-1.728-.12-.432-.08-.768-.184-1.008-.312-.224-.128-.376-.28-.456-.456a1.536 1.536 0 01-.096-.528c0-.208.04-.392.12-.552.08-.16.232-.296.456-.408.24-.112.576-.2 1.008-.264.432-.064 1-.096 1.704-.096.688 0 1.248.032 1.68.096.432.064.76.152.984.264.224.112.376.248.456.408.08.16.12.344.12.552zM22.796 47h-5.712c.032-1.152.048-2.368.048-3.648a333.137 333.137 0 000-7.872l-.048-3.432h5.712a247.345 247.345 0 00-.072 3.48v8.136c.016 1.12.04 2.232.072 3.336zm9.54.696c1.568 0 2.616-.088 3.144-.264.544-.176.816-.432.816-.768 0-.208-.08-.36-.24-.456-.144-.096-.456-.144-.936-.144-.864 0-1.824.04-2.88.12-1.04.08-1.952.12-2.736.12h-.384c-.112 0-.224-.008-.336-.024a.64.64 0 00-.144.216.59.59 0 00-.048.216c0 .176.048.328.144.456.096.128.28.232.552.312.272.08.648.136 1.128.168a30.99 30.99 0 001.92.048zm-.192-12.408c-.816 0-1.416.16-1.8.48-.384.32-.576.752-.576 1.296 0 .576.184 1.008.552 1.296.384.272.992.408 1.824.408.848 0 1.456-.136 1.824-.408.384-.288.576-.72.576-1.296 0-.544-.192-.976-.576-1.296-.384-.32-.992-.48-1.824-.48zm5.088.072v.144c.848.208 1.448.496 1.8.864.368.352.552.872.552 1.56 0 1.264-.552 2.232-1.656 2.904-1.104.656-3.056.984-5.856.984-.4 0-.792-.008-1.176-.024-.368-.032-.72-.064-1.056-.096-.064.144-.12.288-.168.432a1.578 1.578 0 00-.048.384c0 .208.08.368.24.48.16.096.408.144.744.144 1.168 0 2.24-.048 3.216-.144.992-.112 1.88-.168 2.664-.168 1.488 0 2.56.28 3.216.84.656.56.984 1.456.984 2.688 0 .736-.128 1.376-.384 1.92s-.704.984-1.344 1.32c-.624.336-1.488.584-2.592.744-1.104.176-2.488.264-4.152.264-1.728 0-3.12-.056-4.176-.168-1.056-.112-1.864-.272-2.424-.48-.544-.192-.904-.44-1.08-.744a1.849 1.849 0 01-.264-.984c0-.56.216-1 .648-1.32.432-.336 1.08-.584 1.944-.744v-.12c-.688-.176-1.168-.432-1.44-.768a1.91 1.91 0 01-.408-1.2c0-.672.264-1.224.792-1.656.544-.448 1.248-.784 2.112-1.008v-.072c-1.12-.352-1.928-.88-2.424-1.584-.496-.704-.744-1.576-.744-2.616 0-1.696.584-2.968 1.752-3.816 1.184-.864 3.04-1.296 5.568-1.296.144 0 .504.008 1.08.024h2.088c.816 0 1.696.008 2.64.024h2.664a10.56 10.56 0 00-.048.672v2.04c.016.336.024.584.024.744-.352 0-.832-.016-1.44-.048a88.888 88.888 0 01-1.848-.12zm14.585-3.312h5.736l-.048 3.264v8.352c.016 1.184.032 2.296.048 3.336H51.84c.016-.464.024-.888.024-1.272l.048-1.2-.144-.024c-.432.944-1.064 1.64-1.896 2.088-.816.432-1.848.648-3.096.648-1.472 0-2.656-.376-3.552-1.128-.88-.768-1.32-1.992-1.32-3.672 0-1.248.008-2.264.024-3.048a128.834 128.834 0 000-4.968c0-.8-.016-1.592-.048-2.376h5.76c-.032 1.056-.056 2.32-.072 3.792v4.872c0 .752.144 1.296.432 1.632.288.32.76.48 1.416.48.688 0 1.264-.224 1.728-.672.48-.448.72-1.2.72-2.256v-3.024c0-.832-.008-1.536-.024-2.112 0-.592-.008-1.096-.024-1.512v-1.2zm15.207 3.144c-.736 0-1.304.208-1.704.624-.384.4-.624 1.24-.72 2.52.688.016 1.416.024 2.184.024.768 0 1.544-.008 2.328-.024a1.9 1.9 0 00.024-.312v-.336c0-.912-.16-1.552-.48-1.92-.32-.384-.864-.576-1.632-.576zm4.464 6.816c.496 0 .968-.008 1.416-.024.448-.016.856-.032 1.224-.048.032.864-.04 1.632-.216 2.304a3.354 3.354 0 01-1.056 1.704c-.512.448-1.248.792-2.208 1.032-.944.224-2.176.336-3.696.336-2.576 0-4.52-.608-5.832-1.824-1.296-1.232-1.944-3.208-1.944-5.928 0-2.864.68-4.88 2.04-6.048 1.376-1.184 3.344-1.776 5.904-1.776 1.36 0 2.496.136 3.408.408.912.272 1.632.664 2.16 1.176.544.512.928 1.152 1.152 1.92.224.768.336 1.64.336 2.616 0 .608-.016 1.152-.048 1.632-.016.48-.04.88-.072 1.2-.736-.016-1.624-.024-2.664-.024-1.04-.016-2.056-.024-3.048-.024h-2.088c-.64 0-1.2.008-1.68.024.064 1.168.288 1.976.672 2.424.4.448 1.016.672 1.848.672.768 0 1.288-.152 1.56-.456.288-.304.44-.76.456-1.368.288.016.632.032 1.032.048.416.016.864.024 1.344.024zM97.457 47h-5.76c.016-1.056.032-2.28.048-3.672.016-1.408.024-2.992.024-4.752 0-.784-.144-1.344-.432-1.68-.272-.336-.752-.504-1.44-.504s-1.264.232-1.728.696c-.464.464-.696 1.256-.696 2.376v6.384L87.52 47h-5.736l.048-3.504c.016-1.2.024-2.712.024-4.536v-2.904c0-.976-.008-1.912-.024-2.808 0-.912-.008-1.776-.024-2.592 0-.832-.008-1.576-.024-2.232h5.784c-.016.704-.032 1.344-.048 1.92a63.992 63.992 0 00-.024 1.776c0 .432-.008.832-.024 1.2l-.048 1.176.144.024c.432-.944 1.056-1.632 1.872-2.064.832-.448 1.872-.672 3.12-.672 1.488 0 2.664.384 3.528 1.152.88.752 1.32 1.976 1.32 3.672 0 1.216-.008 2.224-.024 3.024v4.992c.016.8.04 1.592.072 2.376zm8.514-3.312c.736 0 1.312-.232 1.728-.696.432-.48.648-1.176.648-2.088a16.83 16.83 0 00-.96-.072c-.336-.016-.68-.024-1.032-.024-.736 0-1.28.12-1.632.36-.336.224-.504.584-.504 1.08 0 .512.128.88.384 1.104.272.224.728.336 1.368.336zm2.4-4.752v-1.2c0-.592-.144-1.04-.432-1.344-.288-.32-.776-.48-1.464-.48-.72 0-1.248.168-1.584.504-.336.32-.48.872-.432 1.656a18.975 18.975 0 00-1.032-.024c-.4-.016-.816-.024-1.248-.024-.512 0-1.016.008-1.512.024-.496 0-.904.024-1.224.072-.096-2.016.408-3.576 1.512-4.68 1.104-1.104 2.984-1.656 5.64-1.656 2.576 0 4.424.496 5.544 1.488 1.136.976 1.704 2.352 1.704 4.128 0 1.008-.016 1.912-.048 2.712-.016.784-.024 1.632-.024 2.544 0 .416.008.848.024 1.296l.048 1.248c.032.4.072.76.12 1.08.048.32.096.56.144.72h-4.512c-.496 0-.816-.064-.96-.192-.128-.128-.192-.472-.192-1.032v-.6l.048-.672h-.144c-.304.912-.856 1.592-1.656 2.04-.784.448-1.792.672-3.024.672-1.52 0-2.68-.296-3.48-.888-.8-.592-1.2-1.648-1.2-3.168 0-1.552.528-2.664 1.584-3.336 1.072-.688 2.72-1.032 4.944-1.032.544 0 1.056.008 1.536.024.496.016.936.056 1.32.12zm17.327 2.16v-.432c.352.032.736.056 1.152.072h1.32c.48 0 .952-.008 1.416-.024l1.32-.048V41c.016.096.024.2.024.312 0 .992-.128 1.864-.384 2.616a4.127 4.127 0 01-1.272 1.872c-.592.496-1.384.872-2.376 1.128-.976.256-2.184.384-3.624.384-2.688 0-4.664-.632-5.928-1.896-1.264-1.264-1.896-3.28-1.896-6.048 0-2.704.648-4.648 1.944-5.832 1.296-1.2 3.272-1.8 5.928-1.8 2.528 0 4.416.408 5.664 1.224 1.248.816 1.872 2.296 1.872 4.44v.384c0 .128-.008.264-.024.408-.352-.016-.76-.024-1.224-.024a41.22 41.22 0 00-2.856 0c-.432 0-.784.008-1.056.024v-.336c-.016-.768-.184-1.304-.504-1.608-.32-.304-.904-.456-1.752-.456-.88 0-1.52.24-1.92.72-.384.48-.576 1.432-.576 2.856s.192 2.392.576 2.904c.384.496 1.032.744 1.944.744.816 0 1.384-.168 1.704-.504.336-.352.512-.824.528-1.416zm13.033-11.424c0 .176-.04.352-.12.528-.064.176-.208.328-.432.456s-.552.232-.984.312c-.432.08-1 .12-1.704.12-.72 0-1.296-.04-1.728-.12-.432-.08-.768-.184-1.008-.312-.224-.128-.376-.28-.456-.456a1.536 1.536 0 01-.096-.528c0-.208.04-.392.12-.552.08-.16.232-.296.456-.408.24-.112.576-.2 1.008-.264.432-.064 1-.096 1.704-.096.688 0 1.248.032 1.68.096.432.064.76.152.984.264.224.112.376.248.456.408.08.16.12.344.12.552zM138.323 47h-5.712c.032-1.152.048-2.368.048-3.648a333.137 333.137 0 000-7.872l-.048-3.432h5.712a247.345 247.345 0 00-.072 3.48v8.136c.016 1.12.04 2.232.072 3.336zm9.492-11.808c-.736 0-1.304.208-1.704.624-.384.4-.624 1.24-.72 2.52.688.016 1.416.024 2.184.024.768 0 1.544-.008 2.328-.024a1.9 1.9 0 00.024-.312v-.336c0-.912-.16-1.552-.48-1.92-.32-.384-.864-.576-1.632-.576zm4.464 6.816c.496 0 .968-.008 1.416-.024.448-.016.856-.032 1.224-.048.032.864-.04 1.632-.216 2.304a3.354 3.354 0 01-1.056 1.704c-.512.448-1.248.792-2.208 1.032-.944.224-2.176.336-3.696.336-2.576 0-4.52-.608-5.832-1.824-1.296-1.232-1.944-3.208-1.944-5.928 0-2.864.68-4.88 2.04-6.048 1.376-1.184 3.344-1.776 5.904-1.776 1.36 0 2.496.136 3.408.408.912.272 1.632.664 2.16 1.176.544.512.928 1.152 1.152 1.92.224.768.336 1.64.336 2.616 0 .608-.016 1.152-.048 1.632-.016.48-.04.88-.072 1.2-.736-.016-1.624-.024-2.664-.024-1.04-.016-2.056-.024-3.048-.024h-2.088c-.64 0-1.2.008-1.68.024.064 1.168.288 1.976.672 2.424.4.448 1.016.672 1.848.672.768 0 1.288-.152 1.56-.456.288-.304.44-.76.456-1.368.288.016.632.032 1.032.048.416.016.864.024 1.344.024zM172.518 47h-5.76c.016-1.04.032-2.264.048-3.672.016-1.424.024-3.008.024-4.752 0-.784-.144-1.344-.432-1.68-.272-.336-.752-.504-1.44-.504s-1.272.224-1.752.672c-.464.432-.696 1.184-.696 2.256v5.016c.016.576.024 1.072.024 1.488.016.416.024.808.024 1.176h-5.712l.048-3.24c.016-1.12.024-2.52.024-4.2 0-1.584-.008-2.976-.024-4.176-.016-1.2-.032-2.312-.048-3.336h5.712c-.016.464-.032.888-.048 1.272 0 .384-.008.784-.024 1.2l.144.048c.448-.96 1.088-1.656 1.92-2.088.832-.432 1.848-.648 3.048-.648 1.536 0 2.728.384 3.576 1.152.864.768 1.296 2.04 1.296 3.816 0 1.2-.008 2.168-.024 2.904a104.98 104.98 0 00-.024 2.28c0 .928.008 1.8.024 2.616.016.816.04 1.616.072 2.4zm11.85-6.936v-3.792a4.55 4.55 0 00-1.056-.336 6.12 6.12 0 00-1.248-.12c-.848 0-1.488.264-1.92.792-.432.528-.648 1.488-.648 2.88 0 1.328.2 2.256.6 2.784.416.512.976.768 1.68.768.736 0 1.352-.24 1.848-.72s.744-1.232.744-2.256zm-.12-11.64h5.76c-.032 1.296-.048 2.68-.048 4.152V43.016c0 1.392.016 2.728.048 4.008h-5.736v-.768c.016-.272.024-.552.024-.84v-.552c0-.192.008-.384.024-.576l-.168-.024c-.304.768-.824 1.456-1.56 2.064-.72.592-1.752.888-3.096.888-1.696 0-3.04-.584-4.032-1.752-.992-1.184-1.488-3.152-1.488-5.904 0-1.392.152-2.576.456-3.552.304-.992.712-1.792 1.224-2.4a4.77 4.77 0 011.848-1.368 6.146 6.146 0 012.304-.432c1.04 0 1.928.184 2.664.552a3.977 3.977 0 011.776 1.632l.072-.024a375.75 375.75 0 00-.048-1.2V31.52v-1.608c0-.496-.008-.992-.024-1.488zm17.997 10.896c0-1.248-.232-2.12-.696-2.616-.448-.496-1.08-.744-1.896-.744-.8 0-1.432.24-1.896.72-.464.48-.696 1.36-.696 2.64s.224 2.192.672 2.736c.464.544 1.104.816 1.92.816.832 0 1.472-.272 1.92-.816.448-.56.672-1.472.672-2.736zm5.568-.096c0 2.656-.688 4.672-2.064 6.048-1.376 1.36-3.408 2.04-6.096 2.04s-4.704-.68-6.048-2.04c-1.344-1.376-2.016-3.392-2.016-6.048s.704-4.568 2.112-5.736c1.424-1.168 3.408-1.752 5.952-1.752s4.536.584 5.976 1.752c1.456 1.168 2.184 3.08 2.184 5.736zM11.088 68.064v-3.576a7.342 7.342 0 00-1.008-.432c-.368-.128-.8-.192-1.296-.192-.864 0-1.496.256-1.896.768-.384.496-.576 1.44-.576 2.832 0 1.44.192 2.408.576 2.904.384.48.92.72 1.608.72.736 0 1.352-.24 1.848-.72.496-.496.744-1.264.744-2.304zm-.072-8.016h5.76a236.66 236.66 0 00-.072 3.768V73.728c.016.832.024 1.632.024 2.4.016.784.032 1.488.048 2.112h-5.784c.016-.528.024-1.08.024-1.656.016-.576.024-1.128.024-1.656v-1.2l.048-1.104-.192-.048a4.515 4.515 0 01-1.728 1.944c-.752.48-1.752.72-3 .72-1.712 0-3.048-.592-4.008-1.776-.944-1.2-1.416-3.16-1.416-5.88 0-2.784.472-4.768 1.416-5.952.96-1.2 2.288-1.8 3.984-1.8 1.2 0 2.192.224 2.976.672.784.432 1.376.952 1.776 1.56l.144-.024v-.672a10.14 10.14 0 01-.024-.672v-.648zm17.901 0h5.736l-.048 3.264v8.352c.016 1.184.032 2.296.048 3.336h-5.712c.016-.464.024-.888.024-1.272l.048-1.2-.144-.024c-.432.944-1.064 1.64-1.896 2.088-.816.432-1.848.648-3.096.648-1.472 0-2.656-.376-3.552-1.128-.88-.768-1.32-1.992-1.32-3.672 0-1.248.008-2.264.024-3.048a128.834 128.834 0 000-4.968c0-.8-.016-1.592-.048-2.376h5.76c-.032 1.056-.056 2.32-.072 3.792v4.872c0 .752.144 1.296.432 1.632.288.32.76.48 1.416.48.688 0 1.264-.224 1.728-.672.48-.448.72-1.2.72-2.256v-3.024c0-.832-.008-1.536-.024-2.112 0-.592-.008-1.096-.024-1.512v-1.2zm15.207 3.144c-.736 0-1.304.208-1.704.624-.384.4-.624 1.24-.72 2.52.688.016 1.416.024 2.184.024.768 0 1.544-.008 2.328-.024a1.9 1.9 0 00.024-.312v-.336c0-.912-.16-1.552-.48-1.92-.32-.384-.864-.576-1.632-.576zm4.464 6.816c.496 0 .968-.008 1.416-.024.448-.016.856-.032 1.224-.048.032.864-.04 1.632-.216 2.304a3.354 3.354 0 01-1.056 1.704c-.512.448-1.248.792-2.208 1.032-.944.224-2.176.336-3.696.336-2.576 0-4.52-.608-5.832-1.824-1.296-1.232-1.944-3.208-1.944-5.928 0-2.864.68-4.88 2.04-6.048 1.376-1.184 3.344-1.776 5.904-1.776 1.36 0 2.496.136 3.408.408.912.272 1.632.664 2.16 1.176.544.512.928 1.152 1.152 1.92.224.768.336 1.64.336 2.616 0 .608-.016 1.152-.048 1.632-.016.48-.04.88-.072 1.2-.736-.016-1.624-.024-2.664-.024-1.04-.016-2.056-.024-3.048-.024h-2.088c-.64 0-1.2.008-1.68.024.064 1.168.288 1.976.672 2.424.4.448 1.016.672 1.848.672.768 0 1.288-.152 1.56-.456.288-.304.44-.76.456-1.368.288.016.632.032 1.032.048.416.016.864.024 1.344.024zm16.705 1.68c.736 0 1.313-.232 1.728-.696.433-.48.648-1.176.648-2.088a16.83 16.83 0 00-.96-.072c-.335-.016-.68-.024-1.032-.024-.736 0-1.28.12-1.632.36-.336.224-.504.584-.504 1.08 0 .512.129.88.385 1.104.272.224.727.336 1.367.336zm2.4-4.752v-1.2c0-.592-.144-1.04-.431-1.344-.288-.32-.776-.48-1.465-.48-.72 0-1.248.168-1.584.504-.335.32-.48.872-.431 1.656a18.975 18.975 0 00-1.032-.024c-.4-.016-.816-.024-1.248-.024-.513 0-1.017.008-1.513.024-.495 0-.903.024-1.223.072-.096-2.016.407-3.576 1.512-4.68 1.104-1.104 2.983-1.656 5.64-1.656 2.575 0 4.423.496 5.543 1.488 1.136.976 1.704 2.352 1.704 4.128 0 1.008-.016 1.912-.047 2.712-.016.784-.024 1.632-.024 2.544 0 .416.008.848.024 1.296l.047 1.248c.032.4.072.76.12 1.08.049.32.097.56.145.72h-4.513c-.496 0-.816-.064-.96-.192-.127-.128-.191-.472-.191-1.032v-.6l.047-.672h-.144c-.303.912-.855 1.592-1.656 2.04-.784.448-1.791.672-3.024.672-1.52 0-2.68-.296-3.48-.888-.8-.592-1.2-1.648-1.2-3.168 0-1.552.529-2.664 1.585-3.336 1.072-.688 2.72-1.032 4.944-1.032.544 0 1.056.008 1.536.024.496.016.936.056 1.32.12zM98.365 75h-5.208c.032-1.104.048-2.376.048-3.816.016-1.44.024-3.04.024-4.8 0-.688-.136-1.184-.408-1.488-.272-.32-.688-.48-1.248-.48-.592 0-1.096.2-1.512.6-.416.4-.624 1.112-.624 2.136v4.872c0 .608.008 1.152.024 1.632s.032.928.048 1.344h-5.16c.032-1.088.056-2.304.072-3.648.016-1.344.024-3.008.024-4.992 0-.64-.128-1.12-.384-1.44-.256-.336-.68-.504-1.272-.504s-1.104.2-1.536.6c-.416.4-.624 1.112-.624 2.136v4.872c.016 1.216.032 2.208.048 2.976h-5.256c.016-1.072.024-2.184.024-3.336.016-1.168.024-2.536.024-4.104 0-1.6-.008-2.984-.024-4.152 0-1.168-.008-2.288-.024-3.36h5.352c-.016.448-.032.864-.048 1.248-.016.368-.032.768-.048 1.2l.144.048c.432-.928 1-1.608 1.704-2.04.704-.448 1.568-.672 2.592-.672 1.104 0 2.016.256 2.736.768.72.496 1.184 1.192 1.392 2.088h.168c.432-1.056 1.056-1.792 1.872-2.208.816-.432 1.728-.648 2.736-.648 1.36 0 2.416.376 3.168 1.128.768.736 1.152 1.792 1.152 3.168 0 1.248-.016 2.344-.048 3.288-.016.928-.024 1.872-.024 2.832 0 .848.008 1.68.024 2.496.016.8.04 1.552.072 2.256zm8.508-3.312c.736 0 1.312-.232 1.728-.696.432-.48.648-1.176.648-2.088a16.83 16.83 0 00-.96-.072c-.336-.016-.68-.024-1.032-.024-.736 0-1.28.12-1.632.36-.336.224-.504.584-.504 1.08 0 .512.128.88.384 1.104.272.224.728.336 1.368.336zm2.4-4.752v-1.2c0-.592-.144-1.04-.432-1.344-.288-.32-.776-.48-1.464-.48-.72 0-1.248.168-1.584.504-.336.32-.48.872-.432 1.656a18.975 18.975 0 00-1.032-.024c-.4-.016-.816-.024-1.248-.024-.512 0-1.016.008-1.512.024-.496 0-.904.024-1.224.072-.096-2.016.408-3.576 1.512-4.68 1.104-1.104 2.984-1.656 5.64-1.656 2.576 0 4.424.496 5.544 1.488 1.136.976 1.704 2.352 1.704 4.128 0 1.008-.016 1.912-.048 2.712-.016.784-.024 1.632-.024 2.544 0 .416.008.848.024 1.296l.048 1.248c.032.4.072.76.12 1.08.048.32.096.56.144.72h-4.512c-.496 0-.816-.064-.96-.192-.128-.128-.192-.472-.192-1.032v-.6l.048-.672h-.144c-.304.912-.856 1.592-1.656 2.04-.784.448-1.792.672-3.024.672-1.52 0-2.68-.296-3.48-.888-.8-.592-1.2-1.648-1.2-3.168 0-1.552.528-2.664 1.584-3.336 1.072-.688 2.72-1.032 4.944-1.032.544 0 1.056.008 1.536.024.496.016.936.056 1.32.12zm16.751-2.04v-.264c0-.448-.152-.776-.456-.984-.288-.224-.832-.336-1.632-.336-.768 0-1.296.088-1.584.264-.272.176-.408.416-.408.72 0 .16.032.32.096.48.08.144.24.28.48.408.24.128.584.248 1.032.36a22.72 22.72 0 001.8.288c2.192.304 3.696.816 4.512 1.536.816.72 1.224 1.808 1.224 3.264 0 1.536-.552 2.704-1.656 3.504-1.104.784-2.984 1.176-5.64 1.176-1.44 0-2.64-.096-3.6-.288-.944-.192-1.696-.472-2.256-.84-.544-.384-.928-.856-1.152-1.416-.224-.56-.336-1.208-.336-1.944v-.408l.048-.456c.336.016.736.04 1.2.072.464.032 1 .048 1.608.048.368 0 .72-.008 1.056-.024.352-.016.656-.032.912-.048 0 .064-.008.12-.024.168v.144c0 .448.168.792.504 1.032.336.224.936.336 1.8.336.752 0 1.272-.088 1.56-.264.288-.176.432-.44.432-.792 0-.4-.224-.712-.672-.936-.432-.224-1.328-.416-2.688-.576-1.152-.144-2.104-.344-2.856-.6-.736-.272-1.32-.6-1.752-.984a3.402 3.402 0 01-.888-1.392 6.456 6.456 0 01-.24-1.824c0-1.6.576-2.752 1.728-3.456 1.168-.72 3.016-1.08 5.544-1.08 2.672 0 4.528.352 5.568 1.056 1.056.704 1.584 1.792 1.584 3.264 0 .128-.008.264-.024.408 0 .144-.008.296-.024.456a22.57 22.57 0 00-1.32-.072 25.405 25.405 0 00-2.664-.024c-.336 0-.608.008-.816.024zm8.3 4.176c.912 0 1.616.248 2.112.744s.744 1.256.744 2.28c0 1.04-.248 1.824-.744 2.352-.496.512-1.2.768-2.112.768-.912 0-1.616-.256-2.112-.768-.48-.528-.72-1.312-.72-2.352 0-1.024.248-1.784.744-2.28.496-.496 1.192-.744 2.088-.744z" fill="#022E35"/></svg>