<svg width="209" height="79" viewBox="0 0 209 79" fill="none" xmlns="http://www.w3.org/2000/svg"><path d="M10.8 4.048h5.64c-.24.704-.528 1.648-.864 2.832-.336 1.168-.68 2.368-1.032 3.6a304.496 304.496 0 01-.984 3.528 81.66 81.66 0 01-.768 2.568c-.32 1.04-.68 1.944-1.08 2.712-.4.768-.888 1.392-1.464 1.872-.56.496-1.24.864-2.04 1.104-.8.24-1.752.36-2.856.36-1.104 0-2.04-.072-2.808-.216a20.923 20.923 0 01-2.184-.48c.032-.192.08-.496.144-.912.08-.4.152-.832.216-1.296.08-.448.152-.88.216-1.296.064-.416.104-.728.12-.936.576.208 1.224.368 1.944.48.736.096 1.448.144 2.136.144.704 0 1.24-.112 1.608-.336.368-.224.656-.624.864-1.2a51.779 51.779 0 00-2.232 0c-.656 0-1.136.008-1.44.024a404.13 404.13 0 01-.696-2.28l-1.032-3.456a252.424 252.424 0 00-1.128-3.72 95.613 95.613 0 00-.96-3.096h6.12c.048.272.12.632.216 1.08a420.602 420.602 0 01.768 3.264c.144.608.288 1.208.432 1.8.176.736.32 1.432.432 2.088.128.64.24 1.232.336 1.776h.12c.112-.544.24-1.144.384-1.8.16-.656.32-1.352.48-2.088.144-.592.288-1.2.432-1.824.144-.624.28-1.208.408-1.752a114.834 114.834 0 00.552-2.544zm18.797 11.64c.736 0 1.312-.232 1.728-.696.432-.48.648-1.176.648-2.088a16.83 16.83 0 00-.96-.072c-.336-.016-.68-.024-1.032-.024-.736 0-1.28.12-1.632.36-.336.224-.504.584-.504 1.08 0 .512.128.88.384 1.104.272.224.728.336 1.368.336zm2.4-4.752v-1.2c0-.592-.144-1.04-.432-1.344-.288-.32-.776-.48-1.464-.48-.72 0-1.248.168-1.584.504-.336.32-.48.872-.432 1.656a18.975 18.975 0 00-1.032-.024c-.4-.016-.816-.024-1.248-.024-.512 0-1.016.008-1.512.024-.496 0-.904.024-1.224.072-.096-2.016.408-3.576 1.512-4.68 1.104-1.104 2.984-1.656 5.64-1.656 2.576 0 4.424.496 5.544 1.488 1.136.976 1.704 2.352 1.704 4.128 0 1.008-.016 1.912-.048 2.712-.016.784-.024 1.632-.024 2.544 0 .416.008.848.024 1.296l.048 1.248c.032.4.072.76.12 1.08.048.32.096.56.144.72h-4.512c-.496 0-.816-.064-.96-.192-.128-.128-.192-.472-.192-1.032v-.6l.048-.672h-.144c-.304.912-.856 1.592-1.656 2.04-.784.448-1.792.672-3.024.672-1.52 0-2.68-.296-3.48-.888-.8-.592-1.2-1.648-1.2-3.168 0-1.552.528-2.664 1.584-3.336 1.072-.688 2.72-1.032 4.944-1.032.544 0 1.056.008 1.536.024.496.016.936.056 1.32.12zm17.16-6.888h5.64c-.24.704-.528 1.648-.864 2.832-.336 1.168-.68 2.368-1.032 3.6a304.496 304.496 0 01-.984 3.528 81.66 81.66 0 01-.768 2.568c-.32 1.04-.68 1.944-1.08 2.712-.4.768-.888 1.392-1.464 1.872-.56.496-1.24.864-2.04 1.104-.8.24-1.752.36-2.856.36-1.104 0-2.04-.072-2.808-.216a20.923 20.923 0 01-2.184-.48c.032-.192.08-.496.144-.912.08-.4.152-.832.216-1.296.08-.448.152-.88.216-1.296.064-.416.104-.728.12-.936.576.208 1.224.368 1.944.48.736.096 1.448.144 2.136.144.704 0 1.24-.112 1.608-.336.368-.224.656-.624.864-1.2a51.779 51.779 0 00-2.232 0c-.656 0-1.136.008-1.44.024a404.13 404.13 0 01-.696-2.28l-1.032-3.456a252.424 252.424 0 00-1.128-3.72 95.613 95.613 0 00-.96-3.096h6.12c.048.272.12.632.216 1.08a420.602 420.602 0 01.768 3.264c.144.608.288 1.208.432 1.8.176.736.32 1.432.432 2.088.128.64.24 1.232.336 1.776h.12c.112-.544.24-1.144.384-1.8.16-.656.32-1.352.48-2.088.144-.592.288-1.2.432-1.824.144-.624.28-1.208.408-1.752a114.834 114.834 0 00.552-2.544zm16.312 0h5.736l-.048 3.264v8.352c.016 1.184.032 2.296.048 3.336h-5.712c.016-.464.024-.888.024-1.272l.048-1.2-.144-.024c-.432.944-1.064 1.64-1.896 2.088-.816.432-1.848.648-3.096.648-1.472 0-2.656-.376-3.552-1.128-.88-.768-1.32-1.992-1.32-3.672 0-1.248.008-2.264.024-3.048a128.834 128.834 0 000-4.968c0-.8-.016-1.592-.048-2.376h5.76c-.032 1.056-.056 2.32-.072 3.792v4.872c0 .752.144 1.296.432 1.632.288.32.76.48 1.416.48.688 0 1.264-.224 1.728-.672.48-.448.72-1.2.72-2.256V8.872c0-.832-.008-1.536-.024-2.112 0-.592-.008-1.096-.024-1.512v-1.2zm17.751 8.016V8.272a4.55 4.55 0 00-1.056-.336 6.12 6.12 0 00-1.248-.12c-.848 0-1.488.264-1.92.792-.432.528-.648 1.488-.648 2.88 0 1.328.2 2.256.6 2.784.416.512.976.768 1.68.768.736 0 1.352-.24 1.848-.72s.744-1.232.744-2.256zM83.1.424h5.76a168.71 168.71 0 00-.048 4.152V15.016c0 1.392.016 2.728.048 4.008h-5.736v-.768c.016-.272.024-.552.024-.84v-.552c0-.192.008-.384.024-.576l-.168-.024c-.304.768-.824 1.456-1.56 2.064-.72.592-1.752.888-3.096.888-1.696 0-3.04-.584-4.032-1.752-.992-1.184-1.488-3.152-1.488-5.904 0-1.392.152-2.576.456-3.552.304-.992.712-1.792 1.224-2.4a4.77 4.77 0 011.848-1.368 6.146 6.146 0 012.304-.432c1.04 0 1.928.184 2.664.552A3.977 3.977 0 0183.1 5.992l.072-.024a375.75 375.75 0 00-.048-1.2V3.52 1.912c0-.496-.008-.992-.024-1.488zm14.421 15.264c.736 0 1.312-.232 1.728-.696.432-.48.648-1.176.648-2.088a16.83 16.83 0 00-.96-.072c-.336-.016-.68-.024-1.032-.024-.736 0-1.28.12-1.632.36-.336.224-.504.584-.504 1.08 0 .512.128.88.384 1.104.272.224.728.336 1.368.336zm2.4-4.752v-1.2c0-.592-.144-1.04-.432-1.344-.288-.32-.776-.48-1.464-.48-.72 0-1.248.168-1.584.504-.336.32-.48.872-.432 1.656a18.975 18.975 0 00-1.032-.024c-.4-.016-.816-.024-1.248-.024-.512 0-1.016.008-1.512.024-.496 0-.904.024-1.224.072-.096-2.016.408-3.576 1.512-4.68 1.104-1.104 2.984-1.656 5.64-1.656 2.576 0 4.424.496 5.544 1.488 1.136.976 1.704 2.352 1.704 4.128 0 1.008-.016 1.912-.048 2.712-.016.784-.024 1.632-.024 2.544 0 .416.008.848.024 1.296l.048 1.248c.032.4.072.76.12 1.08.048.32.096.56.144.72h-4.512c-.496 0-.816-.064-.96-.192-.128-.128-.192-.472-.192-1.032v-.6l.048-.672h-.144c-.304.912-.856 1.592-1.656 2.04-.784.448-1.792.672-3.024.672-1.52 0-2.68-.296-3.48-.888-.8-.592-1.2-1.648-1.2-3.168 0-1.552.528-2.664 1.584-3.336 1.072-.688 2.72-1.032 4.944-1.032.544 0 1.056.008 1.536.024.496.016.936.056 1.32.12zm12.336-3.672h.192c.336-1.216.856-2.08 1.56-2.592.72-.528 1.568-.792 2.544-.792.304 0 .592.024.864.072.288.032.56.08.816.144-.064.848-.128 1.8-.192 2.856a69.188 69.188 0 00-.12 3.048 5.909 5.909 0 00-.84-.192 5.839 5.839 0 00-.912-.072c-.96.016-1.632.264-2.016.744-.384.48-.576 1.392-.576 2.736 0 .944.008 1.944.024 3 .016 1.04.048 1.968.096 2.784h-6.048c.016-1.04.032-2.16.048-3.36.016-1.2.024-2.6.024-4.2 0-1.568-.008-2.928-.024-4.08 0-1.152-.016-2.256-.048-3.312h4.728c-.016.512-.04 1.032-.072 1.56a394.19 394.19 0 00-.048 1.656zm19.308 8.424c.736 0 1.312-.232 1.728-.696.432-.48.648-1.176.648-2.088a16.83 16.83 0 00-.96-.072c-.336-.016-.68-.024-1.032-.024-.736 0-1.28.12-1.632.36-.336.224-.504.584-.504 1.08 0 .512.128.88.384 1.104.272.224.728.336 1.368.336zm2.4-4.752v-1.2c0-.592-.144-1.04-.432-1.344-.288-.32-.776-.48-1.464-.48-.72 0-1.248.168-1.584.504-.336.32-.48.872-.432 1.656a18.975 18.975 0 00-1.032-.024c-.4-.016-.816-.024-1.248-.024-.512 0-1.016.008-1.512.024-.496 0-.904.024-1.224.072-.096-2.016.408-3.576 1.512-4.68 1.104-1.104 2.984-1.656 5.64-1.656 2.576 0 4.424.496 5.544 1.488 1.136.976 1.704 2.352 1.704 4.128 0 1.008-.016 1.912-.048 2.712-.016.784-.024 1.632-.024 2.544 0 .416.008.848.024 1.296l.048 1.248c.032.4.072.76.12 1.08.048.32.096.56.144.72h-4.512c-.496 0-.816-.064-.96-.192-.128-.128-.192-.472-.192-1.032v-.6l.048-.672h-.144c-.304.912-.856 1.592-1.656 2.04-.784.448-1.792.672-3.024.672-1.52 0-2.68-.296-3.48-.888-.8-.592-1.2-1.648-1.2-3.168 0-1.552.528-2.664 1.584-3.336 1.072-.688 2.72-1.032 4.944-1.032.544 0 1.056.008 1.536.024.496.016.936.056 1.32.12zM8.592 35.192c-.736 0-1.304.208-1.704.624-.384.4-.624 1.24-.72 2.52.688.016 1.416.024 2.184.024.768 0 1.544-.008 2.328-.024a1.9 1.9 0 00.024-.312v-.336c0-.912-.16-1.552-.48-1.92-.32-.384-.864-.576-1.632-.576zm4.464 6.816c.496 0 .968-.008 1.416-.024.448-.016.856-.032 1.224-.048.032.864-.04 1.632-.216 2.304a3.354 3.354 0 01-1.056 1.704c-.512.448-1.248.792-2.208 1.032-.944.224-2.176.336-3.696.336-2.576 0-4.52-.608-5.832-1.824C1.392 44.256.744 42.28.744 39.56c0-2.864.68-4.88 2.04-6.048 1.376-1.184 3.344-1.776 5.904-1.776 1.36 0 2.496.136 3.408.408.912.272 1.632.664 2.16 1.176.544.512.928 1.152 1.152 1.92.224.768.336 1.64.336 2.616 0 .608-.016 1.152-.048 1.632-.016.48-.04.88-.072 1.2-.736-.016-1.624-.024-2.664-.024-1.04-.016-2.056-.024-3.048-.024H7.824c-.64 0-1.2.008-1.68.024.064 1.168.288 1.976.672 2.424.4.448 1.016.672 1.848.672.768 0 1.288-.152 1.56-.456.288-.304.44-.76.456-1.368.288.016.632.032 1.032.048.416.016.864.024 1.344.024zm13.998-9.96h5.688c-.288.944-.648 2.152-1.08 3.624-.416 1.472-.832 2.952-1.248 4.44a952.247 952.247 0 01-1.176 4.128c-.352 1.28-.608 2.2-.768 2.76a45.154 45.154 0 00-1.584-.024 111.84 111.84 0 00-4.656 0c-.704 0-1.192.008-1.464.024-.16-.544-.432-1.448-.816-2.712-.368-1.28-.768-2.656-1.2-4.128-.432-1.488-.864-2.968-1.296-4.44-.432-1.488-.8-2.712-1.104-3.672h6.144c.048.304.12.72.216 1.248.112.512.232 1.088.36 1.728l.408 2.04c.16.72.312 1.424.456 2.112.144.704.272 1.376.384 2.016.128.624.24 1.192.336 1.704h.24c.096-.512.2-1.08.312-1.704.128-.64.272-1.32.432-2.04.144-.704.288-1.416.432-2.136.16-.72.304-1.4.432-2.04.128-.64.24-1.216.336-1.728.112-.512.184-.912.216-1.2zm12.826-2.376c0 .176-.04.352-.12.528-.064.176-.208.328-.432.456s-.552.232-.984.312c-.432.08-1 .12-1.704.12-.72 0-1.296-.04-1.728-.12-.432-.08-.768-.184-1.008-.312-.224-.128-.376-.28-.456-.456a1.536 1.536 0 01-.096-.528c0-.208.04-.392.12-.552.08-.16.232-.296.456-.408.24-.112.576-.2 1.008-.264.432-.064 1-.096 1.704-.096.688 0 1.248.032 1.68.096.432.064.76.152.984.264.224.112.376.248.456.408.08.16.12.344.12.552zM39.472 47H33.76c.032-1.152.048-2.368.048-3.648a333.137 333.137 0 000-7.872l-.048-3.432h5.712a247.345 247.345 0 00-.072 3.48v8.136c.016 1.12.04 2.232.072 3.336zm1.332-14.952l1.536.024c.016-.512.024-1.008.024-1.488v-1.368l1.345.048h2.831l1.368-.048a1363.991 1363.991 0 00-.096 2.88h2.497c.816-.016 1.568-.032 2.256-.048-.017.736-.04 1.528-.072 2.376-.032.832-.04 1.624-.025 2.376a145.28 145.28 0 00-2.016-.048c-.847-.016-1.752-.032-2.712-.048a68.475 68.475 0 00-.023 1.848v1.992c0 .544.136.928.407 1.152.273.224.744.336 1.416.336.56 0 1.08-.04 1.56-.12.48-.08.904-.192 1.273-.336.032.752.104 1.6.216 2.544.111.944.215 1.784.312 2.52-.705.176-1.393.312-2.065.408a16.12 16.12 0 01-2.303.144c-1.217 0-2.233-.128-3.049-.384-.8-.272-1.44-.648-1.92-1.128a4.13 4.13 0 01-1.032-1.728 8.372 8.372 0 01-.287-2.256v-2.328c.016-.88.032-1.792.047-2.736l-1.464-.024v-2.304c0-.864-.008-1.616-.024-2.256zm19.92 11.64c.735 0 1.311-.232 1.727-.696.432-.48.648-1.176.648-2.088a16.83 16.83 0 00-.96-.072c-.336-.016-.68-.024-1.032-.024-.736 0-1.28.12-1.632.36-.336.224-.504.584-.504 1.08 0 .512.128.88.384 1.104.272.224.728.336 1.368.336zm2.4-4.752v-1.2c0-.592-.145-1.04-.433-1.344-.288-.32-.776-.48-1.464-.48-.72 0-1.248.168-1.584.504-.336.32-.48.872-.432 1.656a18.975 18.975 0 00-1.032-.024c-.4-.016-.816-.024-1.248-.024-.512 0-1.016.008-1.512.024-.496 0-.904.024-1.224.072-.096-2.016.408-3.576 1.512-4.68 1.104-1.104 2.984-1.656 5.64-1.656 2.576 0 4.424.496 5.544 1.488 1.136.976 1.704 2.352 1.704 4.128 0 1.008-.016 1.912-.048 2.712-.016.784-.024 1.632-.024 2.544 0 .416.008.848.024 1.296l.048 1.248c.032.4.072.76.12 1.08.048.32.096.56.144.72h-4.512c-.496 0-.816-.064-.96-.192-.128-.128-.192-.472-.192-1.032v-.6l.048-.672H63.1c-.304.912-.856 1.592-1.656 2.04-.784.448-1.792.672-3.024.672-1.52 0-2.68-.296-3.48-.888-.8-.592-1.2-1.648-1.2-3.168 0-1.552.528-2.664 1.584-3.336 1.072-.688 2.72-1.032 4.944-1.032.544 0 1.056.008 1.536.024.496.016.936.056 1.32.12zm12.335-3.672h.192c.336-1.216.856-2.08 1.56-2.592.72-.528 1.568-.792 2.544-.792.304 0 .592.024.864.072.288.032.56.08.816.144-.064.848-.128 1.8-.192 2.856a69.188 69.188 0 00-.12 3.048 5.909 5.909 0 00-.84-.192 5.839 5.839 0 00-.912-.072c-.96.016-1.632.264-2.016.744-.384.48-.576 1.392-.576 2.736 0 .944.008 1.944.024 3 .016 1.04.048 1.968.096 2.784H70.85c.016-1.04.032-2.16.048-3.36.016-1.2.024-2.6.024-4.2 0-1.568-.008-2.928-.024-4.08 0-1.152-.016-2.256-.048-3.312h4.728c-.016.512-.04 1.032-.072 1.56a394.19 394.19 0 00-.048 1.656zm22.62 4.8v-3.576a7.342 7.342 0 00-1.007-.432c-.368-.128-.8-.192-1.296-.192-.864 0-1.496.256-1.896.768-.384.496-.576 1.44-.576 2.832 0 1.44.192 2.408.576 2.904.384.48.92.72 1.608.72.736 0 1.352-.24 1.848-.72.496-.496.744-1.264.744-2.304zm-.071-8.016h5.76a236.66 236.66 0 00-.072 3.768V45.728c.016.832.024 1.632.024 2.4.016.784.032 1.488.048 2.112h-5.784c.016-.528.024-1.08.024-1.656.016-.576.024-1.128.024-1.656v-1.2l.048-1.104-.192-.048a4.515 4.515 0 01-1.728 1.944c-.752.48-1.752.72-3 .72-1.712 0-3.048-.592-4.008-1.776-.944-1.2-1.416-3.16-1.416-5.88 0-2.784.472-4.768 1.416-5.952.96-1.2 2.288-1.8 3.984-1.8 1.2 0 2.192.224 2.976.672.784.432 1.376.952 1.776 1.56l.144-.024v-.672a10.14 10.14 0 01-.024-.672v-.648zm17.901 0h5.736l-.048 3.264v8.352c.016 1.184.032 2.296.048 3.336h-5.712c.016-.464.024-.888.024-1.272l.048-1.2-.144-.024c-.432.944-1.064 1.64-1.896 2.088-.816.432-1.848.648-3.096.648-1.472 0-2.656-.376-3.552-1.128-.88-.768-1.32-1.992-1.32-3.672 0-1.248.008-2.264.024-3.048a128.834 128.834 0 000-4.968c0-.8-.016-1.592-.048-2.376h5.76c-.032 1.056-.056 2.32-.072 3.792v4.872c0 .752.144 1.296.432 1.632.288.32.76.48 1.416.48.688 0 1.264-.224 1.728-.672.48-.448.72-1.2.72-2.256v-3.024c0-.832-.008-1.536-.024-2.112 0-.592-.008-1.096-.024-1.512v-1.2zm15.207 3.144c-.736 0-1.304.208-1.704.624-.384.4-.624 1.24-.72 2.52.688.016 1.416.024 2.184.024.768 0 1.544-.008 2.328-.024a1.9 1.9 0 00.024-.312v-.336c0-.912-.16-1.552-.48-1.92-.32-.384-.864-.576-1.632-.576zm4.464 6.816c.496 0 .968-.008 1.416-.024.448-.016.856-.032 1.224-.048.032.864-.04 1.632-.216 2.304a3.354 3.354 0 01-1.056 1.704c-.512.448-1.248.792-2.208 1.032-.944.224-2.176.336-3.696.336-2.576 0-4.52-.608-5.832-1.824-1.296-1.232-1.944-3.208-1.944-5.928 0-2.864.68-4.88 2.04-6.048 1.376-1.184 3.344-1.776 5.904-1.776 1.36 0 2.496.136 3.408.408.912.272 1.632.664 2.16 1.176.544.512.928 1.152 1.152 1.92.224.768.336 1.64.336 2.616 0 .608-.016 1.152-.048 1.632-.016.48-.04.88-.072 1.2-.736-.016-1.624-.024-2.664-.024-1.04-.016-2.056-.024-3.048-.024h-2.088c-.64 0-1.2.008-1.68.024.064 1.168.288 1.976.672 2.424.4.448 1.016.672 1.848.672.768 0 1.288-.152 1.56-.456.288-.304.44-.76.456-1.368.288.016.632.032 1.032.048.416.016.864.024 1.344.024zm19.321-5.112v-.264c0-.448-.152-.776-.456-.984-.288-.224-.832-.336-1.632-.336-.768 0-1.296.088-1.584.264-.272.176-.408.416-.408.72 0 .16.032.32.096.48.08.144.24.28.48.408.24.128.584.248 1.032.36a22.72 22.72 0 001.8.288c2.192.304 3.696.816 4.512 1.536.816.72 1.224 1.808 1.224 3.264 0 1.536-.552 2.704-1.656 3.504-1.104.784-2.984 1.176-5.64 1.176-1.44 0-2.64-.096-3.6-.288-.944-.192-1.696-.472-2.256-.84-.544-.384-.928-.856-1.152-1.416-.224-.56-.336-1.208-.336-1.944v-.408l.048-.456c.336.016.736.04 1.2.072.464.032 1 .048 1.608.048.368 0 .72-.008 1.056-.024.352-.016.656-.032.912-.048 0 .064-.008.12-.024.168v.144c0 .448.168.792.504 1.032.336.224.936.336 1.8.336.752 0 1.272-.088 1.56-.264.288-.176.432-.44.432-.792 0-.4-.224-.712-.672-.936-.432-.224-1.328-.416-2.688-.576-1.152-.144-2.104-.344-2.856-.6-.736-.272-1.32-.6-1.752-.984a3.402 3.402 0 01-.888-1.392 6.456 6.456 0 01-.24-1.824c0-1.6.576-2.752 1.728-3.456 1.168-.72 3.016-1.08 5.544-1.08 2.672 0 4.528.352 5.568 1.056 1.056.704 1.584 1.792 1.584 3.264 0 .128-.008.264-.024.408 0 .144-.008.296-.024.456a22.57 22.57 0 00-1.32-.072 25.405 25.405 0 00-2.664-.024c-.336 0-.608.008-.816.024zm13.892-1.704c-.736 0-1.304.208-1.704.624-.384.4-.624 1.24-.72 2.52.688.016 1.416.024 2.184.024.768 0 1.544-.008 2.328-.024a1.9 1.9 0 00.024-.312v-.336c0-.912-.16-1.552-.48-1.92-.32-.384-.864-.576-1.632-.576zm4.464 6.816c.496 0 .968-.008 1.416-.024.448-.016.856-.032 1.224-.048.032.864-.04 1.632-.216 2.304a3.354 3.354 0 01-1.056 1.704c-.512.448-1.248.792-2.208 1.032-.944.224-2.176.336-3.696.336-2.576 0-4.52-.608-5.832-1.824-1.296-1.232-1.944-3.208-1.944-5.928 0-2.864.68-4.88 2.04-6.048 1.376-1.184 3.344-1.776 5.904-1.776 1.36 0 2.496.136 3.408.408.912.272 1.632.664 2.16 1.176.544.512.928 1.152 1.152 1.92.224.768.336 1.64.336 2.616 0 .608-.016 1.152-.048 1.632-.016.48-.04.88-.072 1.2-.736-.016-1.624-.024-2.664-.024-1.04-.016-2.056-.024-3.048-.024h-2.088c-.64 0-1.2.008-1.68.024.064 1.168.288 1.976.672 2.424.4.448 1.016.672 1.848.672.768 0 1.288-.152 1.56-.456.288-.304.44-.76.456-1.368.288.016.632.032 1.032.048.416.016.864.024 1.344.024zm10.974 1.68c.736 0 1.312-.232 1.728-.696.432-.48.648-1.176.648-2.088a16.83 16.83 0 00-.96-.072c-.336-.016-.68-.024-1.032-.024-.736 0-1.28.12-1.632.36-.336.224-.504.584-.504 1.08 0 .512.128.88.384 1.104.272.224.728.336 1.368.336zm2.4-4.752v-1.2c0-.592-.144-1.04-.432-1.344-.288-.32-.776-.48-1.464-.48-.72 0-1.248.168-1.584.504-.336.32-.48.872-.432 1.656a18.975 18.975 0 00-1.032-.024c-.4-.016-.816-.024-1.248-.024-.512 0-1.016.008-1.512.024-.496 0-.904.024-1.224.072-.096-2.016.408-3.576 1.512-4.68 1.104-1.104 2.984-1.656 5.64-1.656 2.576 0 4.424.496 5.544 1.488 1.136.976 1.704 2.352 1.704 4.128 0 1.008-.016 1.912-.048 2.712-.016.784-.024 1.632-.024 2.544 0 .416.008.848.024 1.296l.048 1.248c.032.4.072.76.12 1.08.048.32.096.56.144.72h-4.512c-.496 0-.816-.064-.96-.192-.128-.128-.192-.472-.192-1.032v-.6l.048-.672h-.144c-.304.912-.856 1.592-1.656 2.04-.784.448-1.792.672-3.024.672-1.52 0-2.68-.296-3.48-.888-.8-.592-1.2-1.648-1.2-3.168 0-1.552.528-2.664 1.584-3.336 1.072-.688 2.72-1.032 4.944-1.032.544 0 1.056.008 1.536.024.496.016.936.056 1.32.12zm16.752-2.04v-.264c0-.448-.152-.776-.456-.984-.288-.224-.832-.336-1.632-.336-.768 0-1.296.088-1.584.264-.272.176-.408.416-.408.72 0 .16.032.32.096.48.08.144.24.28.48.408.24.128.584.248 1.032.36a22.72 22.72 0 001.8.288c2.192.304 3.696.816 4.512 1.536.816.72 1.224 1.808 1.224 3.264 0 1.536-.552 2.704-1.656 3.504-1.104.784-2.984 1.176-5.64 1.176-1.44 0-2.64-.096-3.6-.288-.944-.192-1.696-.472-2.256-.84-.544-.384-.928-.856-1.152-1.416-.224-.56-.336-1.208-.336-1.944v-.408l.048-.456c.336.016.736.04 1.2.072.464.032 1 .048 1.608.048.368 0 .72-.008 1.056-.024.352-.016.656-.032.912-.048 0 .064-.008.12-.024.168v.144c0 .448.168.792.504 1.032.336.224.936.336 1.8.336.752 0 1.272-.088 1.56-.264.288-.176.432-.44.432-.792 0-.4-.224-.712-.672-.936-.432-.224-1.328-.416-2.688-.576-1.152-.144-2.104-.344-2.856-.6-.736-.272-1.32-.6-1.752-.984a3.402 3.402 0 01-.888-1.392 6.456 6.456 0 01-.24-1.824c0-1.6.576-2.752 1.728-3.456 1.168-.72 3.016-1.08 5.544-1.08 2.672 0 4.528.352 5.568 1.056 1.056.704 1.584 1.792 1.584 3.264 0 .128-.008.264-.024.408 0 .144-.008.296-.024.456a22.57 22.57 0 00-1.32-.072 25.405 25.405 0 00-2.664-.024c-.336 0-.608.008-.816.024zM17.04 75h-5.76c.016-1.056.032-2.28.048-3.672.016-1.408.024-2.992.024-4.752 0-.784-.144-1.344-.432-1.68-.272-.336-.752-.504-1.44-.504s-1.264.232-1.728.696c-.464.464-.696 1.256-.696 2.376v6.384L7.104 75H1.368l.048-3.504c.016-1.2.024-2.712.024-4.536v-2.904c0-.976-.008-1.912-.024-2.808 0-.912-.008-1.776-.024-2.592 0-.832-.008-1.576-.024-2.232h5.784c-.016.704-.032 1.344-.048 1.92a63.992 63.992 0 00-.024 1.776c0 .432-.008.832-.024 1.2l-.048 1.176.144.024c.432-.944 1.056-1.632 1.872-2.064.832-.448 1.872-.672 3.12-.672 1.488 0 2.664.384 3.528 1.152.88.752 1.32 1.976 1.32 3.672 0 1.216-.008 2.224-.024 3.024v4.992c.016.8.04 1.592.072 2.376zm12.09-7.68c0-1.248-.232-2.12-.696-2.616-.448-.496-1.08-.744-1.896-.744-.8 0-1.432.24-1.896.72-.464.48-.696 1.36-.696 2.64s.224 2.192.672 2.736c.464.544 1.104.816 1.92.816.832 0 1.472-.272 1.92-.816.448-.56.672-1.472.672-2.736zm5.568-.096c0 2.656-.688 4.672-2.064 6.048-1.376 1.36-3.408 2.04-6.096 2.04s-4.704-.68-6.048-2.04c-1.344-1.376-2.016-3.392-2.016-6.048s.704-4.568 2.112-5.736c1.424-1.168 3.408-1.752 5.952-1.752s4.536.584 5.976 1.752c1.456 1.168 2.184 3.08 2.184 5.736zm10.617-2.328v-.264c0-.448-.152-.776-.456-.984-.288-.224-.832-.336-1.632-.336-.768 0-1.296.088-1.584.264-.272.176-.408.416-.408.72 0 .16.032.32.096.48.08.144.24.28.48.408.24.128.584.248 1.032.36a22.72 22.72 0 001.8.288c2.192.304 3.696.816 4.512 1.536.816.72 1.224 1.808 1.224 3.264 0 1.536-.552 2.704-1.656 3.504-1.104.784-2.984 1.176-5.64 1.176-1.44 0-2.64-.096-3.6-.288-.944-.192-1.696-.472-2.256-.84-.544-.384-.928-.856-1.152-1.416-.224-.56-.336-1.208-.336-1.944v-.408l.048-.456c.336.016.736.04 1.2.072.464.032 1 .048 1.608.048.368 0 .72-.008 1.056-.024.352-.016.656-.032.912-.048 0 .064-.008.12-.024.168v.144c0 .448.168.792.504 1.032.336.224.936.336 1.8.336.752 0 1.272-.088 1.56-.264.288-.176.432-.44.432-.792 0-.4-.224-.712-.672-.936-.432-.224-1.328-.416-2.688-.576-1.152-.144-2.104-.344-2.856-.6-.736-.272-1.32-.6-1.752-.984a3.402 3.402 0 01-.888-1.392 6.456 6.456 0 01-.24-1.824c0-1.6.576-2.752 1.728-3.456 1.168-.72 3.016-1.08 5.544-1.08 2.672 0 4.528.352 5.568 1.056 1.056.704 1.584 1.792 1.584 3.264 0 .128-.008.264-.024.408 0 .144-.008.296-.024.456a22.57 22.57 0 00-1.32-.072 25.405 25.405 0 00-2.664-.024c-.336 0-.608.008-.816.024zm12.308 2.064v3.552c.304.16.648.28 1.032.36.384.08.816.12 1.296.12.864 0 1.488-.264 1.872-.792.4-.544.6-1.488.6-2.832 0-1.296-.184-2.2-.552-2.712-.368-.512-.904-.768-1.608-.768-.752 0-1.384.24-1.896.72-.496.464-.744 1.248-.744 2.352zm.072-4.728l.24.048a4.915 4.915 0 011.8-1.776c.784-.464 1.744-.696 2.88-.696 1.808 0 3.152.64 4.032 1.92.896 1.264 1.344 3.184 1.344 5.76 0 2.608-.488 4.552-1.464 5.832-.96 1.28-2.28 1.92-3.96 1.92-1.296 0-2.32-.224-3.072-.672-.752-.448-1.304-.992-1.656-1.632l-.144.024c.016.304.024.624.024.96V76.56l.048 1.68h-5.784c.016-.672.024-1.432.024-2.28.016-.848.024-1.736.024-2.664a167.2 167.2 0 00.024-2.88v-2.904c0-1.536-.008-2.896-.024-4.08 0-1.184-.008-2.312-.024-3.384h5.736c0 .208-.008.416-.024.624v1.104c0 .144-.008.296-.024.456zm18.069-4.56c0 .176-.04.352-.12.528-.064.176-.208.328-.432.456s-.552.232-.984.312c-.432.08-1 .12-1.704.12-.72 0-1.296-.04-1.728-.12-.432-.08-.768-.184-1.008-.312-.224-.128-.376-.28-.456-.456a1.536 1.536 0 01-.096-.528c0-.208.04-.392.12-.552.08-.16.232-.296.456-.408.24-.112.576-.2 1.008-.264.432-.064 1-.096 1.704-.096.688 0 1.248.032 1.68.096.432.064.76.152.984.264.224.112.376.248.456.408.08.16.12.344.12.552zM75.356 75h-5.712c.032-1.152.048-2.368.048-3.648a333.137 333.137 0 000-7.872l-.048-3.432h5.712a247.345 247.345 0 00-.072 3.48v8.136c.016 1.12.04 2.232.072 3.336zm1.332-14.952l1.536.024c.016-.512.024-1.008.024-1.488v-1.368l1.344.048h2.832l1.368-.048-.048 1.416-.048 1.464h2.496c.816-.016 1.568-.032 2.256-.048-.016.736-.04 1.528-.072 2.376-.032.832-.04 1.624-.024 2.376a145.28 145.28 0 00-2.016-.048l-2.712-.048a68.475 68.475 0 00-.024 1.848v1.992c0 .544.136.928.408 1.152.272.224.744.336 1.416.336.56 0 1.08-.04 1.56-.12.48-.08.904-.192 1.272-.336.032.752.104 1.6.216 2.544s.216 1.784.312 2.52c-.704.176-1.392.312-2.064.408a16.12 16.12 0 01-2.304.144c-1.216 0-2.232-.128-3.048-.384-.8-.272-1.44-.648-1.92-1.128a4.13 4.13 0 01-1.032-1.728 8.372 8.372 0 01-.288-2.256v-2.328l.048-2.736-1.464-.024v-2.304c0-.864-.008-1.616-.024-2.256zm19.919 11.64c.736 0 1.312-.232 1.728-.696.432-.48.648-1.176.648-2.088a16.83 16.83 0 00-.96-.072c-.336-.016-.68-.024-1.032-.024-.736 0-1.28.12-1.632.36-.336.224-.504.584-.504 1.08 0 .512.128.88.384 1.104.272.224.728.336 1.368.336zm2.4-4.752v-1.2c0-.592-.144-1.04-.432-1.344-.288-.32-.776-.48-1.464-.48-.72 0-1.248.168-1.584.504-.336.32-.48.872-.432 1.656a18.975 18.975 0 00-1.032-.024c-.4-.016-.816-.024-1.248-.024-.512 0-1.016.008-1.512.024-.496 0-.904.024-1.224.072-.096-2.016.408-3.576 1.512-4.68 1.104-1.104 2.984-1.656 5.64-1.656 2.576 0 4.424.496 5.544 1.488 1.136.976 1.704 2.352 1.704 4.128 0 1.008-.016 1.912-.048 2.712-.016.784-.024 1.632-.024 2.544 0 .416.008.848.024 1.296l.048 1.248c.032.4.072.76.12 1.08.048.32.096.56.144.72h-4.512c-.496 0-.816-.064-.96-.192-.128-.128-.192-.472-.192-1.032v-.6l.048-.672h-.144c-.304.912-.856 1.592-1.656 2.04-.784.448-1.792.672-3.024.672-1.52 0-2.68-.296-3.48-.888-.8-.592-1.2-1.648-1.2-3.168 0-1.552.528-2.664 1.584-3.336 1.072-.688 2.72-1.032 4.944-1.032.544 0 1.056.008 1.536.024.496.016.936.056 1.32.12zM112.47 75h-5.736c.032-1.376.048-2.872.048-4.488a509.346 509.346 0 000-9.72c0-1.472-.016-2.928-.048-4.368h5.736a353.508 353.508 0 00-.072 4.32v10.08c.016 1.392.04 2.784.072 4.176zm8.365-17.328c0 .176-.04.352-.12.528-.064.176-.208.328-.432.456s-.552.232-.984.312c-.432.08-1 .12-1.704.12-.72 0-1.296-.04-1.728-.12-.432-.08-.768-.184-1.008-.312-.224-.128-.376-.28-.456-.456a1.536 1.536 0 01-.096-.528c0-.208.04-.392.12-.552.08-.16.232-.296.456-.408.24-.112.576-.2 1.008-.264.432-.064 1-.096 1.704-.096.688 0 1.248.032 1.68.096.432.064.76.152.984.264.224.112.376.248.456.408.08.16.12.344.12.552zM120.428 75h-5.712c.032-1.152.048-2.368.048-3.648a333.137 333.137 0 000-7.872l-.048-3.432h5.712a247.345 247.345 0 00-.072 3.48v8.136c.016 1.12.04 2.232.072 3.336zm8.748-4.464l.024.12c.528-.032 1.04-.056 1.536-.072a23.16 23.16 0 011.44-.048h2.136l1.584-.048c-.016.304-.032.68-.048 1.128v1.056c0 .352.008.72.024 1.104.016.368.024.776.024 1.224h-13.44c.016-.32.024-.664.024-1.032.016-.368.024-.704.024-1.008v-2.04c.336-.256.704-.576 1.104-.96.4-.384.808-.792 1.224-1.224.432-.432.864-.872 1.296-1.32a87.62 87.62 0 011.272-1.248c.336-.336.656-.64.96-.912.32-.288.624-.536.912-.744l-.048-.12-1.368.096a41.22 41.22 0 01-1.464.024h-2.256c-.544 0-1.08.008-1.608.024.016-.336.024-.728.024-1.176.016-.464.024-.832.024-1.104 0-.32-.008-.672-.024-1.056 0-.384-.008-.768-.024-1.152h13.344c-.016.336-.024.664-.024.984v2.088c0 .448.008.824.024 1.128-.608.464-1.344 1.136-2.208 2.016l-2.544 2.64c-.304.304-.624.6-.96.888a9.363 9.363 0 01-.984.744zm15.128 1.152c.736 0 1.312-.232 1.728-.696.432-.48.648-1.176.648-2.088a16.83 16.83 0 00-.96-.072c-.336-.016-.68-.024-1.032-.024-.736 0-1.28.12-1.632.36-.336.224-.504.584-.504 1.08 0 .512.128.88.384 1.104.272.224.728.336 1.368.336zm2.4-4.752v-1.2c0-.592-.144-1.04-.432-1.344-.288-.32-.776-.48-1.464-.48-.72 0-1.248.168-1.584.504-.336.32-.48.872-.432 1.656a18.975 18.975 0 00-1.032-.024c-.4-.016-.816-.024-1.248-.024-.512 0-1.016.008-1.512.024-.496 0-.904.024-1.224.072-.096-2.016.408-3.576 1.512-4.68 1.104-1.104 2.984-1.656 5.64-1.656 2.576 0 4.424.496 5.544 1.488 1.136.976 1.704 2.352 1.704 4.128 0 1.008-.016 1.912-.048 2.712-.016.784-.024 1.632-.024 2.544 0 .416.008.848.024 1.296l.048 1.248c.032.4.072.76.12 1.08.048.32.096.56.144.72h-4.512c-.496 0-.816-.064-.96-.192-.128-.128-.192-.472-.192-1.032v-.6l.048-.672h-.144c-.304.912-.856 1.592-1.656 2.04-.784.448-1.792.672-3.024.672-1.52 0-2.68-.296-3.48-.888-.8-.592-1.2-1.648-1.2-3.168 0-1.552.528-2.664 1.584-3.336 1.072-.688 2.72-1.032 4.944-1.032.544 0 1.056.008 1.536.024.496.016.936.056 1.32.12zm17.496 1.128v-3.792a4.55 4.55 0 00-1.056-.336 6.12 6.12 0 00-1.248-.12c-.848 0-1.488.264-1.92.792-.432.528-.648 1.488-.648 2.88 0 1.328.2 2.256.6 2.784.416.512.976.768 1.68.768.736 0 1.352-.24 1.848-.72s.744-1.232.744-2.256zm-.12-11.64h5.76c-.032 1.296-.048 2.68-.048 4.152V71.016c0 1.392.016 2.728.048 4.008h-5.736v-.768c.016-.272.024-.552.024-.84v-.552c0-.192.008-.384.024-.576l-.168-.024c-.304.768-.824 1.456-1.56 2.064-.72.592-1.752.888-3.096.888-1.696 0-3.04-.584-4.032-1.752-.992-1.184-1.488-3.152-1.488-5.904 0-1.392.152-2.576.456-3.552.304-.992.712-1.792 1.224-2.4a4.77 4.77 0 011.848-1.368 6.146 6.146 0 012.304-.432c1.04 0 1.928.184 2.664.552a3.977 3.977 0 011.776 1.632l.072-.024a375.75 375.75 0 00-.048-1.2V59.52v-1.608c0-.496-.008-.992-.024-1.488zm17.996 10.896c0-1.248-.232-2.12-.696-2.616-.448-.496-1.08-.744-1.896-.744-.8 0-1.432.24-1.896.72-.464.48-.696 1.36-.696 2.64s.224 2.192.672 2.736c.464.544 1.104.816 1.92.816.832 0 1.472-.272 1.92-.816.448-.56.672-1.472.672-2.736zm5.568-.096c0 2.656-.688 4.672-2.064 6.048-1.376 1.36-3.408 2.04-6.096 2.04s-4.704-.68-6.048-2.04c-1.344-1.376-2.016-3.392-2.016-6.048s.704-4.568 2.112-5.736c1.424-1.168 3.408-1.752 5.952-1.752s4.536.584 5.976 1.752c1.456 1.168 2.184 3.08 2.184 5.736zm3.225 1.848c.912 0 1.616.248 2.112.744s.744 1.256.744 2.28c0 1.04-.248 1.824-.744 2.352-.496.512-1.2.768-2.112.768-.912 0-1.616-.256-2.112-.768-.48-.528-.72-1.312-.72-2.352 0-1.024.248-1.784.744-2.28.496-.496 1.192-.744 2.088-.744z" fill="#022E35"/></svg>