<svg width="144" height="34" viewBox="0 0 144 34" fill="none" xmlns="http://www.w3.org/2000/svg"><rect x="1" y="1" width="142" height="32" rx="16" stroke="#F69170" stroke-width="2"/><path d="M20.412 14.85l-.99 3.285c.3.01.595.015.885.015H21.882c.3 0 .605-.005.915-.015-.16-.57-.33-1.145-.51-1.725-.18-.58-.35-1.115-.51-1.605-.16-.46-.295-.865-.405-1.215-.1-.36-.19-.665-.27-.915a121.79 121.79 0 01-.69 2.175zm6.93 7.65h-3.36c-.03-.19-.1-.48-.21-.87-.1-.4-.22-.86-.36-1.38h-4.62c-.14.49-.27.935-.39 1.335-.11.39-.19.695-.24.915h-3.105c.27-.7.595-1.605.975-2.715.39-1.11.775-2.225 1.155-3.345.38-1.13.725-2.175 1.035-3.135.32-.97.545-1.655.675-2.055h4.515a1502.329 1502.329 0 001.74 5.16c.38 1.12.765 2.24 1.155 3.36.4 1.11.745 2.02 1.035 2.73zm3.667-4.89v2.37c.25.15.54.265.87.345.33.08.705.12 1.125.12.66 0 1.145-.185 1.455-.555.31-.38.465-1.03.465-1.95 0-.93-.155-1.58-.465-1.95-.3-.38-.735-.57-1.305-.57-.6 0-1.11.17-1.53.51-.41.34-.615.9-.615 1.68zm.015-2.835l.12.03c.26-.47.645-.845 1.155-1.125s1.14-.42 1.89-.42c1.16 0 2.02.405 2.58 1.215.57.8.855 1.95.855 3.45 0 1.51-.315 2.675-.945 3.495-.63.82-1.475 1.23-2.535 1.23-.78 0-1.42-.13-1.92-.39s-.875-.58-1.125-.96l-.06.015c.01.2.015.4.015.6v1.65l.03 1.02h-2.85c.01-.37.015-.83.015-1.38.01-.54.015-1.115.015-1.725.01-.61.015-1.24.015-1.89v-1.845c0-.85-.005-1.625-.015-2.325 0-.71-.005-1.38-.015-2.01h2.82c0 .13-.005.255-.015.375v.345c0 .1-.005.205-.015.315 0 .11-.005.22-.015.33zm10.698.585l.105.015c.21-.74.54-1.27.99-1.59.46-.33 1.02-.49 1.68-.48.21 0 .42.015.63.045.21.03.41.07.6.12-.02.15-.04.335-.06.555-.02.22-.045.45-.075.69l-.06.72c-.01.23-.015.435-.015.615a3.702 3.702 0 00-.615-.135 4.99 4.99 0 00-.675-.045c-.73.01-1.25.2-1.56.57-.3.36-.45 1.06-.45 2.1v1.035c0 .36.005.715.015 1.065a376.268 376.268 0 00.06 1.86h-2.94c.01-.63.015-1.305.015-2.025.01-.73.015-1.585.015-2.565 0-.96-.005-1.79-.015-2.49 0-.71-.005-1.38-.015-2.01h2.415l-.03.93c-.01.31-.015.65-.015 1.02zm9.167-.165c-.6 0-1.065.14-1.395.42-.32.28-.515.83-.585 1.65.61.02 1.235.03 1.875.03.65 0 1.25-.005 1.8-.015.01-.06.015-.125.015-.195v-.225c0-.59-.135-1.015-.405-1.275-.26-.26-.695-.39-1.305-.39zm4.2 4.41c.01.49-.045.93-.165 1.32-.11.38-.32.705-.63.975-.31.26-.74.46-1.29.6-.54.13-1.23.195-2.07.195-1.44 0-2.575-.39-3.405-1.17-.82-.78-1.23-1.965-1.23-3.555 0-1.64.425-2.84 1.275-3.6.85-.77 1.99-1.155 3.42-1.155 1.52 0 2.58.35 3.18 1.05.61.7.915 1.625.915 2.775 0 .37-.01.69-.03.96-.01.27-.02.51-.03.72-.4-.01-.92-.015-1.56-.015-.63-.01-1.265-.015-1.905-.015-.5 0-.985.005-1.455.015h-1.215c.06.75.255 1.27.585 1.56.34.29.84.435 1.5.435.63 0 1.06-.095 1.29-.285.23-.19.35-.46.36-.81l.555.03a14.586 14.586 0 001.365 0c.2-.01.38-.02.54-.03zM66.14 22.5h-2.835c.01-.63.02-1.39.03-2.28.01-.89.015-1.87.015-2.94 0-.62-.115-1.06-.345-1.32-.23-.27-.63-.405-1.2-.405s-1.05.165-1.44.495c-.38.33-.57.88-.57 1.65v3.15c.01.36.015.67.015.93.01.26.015.5.015.72h-2.82c.02-.63.03-1.27.03-1.92.01-.66.015-1.51.015-2.55 0-.98-.005-1.84-.015-2.58l-.03-2.04h2.835c-.01.28-.02.53-.03.75l-.03.69.09.03c.28-.56.68-.965 1.2-1.215.52-.26 1.155-.39 1.905-.39 1.01 0 1.785.26 2.325.78.55.52.825 1.39.825 2.61 0 .64-.005 1.16-.015 1.56-.01.39-.015.785-.015 1.185v1.605c.01.5.025.995.045 1.485zm8.236-4.095v-2.49a3.1 3.1 0 00-.87-.345 4.65 4.65 0 00-1.095-.12c-.67 0-1.18.19-1.53.57-.34.38-.51 1.04-.51 1.98 0 .92.165 1.57.495 1.95.34.37.8.555 1.38.555.6 0 1.105-.17 1.515-.51.41-.35.615-.88.615-1.59zM74.3 10.89h2.835l-.03 1.26V20.1c0 .85.01 1.655.03 2.415H74.33V21.48v-.36l.03-.375-.105-.015c-.22.51-.575.955-1.065 1.335-.48.38-1.105.57-1.875.57-.52 0-1-.09-1.44-.27-.44-.18-.82-.455-1.14-.825-.32-.37-.57-.845-.75-1.425-.17-.59-.255-1.29-.255-2.1s.1-1.515.3-2.115c.2-.6.47-1.09.81-1.47.35-.39.76-.68 1.23-.87.47-.2.97-.3 1.5-.3.68 0 1.245.115 1.695.345.45.23.8.56 1.05.99l.045-.015-.03-.75v-.78-1.11c0-.35-.01-.7-.03-1.05zm9.153 4.305c-.6 0-1.065.14-1.395.42-.32.28-.515.83-.585 1.65.61.02 1.235.03 1.875.03.65 0 1.25-.005 1.8-.015.01-.06.015-.125.015-.195v-.225c0-.59-.135-1.015-.405-1.275-.26-.26-.695-.39-1.305-.39zm4.2 4.41c.01.49-.045.93-.165 1.32-.11.38-.32.705-.63.975-.31.26-.74.46-1.29.6-.54.13-1.23.195-2.07.195-1.44 0-2.575-.39-3.405-1.17-.82-.78-1.23-1.965-1.23-3.555 0-1.64.425-2.84 1.275-3.6.85-.77 1.99-1.155 3.42-1.155 1.52 0 2.58.35 3.18 1.05.61.7.915 1.625.915 2.775 0 .37-.01.69-.03.96-.01.27-.02.51-.03.72-.4-.01-.92-.015-1.56-.015-.63-.01-1.265-.015-1.905-.015-.5 0-.985.005-1.455.015h-1.215c.06.75.255 1.27.585 1.56.34.29.84.435 1.5.435.63 0 1.06-.095 1.29-.285.23-.19.35-.46.36-.81l.555.03a14.586 14.586 0 001.365 0c.2-.01.38-.02.54-.03zm20.069 2.895h-2.655c.02-.66.035-1.455.045-2.385.01-.93.015-1.96.015-3.09 0-.49-.11-.855-.33-1.095-.22-.24-.56-.36-1.02-.36-.49 0-.91.15-1.26.45-.34.29-.51.785-.51 1.485v3.075c0 .39.005.74.015 1.05l.03.87h-2.64c.02-.66.035-1.41.045-2.25.01-.85.015-1.925.015-3.225 0-.47-.105-.83-.315-1.08-.2-.25-.54-.375-1.02-.375-.49 0-.91.15-1.26.45-.34.29-.51.785-.51 1.485v3.06c.01.83.02 1.475.03 1.935h-2.67c.02-.64.03-1.31.03-2.01v-2.475c0-.98-.005-1.825-.015-2.535 0-.72-.005-1.41-.015-2.07h2.73l-.03.735c-.01.22-.025.455-.045.705l.09.015c.26-.54.615-.94 1.065-1.2.45-.26 1-.39 1.65-.39.63 0 1.19.145 1.68.435.49.28.81.69.96 1.23l.12.015c.27-.63.665-1.065 1.185-1.305a3.929 3.929 0 011.725-.375c.84 0 1.525.235 2.055.705.53.47.795 1.155.795 2.055 0 .69-.005 1.31-.015 1.86a92.435 92.435 0 000 3.195l.03 1.41zm9.605-11.475c-.21.04-.58.135-1.11.285-.52.15-1.07.31-1.65.48-.58.16-1.135.325-1.665.495-.52.16-.89.275-1.11.345-.06-.16-.13-.31-.21-.45-.07-.15-.14-.29-.21-.42.19-.09.535-.25 1.035-.48a632.585 632.585 0 013.135-1.485c.5-.24.84-.41 1.02-.51.1.25.22.54.36.87.14.32.275.61.405.87zm-3.96 9.675c.57 0 1.03-.165 1.38-.495.35-.33.53-.78.54-1.35-.26-.04-.53-.065-.81-.075-.28-.01-.565-.015-.855-.015-.55 0-.955.085-1.215.255-.25.16-.375.41-.375.75 0 .31.1.545.3.705.2.15.545.225 1.035.225zm1.995.3l-.075-.015c-.19.56-.54.98-1.05 1.26-.5.27-1.135.405-1.905.405-.96 0-1.7-.185-2.22-.555-.51-.38-.765-1.025-.765-1.935 0-.93.325-1.605.975-2.025.65-.43 1.63-.645 2.94-.645.38 0 .75.01 1.11.03.36.01.67.035.93.075.01-.13.015-.255.015-.375v-.375c0-.43-.115-.76-.345-.99-.22-.23-.6-.345-1.14-.345-.57 0-.98.12-1.23.36-.25.23-.365.6-.345 1.11a9.016 9.016 0 00-.555-.015h-.63c-.27 0-.535.005-.795.015-.25 0-.47.015-.66.045a4.3 4.3 0 01.165-1.5c.14-.46.375-.86.705-1.2.34-.34.785-.605 1.335-.795.55-.19 1.205-.285 1.965-.285 1.54 0 2.635.325 3.285.975.66.64.99 1.49.99 2.55 0 .57-.01 1.085-.03 1.545-.01.46-.015.96-.015 1.5 0 .26.005.53.015.81.01.27.025.53.045.78.02.24.04.46.06.66.03.19.065.335.105.435h-2.31c-.25 0-.415-.035-.495-.105-.07-.07-.105-.245-.105-.525v-.42l.03-.45zm7.008-1.515v.15c0 .29.13.515.39.675.26.15.745.225 1.455.225.61 0 1.03-.06 1.26-.18.23-.12.345-.3.345-.54a.53.53 0 00-.09-.3c-.06-.1-.175-.185-.345-.255-.16-.08-.39-.15-.69-.21-.29-.06-.67-.11-1.14-.15-.73-.08-1.335-.205-1.815-.375s-.86-.375-1.14-.615a2.022 2.022 0 01-.585-.855 3.347 3.347 0 01-.165-1.065c0-.92.345-1.61 1.035-2.07.69-.46 1.775-.69 3.255-.69s2.545.23 3.195.69c.65.46.975 1.14.975 2.04 0 .07-.005.14-.015.21 0 .07-.005.145-.015.225-.16-.01-.36-.02-.6-.03a17.659 17.659 0 00-1.395 0c-.21 0-.38.005-.51.015v-.15c0-.28-.12-.49-.36-.63-.23-.15-.67-.225-1.32-.225-.62 0-1.045.06-1.275.18-.22.11-.33.27-.33.48 0 .1.025.195.075.285.05.09.155.175.315.255.16.08.395.155.705.225.32.06.735.12 1.245.18 1.37.16 2.315.47 2.835.93.52.46.78 1.11.78 1.95 0 .86-.325 1.55-.975 2.07-.65.51-1.745.765-3.285.765-.84 0-1.54-.065-2.1-.195-.56-.14-1.01-.33-1.35-.57a2.005 2.005 0 01-.705-.885c-.14-.35-.21-.74-.21-1.17v-.195c.01-.07.015-.14.015-.21.16.01.355.025.585.045a17.346 17.346 0 001.395 0c.21-.01.395-.02.555-.03z" fill="#022E35"/></svg>