<svg width="252" height="145" viewBox="0 0 252 145" fill="none" xmlns="http://www.w3.org/2000/svg"><path d="M153.857 17.858c-39.672-.883-65.834 1.476-79.383 3.257l-2.3 24.344c3.785-.608 10.473-1.53 20.062-2.323 12.561-1.053 32.465-2.084 59.379-1.55l2.242-23.728z" fill="#B4DBB8"/><path d="M16.732 44.913c.5-.01.996.097 1.447.314.404.193.742.502.97.886a2.784 2.784 0 010 2.672c-.231.38-.568.686-.97.88a3.194 3.194 0 01-1.447.309h-1.47v2.56h-1.637v-7.621h3.107zm-1.47 3.702h1.319c.335.018.664-.096.915-.318a1.103 1.103 0 00.338-.848 1.123 1.123 0 00-.338-.86 1.293 1.293 0 00-.915-.313h-1.319v2.339zM20.945 52.243a2.493 2.493 0 01-1.036-1.007 3.27 3.27 0 010-3c.238-.431.599-.781 1.036-1.008a3.566 3.566 0 013.103 0c.439.224.8.575 1.036 1.007a3.255 3.255 0 010 3.009c-.239.428-.6.776-1.036.999a3.566 3.566 0 01-3.103 0zm2.576-1.344a1.988 1.988 0 000-2.323 1.268 1.268 0 00-1.02-.45 1.255 1.255 0 00-1.01.45 1.987 1.987 0 000 2.323 1.248 1.248 0 001.01.446 1.268 1.268 0 001.016-.446h.004zM30.806 47.484c.422.408.632 1.08.632 2.014v3.035h-1.551v-2.95c0-.966-.378-1.448-1.133-1.448a1.132 1.132 0 00-.927.387c-.236.33-.351.73-.326 1.134v2.862h-1.552v-5.58h1.342l.144.697c.191-.236.432-.428.706-.561.322-.142.672-.211 1.024-.202a2.227 2.227 0 011.641.612zM32.668 48.235h-.927v-1.297h.927v-1.549h1.551v1.549h1.277v1.297h-1.277v2.447a.615.615 0 00.125.426.575.575 0 00.419.128h.78v1.297H34.27c-1.07 0-1.602-.534-1.602-1.599v-2.699zM36.148 48.227c.228-.42.573-.767.993-.999a3.003 3.003 0 011.477-.356 3.244 3.244 0 011.498.333c.421.21.774.535 1.016.937a2.796 2.796 0 01.342 1.94h-4.077v.047c.016.353.153.69.388.956a1.23 1.23 0 00.927.349c.272.01.542-.06.775-.202a.953.953 0 00.412-.592h1.513c-.056.363-.201.706-.423.999a2.296 2.296 0 01-.896.705 3.016 3.016 0 01-1.277.255 3.497 3.497 0 01-1.617-.348 2.46 2.46 0 01-1.048-1 2.996 2.996 0 01-.364-1.506 3.155 3.155 0 01.36-1.517zm3.82.856a1.2 1.2 0 00-.419-.774 1.324 1.324 0 00-.864-.279 1.266 1.266 0 00-.846.29 1.161 1.161 0 00-.407.775l2.536-.012zM45.027 44.913h1.552v7.62h-1.552v-7.62zM52.975 51.236v1.297H52.2c-.706 0-1.052-.306-1.036-.913a2.14 2.14 0 01-.753.727 2.187 2.187 0 01-1.078.252 2.466 2.466 0 01-1.513-.43 1.437 1.437 0 01-.57-1.216 1.605 1.605 0 01.66-1.374c.57-.36 1.239-.53 1.912-.484h1.113v-.275a.743.743 0 00-.283-.604 1.418 1.418 0 00-1.463-.035.713.713 0 00-.325.5h-1.49a1.713 1.713 0 01.776-1.332 3.143 3.143 0 011.823-.477 2.851 2.851 0 011.835.523 1.825 1.825 0 01.648 1.514v1.97a.386.386 0 00.089.284.389.389 0 00.271.073h.16zm-2.048-1.119h-1.125a1.262 1.262 0 00-.745.19.624.624 0 00-.267.538.557.557 0 00.225.468c.176.126.39.187.605.175a1.293 1.293 0 00.946-.345 1.266 1.266 0 00.361-.918v-.108zM54.76 50.67a.8.8 0 00.36.601c.25.16.545.24.842.229a1.6 1.6 0 00.776-.16.492.492 0 00.283-.452.387.387 0 00-.132-.325.833.833 0 00-.368-.16c-.16-.03-.423-.069-.776-.111a7.682 7.682 0 01-1.233-.252 1.672 1.672 0 01-.776-.48 1.237 1.237 0 01-.295-.868c-.006-.345.1-.682.298-.964a1.94 1.94 0 01.846-.647c.398-.16.824-.237 1.253-.228a3.287 3.287 0 011.847.488 1.675 1.675 0 01.776 1.328h-1.463a.676.676 0 00-.334-.515 1.58 1.58 0 00-1.47-.039.489.489 0 00-.267.434.328.328 0 00.143.294c.111.073.237.12.369.14.155.03.407.062.776.1a4.493 4.493 0 011.737.484 1.29 1.29 0 01.605 1.212c.007.347-.106.685-.322.957a2.002 2.002 0 01-.892.639 3.661 3.661 0 01-1.326.224 3.22 3.22 0 01-1.897-.519 1.747 1.747 0 01-.776-1.41h1.416zM61.312 46.938h1.648l1.35 4.027 1.33-4.027h1.615l-2.017 5.595h-1.91l-2.016-5.595zM72.984 51.236v1.297h-.776c-.706 0-1.051-.306-1.035-.913a2.108 2.108 0 01-.753.727 2.175 2.175 0 01-1.079.252 2.448 2.448 0 01-1.508-.43 1.429 1.429 0 01-.575-1.215 1.605 1.605 0 01.66-1.375 3.19 3.19 0 011.912-.484h1.114v-.275a.731.731 0 00-.284-.604 1.418 1.418 0 00-1.462-.035.725.725 0 00-.326.5H67.39a1.717 1.717 0 01.776-1.332 3.131 3.131 0 011.82-.477 2.87 2.87 0 011.838.523 1.836 1.836 0 01.648 1.514v1.97c-.01.103.02.204.085.284a.411.411 0 00.272.073h.155zm-2.048-1.119h-1.121a1.266 1.266 0 00-.749.19.624.624 0 00-.268.538.557.557 0 00.225.469c.176.125.39.186.606.174a1.294 1.294 0 00.946-.345 1.266 1.266 0 00.36-.917v-.109zM77.988 52.014a2.846 2.846 0 01-1.85.585 3.154 3.154 0 01-1.525-.356 2.45 2.45 0 01-1.008-1.007 3.383 3.383 0 010-3.008 2.465 2.465 0 011.012-1c.473-.244 1-.366 1.533-.356a2.809 2.809 0 011.83.573c.483.398.796.964.873 1.584h-1.59a1.2 1.2 0 00-.388-.658 1.118 1.118 0 00-.733-.248 1.165 1.165 0 00-.958.45 2.057 2.057 0 000 2.322 1.163 1.163 0 00.958.446c.271.01.537-.079.749-.248a1.16 1.16 0 00.387-.686h1.58a2.45 2.45 0 01-.87 1.607zM84.854 46.938v5.595H83.49l-.14-.677c-.19.226-.423.411-.686.546-.3.139-.628.207-.959.197a2.21 2.21 0 01-1.606-.604c-.41-.387-.62-1.076-.62-2.021v-3.036h1.552v2.854c-.03.405.063.81.267 1.161a.93.93 0 00.826.388 1.04 1.04 0 00.893-.43c.23-.358.342-.78.318-1.204v-2.754l1.52-.015zM90.576 47.484c.422.408.632 1.08.632 2.014v3.035h-1.551v-2.95c0-.964-.388-1.448-1.133-1.448a1.13 1.13 0 00-.927.387c-.237.329-.354.73-.33 1.134v2.862h-1.551v-5.58h1.342l.14.697c.193-.236.435-.427.71-.561a2.367 2.367 0 011.023-.202 2.233 2.233 0 011.645.612zM97.574 51.236v1.297H96.8c-.706 0-1.052-.306-1.036-.913a2.109 2.109 0 01-.753.727 2.176 2.176 0 01-1.078.252 2.447 2.447 0 01-1.51-.43 1.43 1.43 0 01-.573-1.216 1.605 1.605 0 01.66-1.374c.57-.36 1.239-.53 1.912-.484h1.113v-.275a.731.731 0 00-.283-.604 1.418 1.418 0 00-1.463-.035.725.725 0 00-.325.5H91.98a1.716 1.716 0 01.776-1.332 3.13 3.13 0 011.819-.477 2.85 2.85 0 011.835.523 1.827 1.827 0 01.651 1.514v1.97c-.01.103.021.204.086.284a.412.412 0 00.271.073h.155zm-2.048-1.119h-1.12a1.266 1.266 0 00-.75.19.624.624 0 00-.267.538.557.557 0 00.225.468c.176.126.39.187.605.175a1.293 1.293 0 00.946-.345 1.266 1.266 0 00.361-.918v-.108zM99.397 50.67a.774.774 0 00.357.601c.251.16.545.24.842.228.268.014.535-.04.776-.158a.497.497 0 00.283-.453.386.386 0 00-.128-.326.869.869 0 00-.388-.158 12.14 12.14 0 00-.776-.113 7.775 7.775 0 01-1.233-.251 1.672 1.672 0 01-.776-.48 1.238 1.238 0 01-.295-.868c-.005-.345.1-.682.299-.964.216-.29.509-.514.846-.647.397-.16.824-.237 1.253-.228a3.306 3.306 0 011.85.488 1.663 1.663 0 01.756 1.328h-1.462a.683.683 0 00-.33-.515 1.585 1.585 0 00-1.474-.039.488.488 0 00-.268.434.335.335 0 00.144.294c.117.076.25.123.388.14.151.03.388.062.776.1a4.476 4.476 0 011.738.484 1.294 1.294 0 01.605 1.212c.006.346-.106.683-.318.957a2.045 2.045 0 01-.896.639 3.658 3.658 0 01-1.323.224 3.204 3.204 0 01-1.897-.519 1.751 1.751 0 01-.776-1.41h1.427zM112.315 44.913v7.62h-1.342l-.151-.774a2.096 2.096 0 01-1.746.84 2.548 2.548 0 01-1.331-.356 2.411 2.411 0 01-.919-1.007 3.29 3.29 0 01-.334-1.51 3.243 3.243 0 01.334-1.498c.207-.415.529-.761.927-1a2.557 2.557 0 011.335-.356 2.033 2.033 0 011.691.775v-2.71l1.536-.024zm-1.885 5.994c.257-.331.388-.743.368-1.161a1.795 1.795 0 00-.368-1.162 1.336 1.336 0 00-.995-.449 1.328 1.328 0 00-.995.449 1.986 1.986 0 000 2.323 1.344 1.344 0 001.99 0zM113.347 48.227a2.48 2.48 0 01.989-.999 3.004 3.004 0 011.478-.356 3.24 3.24 0 011.497.333c.421.21.774.535 1.017.937.255.429.389.919.388 1.417.001.176-.013.35-.043.523h-4.081v.047c.016.353.153.69.388.956a1.228 1.228 0 00.927.349c.273.01.543-.06.776-.202a.954.954 0 00.411-.592h1.513a2.21 2.21 0 01-.423.999 2.295 2.295 0 01-.896.705 3.017 3.017 0 01-1.276.255 3.498 3.498 0 01-1.618-.348 2.464 2.464 0 01-1.047-1 3 3 0 01-.365-1.506 3.112 3.112 0 01.365-1.517zm3.821.856a1.217 1.217 0 00-.423-.774 1.324 1.324 0 00-.865-.279 1.266 1.266 0 00-.846.29 1.161 1.161 0 00-.407.775l2.541-.012zM122.223 44.913h1.551v7.62h-1.551v-7.62zM130.225 51.236v1.297h-.776c-.706 0-1.051-.306-1.036-.913a2.136 2.136 0 01-.752.727 2.188 2.188 0 01-1.079.252 2.448 2.448 0 01-1.509-.43 1.43 1.43 0 01-.574-1.216 1.613 1.613 0 01.66-1.374 3.18 3.18 0 011.912-.484h1.114v-.275a.735.735 0 00-.284-.604 1.414 1.414 0 00-1.462-.035.714.714 0 00-.326.5h-1.482a1.718 1.718 0 01.776-1.332 3.144 3.144 0 011.823-.477 2.85 2.85 0 011.835.523 1.824 1.824 0 01.652 1.514v1.97c-.01.103.02.204.085.284a.389.389 0 00.272.073h.151zm-2.048-1.119h-1.125a1.262 1.262 0 00-.745.19.629.629 0 00-.268.538.565.565 0 00.225.468c.176.126.39.187.606.175a1.296 1.296 0 00.946-.345 1.261 1.261 0 00.361-.918v-.108zM133.868 48.235h-.927v-1.297h.927v-1.549h1.551v1.549h1.277v1.297h-1.277v2.447a.616.616 0 00.125.426.58.58 0 00.422.128h.776v1.297h-1.272c-1.066 0-1.6-.533-1.602-1.599v-2.699zM137.359 48.227c.227-.42.571-.767.989-.999a3.004 3.004 0 011.478-.356c.52-.01 1.035.105 1.501.333.42.211.771.536 1.013.937.255.429.389.919.388 1.417.001.176-.013.35-.043.523h-4.081v.047c.016.353.153.69.388.956a1.227 1.227 0 00.927.349c.273.01.543-.06.776-.202a.95.95 0 00.411-.592h1.513a2.2 2.2 0 01-.423.999 2.294 2.294 0 01-.896.704c-.4.177-.835.264-1.272.256a3.5 3.5 0 01-1.622-.348 2.464 2.464 0 01-1.047-1 3.044 3.044 0 01-.365-1.506 3.112 3.112 0 01.365-1.518zm3.821.856a1.198 1.198 0 00-.419-.774 1.345 1.345 0 00-.869-.28 1.267 1.267 0 00-.846.291 1.166 1.166 0 00-.407.775l2.541-.012zM151.646 47.472c.377.398.566 1.061.566 1.99v3.098h-1.551v-3.136c0-.848-.322-1.274-.97-1.274a1.015 1.015 0 00-.807.356c-.217.28-.324.63-.303.984v3.067h-1.551V49.42c0-.848-.326-1.274-.978-1.274a.988.988 0 00-.803.364 1.503 1.503 0 00-.299.988v3.059h-1.551v-5.619h1.342l.143.697c.179-.234.41-.424.675-.554.308-.142.643-.213.982-.209a1.708 1.708 0 011.668.949c.199-.302.475-.545.799-.705a2.54 2.54 0 011.129-.244 1.94 1.94 0 011.509.6zM157.635 47.228c.395.242.713.592.916 1.007.23.47.344.988.333 1.51a3.219 3.219 0 01-.333 1.503 2.418 2.418 0 01-.923.995c-.405.24-.868.364-1.339.356a2.037 2.037 0 01-1.691-.774v2.884h-1.552v-7.77h1.342l.152.773c.192-.256.44-.465.725-.611a2.2 2.2 0 011.02-.229c.475-.01.943.113 1.35.356zm-.675 3.667c.266-.328.403-.74.388-1.161a1.705 1.705 0 00-.388-1.162 1.25 1.25 0 00-1-.441 1.237 1.237 0 00-.994.441c-.258.33-.389.743-.368 1.162-.019.418.112.83.368 1.161a1.22 1.22 0 00.994.446 1.234 1.234 0 001-.446zM160.781 52.243a2.492 2.492 0 01-1.035-1.007 3.266 3.266 0 010-3 2.49 2.49 0 011.035-1.008 3.57 3.57 0 013.104 0 2.49 2.49 0 011.035 1.007 3.281 3.281 0 010 3.009c-.24.426-.6.773-1.035.999a3.57 3.57 0 01-3.104 0zm2.576-1.344a2 2 0 000-2.323 1.262 1.262 0 00-1.02-.45 1.246 1.246 0 00-1.009.45 1.993 1.993 0 000 2.323 1.247 1.247 0 001.009.446 1.267 1.267 0 001.02-.446zM169.323 46.938v1.394h-.609a1.164 1.164 0 00-.962.387 1.702 1.702 0 00-.302 1.069v2.742h-1.552v-5.592h1.397l.143.84c.148-.26.362-.476.621-.627.307-.156.649-.23.993-.213h.271zM175.375 51.236v1.297h-.776c-.706 0-1.051-.306-1.036-.913a2.104 2.104 0 01-.752.727 2.177 2.177 0 01-1.079.252 2.449 2.449 0 01-1.509-.43 1.43 1.43 0 01-.574-1.215 1.613 1.613 0 01.66-1.375 3.188 3.188 0 011.912-.484h1.113v-.275a.722.722 0 00-.283-.604 1.414 1.414 0 00-1.462-.035.72.72 0 00-.326.5h-1.501a1.716 1.716 0 01.776-1.332 3.13 3.13 0 011.819-.477 2.871 2.871 0 011.839.523 1.836 1.836 0 01.647 1.514v1.97a.386.386 0 00.086.284.41.41 0 00.271.073h.175zm-2.048-1.119h-1.121a1.267 1.267 0 00-.749.19.629.629 0 00-.268.538.564.564 0 00.225.469c.176.125.39.186.605.174a1.298 1.298 0 00.947-.345 1.271 1.271 0 00.361-.918v-.108zM181.461 44.913v7.62h-1.338l-.155-.774a2.087 2.087 0 01-1.742.84 2.527 2.527 0 01-1.331-.356 2.45 2.45 0 01-.923-1.007 3.301 3.301 0 01-.33-1.51 3.253 3.253 0 01.33-1.498c.209-.414.53-.76.927-1 .405-.239.868-.362 1.339-.356a2.031 2.031 0 011.687.775v-2.71l1.536-.024zm-1.885 5.994c.266-.327.404-.74.388-1.161a1.779 1.779 0 00-.388-1.162 1.232 1.232 0 00-.993-.45 1.248 1.248 0 00-.997.45 1.986 1.986 0 000 2.323 1.338 1.338 0 00.995.44 1.345 1.345 0 00.995-.44zM187.928 51.236v1.297h-.776c-.706 0-1.051-.306-1.036-.913a2.136 2.136 0 01-.752.727 2.192 2.192 0 01-1.083.252 2.458 2.458 0 01-1.509-.43 1.443 1.443 0 01-.57-1.216 1.602 1.602 0 01.66-1.374 3.171 3.171 0 011.912-.484h1.113v-.275a.743.743 0 00-.283-.604 1.414 1.414 0 00-1.462-.035.714.714 0 00-.326.5h-1.486a1.733 1.733 0 01.776-1.332 3.144 3.144 0 011.823-.477 2.85 2.85 0 011.835.523c.219.184.392.417.505.68.112.263.161.549.143.834v1.97a.382.382 0 00.089.284.389.389 0 00.272.073h.155zm-2.048-1.119h-1.125a1.262 1.262 0 00-.745.19.62.62 0 00-.268.538.56.56 0 00.221.468c.177.124.39.186.605.175a1.307 1.307 0 00.951-.345 1.274 1.274 0 00.361-.918v-.108zM17.562.53h9.465l5.563 15.415H25.95l-1.016-3.41H19.66l-1.04 3.41h-6.618L17.563.531zm6.048 7.64l-.795-2.683-.245-2.358h-.55l-.241 2.358-.819 2.683h2.65zM32.986.53h10.26c2.514 0 4.368.926 5.23 2.444.39.667.59 1.43.574 2.203a4.083 4.083 0 01-.551 2.18c-.598.991-1.855 1.696-3.709 2.006v.387l1.808.387 2.715 5.808h-7.176l-2.428-5.239h-.388v5.24h-6.335V.53zm8.208 6.54a1.453 1.453 0 001.346-.662c.099-.166.152-.356.156-.55a1.16 1.16 0 00-.156-.572 1.443 1.443 0 00-1.346-.64h-1.897v2.425h1.897zM49.977.53h10.256c2.518 0 4.372.926 5.23 2.444a4.15 4.15 0 01.574 2.203 4.048 4.048 0 01-.551 2.18c-.594.991-1.855 1.696-3.705 2.006v.387l1.808.387 2.715 5.808h-7.196l-2.424-5.239h-.388v5.24h-6.32V.53zm8.208 6.54a1.446 1.446 0 001.342-.662c.099-.166.152-.356.155-.55a1.16 1.16 0 00-.155-.572 1.438 1.438 0 00-1.342-.64h-1.9v2.425h1.9zM67.076.53h6.308v15.415h-6.308V.531zM74.776.53h13.457v4.4h-7.15V6.14h6.886v4.21h-6.885v1.211h7.149v4.403H74.776V.53zM89.075 11.167v-.155h6.113v.155c0 .883.73 1.367 1.855 1.367.748 0 1.346-.178 1.551-.554a.855.855 0 00.132-.437.773.773 0 00-.089-.387c-.198-.306-.683-.527-1.722-.705l-2.945-.488c-2.184-.387-3.53-1.1-4.193-2.288a4.64 4.64 0 01-.57-2.401 4.841 4.841 0 01.593-2.49C90.836 1.022 93.292.008 97.105.008c5.14 0 7.874 1.85 7.874 5.309v.154h-6.11v-.154c0-.903-.729-1.367-1.81-1.367-.75 0-1.366.178-1.552.553a.835.835 0 00-.136.438.774.774 0 00.089.387c.198.306.687.484 1.699.639l3.022.484c2.118.33 3.464 1.162 4.151 2.323.405.741.603 1.577.574 2.42a4.842 4.842 0 01-.598 2.49c-1.059 1.762-3.491 2.777-7.304 2.777-5.175.015-7.93-1.851-7.93-5.294zM105.906 11.609a9.664 9.664 0 01.024-6.258C107.094 2.048 110.255 0 115.659 0c5.403 0 9.003 2.27 9.38 5.97h-6.533c-.353-.99-1.501-1.455-2.89-1.455-1.742 0-2.913.774-3.398 2.114a5.426 5.426 0 00-.287 1.874 5.151 5.151 0 00.31 1.917c.504 1.32 1.653 2.068 3.177 2.068 1.61 0 2.626-.775 2.844-1.55h-3.286v-3.74h9.357v8.763h-5.365l.973-2.974h-.554c-.881 2.03-2.471 3.504-5.846 3.504-4.081-.015-6.575-1.974-7.635-4.882zM130.353.53h9.465l5.563 15.415h-6.653l-1.016-3.41h-5.26l-1.04 3.41h-6.618L130.353.531zm6.048 7.64l-.776-2.683-.241-2.358h-.574l-.24 2.358-.819 2.683h2.65zM149.978.53h9.554l1.874 9.68.112 2.754h.528l.109-2.753 1.854-9.68h9.597v15.414h-5.986V3.524h-.574l-.198 4.472-1.59 7.95h-6.983l-1.586-7.95-.202-4.472h-.551v12.421h-5.958V.531zM174.878.53h13.461v4.4h-7.149V6.14h6.885v4.21h-6.885v1.211h7.149v4.403h-13.461V.53zM189.545.53h8.275l2.758 6.583.388 5.684h.55V.531h5.648v15.414h-8.309l-2.8-6.605-.334-5.661h-.551v12.266h-5.625V.531zM208.441 11.233a9.486 9.486 0 010-5.99C209.632 1.828 213.228 0 218.302 0c5.074 0 8.67 1.828 9.864 5.243a9.486 9.486 0 010 5.99c-1.26 3.392-4.79 5.243-9.864 5.243-5.074 0-8.651-1.828-9.861-5.243zm6.319-1.41c.485 1.321 1.765 2.138 3.553 2.138 1.789 0 3.046-.817 3.554-2.137a4.907 4.907 0 000-3.172c-.508-1.32-1.789-2.137-3.554-2.137s-3.068.817-3.553 2.137a4.894 4.894 0 000 3.172zM229.09 11.167v-.155h6.113v.155c0 .883.729 1.367 1.854 1.367.749 0 1.346-.178 1.552-.554a.85.85 0 00.132-.437.778.778 0 00-.089-.387c-.198-.306-.683-.527-1.723-.705l-2.94-.488c-2.184-.387-3.53-1.1-4.193-2.288a4.635 4.635 0 01-.571-2.401 4.84 4.84 0 01.594-2.49c1.036-1.762 3.491-2.776 7.304-2.776 5.14 0 7.875 1.85 7.875 5.309v.154h-6.11v-.154c0-.903-.729-1.367-1.811-1.367-.749 0-1.366.178-1.552.553a.84.84 0 00-.136.438.779.779 0 00.09.387c.197.306.686.484 1.699.639l3.022.484c2.118.33 3.464 1.162 4.15 2.323.406.741.604 1.577.574 2.42a4.84 4.84 0 01-.597 2.49c-1.059 1.762-3.491 2.777-7.304 2.777-5.175.015-7.933-1.851-7.933-5.294zM245.77 11.43H252v4.516h-6.245l.015-4.515zM24.49 32.181h-4.965v5.464h-6.307V22.226h6.307v5.464h4.966v-5.464h6.334v15.419h-6.334V32.18zM37 22.226h9.466l5.563 15.419h-6.641L44.37 34.23H39.1l-1.04 3.415h-6.617l5.559-15.419zm6.048 7.644l-.795-2.688-.244-2.354h-.551l-.24 2.354-.819 2.688h2.65zM52.556 31.213l8.693-4.162v-.55h-8.693v-4.26h15.598v6.432l-8.712 4.136v.55h8.778v4.259H52.556v-6.405z" fill="#fff"/><path d="M79.187 22.226h9.554l1.878 9.68.108 2.754h.532l.108-2.754 1.855-9.68h9.597v15.419h-5.986V25.223h-.574l-.202 4.488-1.59 7.95h-6.944l-1.606-7.95-.198-4.472h-.55V37.66h-5.982V22.226zM123.514 32.867v-.155h6.114v.155c0 .879.725 1.363 1.854 1.363.749 0 1.342-.175 1.552-.55a.852.852 0 00.132-.442.746.746 0 00-.086-.387c-.198-.31-.686-.53-1.722-.705l-2.944-.5c-2.184-.386-3.53-1.103-4.194-2.291a4.615 4.615 0 01-.574-2.401 4.836 4.836 0 01.597-2.486c1.036-1.762 3.492-2.776 7.305-2.776 5.14 0 7.875 1.85 7.875 5.308v.151h-6.126v-.15c0-.907-.729-1.367-1.811-1.367-.749 0-1.366.178-1.552.55a.884.884 0 00-.132.44.737.737 0 00.09.388c.197.31.682.484 1.699.639l3.021.484c2.119.333 3.465 1.162 4.147 2.323a4.67 4.67 0 01.574 2.424 4.83 4.83 0 01-.593 2.49c-1.059 1.762-3.491 2.772-7.305 2.772-5.163.028-7.921-1.82-7.921-5.277zM140.194 33.13h6.246v4.515h-6.246V33.13zM108.998 22.226h9.466l5.558 15.419h-6.629l-1.016-3.415h-5.284l-1.036 3.415h-6.629l5.57-15.419zm6.044 7.644l-.795-2.688-.241-2.354h-.55l-.245 2.354-.814 2.688h2.645zM116.256 20.987h-5.066l1.765-2.397h6.284l-2.983 2.397z" fill="#022E35"/><path d="M23.01 142.177c-.322-.018-.64.09-.885.3a1.046 1.046 0 00-.293.767.892.892 0 00.228.673 1.252 1.252 0 00.91.309l1.093.02v-.13l-.284-.052.028-1.696.285-.045v-.125h-1.053l-.028-.021zm-.84.966a.85.85 0 01.231-.613.815.815 0 01.577-.207c.168.007.335.027.5.061l-.028 1.696h-.35c-.638-.004-.955-.321-.947-.937h.017zM20.012 141.934l-.183.483h.13l.154-.3.773.093-.094.754-.504-.061-.024-.231h-.118a3.012 3.012 0 01-.07.576h.115l.08-.207.505.061-.09.706-.605-.073-.045-.292h-.118v.462l1.341.163v-.126l-.276-.081.207-1.684h.277v-.129l-1.476-.179.02.065zM18.687 141.678l-.029.122.309.118-.358 1.683c-.065 0-.134 0-.207-.032a.524.524 0 01-.256-.134.285.285 0 01-.077-.146.546.546 0 010-.219.536.536 0 01.183-.365.428.428 0 01.341-.049c.046.013.09.029.134.049h.025l.024-.098a1.163 1.163 0 00-.191-.061.701.701 0 00-.54.09.696.696 0 00-.297.442c-.073.341.118.552.577.653l.861.183.025-.126-.285-.11.354-1.659h.292l.029-.122-.906-.19-.008-.029zM17.959 141.553l-.699-.24-.045.122.248.134-.378.478-.674-.231-.04-.62.28.044.04-.121-.813-.28-.04.117.22.13.13 2.057.158.052 1.34-1.561.253.032.02-.113zm-1.503 1.216l-.045-.778.54.186-.495.592zM14.757 140.534l.24.163-.28.62a3.238 3.238 0 00-.261-.105 9.09 9.09 0 00-.232-.978c0-.024-.056-.065-.13-.126l-.215-.166-.081.089c.108.143.178.31.203.487l.146.637a.745.745 0 00-.573.406.466.466 0 000 .369c.02.04.047.076.077.109v.033c.03.032.063.062.098.089l.06.041c.033 0 .054.04.09.056l.882.406.049-.118-.252-.166.69-1.55.293.078.053-.114-.813-.365-.044.105zm-.598 1.688a.485.485 0 01-.276-.26.518.518 0 01.04-.381c.066-.146.13-.227.212-.256a.168.168 0 01.077 0 .935.935 0 01.346.11l.097.044-.362.812a.555.555 0 01-.134-.069zM12.444 139.216l-.065.11.252.202-.841 1.453-.305-.175-.248-.154.098-.304-.118-.069-.24.47 1.658.954.305-.406-.114-.065-.252.227-.244-.13-.296-.17.84-1.452.306.118.06-.114-.812-.467.016-.028zM11.493 138.843l.232.105.073-.101-.577-.418-.073.101.187.195-1.008 1.144.402-1.769.004-.008-.045-.032-1.589.961.797-1.335.244.118.012.004.073-.101-.687-.499-.012-.008-.077.101.191.199-.862 1.472-.264-.129-.073.101.512.373.008.004 1.358-.819-.346 1.541-.004.008.533.386.073-.102-.22-.219 1.138-1.273zM8.99 136.916l.223.158.094-.089-1.053-1.051-.443.272.098.093.3-.138.553.548-.54.535-.358-.357.122-.194-.081-.086c-.125.146-.26.282-.407.406l.085.081.191-.113.358.353-.565.547-.406-.434.138-.243-.081-.085-.31.365.968.965.09-.089-.167-.235 1.19-1.209zM7.616 135.589l.223.187.094-.081-.488-.585-.093.082.15.259-1.122.937c.07-.511.265-1.939.305-2.202l-.105-.126-1.451 1.217-.22-.183-.097.081.483.572.098-.081-.146-.247 1.052-.885-.284 2.061.341.406.098-.081-.147-.248 1.309-1.083zM4.889 134.388l-.325.098a5.059 5.059 0 01-.163-.224l-.19-.284 1.393-.937.22.236.105-.069-.524-.779-.11.073.143.292-1.394.941-.2-.292c-.048-.077-.1-.158-.154-.247l.22-.248-.073-.109-.407.304 1.069 1.578.471-.24-.081-.093zM4.003 130.474a1.131 1.131 0 00-.049-.885 1.042 1.042 0 00-.569-.596.952.952 0 00-.756.024 1.17 1.17 0 00-.662.609 1.079 1.079 0 00.049.864 1.014 1.014 0 00.569.584c.105.037.217.056.329.057a1.39 1.39 0 00.516-.114c.255-.098.461-.294.573-.543zm-1.678.223a.68.68 0 01-.139-.183.356.356 0 01-.036-.069v-.065a.547.547 0 01-.029-.142.761.761 0 01.037-.292.613.613 0 01.04-.109c.12-.228.318-.405.557-.499.155-.071.322-.109.492-.114a.797.797 0 01.138 0 .602.602 0 01.46.406c.19.442-.058.876-.647 1.124a.845.845 0 01-.873-.057zM3.097 128.1l.134.268.118-.036-.285-.881-.122.037.053.312-.756.244-.17-.528.195-.117-.037-.11a3.347 3.347 0 01-.553.183l.037.109h.223l.175.527-.683.219-.195-.592.265-.162-.037-.118-.447.179.43 1.326.123-.036-.05-.313 1.582-.511zM2.329 125.289l.097.272.126-.025-.154-.851v-.017l-.126.025v.288l-.793.138-.195-1.096.797-.142.093.26.004.012.122-.024-.15-.848v-.016l-.126.02v.288l-1.674.296-.098-.271-.122.02.15.852v.016l.126-.02v-.288l.708-.126.195 1.095-.712.126-.093-.256-.004-.016-.122.024.15.852v.016l.126-.024v-.288l1.675-.292zM.28 122.839l1.695-.118.069.268h.122l-.102-1.477-.512-.085h-.02v.134l.321.093.053.771-.756.053-.037-.503.22-.069v-.118c-.192.03-.387.044-.581.041v.117l.22.037.036.503-.715.053-.041-.625.268-.093v-.118l-.475.077.097 1.343h.126l.012-.284zM1.946 121.151h.126v-.754h-.126l-.052.275-.573-.215v-.709l.58-.228.041.276h.126v-.868h-.126l-.052.248-1.89.791v.166l1.906.787.04.231zm-1.499-1.034l.723-.284v.572l-.723-.288zM.382 118.064l1.674.296V118.648l.122.021.256-1.428v-.012l-.548-.232-.017-.008-.02.126.353.231-.121.698-1.646-.288v-.288l-.122-.02-.15.847-.005.017.126.024.098-.272zM.93 116.798l.033-.125-.288-.179c0-.089.036-.178.057-.268l.085-.332 1.625.405-.028.321.122.032.228-.912-.122-.029-.126.3-1.626-.405.085-.341c.025-.097.053-.191.082-.276h.317l.036-.13-.52-.101-.463 1.862.475.182.029-.004zM1.276 114.133l1.61.552-.05.284.122.04.28-.819.009-.012-.122-.045-.138.256-.76-.264.362-1.051.76.26-.045.284.122.04.28-.815.004-.016-.118-.041-.142.252-1.605-.552.049-.284-.122-.04-.28.815-.009.016.122.041.138-.252.679.231-.362 1.055-.678-.231.044-.288-.122-.037-.284.832.118.04.138-.251zM2.808 110.17v.02a.305.305 0 000 .105c.012.03.027.059.045.086v.02a.597.597 0 00.167.166.584.584 0 00.484.069c-.019.155 0 .312.052.459v.036c.02.044.046.085.077.122l.029.024a.47.47 0 00.622.11.944.944 0 00.34-.357 1.083 1.083 0 000-.937c.182-.05.37-.066.558-.049l.199-.446-.102-.061c-.085.199-.211.207-.406.211a.996.996 0 00-.407.081 1.062 1.062 0 00-.284-.268.657.657 0 00-.382-.093.254.254 0 00-.17.061.736.736 0 00-.066.19l-.024.073.077.041a.244.244 0 01.075-.128.245.245 0 01.136-.059.583.583 0 01.529.244c-.094.044-.191.089-.285.142l-.487.267a.511.511 0 00-.232-.523.41.41 0 00-.52.138.504.504 0 00-.04.102v.036c.002.04.008.079.015.118zm1.756.596a.627.627 0 01-.346.357.418.418 0 01-.361-.045.507.507 0 01-.232-.47l.85-.45.06-.033a.895.895 0 01.029.641zm-1.626-.779a.123.123 0 01.037-.032.212.212 0 01.049-.041.25.25 0 01.077 0 .436.436 0 01.402.459l-.134.04a.465.465 0 01-.32-.045.25.25 0 01-.151-.255.407.407 0 01.06-.126h-.02zM4.739 107.334l1.337 1.042-.135.252.098.081.536-.681.009-.013-.102-.081-.211.195-.634-.495.686-.876.634.495-.13.239-.004.012.098.077.532-.681.008-.012-.097-.077-.216.19-1.337-1.042.135-.252-.098-.081-.536.686-.009.008.102.081.211-.195.57.442-.687.877-.57-.443.139-.251-.102-.077-.532.681-.012.013.101.077.216-.191zM6.527 105.225l.813.811a.737.737 0 00.524.251.917.917 0 00.646-.32c.406-.406.406-.864-.053-1.318l-.678-.678.166-.231-.09-.093-.584.588.09.089.235-.166.69.693a.9.9 0 01.305.455.674.674 0 01-.199.511.584.584 0 01-.406.195.76.76 0 01-.508-.272l-.732-.734.163-.236-.085-.089-.626.625.09.089.239-.17zM8.429 103.338l.276-.142.886 1.456-.167.191.074.097.56-.417.013-.013-.078-.097-.243.122-.797-1.294 1.58.904.046-.032-.46-1.797 1.049 1.148-.195.211.077.097.679-.511.016-.008-.077-.101-.248.125-1.158-1.253.195-.203.008-.012-.077-.101-.517.389.39 1.533-1.373-.779-.008-.008-.524.394.065.093.008.008zM11.884 103.038l.056.113.65-.356-.06-.114-.268.093-.098-.6.622-.345.487.406-.22.178.062.11.743-.406-.06-.113-.244.077-1.626-1.282-.146.081.268 2.028-.166.13zm.764-1.327l-.5.276-.11-.762.61.486zM13.627 100.154l.662 1.561-.244.155.053.117.7-.296-.05-.118-.292.073-.573-1.346 2.032.937.15-.065-.74-1.74.244-.154-.049-.118-.69.296.048.118.28-.065.537 1.261-1.885-.876-.492.211.049.118.26-.069zM18.3 99.638c.232.053.435.098.48.309a.342.342 0 01-.04.263.436.436 0 01-.285.171.528.528 0 01-.407-.094 1.239 1.239 0 01-.17-.324l-.118.057.138.474a.818.818 0 00.321.053c.101 0 .202-.01.3-.028a.722.722 0 00.456-.28.633.633 0 00.077-.487c-.065-.296-.337-.357-.601-.406-.264-.048-.5-.105-.553-.36a.325.325 0 01.045-.264.406.406 0 01.227-.142c.191-.041.338.052.447.3l.118-.045-.138-.442a1.216 1.216 0 01-.17 0 1.352 1.352 0 00-.257 0 .599.599 0 00-.532.694c.057.417.382.49.662.551zM19.544 98.332l.208 1.684-.277.081v.125l1.476-.178.06-.531h-.134l-.077.324-.768.097-.093-.754.503-.06.082.214h.114a3.49 3.49 0 01-.074-.576h-.113l-.029.22-.5.06-.089-.71.61-.073.113.272h.114l-.097-.45-1.341.166v.126l.313-.037zM21.657 98.085l.029 1.695-.297.053v.126h.894v-.13L22 99.784v-.677h.28c.195.272.407.543.622.79a.588.588 0 00.17.058l.253.056.036-.113a1.064 1.064 0 01-.406-.365l-.407-.507a.744.744 0 00.35-.605.512.512 0 00-.573-.495h-.963v.134l.296.025zm.931.588a.424.424 0 01-.04.122.236.236 0 01-.041.048l-.029.029a.814.814 0 01-.406.064h-.106v-.876a.705.705 0 01.143-.02.46.46 0 01.337.118.482.482 0 01.13.365.842.842 0 010 .105s.028.029.028.045h-.016zM24.53 99.975h.143c.175-.406.581-1.318.841-1.83l.208-.036v-.126l-.679-.044v.126l.276.069-.61 1.342-.459-1.416.28-.028v-.126l-.86-.06v.125l.284.07.577 1.934zM26.611 100.174l.017-.126-.277-.081.208-1.683.276-.017h.012l.016-.125-.861-.106h-.012l-.016.126.276.081-.207 1.683-.277.017h-.012l-.016.125.861.106h.012zM28.034 100.494c.16.033.321.05.484.049h.13l.292-.345-.077-.093a.755.755 0 01-.752.239.835.835 0 01-.573-.434 1.142 1.142 0 01-.093-.787.697.697 0 01.955-.572l.179.049.142.06.053.037a.471.471 0 01.183.215.502.502 0 010 .065.523.523 0 010 .138v.061l.13.028.08-.531a3.627 3.627 0 00-.75-.268 1.221 1.221 0 00-.89.094 1.008 1.008 0 00-.448.697 1.048 1.048 0 00.11.812 1.26 1.26 0 00.845.486zM30.59 101.241l.289-.455-.118-.036-.211.259-.736-.251.248-.718.48.166v.227l.11.037c.044-.188.107-.371.186-.548l-.11-.04-.121.186-.48-.162.236-.677.577.203v.291l.11.037.089-.483-1.288-.442-.04.118.251.138-.553 1.622-.284-.048-.04.121 1.405.455zM31.139 101.306c.124.17.293.304.488.385a.852.852 0 00.329.077.51.51 0 00.211-.04.612.612 0 00.341-.341c.127-.28-.06-.487-.243-.69-.183-.202-.338-.377-.232-.616a.324.324 0 01.46-.166c.182.08.239.235.182.502l.126.037.15-.454-.146-.098a1.465 1.465 0 00-.215-.134.705.705 0 00-.492-.044h-.04a.512.512 0 00-.297.284c-.17.377.049.624.24.843.19.22.292.333.207.528a.357.357 0 01-.187.19.449.449 0 01-.333-.032c-.114-.049-.285-.199-.293-.32 0-.124.02-.247.057-.366l-.126-.02-.175.467-.012.008zM33.508 101.765a.233.233 0 00.118.032.16.16 0 00.082 0l.044-.02a.244.244 0 00.094-.097.254.254 0 000-.203.256.256 0 00-.13-.155.274.274 0 00-.203 0 .265.265 0 00-.037.488l.032-.045zM34.96 103.513c.155.111.34.174.532.182a.734.734 0 00.483-.203 1.43 1.43 0 00.264-.304l.52-.811.265.113.069-.109-.67-.438-.07.105.211.199-.532.811c-.081.126-.22.337-.382.386a.677.677 0 01-.54-.09.582.582 0 01-.277-.357.713.713 0 01.163-.547l.565-.868.264.109.069-.105-.727-.471-.07.106.212.194-.622.962a.721.721 0 00-.138.564.924.924 0 00.41.572zM37.3 104.648a.327.327 0 01-.227.134.446.446 0 01-.313-.117.525.525 0 01-.191-.406 1.25 1.25 0 01.15-.333l-.114-.052-.292.405c.07.198.196.373.361.503a.726.726 0 00.464.191.623.623 0 00.467-.239c.199-.236.077-.487-.04-.731-.119-.243-.224-.458-.058-.657a.322.322 0 01.237-.126.33.33 0 01.251.094c.154.126.167.292.04.531l.11.069.273-.405c-.037-.041-.074-.09-.11-.134a1.226 1.226 0 00-.17-.187.73.73 0 00-.46-.187h-.049a.535.535 0 00-.365.195c-.269.317-.126.613 0 .876.125.264.174.414.036.576zM37.552 105.281l-.09.09.533.535.09-.093-.163-.227.553-.264.504.507-.24.572-.228-.162-.09.089.614.612.078-.081-.138-.211.788-1.906-.122-.118-1.89.812-.199-.155zm1.792-.357l-.3.718-.407-.405.707-.313z" fill="#fff"/><path d="M15.696 129.107l.406.028a.903.903 0 01.407-.487h6.185l.26-.024h.114l.35-.138h.048l.26-.057.098-.028.183-.053.101-.041.155-.064.097-.049.134-.073.09-.061.126-.089.081-.065.114-.106.073-.073.11-.129.065-.073.11-.159a2.842 2.842 0 00.179-.292l.024-.04c.052-.094.101-.191.15-.296a23.86 23.86 0 00.813-3.023c.378-1.671.731-3.245 1.434-4.056l.082-.098c.207-.243 2.906-2.353 5.181-4.117 1.691-1.307 3.146-2.434 3.179-2.434l1.625-1.254 2.678-2.061.053-.04.301-.244.102-.085c.13-.109.256-.227.382-.341l.049-.048a4.555 4.555 0 001.219-1.729.526.526 0 000-.064c.024-.066.044-.132.06-.199l.025-.126c0-.045 0-.093.025-.142.024-.049 0-.114 0-.17a.937.937 0 000-.106 2 2 0 000-.219.418.418 0 000-.069c0-.097-.02-.195-.037-.296l-.073-.195a1.701 1.701 0 00-.642-.86 1.402 1.402 0 00-.464-.178 4.345 4.345 0 01-.215.697c-.663 1.68-2.256 2.869-3.8 4.025-.59.438-1.142.852-1.626 1.286l-5.47 4.235-3.324 2.58a6.013 6.013 0 00-1.264 1.266c-1.106 1.493-1.46 3.355-1.8 5.168a32.35 32.35 0 01-.444 2.097.752.752 0 01-.146.232c-.22.205-.511.317-.813.312H18.07a3.975 3.975 0 00-.992.069 1.778 1.778 0 00-.276.085c-.841.43-1.207 1.254-1.105 2.471zM47.014 131.172h-.082l-.146.04a4.288 4.288 0 01-1.284.037 6.326 6.326 0 01-.773-.146h-.028l-.09-.029a14.833 14.833 0 01-1.06-.328c-.346-.118-.74-.24-1.118-.341l-.182-.045c-.086 0-.171-.048-.257-.065-1.328-.304-2.548.069-3.73.43-.431.13-.878.268-1.317.369-.44.102-.65.078-.785-.024a.565.565 0 01-.142-.462c0-.288-.032-.609-.549-.666-.195-.162-.064-.324.029-.442.093-.117.081-.105.07-.138-.013-.032-.038-.036-.086-.04a.745.745 0 01-.305 0c-.191-.073-.163-.187-.13-.333a.407.407 0 00-.033-.373c-.073-.146-.22-.158-.365-.171a.664.664 0 01-.212-.044.247.247 0 01-.122-.199c.022-.163.082-.319.175-.454.163-.292.346-.629.15-.946a4.045 4.045 0 010-1.837c.09-.364.274-.698.533-.97l4.877-3.821 2.255-1.761 1.077-.921c.12-.111.22-.24.301-.381.32-.592.413-1.28.26-1.935 0-.073-.028-.146-.049-.211a1.016 1.016 0 00-.04-.126l-.029-.073v-.032c0-.021 0-.037-.02-.053a.187.187 0 010-.041.341.341 0 01-.02-.04.376.376 0 01-.029-.041v-.028l-.028-.029v-.02h-.037c-.036 0-.065.025-.093.077a1.516 1.516 0 01-.122.203 2.832 2.832 0 01-.545.572l-.187.158-.126.106-2.613 1.935-5.06 3.931c-.213.135-.42.281-.617.438-.461.327-.872.719-1.22 1.164l-.048.085a1.71 1.71 0 00-.086.138c-.032.049-.057.102-.085.154-.029.053-.029.057-.04.082a2.557 2.557 0 00-.082.186l-.029.061c-.024.065-.052.13-.073.195l-.024.065a3.225 3.225 0 00-.065.182c-.02.061 0 .061-.029.094-.028.032-.028.093-.04.142-.012.048-.029.093-.04.142-.013.048 0 .044 0 .069a4.045 4.045 0 00-.155 1.687v.033c.113.179.174.387.175.6a1.726 1.726 0 01-.46 1.026.994.994 0 00-.272.544.282.282 0 000 .085c0 .024.024.041.037.061v.032c.172.143.385.227.61.24l.186.036a.413.413 0 01.305.142.183.183 0 01.028.073.712.712 0 01-.048.26 1.09 1.09 0 00-.05.215c-.003.035.002.07.014.102a.214.214 0 00.06.085.552.552 0 00.244.077c.05.009.1.021.15.036.037 0 .061.037.065.061.004.024-.028.089-.069.142a.457.457 0 00-.077.122.149.149 0 000 .154.23.23 0 00.22.13.21.21 0 01.219.154.836.836 0 010 .478.65.65 0 000 .086.59.59 0 00.26.706c.914.555 3.19-.057 3.633-.187.077-.02.147-.028.22-.045 1.337-.296 2.332.296 3.214.812.423.287.886.511 1.374.665.347.09.703.136 1.06.138a3.446 3.446 0 001.582-.377c.085-.041.166-.098.252-.146h.024c.171-.106.335-.223.492-.349a6.919 6.919 0 001.134-1.197s.105-.142.097-.187l.02.017z" fill="#fff"/><path d="M36.463 135.131c.029-.057.053-.114.077-.171a.61.61 0 00.029-.093c.032-.096.054-.195.065-.296v-.093a1.162 1.162 0 000-.171 1.45 1.45 0 00-.17-.564.063.063 0 000-.028l-.106-.146-.053-.053-.073-.069a.806.806 0 00-.135-.093c-.508-.3-1.288-.28-2.032-.26h-.024c-.91.025-1.85.045-2.288-.503a.892.892 0 010-.783c.069-.239.126-.442-.061-.519a.43.43 0 01-.354-.182.305.305 0 01-.028-.171.65.65 0 01.073-.207c.15-.109.203-.17.191-.207 0-.036-.081-.04-.179-.04H31.115a.317.317 0 01-.183-.089.243.243 0 01-.04-.199 1.11 1.11 0 00.15-.406.403.403 0 00-.025-.231.32.32 0 00-.048-.057 1.154 1.154 0 00-.643-.239h-.077c-.09 0-.17-.033-.244-.053a.38.38 0 01-.207-.122.403.403 0 01-.09-.215.575.575 0 01.094-.32v-.024l.045-.069s.028-.041.04-.065l.228-.301c.106-.137.22-.292.337-.458a3.54 3.54 0 00.224-.345.749.749 0 00-.11-.844l-.073-.129a.811.811 0 01-.126-.406c.053-.292.094-.596.138-.888a7.063 7.063 0 01.642-2.435l.025-.04a2.63 2.63 0 01.545-.678l6.502-5.156 5.348-4.235c.102-.093.212-.182.321-.28.964-.811 2.158-1.833 1.833-2.982 0-.056-.032-.109-.048-.162a1.858 1.858 0 00-1.187-1.257c-.167 1.355-1.24 2.211-2.276 3.038l-.179.146-6.502 5.083-4.329 3.388c-.154.133-.317.263-.491.405-.175.142-.37.3-.545.455a4.946 4.946 0 00-.553.543c-.151.172-.28.363-.382.568a16.09 16.09 0 00-.784 2.406 24.09 24.09 0 00-.216.933v.044c-.02.09-.036.175-.052.26a.148.148 0 010 .045v.069a6.233 6.233 0 00-.13 1.022.263.263 0 000 .073.183.183 0 010 .073 1.066 1.066 0 01.138 1.424 5.074 5.074 0 01-.488.661c-.297.361-.581.702-.52.998.06.296.406.353.695.365.288.012.54 0 .683.28.01.065.01.13 0 .195a.405.405 0 01-.147.243.406.406 0 00-.094.361c.053.15.265.207.431.252.167.045.196.057.204.093.008.037-.029.061-.102.106-.073.044-.085.101-.118.142a.302.302 0 00-.06.15.276.276 0 000 .113.43.43 0 00.289.264h.035c.101.036.194.091.273.162.097.126.06.264 0 .451-.03.118-.052.239-.065.361-.01.09-.01.181 0 .271a.605.605 0 00.032.102 1.17 1.17 0 00.102.264l.028.032a.785.785 0 00.248.227 1.288 1.288 0 00.276.122h.086l.15.024h.13l.553-.024h.167a4.286 4.286 0 012.137.268l.065.028.029.024c.218.127.405.3.548.507a1.013 1.013 0 01.061 1.035 5.276 5.276 0 01-1.69 1.513c-.66.361-1.22.881-1.626 1.513a2.217 2.217 0 00-.256.966c.004.123.016.247.037.369a2.427 2.427 0 001.024 1.623c.146.095.307.167.475.215.232.072.473.107.716.105a5.332 5.332 0 002.54-.811c.216-.139.422-.292.617-.459l-.121-.259a4.866 4.866 0 01-1.029.105 1.862 1.862 0 01-1.597-.961 1.948 1.948 0 010-1.789c.042-.074.09-.144.142-.211a5.49 5.49 0 011.626-1.217 5.864 5.864 0 001.532-1.1c.097-.097.185-.205.26-.32zm-5.149-3.996c.02.027.045.05.073.069a.308.308 0 01-.073-.073v.004zm-.049-.138a.182.182 0 000-.004v.004zm.02-.166a.054.054 0 000 .024.055.055 0 010-.028v.004z" fill="#fff"/><path d="M30.757 143.431c-.258.103-.535.15-.813.138a2.436 2.436 0 01-2.085-1.59 2.369 2.369 0 01-.183-.873c0-.343.1-.68.285-.969.37-.506.82-.949 1.333-1.31a4.797 4.797 0 001.52-1.623 1.56 1.56 0 00.073-.471 1.35 1.35 0 00-.085-.462 1.414 1.414 0 00-.362-.564h-.024a1.663 1.663 0 00-.159-.142 52.342 52.342 0 00-8.722-4.142l-4.133-1.383-.296-.09c-.955-.296-2.394-.746-3.471-.259a2.158 2.158 0 00-1.126 1.801l.297.227c.573-.775 1.394-.543 1.938-.406h.061a56.229 56.229 0 0112.542 5.217c.407.26 1.053.771 1.053 1.388a.815.815 0 010 .138c-.11.596-.724 1.103-1.378 1.622a7.07 7.07 0 00-1.374 1.368c-.03.042-.06.087-.085.133-.037.057-.081.114-.114.171-.166.331-.25.697-.244 1.067a2.49 2.49 0 00.37 1.338c.44.625 1.101 1.06 1.85 1.218.105 0 .207 0 .308.024.061.004.122.004.183 0h.183a3.57 3.57 0 001.22-.215h.024a3.2 3.2 0 00.504-.231l.036-.021c.07-.04.142-.073.212-.117l.073-.049c.296-.188.576-.399.837-.633l-.236-.337-.012.037zm-4.901.657a3.17 3.17 0 01-.15-.178c.04.061.089.121.15.178z" fill="#fff"/></svg>