<svg width="251" height="104" viewBox="0 0 251 104" fill="none" xmlns="http://www.w3.org/2000/svg"><path d="M12.936 1h5.976c-.016.784-.04 1.6-.072 2.448-.016.832-.024 1.824-.024 2.976v1.224c.016.448.024.912.024 1.392v1.416c.016.48.024.928.024 1.344 0 1.2-.152 2.272-.456 3.216-.288.944-.768 1.736-1.44 2.376-.672.624-1.568 1.104-2.688 1.44-1.104.336-2.456.504-4.056.504s-2.96-.168-4.08-.504c-1.104-.336-2-.816-2.688-1.44-.672-.64-1.16-1.432-1.464-2.376C1.704 14.072 1.56 13 1.56 11.8v-1.344c.016-.48.024-.952.024-1.416V7.648c.016-.464.024-.872.024-1.224 0-1.152-.016-2.144-.048-2.976L1.512 1h6.12c-.016.704-.032 1.52-.048 2.448l-.048 2.784a160.11 160.11 0 00-.024 2.76v2.376c0 1.056.224 1.824.672 2.304.464.48 1.192.72 2.184.72.96 0 1.64-.24 2.04-.72.416-.48.624-1.248.624-2.304 0-.688-.008-1.48-.024-2.376 0-.912-.008-1.832-.024-2.76 0-.944-.008-1.872-.024-2.784 0-.928-.008-1.744-.024-2.448zm24.015 18h-5.76c.016-1.04.032-2.264.048-3.672.016-1.424.024-3.008.024-4.752 0-.784-.144-1.344-.432-1.68-.272-.336-.752-.504-1.44-.504s-1.272.224-1.752.672c-.464.432-.696 1.184-.696 2.256v5.016c.016.576.024 1.072.024 1.488.016.416.024.808.024 1.176h-5.712l.048-3.24c.016-1.12.024-2.52.024-4.2 0-1.584-.008-2.976-.024-4.176-.016-1.2-.032-2.312-.048-3.336h5.712c-.016.464-.032.888-.048 1.272 0 .384-.008.784-.024 1.2l.144.048c.448-.96 1.088-1.656 1.92-2.088.832-.432 1.848-.648 3.048-.648 1.536 0 2.728.384 3.576 1.152.864.768 1.296 2.04 1.296 3.816 0 1.2-.008 2.168-.024 2.904a104.98 104.98 0 00-.024 2.28c0 .928.008 1.8.024 2.616.016.816.04 1.616.072 2.4zm8.49-3.312c.736 0 1.312-.232 1.728-.696.432-.48.648-1.176.648-2.088a16.83 16.83 0 00-.96-.072c-.336-.016-.68-.024-1.032-.024-.736 0-1.28.12-1.632.36-.336.224-.504.584-.504 1.08 0 .512.128.88.384 1.104.272.224.728.336 1.368.336zm2.4-4.752v-1.2c0-.592-.144-1.04-.432-1.344-.288-.32-.776-.48-1.464-.48-.72 0-1.248.168-1.584.504-.336.32-.48.872-.432 1.656a18.975 18.975 0 00-1.032-.024c-.4-.016-.816-.024-1.248-.024-.512 0-1.016.008-1.512.024-.496 0-.904.024-1.224.072-.096-2.016.408-3.576 1.512-4.68 1.104-1.104 2.984-1.656 5.64-1.656 2.576 0 4.424.496 5.544 1.488 1.136.976 1.704 2.352 1.704 4.128 0 1.008-.016 1.912-.048 2.712-.016.784-.024 1.632-.024 2.544 0 .416.008.848.024 1.296l.048 1.248c.032.4.072.76.12 1.08.048.32.096.56.144.72h-4.512c-.496 0-.816-.064-.96-.192-.128-.128-.192-.472-.192-1.032v-.6l.048-.672h-.144c-.304.912-.856 1.592-1.656 2.04-.784.448-1.792.672-3.024.672-1.52 0-2.68-.296-3.48-.888-.8-.592-1.2-1.648-1.2-3.168 0-1.552.528-2.664 1.584-3.336 1.072-.688 2.72-1.032 4.944-1.032.544 0 1.056.008 1.536.024.496.016.936.056 1.32.12zm22.89-6.888h5.689c-.288.944-.648 2.152-1.08 3.624-.416 1.472-.832 2.952-1.248 4.44a952.247 952.247 0 01-1.176 4.128c-.352 1.28-.608 2.2-.768 2.76a45.154 45.154 0 00-1.584-.024 111.84 111.84 0 00-4.656 0c-.704 0-1.192.008-1.464.024-.16-.544-.432-1.448-.816-2.712-.368-1.28-.768-2.656-1.2-4.128-.432-1.488-.864-2.968-1.296-4.44-.432-1.488-.8-2.712-1.104-3.672h6.144c.048.304.12.72.216 1.248.112.512.232 1.088.36 1.728l.408 2.04c.16.72.312 1.424.456 2.112.144.704.272 1.376.384 2.016.128.624.24 1.192.336 1.704h.24c.096-.512.2-1.08.312-1.704.128-.64.272-1.32.432-2.04.144-.704.288-1.416.432-2.136.16-.72.304-1.4.432-2.04.128-.64.24-1.216.336-1.728.112-.512.184-.912.216-1.2zm12.622 11.64c.736 0 1.312-.232 1.728-.696.432-.48.648-1.176.648-2.088a16.83 16.83 0 00-.96-.072c-.336-.016-.68-.024-1.032-.024-.736 0-1.28.12-1.632.36-.336.224-.504.584-.504 1.08 0 .512.128.88.384 1.104.272.224.728.336 1.368.336zm2.4-4.752v-1.2c0-.592-.144-1.04-.432-1.344-.288-.32-.776-.48-1.464-.48-.72 0-1.248.168-1.584.504-.336.32-.48.872-.432 1.656a18.975 18.975 0 00-1.032-.024c-.4-.016-.816-.024-1.248-.024-.512 0-1.016.008-1.512.024-.496 0-.904.024-1.224.072-.096-2.016.408-3.576 1.512-4.68 1.104-1.104 2.984-1.656 5.64-1.656 2.576 0 4.424.496 5.544 1.488 1.136.976 1.704 2.352 1.704 4.128 0 1.008-.016 1.912-.048 2.712-.016.784-.024 1.632-.024 2.544 0 .416.008.848.024 1.296l.048 1.248c.032.4.072.76.12 1.08.048.32.096.56.144.72h-4.512c-.496 0-.816-.064-.96-.192-.128-.128-.192-.472-.192-1.032v-.6l.048-.672h-.144c-.304.912-.856 1.592-1.656 2.04-.784.448-1.792.672-3.024.672-1.52 0-2.68-.296-3.48-.888-.8-.592-1.2-1.648-1.2-3.168 0-1.552.528-2.664 1.584-3.336 1.072-.688 2.72-1.032 4.944-1.032.544 0 1.056.008 1.536.024.496.016.936.056 1.32.12zm17.327 2.16v-.432c.352.032.736.056 1.152.072h1.32c.48 0 .952-.008 1.416-.024l1.32-.048V13c.016.096.024.2.024.312 0 .992-.128 1.864-.384 2.616a4.127 4.127 0 01-1.272 1.872c-.592.496-1.384.872-2.376 1.128-.976.256-2.184.384-3.624.384-2.688 0-4.664-.632-5.928-1.896-1.264-1.264-1.896-3.28-1.896-6.048 0-2.704.648-4.648 1.944-5.832 1.296-1.2 3.272-1.8 5.928-1.8 2.528 0 4.416.408 5.664 1.224 1.248.816 1.872 2.296 1.872 4.44v.384c0 .128-.008.264-.024.408-.352-.016-.76-.024-1.224-.024a41.22 41.22 0 00-2.856 0c-.432 0-.784.008-1.056.024v-.336c-.016-.768-.184-1.304-.504-1.608-.32-.304-.904-.456-1.752-.456-.88 0-1.52.24-1.92.72-.384.48-.576 1.432-.576 2.856s.192 2.392.576 2.904c.384.496 1.032.744 1.944.744.816 0 1.384-.168 1.704-.504.336-.352.512-.824.528-1.416zm16.801-9.048h5.736l-.048 3.264v8.352c.016 1.184.032 2.296.048 3.336h-5.712c.016-.464.024-.888.024-1.272l.048-1.2-.144-.024c-.432.944-1.064 1.64-1.896 2.088-.816.432-1.848.648-3.096.648-1.472 0-2.656-.376-3.552-1.128-.88-.768-1.32-1.992-1.32-3.672 0-1.248.008-2.264.024-3.048a128.834 128.834 0 000-4.968c0-.8-.016-1.592-.048-2.376h5.76c-.032 1.056-.056 2.32-.072 3.792v4.872c0 .752.144 1.296.432 1.632.288.32.76.48 1.416.48.688 0 1.264-.224 1.728-.672.48-.448.72-1.2.72-2.256V8.872c0-.832-.008-1.536-.024-2.112 0-.592-.008-1.096-.024-1.512v-1.2zM143.536 19h-5.76c.016-1.04.032-2.264.048-3.672.016-1.424.024-3.008.024-4.752 0-.784-.144-1.344-.432-1.68-.272-.336-.752-.504-1.44-.504s-1.272.224-1.752.672c-.464.432-.696 1.184-.696 2.256v5.016c.016.576.024 1.072.024 1.488.016.416.024.808.024 1.176h-5.712l.048-3.24c.016-1.12.024-2.52.024-4.2 0-1.584-.008-2.976-.024-4.176-.016-1.2-.032-2.312-.048-3.336h5.712c-.016.464-.032.888-.048 1.272 0 .384-.008.784-.024 1.2l.144.048c.448-.96 1.088-1.656 1.92-2.088.832-.432 1.848-.648 3.048-.648 1.536 0 2.728.384 3.576 1.152.864.768 1.296 2.04 1.296 3.816 0 1.2-.008 2.168-.024 2.904a104.98 104.98 0 00-.024 2.28c0 .928.008 1.8.024 2.616.016.816.04 1.616.072 2.4zm8.49-3.312c.736 0 1.312-.232 1.728-.696.432-.48.648-1.176.648-2.088a16.83 16.83 0 00-.96-.072c-.336-.016-.68-.024-1.032-.024-.736 0-1.28.12-1.632.36-.336.224-.504.584-.504 1.08 0 .512.128.88.384 1.104.272.224.728.336 1.368.336zm2.4-4.752v-1.2c0-.592-.144-1.04-.432-1.344-.288-.32-.776-.48-1.464-.48-.72 0-1.248.168-1.584.504-.336.32-.48.872-.432 1.656a18.975 18.975 0 00-1.032-.024c-.4-.016-.816-.024-1.248-.024-.512 0-1.016.008-1.512.024-.496 0-.904.024-1.224.072-.096-2.016.408-3.576 1.512-4.68 1.104-1.104 2.984-1.656 5.64-1.656 2.576 0 4.424.496 5.544 1.488 1.136.976 1.704 2.352 1.704 4.128 0 1.008-.016 1.912-.048 2.712-.016.784-.024 1.632-.024 2.544 0 .416.008.848.024 1.296l.048 1.248c.032.4.072.76.12 1.08.048.32.096.56.144.72h-4.512c-.496 0-.816-.064-.96-.192-.128-.128-.192-.472-.192-1.032v-.6l.048-.672h-.144c-.304.912-.856 1.592-1.656 2.04-.784.448-1.792.672-3.024.672-1.52 0-2.68-.296-3.48-.888-.8-.592-1.2-1.648-1.2-3.168 0-1.552.528-2.664 1.584-3.336 1.072-.688 2.72-1.032 4.944-1.032.544 0 1.056.008 1.536.024.496.016.936.056 1.32.12zm19.867 4.752c.736 0 1.312-.232 1.728-.696.432-.48.648-1.176.648-2.088a16.83 16.83 0 00-.96-.072c-.336-.016-.68-.024-1.032-.024-.736 0-1.28.12-1.632.36-.336.224-.504.584-.504 1.08 0 .512.128.88.384 1.104.272.224.728.336 1.368.336zm2.4-4.752v-1.2c0-.592-.144-1.04-.432-1.344-.288-.32-.776-.48-1.464-.48-.72 0-1.248.168-1.584.504-.336.32-.48.872-.432 1.656a18.975 18.975 0 00-1.032-.024c-.4-.016-.816-.024-1.248-.024-.512 0-1.016.008-1.512.024-.496 0-.904.024-1.224.072-.096-2.016.408-3.576 1.512-4.68 1.104-1.104 2.984-1.656 5.64-1.656 2.576 0 4.424.496 5.544 1.488 1.136.976 1.704 2.352 1.704 4.128 0 1.008-.016 1.912-.048 2.712-.016.784-.024 1.632-.024 2.544 0 .416.008.848.024 1.296l.048 1.248c.032.4.072.76.12 1.08.048.32.096.56.144.72h-4.512c-.496 0-.816-.064-.96-.192-.128-.128-.192-.472-.192-1.032v-.6l.048-.672h-.144c-.304.912-.856 1.592-1.656 2.04-.784.448-1.792.672-3.024.672-1.52 0-2.68-.296-3.48-.888-.8-.592-1.2-1.648-1.2-3.168 0-1.552.528-2.664 1.584-3.336 1.072-.688 2.72-1.032 4.944-1.032.544 0 1.056.008 1.536.024.496.016.936.056 1.32.12zm17.16-6.888h5.64c-.24.704-.528 1.648-.864 2.832-.336 1.168-.68 2.368-1.032 3.6a304.496 304.496 0 01-.984 3.528 81.66 81.66 0 01-.768 2.568c-.32 1.04-.68 1.944-1.08 2.712-.4.768-.888 1.392-1.464 1.872-.56.496-1.24.864-2.04 1.104-.8.24-1.752.36-2.856.36-1.104 0-2.04-.072-2.808-.216a20.923 20.923 0 01-2.184-.48c.032-.192.08-.496.144-.912.08-.4.152-.832.216-1.296.08-.448.152-.88.216-1.296.064-.416.104-.728.12-.936.576.208 1.224.368 1.944.48.736.096 1.448.144 2.136.144.704 0 1.24-.112 1.608-.336.368-.224.656-.624.864-1.2a51.779 51.779 0 00-2.232 0c-.656 0-1.136.008-1.44.024a404.13 404.13 0 01-.696-2.28l-1.032-3.456a252.424 252.424 0 00-1.128-3.72 95.613 95.613 0 00-.96-3.096h6.12c.048.272.12.632.216 1.08a420.602 420.602 0 01.768 3.264c.144.608.288 1.208.432 1.8.176.736.32 1.432.432 2.088.128.64.24 1.232.336 1.776h.12c.112-.544.24-1.144.384-1.8.16-.656.32-1.352.48-2.088.144-.592.288-1.2.432-1.824.144-.624.28-1.208.408-1.752a114.834 114.834 0 00.552-2.544zm16.312 0h5.736l-.048 3.264v8.352c.016 1.184.032 2.296.048 3.336h-5.712c.016-.464.024-.888.024-1.272l.048-1.2-.144-.024c-.432.944-1.064 1.64-1.896 2.088-.816.432-1.848.648-3.096.648-1.472 0-2.656-.376-3.552-1.128-.88-.768-1.32-1.992-1.32-3.672 0-1.248.008-2.264.024-3.048a128.834 128.834 0 000-4.968c0-.8-.016-1.592-.048-2.376h5.76c-.032 1.056-.056 2.32-.072 3.792v4.872c0 .752.144 1.296.432 1.632.288.32.76.48 1.416.48.688 0 1.264-.224 1.728-.672.48-.448.72-1.2.72-2.256V8.872c0-.832-.008-1.536-.024-2.112 0-.592-.008-1.096-.024-1.512v-1.2zm17.751 8.016V8.272a4.55 4.55 0 00-1.056-.336 6.12 6.12 0 00-1.248-.12c-.848 0-1.488.264-1.92.792-.432.528-.648 1.488-.648 2.88 0 1.328.2 2.256.6 2.784.416.512.976.768 1.68.768.736 0 1.352-.24 1.848-.72s.744-1.232.744-2.256zm-.12-11.64h5.76a168.71 168.71 0 00-.048 4.152V15.016c0 1.392.016 2.728.048 4.008h-5.736v-.768c.016-.272.024-.552.024-.84v-.552c0-.192.008-.384.024-.576l-.168-.024c-.304.768-.824 1.456-1.56 2.064-.72.592-1.752.888-3.096.888-1.696 0-3.04-.584-4.032-1.752-.992-1.184-1.488-3.152-1.488-5.904 0-1.392.152-2.576.456-3.552.304-.992.712-1.792 1.224-2.4a4.77 4.77 0 011.848-1.368 6.146 6.146 0 012.304-.432c1.04 0 1.928.184 2.664.552a3.977 3.977 0 011.776 1.632l.072-.024a375.75 375.75 0 00-.048-1.2V3.52 1.912c0-.496-.008-.992-.024-1.488zm14.421 15.264c.736 0 1.312-.232 1.728-.696.432-.48.648-1.176.648-2.088a16.83 16.83 0 00-.96-.072c-.336-.016-.68-.024-1.032-.024-.736 0-1.28.12-1.632.36-.336.224-.504.584-.504 1.08 0 .512.128.88.384 1.104.272.224.728.336 1.368.336zm2.4-4.752v-1.2c0-.592-.144-1.04-.432-1.344-.288-.32-.776-.48-1.464-.48-.72 0-1.248.168-1.584.504-.336.32-.48.872-.432 1.656a18.975 18.975 0 00-1.032-.024c-.4-.016-.816-.024-1.248-.024-.512 0-1.016.008-1.512.024-.496 0-.904.024-1.224.072-.096-2.016.408-3.576 1.512-4.68 1.104-1.104 2.984-1.656 5.64-1.656 2.576 0 4.424.496 5.544 1.488 1.136.976 1.704 2.352 1.704 4.128 0 1.008-.016 1.912-.048 2.712-.016.784-.024 1.632-.024 2.544 0 .416.008.848.024 1.296l.048 1.248c.032.4.072.76.12 1.08.048.32.096.56.144.72h-4.512c-.496 0-.816-.064-.96-.192-.128-.128-.192-.472-.192-1.032v-.6l.048-.672h-.144c-.304.912-.856 1.592-1.656 2.04-.784.448-1.792.672-3.024.672-1.52 0-2.68-.296-3.48-.888-.8-.592-1.2-1.648-1.2-3.168 0-1.552.528-2.664 1.584-3.336 1.072-.688 2.72-1.032 4.944-1.032.544 0 1.056.008 1.536.024.496.016.936.056 1.32.12zM7.776 43.688c.736 0 1.312-.232 1.728-.696.432-.48.648-1.176.648-2.088a16.83 16.83 0 00-.96-.072c-.336-.016-.68-.024-1.032-.024-.736 0-1.28.12-1.632.36-.336.224-.504.584-.504 1.08 0 .512.128.88.384 1.104.272.224.728.336 1.368.336zm2.4-4.752v-1.2c0-.592-.144-1.04-.432-1.344-.288-.32-.776-.48-1.464-.48-.72 0-1.248.168-1.584.504-.336.32-.48.872-.432 1.656a18.975 18.975 0 00-1.032-.024c-.4-.016-.816-.024-1.248-.024-.512 0-1.016.008-1.512.024-.496 0-.904.024-1.224.072-.096-2.016.408-3.576 1.512-4.68 1.104-1.104 2.984-1.656 5.64-1.656 2.576 0 4.424.496 5.544 1.488 1.136.976 1.704 2.352 1.704 4.128 0 1.008-.016 1.912-.048 2.712-.016.784-.024 1.632-.024 2.544 0 .416.008.848.024 1.296l.048 1.248c.032.4.072.76.12 1.08.048.32.096.56.144.72H11.4c-.496 0-.816-.064-.96-.192-.128-.128-.192-.472-.192-1.032v-.6l.048-.672h-.144c-.304.912-.856 1.592-1.656 2.04-.784.448-1.792.672-3.024.672-1.52 0-2.68-.296-3.48-.888-.8-.592-1.2-1.648-1.2-3.168 0-1.552.528-2.664 1.584-3.336 1.072-.688 2.72-1.032 4.944-1.032.544 0 1.056.008 1.536.024.496.016.936.056 1.32.12zM46.579 47H41.37c.032-1.104.048-2.376.048-3.816.016-1.44.024-3.04.024-4.8 0-.688-.136-1.184-.408-1.488-.272-.32-.688-.48-1.248-.48-.592 0-1.096.2-1.512.6-.416.4-.624 1.112-.624 2.136v4.872c0 .608.008 1.152.024 1.632s.032.928.048 1.344h-5.16c.032-1.088.056-2.304.072-3.648.016-1.344.024-3.008.024-4.992 0-.64-.128-1.12-.384-1.44-.256-.336-.68-.504-1.272-.504s-1.104.2-1.536.6c-.416.4-.624 1.112-.624 2.136v4.872c.016 1.216.032 2.208.048 2.976h-5.256c.016-1.072.024-2.184.024-3.336.016-1.168.024-2.536.024-4.104 0-1.6-.008-2.984-.024-4.152 0-1.168-.008-2.288-.024-3.36h5.352c-.016.448-.032.864-.048 1.248-.016.368-.032.768-.048 1.2l.144.048c.432-.928 1-1.608 1.704-2.04.704-.448 1.568-.672 2.592-.672 1.104 0 2.016.256 2.736.768.72.496 1.184 1.192 1.392 2.088h.168c.432-1.056 1.056-1.792 1.872-2.208.816-.432 1.728-.648 2.736-.648 1.36 0 2.416.376 3.168 1.128.768.736 1.152 1.792 1.152 3.168 0 1.248-.016 2.344-.048 3.288-.016.928-.024 1.872-.024 2.832 0 .848.008 1.68.024 2.496.016.8.04 1.552.072 2.256zm8.507-3.312c.736 0 1.312-.232 1.728-.696.432-.48.648-1.176.648-2.088a16.83 16.83 0 00-.96-.072c-.336-.016-.68-.024-1.032-.024-.736 0-1.28.12-1.632.36-.336.224-.504.584-.504 1.08 0 .512.128.88.384 1.104.272.224.728.336 1.368.336zm2.4-4.752v-1.2c0-.592-.144-1.04-.432-1.344-.288-.32-.776-.48-1.464-.48-.72 0-1.248.168-1.584.504-.336.32-.48.872-.432 1.656a18.975 18.975 0 00-1.032-.024c-.4-.016-.816-.024-1.248-.024-.512 0-1.016.008-1.512.024-.496 0-.904.024-1.224.072-.096-2.016.408-3.576 1.512-4.68 1.104-1.104 2.984-1.656 5.64-1.656 2.576 0 4.424.496 5.544 1.488 1.136.976 1.704 2.352 1.704 4.128 0 1.008-.016 1.912-.048 2.712-.016.784-.024 1.632-.024 2.544 0 .416.008.848.024 1.296l.048 1.248c.032.4.072.76.12 1.08.048.32.096.56.144.72H58.71c-.496 0-.816-.064-.96-.192-.128-.128-.192-.472-.192-1.032v-.6l.048-.672h-.144c-.304.912-.856 1.592-1.656 2.04-.784.448-1.792.672-3.024.672-1.52 0-2.68-.296-3.48-.888-.8-.592-1.2-1.648-1.2-3.168 0-1.552.528-2.664 1.584-3.336 1.072-.688 2.72-1.032 4.944-1.032.544 0 1.056.008 1.536.024.496.016.936.056 1.32.12zM80.886 47h-5.76c.016-1.04.032-2.264.048-3.672.016-1.424.024-3.008.024-4.752 0-.784-.144-1.344-.432-1.68-.272-.336-.752-.504-1.44-.504s-1.272.224-1.752.672c-.464.432-.696 1.184-.696 2.256v5.016c.016.576.024 1.072.024 1.488.016.416.024.808.024 1.176h-5.712l.048-3.24c.016-1.12.024-2.52.024-4.2 0-1.584-.008-2.976-.024-4.176-.016-1.2-.032-2.312-.048-3.336h5.712c-.016.464-.032.888-.048 1.272 0 .384-.008.784-.024 1.2l.144.048c.448-.96 1.088-1.656 1.92-2.088.832-.432 1.848-.648 3.048-.648 1.536 0 2.728.384 3.576 1.152.864.768 1.296 2.04 1.296 3.816 0 1.2-.008 2.168-.024 2.904a104.98 104.98 0 00-.024 2.28c0 .928.008 1.8.024 2.616.016.816.04 1.616.072 2.4zm1.146-14.952l1.536.024c.016-.512.024-1.008.024-1.488v-1.368l1.344.048h2.832l1.368-.048-.048 1.416-.048 1.464h2.496c.816-.016 1.568-.032 2.256-.048-.016.736-.04 1.528-.072 2.376-.032.832-.04 1.624-.024 2.376a145.28 145.28 0 00-2.016-.048l-2.712-.048a68.475 68.475 0 00-.024 1.848v1.992c0 .544.136.928.408 1.152.272.224.744.336 1.416.336.56 0 1.08-.04 1.56-.12.48-.08.904-.192 1.272-.336.032.752.104 1.6.216 2.544s.216 1.784.312 2.52c-.704.176-1.392.312-2.064.408a16.12 16.12 0 01-2.304.144c-1.216 0-2.232-.128-3.048-.384-.8-.272-1.44-.648-1.92-1.128a4.13 4.13 0 01-1.032-1.728 8.372 8.372 0 01-.288-2.256v-2.328l.048-2.736-1.464-.024v-2.304c0-.864-.008-1.616-.024-2.256zm20.571 3.144c-.736 0-1.304.208-1.704.624-.384.4-.624 1.24-.72 2.52.688.016 1.416.024 2.184.024.768 0 1.544-.008 2.328-.024a1.9 1.9 0 00.024-.312v-.336c0-.912-.16-1.552-.48-1.92-.32-.384-.864-.576-1.632-.576zm4.464 6.816c.496 0 .968-.008 1.416-.024.448-.016.856-.032 1.224-.048.032.864-.04 1.632-.216 2.304a3.354 3.354 0 01-1.056 1.704c-.512.448-1.248.792-2.208 1.032-.944.224-2.176.336-3.696.336-2.576 0-4.52-.608-5.832-1.824-1.296-1.232-1.944-3.208-1.944-5.928 0-2.864.68-4.88 2.04-6.048 1.376-1.184 3.344-1.776 5.904-1.776 1.36 0 2.496.136 3.408.408.912.272 1.632.664 2.16 1.176.544.512.928 1.152 1.152 1.92.224.768.336 1.64.336 2.616 0 .608-.016 1.152-.048 1.632-.016.48-.04.88-.072 1.2-.736-.016-1.624-.024-2.664-.024-1.04-.016-2.056-.024-3.048-.024h-2.088c-.64 0-1.2.008-1.68.024.064 1.168.288 1.976.672 2.424.4.448 1.016.672 1.848.672.768 0 1.288-.152 1.56-.456.288-.304.44-.76.456-1.368.288.016.632.032 1.032.048.416.016.864.024 1.344.024zM127.305 47h-5.76c.016-1.04.032-2.264.048-3.672.016-1.424.024-3.008.024-4.752 0-.784-.144-1.344-.432-1.68-.272-.336-.752-.504-1.44-.504s-1.272.224-1.752.672c-.464.432-.696 1.184-.696 2.256v5.016c.016.576.024 1.072.024 1.488.016.416.024.808.024 1.176h-5.712l.048-3.24c.016-1.12.024-2.52.024-4.2 0-1.584-.008-2.976-.024-4.176-.016-1.2-.032-2.312-.048-3.336h5.712c-.016.464-.032.888-.048 1.272 0 .384-.008.784-.024 1.2l.144.048c.448-.96 1.088-1.656 1.92-2.088.832-.432 1.848-.648 3.048-.648 1.536 0 2.728.384 3.576 1.152.864.768 1.296 2.04 1.296 3.816 0 1.2-.008 2.168-.024 2.904a104.98 104.98 0 00-.024 2.28c0 .928.008 1.8.024 2.616.016.816.04 1.616.072 2.4zm9.306-11.808c-.736 0-1.304.208-1.704.624-.384.4-.624 1.24-.72 2.52.688.016 1.416.024 2.184.024.768 0 1.544-.008 2.328-.024a1.9 1.9 0 00.024-.312v-.336c0-.912-.16-1.552-.48-1.92-.32-.384-.864-.576-1.632-.576zm4.464 6.816c.496 0 .968-.008 1.416-.024.448-.016.856-.032 1.224-.048.032.864-.04 1.632-.216 2.304a3.354 3.354 0 01-1.056 1.704c-.512.448-1.248.792-2.208 1.032-.944.224-2.176.336-3.696.336-2.576 0-4.52-.608-5.832-1.824-1.296-1.232-1.944-3.208-1.944-5.928 0-2.864.68-4.88 2.04-6.048 1.376-1.184 3.344-1.776 5.904-1.776 1.36 0 2.496.136 3.408.408.912.272 1.632.664 2.16 1.176.544.512.928 1.152 1.152 1.92.224.768.336 1.64.336 2.616 0 .608-.016 1.152-.048 1.632-.016.48-.04.88-.072 1.2-.736-.016-1.624-.024-2.664-.024-1.04-.016-2.056-.024-3.048-.024h-2.088c-.64 0-1.2.008-1.68.024.064 1.168.288 1.976.672 2.424.4.448 1.016.672 1.848.672.768 0 1.288-.152 1.56-.456.288-.304.44-.76.456-1.368.288.016.632.032 1.032.048.416.016.864.024 1.344.024zm9.175-6.744h.192c.336-1.216.856-2.08 1.56-2.592.72-.528 1.568-.792 2.544-.792.304 0 .592.024.864.072.288.032.56.08.816.144-.064.848-.128 1.8-.192 2.856a69.188 69.188 0 00-.12 3.048 5.909 5.909 0 00-.84-.192 5.839 5.839 0 00-.912-.072c-.96.016-1.632.264-2.016.744-.384.48-.576 1.392-.576 2.736 0 .944.008 1.944.024 3 .016 1.04.048 1.968.096 2.784h-6.048c.016-1.04.032-2.16.048-3.36.016-1.2.024-2.6.024-4.2 0-1.568-.008-2.928-.024-4.08 0-1.152-.016-2.256-.048-3.312h4.728c-.016.512-.04 1.032-.072 1.56a394.19 394.19 0 00-.048 1.656zM168.887 47h-5.736c.032-1.376.048-2.872.048-4.488a509.346 509.346 0 000-9.72c0-1.472-.016-2.928-.048-4.368h5.736a353.508 353.508 0 00-.072 4.32v10.08c.016 1.392.04 2.784.072 4.176zm12.205-7.68c0-1.248-.232-2.12-.696-2.616-.448-.496-1.08-.744-1.896-.744-.8 0-1.432.24-1.896.72-.464.48-.696 1.36-.696 2.64s.224 2.192.672 2.736c.464.544 1.104.816 1.92.816.832 0 1.472-.272 1.92-.816.448-.56.672-1.472.672-2.736zm5.568-.096c0 2.656-.688 4.672-2.064 6.048-1.376 1.36-3.408 2.04-6.096 2.04s-4.704-.68-6.048-2.04c-1.344-1.376-2.016-3.392-2.016-6.048s.704-4.568 2.112-5.736c1.424-1.168 3.408-1.752 5.952-1.752s4.536.584 5.976 1.752c1.456 1.168 2.184 3.08 2.184 5.736zm10.617-2.328v-.264c0-.448-.152-.776-.456-.984-.288-.224-.832-.336-1.632-.336-.768 0-1.296.088-1.584.264-.272.176-.408.416-.408.72 0 .16.032.32.096.48.08.144.24.28.48.408.24.128.584.248 1.032.36a22.72 22.72 0 001.8.288c2.192.304 3.696.816 4.512 1.536.816.72 1.224 1.808 1.224 3.264 0 1.536-.552 2.704-1.656 3.504-1.104.784-2.984 1.176-5.64 1.176-1.44 0-2.64-.096-3.6-.288-.944-.192-1.696-.472-2.256-.84-.544-.384-.928-.856-1.152-1.416-.224-.56-.336-1.208-.336-1.944v-.408l.048-.456c.336.016.736.04 1.2.072.464.032 1 .048 1.608.048.368 0 .72-.008 1.056-.024.352-.016.656-.032.912-.048 0 .064-.008.12-.024.168v.144c0 .448.168.792.504 1.032.336.224.936.336 1.8.336.752 0 1.272-.088 1.56-.264.288-.176.432-.44.432-.792 0-.4-.224-.712-.672-.936-.432-.224-1.328-.416-2.688-.576-1.152-.144-2.104-.344-2.856-.6-.736-.272-1.32-.6-1.752-.984a3.402 3.402 0 01-.888-1.392 6.456 6.456 0 01-.24-1.824c0-1.6.576-2.752 1.728-3.456 1.168-.72 3.016-1.08 5.544-1.08 2.672 0 4.528.352 5.568 1.056 1.056.704 1.584 1.792 1.584 3.264 0 .128-.008.264-.024.408 0 .144-.008.296-.024.456a22.57 22.57 0 00-1.32-.072 25.405 25.405 0 00-2.664-.024c-.336 0-.608.008-.816.024zm-186.885 28v-.264c0-.448-.152-.776-.456-.984-.288-.224-.832-.336-1.632-.336-.768 0-1.296.088-1.584.264-.272.176-.408.416-.408.72 0 .16.032.32.096.48.08.144.24.28.48.408.24.128.584.248 1.032.36a22.72 22.72 0 001.8.288c2.192.304 3.696.816 4.512 1.536.816.72 1.224 1.808 1.224 3.264 0 1.536-.552 2.704-1.656 3.504-1.104.784-2.984 1.176-5.64 1.176-1.44 0-2.64-.096-3.6-.288-.944-.192-1.696-.472-2.256-.84-.544-.384-.928-.856-1.152-1.416-.224-.56-.336-1.208-.336-1.944v-.408l.048-.456c.336.016.736.04 1.2.072.464.032 1 .048 1.608.048.368 0 .72-.008 1.056-.024.352-.016.656-.032.912-.048 0 .064-.008.12-.024.168v.144c0 .448.168.792.504 1.032.336.224.936.336 1.8.336.752 0 1.272-.088 1.56-.264.288-.176.432-.44.432-.792 0-.4-.224-.712-.672-.936-.432-.224-1.328-.416-2.688-.576-1.152-.144-2.104-.344-2.856-.6-.736-.272-1.32-.6-1.752-.984a3.402 3.402 0 01-.888-1.392 6.456 6.456 0 01-.24-1.824c0-1.6.576-2.752 1.728-3.456 1.168-.72 3.016-1.08 5.544-1.08 2.672 0 4.528.352 5.568 1.056 1.056.704 1.584 1.792 1.584 3.264 0 .128-.008.264-.024.408 0 .144-.008.296-.024.456a22.57 22.57 0 00-1.32-.072 25.405 25.405 0 00-2.664-.024c-.336 0-.608.008-.816.024zm13.148-11.28c.16.432.352.936.576 1.512.224.576.44 1.088.648 1.536-.32.064-.872.2-1.656.408-.768.208-1.584.432-2.448.672-.864.224-1.688.448-2.472.672l-1.68.48c-.096-.256-.2-.512-.312-.768a9.528 9.528 0 00-.336-.696c.288-.128.8-.368 1.536-.72.736-.368 1.512-.752 2.328-1.152l2.304-1.176c.736-.368 1.24-.624 1.512-.768zM22.796 75h-5.712c.032-1.152.048-2.368.048-3.648a333.137 333.137 0 000-7.872l-.048-3.432h5.712a247.345 247.345 0 00-.072 3.48v8.136c.016 1.12.04 2.232.072 3.336zm17.94 0h-5.76c.016-1.04.032-2.264.048-3.672.016-1.424.024-3.008.024-4.752 0-.784-.144-1.344-.432-1.68-.272-.336-.752-.504-1.44-.504s-1.272.224-1.752.672c-.464.432-.696 1.184-.696 2.256v5.016c.016.576.024 1.072.024 1.488.016.416.024.808.024 1.176h-5.712l.048-3.24c.016-1.12.024-2.52.024-4.2 0-1.584-.008-2.976-.024-4.176-.016-1.2-.032-2.312-.048-3.336h5.712c-.016.464-.032.888-.048 1.272 0 .384-.008.784-.024 1.2l.144.048c.448-.96 1.088-1.656 1.92-2.088.832-.432 1.848-.648 3.048-.648 1.536 0 2.728.384 3.576 1.152.864.768 1.296 2.04 1.296 3.816 0 1.2-.008 2.168-.024 2.904a104.98 104.98 0 00-.024 2.28c0 .928.008 1.8.024 2.616.016.816.04 1.616.072 2.4zm1.147-14.952l1.536.024c.016-.512.024-1.008.024-1.488v-1.368l1.344.048h2.832l1.368-.048-.048 1.416-.048 1.464h2.496c.816-.016 1.568-.032 2.256-.048-.016.736-.04 1.528-.072 2.376-.032.832-.04 1.624-.024 2.376a145.28 145.28 0 00-2.016-.048l-2.712-.048a68.475 68.475 0 00-.024 1.848v1.992c0 .544.136.928.408 1.152.272.224.744.336 1.416.336.56 0 1.08-.04 1.56-.12.48-.08.904-.192 1.272-.336.032.752.104 1.6.216 2.544s.216 1.784.312 2.52c-.704.176-1.392.312-2.064.408a16.12 16.12 0 01-2.304.144c-1.216 0-2.232-.128-3.048-.384-.8-.272-1.44-.648-1.92-1.128a4.13 4.13 0 01-1.032-1.728 8.372 8.372 0 01-.288-2.256v-2.328l.048-2.736-1.464-.024v-2.304c0-.864-.008-1.616-.024-2.256zm23.33 7.272c0-1.248-.232-2.12-.696-2.616-.448-.496-1.08-.744-1.896-.744-.8 0-1.432.24-1.896.72-.464.48-.696 1.36-.696 2.64s.224 2.192.672 2.736c.464.544 1.104.816 1.92.816.832 0 1.472-.272 1.92-.816.448-.56.672-1.472.672-2.736zm5.568-.096c0 2.656-.688 4.672-2.064 6.048-1.376 1.36-3.408 2.04-6.096 2.04s-4.704-.68-6.048-2.04c-1.344-1.376-2.016-3.392-2.016-6.048s.704-4.568 2.112-5.736c1.424-1.168 3.408-1.752 5.952-1.752s4.536.584 5.976 1.752c1.456 1.168 2.184 3.08 2.184 5.736zM95.318 75H90.11c.032-1.104.048-2.376.048-3.816.016-1.44.024-3.04.024-4.8 0-.688-.136-1.184-.408-1.488-.272-.32-.688-.48-1.248-.48-.592 0-1.096.2-1.512.6-.416.4-.624 1.112-.624 2.136v4.872c0 .608.008 1.152.024 1.632s.032.928.048 1.344h-5.16c.032-1.088.056-2.304.072-3.648.016-1.344.024-3.008.024-4.992 0-.64-.128-1.12-.384-1.44-.256-.336-.68-.504-1.272-.504s-1.104.2-1.536.6c-.416.4-.624 1.112-.624 2.136v4.872c.016 1.216.032 2.208.048 2.976h-5.256c.016-1.072.024-2.184.024-3.336.016-1.168.024-2.536.024-4.104 0-1.6-.008-2.984-.024-4.152 0-1.168-.008-2.288-.024-3.36h5.352c-.016.448-.032.864-.048 1.248-.016.368-.032.768-.048 1.2l.144.048c.432-.928 1-1.608 1.704-2.04.704-.448 1.568-.672 2.592-.672 1.104 0 2.016.256 2.736.768.72.496 1.184 1.192 1.392 2.088h.168c.432-1.056 1.056-1.792 1.872-2.208.816-.432 1.728-.648 2.736-.648 1.36 0 2.416.376 3.168 1.128.768.736 1.152 1.792 1.152 3.168 0 1.248-.016 2.344-.048 3.288-.016.928-.024 1.872-.024 2.832 0 .848.008 1.68.024 2.496.016.8.04 1.552.072 2.256zm8.508-3.312c.736 0 1.312-.232 1.728-.696.432-.48.648-1.176.648-2.088a16.83 16.83 0 00-.96-.072c-.336-.016-.68-.024-1.032-.024-.736 0-1.28.12-1.632.36-.336.224-.504.584-.504 1.08 0 .512.128.88.384 1.104.272.224.728.336 1.368.336zm2.4-4.752v-1.2c0-.592-.144-1.04-.432-1.344-.288-.32-.776-.48-1.464-.48-.72 0-1.248.168-1.584.504-.336.32-.48.872-.432 1.656a18.975 18.975 0 00-1.032-.024c-.4-.016-.816-.024-1.248-.024-.512 0-1.016.008-1.512.024-.496 0-.904.024-1.224.072-.096-2.016.408-3.576 1.512-4.68 1.104-1.104 2.984-1.656 5.64-1.656 2.576 0 4.424.496 5.544 1.488 1.136.976 1.704 2.352 1.704 4.128 0 1.008-.016 1.912-.048 2.712-.016.784-.024 1.632-.024 2.544 0 .416.008.848.024 1.296l.048 1.248c.032.4.072.76.12 1.08.048.32.096.56.144.72h-4.512c-.496 0-.816-.064-.96-.192-.128-.128-.192-.472-.192-1.032v-.6l.048-.672h-.144c-.304.912-.856 1.592-1.656 2.04-.784.448-1.792.672-3.024.672-1.52 0-2.68-.296-3.48-.888-.8-.592-1.2-1.648-1.2-3.168 0-1.552.528-2.664 1.584-3.336 1.072-.688 2.72-1.032 4.944-1.032.544 0 1.056.008 1.536.024.496.016.936.056 1.32.12zm16.751-2.04v-.264c0-.448-.152-.776-.456-.984-.288-.224-.832-.336-1.632-.336-.768 0-1.296.088-1.584.264-.272.176-.408.416-.408.72 0 .16.032.32.096.48.08.144.24.28.48.408.24.128.584.248 1.032.36a22.72 22.72 0 001.8.288c2.192.304 3.696.816 4.512 1.536.816.72 1.224 1.808 1.224 3.264 0 1.536-.552 2.704-1.656 3.504-1.104.784-2.984 1.176-5.64 1.176-1.44 0-2.64-.096-3.6-.288-.944-.192-1.696-.472-2.256-.84-.544-.384-.928-.856-1.152-1.416-.224-.56-.336-1.208-.336-1.944v-.408l.048-.456c.336.016.736.04 1.2.072.464.032 1 .048 1.608.048.368 0 .72-.008 1.056-.024.352-.016.656-.032.912-.048 0 .064-.008.12-.024.168v.144c0 .448.168.792.504 1.032.336.224.936.336 1.8.336.752 0 1.272-.088 1.56-.264.288-.176.432-.44.432-.792 0-.4-.224-.712-.672-.936-.432-.224-1.328-.416-2.688-.576-1.152-.144-2.104-.344-2.856-.6-.736-.272-1.32-.6-1.752-.984a3.402 3.402 0 01-.888-1.392 6.456 6.456 0 01-.24-1.824c0-1.6.576-2.752 1.728-3.456 1.168-.72 3.016-1.08 5.544-1.08 2.672 0 4.528.352 5.568 1.056 1.056.704 1.584 1.792 1.584 3.264 0 .128-.008.264-.024.408 0 .144-.008.296-.024.456a22.57 22.57 0 00-1.32-.072 25.405 25.405 0 00-2.664-.024c-.336 0-.608.008-.816.024zM7.104 103H1.368c.032-1.376.048-2.872.048-4.488a509.346 509.346 0 000-9.72c0-1.472-.016-2.928-.048-4.368h5.736a353.508 353.508 0 00-.072 4.32v10.08c.016 1.392.04 2.784.072 4.176zm9.445-11.808c-.736 0-1.303.208-1.704.624-.384.4-.623 1.24-.72 2.52.688.016 1.416.024 2.184.024.768 0 1.544-.008 2.328-.024a1.9 1.9 0 00.024-.312v-.336c0-.912-.16-1.552-.48-1.92-.32-.384-.864-.576-1.632-.576zm4.465 6.816c.495 0 .968-.008 1.416-.024.448-.016.855-.032 1.224-.048.032.864-.04 1.632-.216 2.304a3.354 3.354 0 01-1.056 1.704c-.513.448-1.248.792-2.209 1.032-.943.224-2.175.336-3.695.336-2.577 0-4.52-.608-5.833-1.824-1.295-1.232-1.944-3.208-1.944-5.928 0-2.864.68-4.88 2.04-6.048 1.377-1.184 3.345-1.776 5.904-1.776 1.36 0 2.497.136 3.409.408.912.272 1.632.664 2.16 1.176.544.512.928 1.152 1.152 1.92.224.768.335 1.64.335 2.616 0 .608-.015 1.152-.047 1.632-.017.48-.04.88-.073 1.2-.735-.016-1.623-.024-2.663-.024-1.04-.016-2.056-.024-3.049-.024h-2.088c-.64 0-1.2.008-1.68.024.064 1.168.288 1.976.672 2.424.4.448 1.017.672 1.849.672.768 0 1.288-.152 1.56-.456.288-.304.44-.76.456-1.368.287.016.631.032 1.031.048.416.016.864.024 1.345.024zm13.998-9.96H40.7c-.288.944-.648 2.152-1.08 3.624-.416 1.472-.832 2.952-1.248 4.44a952.247 952.247 0 01-1.176 4.128c-.352 1.28-.608 2.2-.768 2.76a45.154 45.154 0 00-1.584-.024 111.84 111.84 0 00-4.656 0c-.704 0-1.192.008-1.464.024-.16-.544-.432-1.448-.816-2.712-.368-1.28-.768-2.656-1.2-4.128-.432-1.488-.864-2.968-1.296-4.44-.432-1.488-.8-2.712-1.104-3.672h6.144c.048.304.12.72.216 1.248.112.512.232 1.088.36 1.728l.408 2.04c.16.72.312 1.424.456 2.112.144.704.272 1.376.384 2.016.128.624.24 1.192.336 1.704h.24c.096-.512.2-1.08.312-1.704.128-.64.272-1.32.432-2.04.144-.704.288-1.416.432-2.136.16-.72.304-1.4.432-2.04.128-.64.24-1.216.336-1.728.112-.512.184-.912.216-1.2zm13.367 3.144c-.736 0-1.304.208-1.704.624-.384.4-.624 1.24-.72 2.52.688.016 1.416.024 2.184.024.768 0 1.544-.008 2.328-.024a1.9 1.9 0 00.024-.312v-.336c0-.912-.16-1.552-.48-1.92-.32-.384-.864-.576-1.632-.576zm4.464 6.816c.496 0 .968-.008 1.416-.024.448-.016.856-.032 1.224-.048.032.864-.04 1.632-.216 2.304a3.354 3.354 0 01-1.056 1.704c-.512.448-1.248.792-2.208 1.032-.944.224-2.176.336-3.696.336-2.576 0-4.52-.608-5.832-1.824-1.296-1.232-1.944-3.208-1.944-5.928 0-2.864.68-4.88 2.04-6.048 1.376-1.184 3.344-1.776 5.904-1.776 1.36 0 2.496.136 3.408.408.912.272 1.632.664 2.16 1.176.544.512.928 1.152 1.152 1.92.224.768.336 1.64.336 2.616 0 .608-.016 1.152-.048 1.632-.016.48-.04.88-.072 1.2-.736-.016-1.624-.024-2.664-.024-1.04-.016-2.056-.024-3.048-.024H47.61c-.64 0-1.2.008-1.68.024.064 1.168.288 1.976.672 2.424.4.448 1.016.672 1.848.672.768 0 1.288-.152 1.56-.456.288-.304.44-.76.456-1.368.288.016.632.032 1.032.048.416.016.864.024 1.344.024zm13.59-5.112v-.264c0-.448-.152-.776-.456-.984-.288-.224-.832-.336-1.632-.336-.768 0-1.296.088-1.584.264-.272.176-.408.416-.408.72 0 .16.032.32.096.48.08.144.24.28.48.408.24.128.584.248 1.032.36a22.72 22.72 0 001.8.288c2.192.304 3.696.816 4.512 1.536.816.72 1.224 1.808 1.224 3.264 0 1.536-.552 2.704-1.656 3.504-1.104.784-2.984 1.176-5.64 1.176-1.44 0-2.64-.096-3.6-.288-.944-.192-1.696-.472-2.256-.84-.544-.384-.928-.856-1.152-1.416-.224-.56-.336-1.208-.336-1.944v-.408l.048-.456c.336.016.736.04 1.2.072.464.032 1 .048 1.608.048.368 0 .72-.008 1.056-.024.352-.016.656-.032.912-.048 0 .064-.008.12-.024.168v.144c0 .448.168.792.504 1.032.336.224.936.336 1.8.336.752 0 1.272-.088 1.56-.264.288-.176.432-.44.432-.792 0-.4-.224-.712-.672-.936-.432-.224-1.328-.416-2.688-.576-1.152-.144-2.104-.344-2.856-.6-.736-.272-1.32-.6-1.752-.984a3.402 3.402 0 01-.888-1.392 6.456 6.456 0 01-.24-1.824c0-1.6.576-2.752 1.728-3.456 1.168-.72 3.016-1.08 5.544-1.08 2.672 0 4.528.352 5.568 1.056 1.056.704 1.584 1.792 1.584 3.264 0 .128-.008.264-.024.408 0 .144-.008.296-.024.456a22.57 22.57 0 00-1.32-.072 25.405 25.405 0 00-2.664-.024c-.336 0-.608.008-.816.024zm8.3 4.176c.912 0 1.616.248 2.112.744s.744 1.256.744 2.28c0 1.04-.248 1.824-.744 2.352-.496.512-1.2.768-2.112.768-.912 0-1.616-.256-2.112-.768-.48-.528-.72-1.312-.72-2.352 0-1.024.248-1.784.744-2.28.496-.496 1.192-.744 2.088-.744z" fill="#022E35"/></svg>