<svg width="182" height="76" viewBox="0 0 182 76" fill="none" xmlns="http://www.w3.org/2000/svg"><path d="M1.56 1h14.448a45.56 45.56 0 00-.048.984V4.36c.016.448.032.8.048 1.056a406.386 406.386 0 00-4.464-.024 384.947 384.947 0 00-4.056-.024v2.52h4.344c1.472-.016 2.792-.04 3.96-.072 0 .224-.008.512-.024.864v3.072a1278.55 1278.55 0 00-3.96-.048 397.608 397.608 0 00-4.32-.024v2.616h4.128c.752-.016 1.496-.024 2.232-.024.752-.016 1.472-.024 2.16-.024-.016.288-.032.672-.048 1.152v2.496c.016.432.032.8.048 1.104H1.56c.032-1.2.048-2.52.048-3.96.016-1.456.024-3.136.024-5.04s-.008-3.592-.024-5.064c0-1.472-.016-2.784-.048-3.936zm22.337 18h-5.736c.032-1.376.048-2.872.048-4.488a509.346 509.346 0 000-9.72c0-1.472-.016-2.928-.048-4.368h5.736a353.508 353.508 0 00-.072 4.32v10.08c.016 1.392.04 2.784.072 4.176zM42.674 1h6.144a149.66 149.66 0 00-1.152 4.344c-.448 1.76-.896 3.536-1.344 5.328-.432 1.776-.84 3.44-1.224 4.992A581.275 581.275 0 0044.306 19a69.463 69.463 0 00-1.992-.024c-.784-.016-1.632-.024-2.544-.024-1.2 0-2.168.008-2.904.024-.736 0-1.304.008-1.704.024l-.792-3.384a360.021 360.021 0 00-1.224-5.04 371.381 371.381 0 00-1.368-5.352c-.448-1.76-.84-3.168-1.176-4.224h6.552c.048.448.136 1.072.264 1.872.144.8.312 1.688.504 2.664.192.976.392 2.008.6 3.096.224 1.072.44 2.096.648 3.072.144.592.272 1.168.384 1.728.128.56.232 1.08.312 1.56h.048c.08-.48.176-1 .288-1.56.128-.576.264-1.16.408-1.752.208-.976.416-2.008.624-3.096A210.762 210.762 0 0042.362 2.8c.16-.8.264-1.4.312-1.8zm15.998 8.688c.784 0 1.36-.192 1.728-.576.384-.384.576-.976.576-1.776 0-.96-.216-1.592-.648-1.896-.416-.304-1.072-.456-1.968-.456-.256 0-.64.008-1.152.024-.512 0-1 .008-1.464.024v2.352c0 .768.008 1.52.024 2.256.336.016.752.024 1.248.024.512 0 1.064.008 1.656.024zm3.792 2.016v.144c1.232.16 2.136.48 2.712.96.592.464 1.04 1.296 1.344 2.496.192.688.376 1.376.552 2.064.176.688.32 1.232.432 1.632h-5.352c-.448 0-.752-.128-.912-.384-.16-.272-.344-.864-.552-1.776-.144-.752-.28-1.36-.408-1.824-.128-.464-.28-.824-.456-1.08-.16-.256-.36-.424-.6-.504-.24-.096-.544-.144-.912-.144H57.16a19.163 19.163 0 00-1.368 0c.016 1.152.048 2.216.096 3.192s.104 1.816.168 2.52h-6.072l.048-4.032c.032-1.408.048-3.064.048-4.968s-.008-3.552-.024-4.944c-.016-1.408-.04-2.76-.072-4.056H59.8c2.192 0 3.888.432 5.088 1.296 1.216.864 1.824 2.24 1.824 4.128 0 1.632-.328 2.864-.984 3.696-.656.816-1.744 1.344-3.264 1.584zm11.315 1.416v.336c0 .688.192 1.176.576 1.464.384.272 1.088.408 2.112.408 1.008 0 1.688-.112 2.04-.336.352-.24.528-.584.528-1.032 0-.256-.048-.488-.144-.696-.08-.224-.256-.424-.528-.6-.256-.176-.624-.336-1.104-.48-.48-.144-1.112-.272-1.896-.384-1.36-.192-2.488-.448-3.384-.768-.896-.32-1.6-.712-2.112-1.176A4.074 4.074 0 0168.81 8.2c-.192-.624-.288-1.328-.288-2.112 0-1.696.64-3.024 1.92-3.984 1.28-.96 3.296-1.44 6.048-1.44 1.536 0 2.816.112 3.84.336 1.04.208 1.864.528 2.472.96.624.416 1.064.936 1.32 1.56.272.624.408 1.336.408 2.136 0 .16-.008.336-.024.528 0 .176-.008.36-.024.552a86.97 86.97 0 00-1.344-.048 53.914 53.914 0 00-1.584-.024h-1.176c-.368 0-.68.008-.936.024.016-.08.024-.16.024-.24v-.24c0-.48-.184-.864-.552-1.152-.368-.288-1.12-.432-2.256-.432-.864 0-1.464.12-1.8.36-.336.224-.504.528-.504.912 0 .208.032.416.096.624.08.192.248.376.504.552.272.176.656.344 1.152.504.496.144 1.168.28 2.016.408 2.448.368 4.168.992 5.16 1.872.992.88 1.488 2.192 1.488 3.936 0 1.744-.616 3.104-1.848 4.08-1.216.976-3.272 1.464-6.168 1.464-1.552 0-2.864-.112-3.936-.336-1.056-.208-1.904-.52-2.544-.936-.64-.416-1.104-.936-1.392-1.56-.272-.64-.408-1.376-.408-2.208v-.624l.048-.648c.4.032.88.064 1.44.096.56.032 1.12.048 1.68.048h1.152c.384-.016.712-.032.984-.048zm24.017-2.16v3.552c.304.16.648.28 1.032.36.384.08.816.12 1.296.12.864 0 1.488-.264 1.872-.792.4-.544.6-1.488.6-2.832 0-1.296-.184-2.2-.552-2.712-.368-.512-.904-.768-1.608-.768-.752 0-1.384.24-1.896.72-.496.464-.744 1.248-.744 2.352zm.072-4.728l.24.048a4.915 4.915 0 011.8-1.776c.784-.464 1.744-.696 2.88-.696 1.808 0 3.152.64 4.032 1.92.896 1.264 1.344 3.184 1.344 5.76 0 2.608-.488 4.552-1.464 5.832-.96 1.28-2.28 1.92-3.96 1.92-1.296 0-2.32-.224-3.072-.672-.752-.448-1.304-.992-1.656-1.632l-.144.024c.016.304.024.624.024.96V20.56l.048 1.68h-5.784c.016-.672.024-1.432.024-2.28.016-.848.024-1.736.024-2.664a167.2 167.2 0 00.024-2.88v-2.904c0-1.536-.008-2.896-.024-4.08 0-1.184-.008-2.312-.024-3.384h5.736c0 .208-.008.416-.024.624v1.104c0 .144-.008.296-.024.456zm21.838-2.184h5.736l-.048 3.264v8.352c.016 1.184.032 2.296.048 3.336h-5.712c.016-.464.024-.888.024-1.272l.048-1.2-.144-.024c-.432.944-1.064 1.64-1.896 2.088-.816.432-1.848.648-3.096.648-1.472 0-2.656-.376-3.552-1.128-.88-.768-1.32-1.992-1.32-3.672 0-1.248.008-2.264.024-3.048a128.834 128.834 0 000-4.968c0-.8-.016-1.592-.048-2.376h5.76c-.032 1.056-.056 2.32-.072 3.792v4.872c0 .752.144 1.296.432 1.632.288.32.76.48 1.416.48.688 0 1.264-.224 1.728-.672.48-.448.72-1.2.72-2.256V8.872c0-.832-.008-1.536-.024-2.112 0-.592-.008-1.096-.024-1.512v-1.2zm15.207 3.144c-.736 0-1.304.208-1.704.624-.384.4-.624 1.24-.72 2.52.688.016 1.416.024 2.184.024.768 0 1.544-.008 2.328-.024a1.9 1.9 0 00.024-.312v-.336c0-.912-.16-1.552-.48-1.92-.32-.384-.864-.576-1.632-.576zm4.464 6.816c.496 0 .968-.008 1.416-.024.448-.016.856-.032 1.224-.048.032.864-.04 1.632-.216 2.304a3.354 3.354 0 01-1.056 1.704c-.512.448-1.248.792-2.208 1.032-.944.224-2.176.336-3.696.336-2.576 0-4.52-.608-5.832-1.824-1.296-1.232-1.944-3.208-1.944-5.928 0-2.864.68-4.88 2.04-6.048 1.376-1.184 3.344-1.776 5.904-1.776 1.36 0 2.496.136 3.408.408.912.272 1.632.664 2.16 1.176.544.512.928 1.152 1.152 1.92.224.768.336 1.64.336 2.616 0 .608-.016 1.152-.048 1.632-.016.48-.04.88-.072 1.2-.736-.016-1.624-.024-2.664-.024-1.04-.016-2.056-.024-3.048-.024h-2.088c-.64 0-1.2.008-1.68.024.064 1.168.288 1.976.672 2.424.4.448 1.016.672 1.848.672.768 0 1.288-.152 1.56-.456.288-.304.44-.76.456-1.368.288.016.632.032 1.032.048.416.016.864.024 1.344.024zm14.334-1.944V8.272a4.55 4.55 0 00-1.056-.336 6.12 6.12 0 00-1.248-.12c-.848 0-1.488.264-1.92.792-.432.528-.648 1.488-.648 2.88 0 1.328.2 2.256.6 2.784.416.512.976.768 1.68.768.736 0 1.352-.24 1.848-.72s.744-1.232.744-2.256zm-.12-11.64h5.76a168.71 168.71 0 00-.048 4.152V15.016c0 1.392.016 2.728.048 4.008h-5.736v-.768c.016-.272.024-.552.024-.84v-.552c0-.192.008-.384.024-.576l-.168-.024c-.304.768-.824 1.456-1.56 2.064-.72.592-1.752.888-3.096.888-1.696 0-3.04-.584-4.032-1.752-.992-1.184-1.488-3.152-1.488-5.904 0-1.392.152-2.576.456-3.552.304-.992.712-1.792 1.224-2.4a4.77 4.77 0 011.848-1.368 6.146 6.146 0 012.304-.432c1.04 0 1.928.184 2.664.552a3.977 3.977 0 011.776 1.632l.072-.024a375.75 375.75 0 00-.048-1.2V3.52 1.912c0-.496-.008-.992-.024-1.488zm15.237 6.768c-.736 0-1.304.208-1.704.624-.384.4-.624 1.24-.72 2.52.688.016 1.416.024 2.184.024.768 0 1.544-.008 2.328-.024a1.9 1.9 0 00.024-.312v-.336c0-.912-.16-1.552-.48-1.92-.32-.384-.864-.576-1.632-.576zm4.464 6.816c.496 0 .968-.008 1.416-.024.448-.016.856-.032 1.224-.048.032.864-.04 1.632-.216 2.304a3.354 3.354 0 01-1.056 1.704c-.512.448-1.248.792-2.208 1.032-.944.224-2.176.336-3.696.336-2.576 0-4.52-.608-5.832-1.824-1.296-1.232-1.944-3.208-1.944-5.928 0-2.864.68-4.88 2.04-6.048 1.376-1.184 3.344-1.776 5.904-1.776 1.36 0 2.496.136 3.408.408.912.272 1.632.664 2.16 1.176.544.512.928 1.152 1.152 1.92.224.768.336 1.64.336 2.616 0 .608-.016 1.152-.048 1.632-.016.48-.04.88-.072 1.2-.736-.016-1.624-.024-2.664-.024-1.04-.016-2.056-.024-3.048-.024h-2.088c-.64 0-1.2.008-1.68.024.064 1.168.288 1.976.672 2.424.4.448 1.016.672 1.848.672.768 0 1.288-.152 1.56-.456.288-.304.44-.76.456-1.368.288.016.632.032 1.032.048.416.016.864.024 1.344.024zM7.776 43.688c.736 0 1.312-.232 1.728-.696.432-.48.648-1.176.648-2.088a16.83 16.83 0 00-.96-.072c-.336-.016-.68-.024-1.032-.024-.736 0-1.28.12-1.632.36-.336.224-.504.584-.504 1.08 0 .512.128.88.384 1.104.272.224.728.336 1.368.336zm2.4-4.752v-1.2c0-.592-.144-1.04-.432-1.344-.288-.32-.776-.48-1.464-.48-.72 0-1.248.168-1.584.504-.336.32-.48.872-.432 1.656a18.975 18.975 0 00-1.032-.024c-.4-.016-.816-.024-1.248-.024-.512 0-1.016.008-1.512.024-.496 0-.904.024-1.224.072-.096-2.016.408-3.576 1.512-4.68 1.104-1.104 2.984-1.656 5.64-1.656 2.576 0 4.424.496 5.544 1.488 1.136.976 1.704 2.352 1.704 4.128 0 1.008-.016 1.912-.048 2.712-.016.784-.024 1.632-.024 2.544 0 .416.008.848.024 1.296l.048 1.248c.032.4.072.76.12 1.08.048.32.096.56.144.72H11.4c-.496 0-.816-.064-.96-.192-.128-.128-.192-.472-.192-1.032v-.6l.048-.672h-.144c-.304.912-.856 1.592-1.656 2.04-.784.448-1.792.672-3.024.672-1.52 0-2.68-.296-3.48-.888-.8-.592-1.2-1.648-1.2-3.168 0-1.552.528-2.664 1.584-3.336 1.072-.688 2.72-1.032 4.944-1.032.544 0 1.056.008 1.536.024.496.016.936.056 1.32.12zm12.336-3.672h.192c.336-1.216.856-2.08 1.56-2.592.72-.528 1.568-.792 2.544-.792.304 0 .592.024.864.072.288.032.56.08.816.144-.064.848-.128 1.8-.192 2.856a69.188 69.188 0 00-.12 3.048 5.909 5.909 0 00-.84-.192 5.839 5.839 0 00-.912-.072c-.96.016-1.632.264-2.016.744-.384.48-.576 1.392-.576 2.736 0 .944.008 1.944.024 3 .016 1.04.048 1.968.096 2.784h-6.048c.016-1.04.032-2.16.048-3.36.016-1.2.024-2.6.024-4.2 0-1.568-.008-2.928-.024-4.08 0-1.152-.016-2.256-.048-3.312h4.728c-.016.512-.04 1.032-.072 1.56a394.19 394.19 0 00-.048 1.656zm11.777 0h.192c.336-1.216.856-2.08 1.56-2.592.72-.528 1.568-.792 2.544-.792.304 0 .592.024.864.072.288.032.56.08.816.144-.064.848-.128 1.8-.192 2.856a69.188 69.188 0 00-.12 3.048 5.909 5.909 0 00-.84-.192 5.839 5.839 0 00-.912-.072c-.96.016-1.632.264-2.016.744-.384.48-.576 1.392-.576 2.736 0 .944.008 1.944.024 3 .016 1.04.048 1.968.096 2.784h-6.048c.016-1.04.032-2.16.048-3.36.016-1.2.024-2.6.024-4.2 0-1.568-.008-2.928-.024-4.08 0-1.152-.016-2.256-.048-3.312h4.728c-.016.512-.04 1.032-.072 1.56a394.19 394.19 0 00-.048 1.656zm17.082-3.216h5.736l-.048 3.264v8.352c.016 1.184.032 2.296.048 3.336h-5.712c.016-.464.024-.888.024-1.272l.048-1.2-.144-.024c-.432.944-1.064 1.64-1.896 2.088-.816.432-1.848.648-3.096.648-1.472 0-2.656-.376-3.552-1.128-.88-.768-1.32-1.992-1.32-3.672 0-1.248.008-2.264.024-3.048a128.834 128.834 0 000-4.968c0-.8-.016-1.592-.048-2.376h5.76c-.032 1.056-.056 2.32-.072 3.792v4.872c0 .752.144 1.296.432 1.632.288.32.76.48 1.416.48.688 0 1.264-.224 1.728-.672.48-.448.72-1.2.72-2.256v-3.024c0-.832-.008-1.536-.024-2.112 0-.592-.008-1.096-.024-1.512v-1.2zm14.127-2.376c0 .176-.04.352-.12.528-.064.176-.208.328-.432.456s-.552.232-.984.312c-.432.08-1 .12-1.704.12-.72 0-1.296-.04-1.728-.12-.432-.08-.768-.184-1.008-.312-.224-.128-.376-.28-.456-.456a1.536 1.536 0 01-.096-.528c0-.208.04-.392.12-.552.08-.16.232-.296.456-.408.24-.112.576-.2 1.008-.264.432-.064 1-.096 1.704-.096.688 0 1.248.032 1.68.096.432.064.76.152.984.264.224.112.376.248.456.408.08.16.12.344.12.552zM65.09 47h-5.712c.032-1.152.048-2.368.048-3.648a333.137 333.137 0 000-7.872l-.048-3.432h5.712a247.345 247.345 0 00-.072 3.48v8.136c.016 1.12.04 2.232.072 3.336zm17.94 0h-5.76c.017-1.04.033-2.264.049-3.672.016-1.424.024-3.008.024-4.752 0-.784-.144-1.344-.432-1.68-.272-.336-.752-.504-1.44-.504s-1.272.224-1.752.672c-.464.432-.696 1.184-.696 2.256v5.016c.016.576.024 1.072.024 1.488.016.416.024.808.024 1.176h-5.712l.048-3.24c.016-1.12.024-2.52.024-4.2 0-1.584-.008-2.976-.024-4.176-.016-1.2-.032-2.312-.048-3.336h5.712c-.016.464-.032.888-.048 1.272 0 .384-.008.784-.024 1.2l.144.048c.448-.96 1.088-1.656 1.92-2.088.832-.432 1.848-.648 3.048-.648 1.536 0 2.728.384 3.576 1.152.864.768 1.296 2.04 1.296 3.816 0 1.2-.008 2.168-.024 2.904a104.98 104.98 0 00-.024 2.28c0 .928.008 1.8.024 2.616.016.816.04 1.616.072 2.4zm8.491-3.312c.736 0 1.312-.232 1.728-.696.432-.48.648-1.176.648-2.088a16.83 16.83 0 00-.96-.072c-.336-.016-.68-.024-1.032-.024-.736 0-1.28.12-1.632.36-.336.224-.504.584-.504 1.08 0 .512.128.88.384 1.104.272.224.728.336 1.368.336zm2.4-4.752v-1.2c0-.592-.144-1.04-.432-1.344-.288-.32-.776-.48-1.464-.48-.72 0-1.248.168-1.584.504-.336.32-.48.872-.432 1.656a18.975 18.975 0 00-1.032-.024c-.4-.016-.816-.024-1.248-.024-.512 0-1.016.008-1.512.024-.496 0-.904.024-1.224.072-.096-2.016.408-3.576 1.512-4.68 1.104-1.104 2.984-1.656 5.64-1.656 2.576 0 4.424.496 5.544 1.488 1.136.976 1.704 2.352 1.704 4.128 0 1.008-.016 1.912-.048 2.712-.016.784-.024 1.632-.024 2.544 0 .416.008.848.024 1.296l.048 1.248c.032.4.072.76.12 1.08.048.32.096.56.144.72h-4.512c-.496 0-.816-.064-.96-.192-.128-.128-.192-.472-.192-1.032v-.6l.048-.672h-.144c-.304.912-.856 1.592-1.656 2.04-.784.448-1.792.672-3.024.672-1.52 0-2.68-.296-3.48-.888-.8-.592-1.2-1.648-1.2-3.168 0-1.552.528-2.664 1.584-3.336 1.072-.688 2.72-1.032 4.944-1.032.544 0 1.056.008 1.536.024.496.016.936.056 1.32.12zm12.336-3.672h.192c.336-1.216.856-2.08 1.56-2.592.72-.528 1.568-.792 2.544-.792.304 0 .592.024.864.072.288.032.56.08.816.144-.064.848-.128 1.8-.192 2.856a69.188 69.188 0 00-.12 3.048 5.909 5.909 0 00-.84-.192 5.839 5.839 0 00-.912-.072c-.96.016-1.632.264-2.016.744-.384.48-.576 1.392-.576 2.736 0 .944.008 1.944.024 3 .016 1.04.048 1.968.096 2.784h-6.048c.016-1.04.032-2.16.048-3.36.016-1.2.024-2.6.024-4.2 0-1.568-.008-2.928-.024-4.08 0-1.152-.016-2.256-.048-3.312h4.728c-.016.512-.04 1.032-.072 1.56a394.19 394.19 0 00-.048 1.656zm6.233-3.216l1.536.024c.016-.512.024-1.008.024-1.488v-1.368l1.344.048h2.832l1.368-.048-.048 1.416-.048 1.464h2.496c.816-.016 1.568-.032 2.256-.048-.016.736-.04 1.528-.072 2.376-.032.832-.04 1.624-.024 2.376a145.28 145.28 0 00-2.016-.048l-2.712-.048a68.475 68.475 0 00-.024 1.848v1.992c0 .544.136.928.408 1.152.272.224.744.336 1.416.336.56 0 1.08-.04 1.56-.12.48-.08.904-.192 1.272-.336.032.752.104 1.6.216 2.544s.216 1.784.312 2.52c-.704.176-1.392.312-2.064.408a16.12 16.12 0 01-2.304.144c-1.216 0-2.232-.128-3.048-.384-.8-.272-1.44-.648-1.92-1.128a4.13 4.13 0 01-1.032-1.728 8.372 8.372 0 01-.288-2.256v-2.328l.048-2.736-1.464-.024v-2.304c0-.864-.008-1.616-.024-2.256zm20.571 3.144c-.736 0-1.304.208-1.704.624-.384.4-.624 1.24-.72 2.52.688.016 1.416.024 2.184.024.768 0 1.544-.008 2.328-.024a1.9 1.9 0 00.024-.312v-.336c0-.912-.16-1.552-.48-1.92-.32-.384-.864-.576-1.632-.576zm4.464 6.816c.496 0 .968-.008 1.416-.024.448-.016.856-.032 1.224-.048.032.864-.04 1.632-.216 2.304a3.354 3.354 0 01-1.056 1.704c-.512.448-1.248.792-2.208 1.032-.944.224-2.176.336-3.696.336-2.576 0-4.52-.608-5.832-1.824-1.296-1.232-1.944-3.208-1.944-5.928 0-2.864.68-4.88 2.04-6.048 1.376-1.184 3.344-1.776 5.904-1.776 1.36 0 2.496.136 3.408.408.912.272 1.632.664 2.16 1.176.544.512.928 1.152 1.152 1.92.224.768.336 1.64.336 2.616 0 .608-.016 1.152-.048 1.632-.016.48-.04.88-.072 1.2-.736-.016-1.624-.024-2.664-.024-1.04-.016-2.056-.024-3.048-.024h-2.088c-.64 0-1.2.008-1.68.024.064 1.168.288 1.976.672 2.424.4.448 1.016.672 1.848.672.768 0 1.288-.152 1.56-.456.288-.304.44-.76.456-1.368.288.016.632.032 1.032.048.416.016.864.024 1.344.024zm20.209-9.96h5.736l-.048 3.264v8.352c.016 1.184.032 2.296.048 3.336h-5.712c.016-.464.024-.888.024-1.272l.048-1.2-.144-.024c-.432.944-1.064 1.64-1.896 2.088-.816.432-1.848.648-3.096.648-1.472 0-2.656-.376-3.552-1.128-.88-.768-1.32-1.992-1.32-3.672 0-1.248.008-2.264.024-3.048a128.834 128.834 0 000-4.968c0-.8-.016-1.592-.048-2.376h5.76c-.032 1.056-.056 2.32-.072 3.792v4.872c0 .752.144 1.296.432 1.632.288.32.76.48 1.416.48.688 0 1.264-.224 1.728-.672.48-.448.72-1.2.72-2.256v-3.024c0-.832-.008-1.536-.024-2.112 0-.592-.008-1.096-.024-1.512v-1.2zM181.389 47h-5.76c.016-1.04.032-2.264.048-3.672.016-1.424.024-3.008.024-4.752 0-.784-.144-1.344-.432-1.68-.272-.336-.752-.504-1.44-.504s-1.272.224-1.752.672c-.464.432-.696 1.184-.696 2.256v5.016c.016.576.024 1.072.024 1.488.016.416.024.808.024 1.176h-5.712l.048-3.24c.016-1.12.024-2.52.024-4.2 0-1.584-.008-2.976-.024-4.176-.016-1.2-.032-2.312-.048-3.336h5.712c-.016.464-.032.888-.048 1.272 0 .384-.008.784-.024 1.2l.144.048c.448-.96 1.088-1.656 1.92-2.088.832-.432 1.848-.648 3.048-.648 1.536 0 2.728.384 3.576 1.152.864.768 1.296 2.04 1.296 3.816 0 1.2-.008 2.168-.024 2.904a104.98 104.98 0 00-.024 2.28c0 .928.008 1.8.024 2.616.016.816.04 1.616.072 2.4z" fill="#fff"/><path d="M7.656 62.064v.672a3687.683 3687.683 0 004.08-.096c-.016.736-.024 1.528-.024 2.376l.048 2.4a88.773 88.773 0 00-2.064-.024l-2.04-.048c0 1.536.008 2.904.024 4.104.016 1.2.056 2.384.12 3.552-.56-.016-1.08-.024-1.56-.024a40.389 40.389 0 00-2.784 0c-.48 0-.992.008-1.536.024.064-1.36.104-2.68.12-3.96.032-1.296.048-2.512.048-3.648L.6 67.416a107.323 107.323 0 000-4.632h1.44a17.349 17.349 0 01-.024-.912v-.912c0-1.376.432-2.52 1.296-3.432.864-.912 2.432-1.368 4.704-1.368.848 0 1.584.04 2.208.12.624.064 1.248.152 1.872.264-.032.272-.072.592-.12.96l-.096 1.128c-.032.384-.072.776-.12 1.176-.032.384-.056.744-.072 1.08a5.993 5.993 0 00-.96-.24 6.753 6.753 0 00-1.2-.096c-.688 0-1.176.12-1.464.36-.272.224-.408.608-.408 1.152zm11.798-4.392c0 .176-.04.352-.12.528-.064.176-.208.328-.432.456s-.552.232-.984.312c-.432.08-1 .12-1.704.12-.72 0-1.296-.04-1.728-.12-.432-.08-.768-.184-1.008-.312-.224-.128-.376-.28-.456-.456a1.536 1.536 0 01-.096-.528c0-.208.04-.392.12-.552.08-.16.232-.296.456-.408.24-.112.576-.2 1.008-.264.432-.064 1-.096 1.704-.096.688 0 1.248.032 1.68.096.432.064.76.152.984.264.224.112.376.248.456.408.08.16.12.344.12.552zM19.046 75h-5.712c.032-1.152.048-2.368.048-3.648a333.137 333.137 0 000-7.872l-.048-3.432h5.712a247.345 247.345 0 00-.072 3.48v8.136c.016 1.12.04 2.232.072 3.336zm17.94 0h-5.76c.016-1.04.032-2.264.048-3.672.016-1.424.024-3.008.024-4.752 0-.784-.144-1.344-.432-1.68-.272-.336-.752-.504-1.44-.504s-1.272.224-1.752.672c-.464.432-.696 1.184-.696 2.256v5.016c.016.576.024 1.072.024 1.488.016.416.024.808.024 1.176h-5.712l.048-3.24c.016-1.12.024-2.52.024-4.2 0-1.584-.008-2.976-.024-4.176-.016-1.2-.032-2.312-.048-3.336h5.712c-.016.464-.032.888-.048 1.272 0 .384-.008.784-.024 1.2l.144.048c.448-.96 1.088-1.656 1.92-2.088.832-.432 1.848-.648 3.048-.648 1.536 0 2.728.384 3.576 1.152.864.768 1.296 2.04 1.296 3.816 0 1.2-.008 2.168-.024 2.904a104.98 104.98 0 00-.024 2.28c0 .928.008 1.8.024 2.616.016.816.04 1.616.072 2.4zm8.49-3.312c.737 0 1.313-.232 1.729-.696.432-.48.648-1.176.648-2.088a16.83 16.83 0 00-.96-.072c-.336-.016-.68-.024-1.032-.024-.736 0-1.28.12-1.632.36-.336.224-.504.584-.504 1.08 0 .512.128.88.384 1.104.272.224.728.336 1.368.336zm2.4-4.752v-1.2c0-.592-.143-1.04-.431-1.344-.288-.32-.776-.48-1.464-.48-.72 0-1.248.168-1.584.504-.336.32-.48.872-.432 1.656a18.975 18.975 0 00-1.032-.024c-.4-.016-.816-.024-1.248-.024-.512 0-1.016.008-1.512.024-.496 0-.904.024-1.224.072-.096-2.016.408-3.576 1.512-4.68 1.104-1.104 2.984-1.656 5.64-1.656 2.576 0 4.424.496 5.544 1.488 1.136.976 1.704 2.352 1.704 4.128 0 1.008-.016 1.912-.048 2.712-.016.784-.024 1.632-.024 2.544 0 .416.008.848.024 1.296l.048 1.248c.032.4.072.76.12 1.08.048.32.096.56.144.72H49.1c-.496 0-.816-.064-.96-.192-.128-.128-.192-.472-.192-1.032v-.6l.048-.672h-.144c-.304.912-.856 1.592-1.656 2.04-.784.448-1.792.672-3.024.672-1.52 0-2.68-.296-3.48-.888-.8-.592-1.2-1.648-1.2-3.168 0-1.552.528-2.664 1.584-3.336 1.072-.688 2.72-1.032 4.944-1.032.544 0 1.056.008 1.536.024.496.016.936.056 1.32.12zM61.34 75h-5.736c.032-1.376.048-2.872.048-4.488a509.346 509.346 0 000-9.72c0-1.472-.016-2.928-.048-4.368h5.736a353.508 353.508 0 00-.072 4.32v10.08c.016 1.392.04 2.784.072 4.176zm14.24-12.936v.672a3687.683 3687.683 0 004.08-.096c-.015.736-.023 1.528-.023 2.376l.048 2.4a88.773 88.773 0 00-2.064-.024l-2.04-.048c0 1.536.008 2.904.024 4.104.016 1.2.056 2.384.12 3.552-.56-.016-1.08-.024-1.56-.024a40.389 40.389 0 00-2.784 0c-.48 0-.992.008-1.536.024.064-1.36.104-2.68.12-3.96.032-1.296.048-2.512.048-3.648l-1.488.024a107.323 107.323 0 000-4.632h1.44a17.349 17.349 0 01-.024-.912v-.912c0-1.376.432-2.52 1.296-3.432.864-.912 2.432-1.368 4.704-1.368.848 0 1.584.04 2.208.12.624.064 1.248.152 1.872.264-.032.272-.072.592-.12.96l-.096 1.128c-.032.384-.072.776-.12 1.176-.032.384-.056.744-.072 1.08a5.993 5.993 0 00-.96-.24 6.753 6.753 0 00-1.2-.096c-.688 0-1.176.12-1.464.36-.272.224-.408.608-.408 1.152zm12.715 1.128c-.737 0-1.305.208-1.704.624-.384.4-.624 1.24-.72 2.52.688.016 1.416.024 2.184.024.767 0 1.543-.008 2.327-.024a1.9 1.9 0 00.024-.312v-.336c0-.912-.16-1.552-.48-1.92-.32-.384-.864-.576-1.632-.576zm4.463 6.816c.496 0 .969-.008 1.416-.024.448-.016.856-.032 1.224-.048.032.864-.04 1.632-.215 2.304a3.354 3.354 0 01-1.057 1.704c-.511.448-1.248.792-2.208 1.032-.944.224-2.175.336-3.696.336-2.575 0-4.52-.608-5.831-1.824-1.297-1.232-1.945-3.208-1.945-5.928 0-2.864.68-4.88 2.04-6.048 1.376-1.184 3.344-1.776 5.904-1.776 1.36 0 2.496.136 3.409.408.911.272 1.631.664 2.16 1.176.543.512.927 1.152 1.151 1.92.225.768.337 1.64.337 2.616 0 .608-.017 1.152-.049 1.632-.016.48-.04.88-.072 1.2-.735-.016-1.623-.024-2.663-.024-1.04-.016-2.056-.024-3.048-.024h-2.088c-.64 0-1.2.008-1.68.024.064 1.168.288 1.976.672 2.424.4.448 1.015.672 1.847.672.769 0 1.288-.152 1.56-.456.288-.304.44-.76.456-1.368.288.016.632.032 1.032.048.416.016.864.024 1.344.024zM103.061 75h-5.736c.032-1.376.048-2.872.048-4.488a509.346 509.346 0 000-9.72c0-1.472-.016-2.928-.048-4.368h5.736a353.508 353.508 0 00-.072 4.32v10.08c.016 1.392.04 2.784.072 4.176zm8.365-17.328c0 .176-.04.352-.12.528-.064.176-.208.328-.432.456s-.552.232-.984.312c-.432.08-1 .12-1.704.12-.72 0-1.296-.04-1.728-.12-.432-.08-.768-.184-1.008-.312-.224-.128-.376-.28-.456-.456a1.536 1.536 0 01-.096-.528c0-.208.04-.392.12-.552.08-.16.232-.296.456-.408.24-.112.576-.2 1.008-.264.432-.064 1-.096 1.704-.096.688 0 1.248.032 1.68.096.432.064.76.152.984.264.224.112.376.248.456.408.08.16.12.344.12.552zM111.018 75h-5.712c.032-1.152.048-2.368.048-3.648a333.137 333.137 0 000-7.872l-.048-3.432h5.712a247.345 247.345 0 00-.072 3.48v8.136c.016 1.12.04 2.232.072 3.336zm8.749-4.464l.024.12c.528-.032 1.04-.056 1.536-.072a23.16 23.16 0 011.44-.048h2.136l1.584-.048c-.016.304-.032.68-.048 1.128v1.056c0 .352.008.72.024 1.104.016.368.024.776.024 1.224h-13.44c.016-.32.024-.664.024-1.032.016-.368.024-.704.024-1.008v-2.04c.336-.256.704-.576 1.104-.96.4-.384.808-.792 1.224-1.224.432-.432.864-.872 1.296-1.32a87.62 87.62 0 011.272-1.248c.336-.336.656-.64.96-.912.32-.288.624-.536.912-.744l-.048-.12-1.368.096a41.22 41.22 0 01-1.464.024h-2.256c-.544 0-1.08.008-1.608.024.016-.336.024-.728.024-1.176.016-.464.024-.832.024-1.104 0-.32-.008-.672-.024-1.056 0-.384-.008-.768-.024-1.152h13.344c-.016.336-.024.664-.024.984v2.088c0 .448.008.824.024 1.128-.608.464-1.344 1.136-2.208 2.016l-2.544 2.64c-.304.304-.624.6-.96.888a9.363 9.363 0 01-.984.744zm10.351-1.464c.912 0 1.616.248 2.112.744s.744 1.256.744 2.28c0 1.04-.248 1.824-.744 2.352-.496.512-1.2.768-2.112.768-.912 0-1.616-.256-2.112-.768-.48-.528-.72-1.312-.72-2.352 0-1.024.248-1.784.744-2.28.496-.496 1.192-.744 2.088-.744z" fill="#CAFFD4"/></svg>