<svg width="272" height="134" viewBox="0 0 272 134" fill="none" xmlns="http://www.w3.org/2000/svg"><path d="M6.288 15.12v.336c0 .688.192 1.176.576 1.464.384.272 1.088.408 2.112.408 1.008 0 1.688-.112 2.04-.336.352-.24.528-.584.528-1.032 0-.256-.048-.488-.144-.696-.08-.224-.256-.424-.528-.6-.256-.176-.624-.336-1.104-.48-.48-.144-1.112-.272-1.896-.384-1.36-.192-2.488-.448-3.384-.768-.896-.32-1.6-.712-2.112-1.176A4.074 4.074 0 011.32 10.2c-.192-.624-.288-1.328-.288-2.112 0-1.696.64-3.024 1.92-3.984 1.28-.96 3.296-1.44 6.048-1.44 1.536 0 2.816.112 3.84.336 1.04.208 1.864.528 2.472.96.624.416 1.064.936 1.32 1.56.272.624.408 1.336.408 2.136 0 .16-.008.336-.024.528 0 .176-.008.36-.024.552a86.97 86.97 0 00-1.344-.048 53.914 53.914 0 00-1.584-.024h-1.176c-.368 0-.68.008-.936.024.016-.08.024-.16.024-.24v-.24c0-.48-.184-.864-.552-1.152-.368-.288-1.12-.432-2.256-.432-.864 0-1.464.12-1.8.36-.336.224-.504.528-.504.912 0 .208.032.416.096.624.08.192.248.376.504.552.272.176.656.344 1.152.504.496.144 1.168.28 2.016.408 2.448.368 4.168.992 5.16 1.872.992.88 1.488 2.192 1.488 3.936 0 1.744-.616 3.104-1.848 4.08-1.216.976-3.272 1.464-6.168 1.464-1.552 0-2.864-.112-3.936-.336-1.056-.208-1.904-.52-2.544-.936-.64-.416-1.104-.936-1.392-1.56-.272-.64-.408-1.376-.408-2.208v-.624l.048-.648c.4.032.88.064 1.44.096.56.032 1.12.048 1.68.048h1.152c.384-.016.712-.032.984-.048zm18.79-11.448c0 .176-.04.352-.12.528-.063.176-.207.328-.431.456s-.552.232-.984.312c-.432.08-1 .12-1.704.12-.72 0-1.296-.04-1.728-.12-.432-.08-.768-.184-1.008-.312-.224-.128-.376-.28-.456-.456a1.536 1.536 0 01-.096-.528c0-.208.04-.392.12-.552.08-.16.232-.296.456-.408.24-.112.576-.2 1.008-.264.432-.064 1-.096 1.704-.096.688 0 1.248.032 1.68.096.432.064.76.152.984.264.224.112.376.248.456.408.08.16.12.344.12.552zM24.672 21h-5.712c.032-1.152.048-2.368.048-3.648a333.137 333.137 0 000-7.872l-.048-3.432h5.712a247.345 247.345 0 00-.072 3.48v8.136c.016 1.12.04 2.232.072 3.336zm7.063-14.952l1.536.024c.016-.512.024-1.008.024-1.488V3.216l1.344.048h2.832l1.368-.048-.048 1.416-.048 1.464h2.496c.816-.016 1.568-.032 2.256-.048-.016.736-.04 1.528-.072 2.376-.032.832-.04 1.624-.024 2.376a145.28 145.28 0 00-2.016-.048l-2.712-.048a68.475 68.475 0 00-.024 1.848v1.992c0 .544.136.928.408 1.152.272.224.744.336 1.416.336.56 0 1.08-.04 1.56-.12.48-.08.904-.192 1.272-.336.032.752.104 1.6.216 2.544s.216 1.784.312 2.52c-.704.176-1.392.312-2.064.408a16.12 16.12 0 01-2.304.144c-1.216 0-2.232-.128-3.048-.384-.8-.272-1.44-.648-1.92-1.128a4.13 4.13 0 01-1.032-1.728 8.372 8.372 0 01-.288-2.256v-2.328l.048-2.736-1.464-.024V8.304c0-.864-.008-1.616-.024-2.256zM51.39 3.672c0 .176-.04.352-.12.528-.064.176-.208.328-.432.456s-.552.232-.984.312c-.432.08-1 .12-1.704.12-.72 0-1.296-.04-1.728-.12-.432-.08-.768-.184-1.008-.312-.224-.128-.376-.28-.456-.456a1.536 1.536 0 01-.096-.528c0-.208.04-.392.12-.552.08-.16.232-.296.456-.408.24-.112.576-.2 1.008-.264.432-.064 1-.096 1.704-.096.688 0 1.248.032 1.68.096.432.064.76.152.984.264.224.112.376.248.456.408.08.16.12.344.12.552zM50.98 21h-5.712c.032-1.152.048-2.368.048-3.648a333.137 333.137 0 000-7.872l-.048-3.432h5.712a247.345 247.345 0 00-.072 3.48v8.136c.016 1.12.04 2.232.072 3.336zm9.492-11.808c-.736 0-1.304.208-1.704.624-.384.4-.624 1.24-.72 2.52.688.016 1.416.024 2.184.024.768 0 1.544-.008 2.328-.024a1.9 1.9 0 00.024-.312v-.336c0-.912-.16-1.552-.48-1.92-.32-.384-.864-.576-1.632-.576zm4.464 6.816c.496 0 .968-.008 1.416-.024.448-.016.856-.032 1.224-.048.032.864-.04 1.632-.216 2.304a3.354 3.354 0 01-1.056 1.704c-.512.448-1.248.792-2.208 1.032-.944.224-2.176.336-3.696.336-2.576 0-4.52-.608-5.832-1.824-1.296-1.232-1.944-3.208-1.944-5.928 0-2.864.68-4.88 2.04-6.048 1.376-1.184 3.344-1.776 5.904-1.776 1.36 0 2.496.136 3.408.408.912.272 1.632.664 2.16 1.176.544.512.928 1.152 1.152 1.92.224.768.336 1.64.336 2.616 0 .608-.016 1.152-.048 1.632-.016.48-.04.88-.072 1.2-.736-.016-1.624-.024-2.664-.024-1.04-.016-2.056-.024-3.048-.024h-2.088c-.64 0-1.2.008-1.68.024.064 1.168.288 1.976.672 2.424.4.448 1.016.672 1.848.672.768 0 1.288-.152 1.56-.456.288-.304.44-.76.456-1.368.288.016.632.032 1.032.048.416.016.864.024 1.344.024zM85.176 21h-5.76c.016-1.04.032-2.264.048-3.672.016-1.424.024-3.008.024-4.752 0-.784-.144-1.344-.432-1.68-.272-.336-.752-.504-1.44-.504s-1.272.224-1.752.672c-.464.432-.696 1.184-.696 2.256v5.016c.016.576.024 1.072.024 1.488.016.416.024.808.024 1.176h-5.712l.048-3.24c.016-1.12.024-2.52.024-4.2 0-1.584-.008-2.976-.024-4.176-.016-1.2-.032-2.312-.048-3.336h5.712c-.016.464-.032.888-.048 1.272 0 .384-.008.784-.024 1.2l.144.048c.448-.96 1.088-1.656 1.92-2.088.832-.432 1.848-.648 3.048-.648 1.536 0 2.728.384 3.576 1.152.864.768 1.296 2.04 1.296 3.816 0 1.2-.008 2.168-.024 2.904a104.98 104.98 0 00-.024 2.28c0 .928.008 1.8.024 2.616.016.816.04 1.616.072 2.4zm9.306-11.808c-.736 0-1.304.208-1.704.624-.384.4-.624 1.24-.72 2.52.688.016 1.416.024 2.184.024.768 0 1.544-.008 2.328-.024a1.9 1.9 0 00.024-.312v-.336c0-.912-.16-1.552-.48-1.92-.32-.384-.864-.576-1.632-.576zm4.464 6.816c.496 0 .968-.008 1.416-.024.448-.016.856-.032 1.224-.048.032.864-.04 1.632-.216 2.304a3.354 3.354 0 01-1.056 1.704c-.512.448-1.248.792-2.208 1.032-.944.224-2.176.336-3.696.336-2.576 0-4.52-.608-5.832-1.824-1.296-1.232-1.944-3.208-1.944-5.928 0-2.864.68-4.88 2.04-6.048 1.376-1.184 3.344-1.776 5.904-1.776 1.36 0 2.496.136 3.408.408.912.272 1.632.664 2.16 1.176.544.512.928 1.152 1.152 1.92.224.768.336 1.64.336 2.616 0 .608-.016 1.152-.048 1.632-.016.48-.04.88-.072 1.2-.736-.016-1.624-.024-2.664-.024-1.04-.016-2.056-.024-3.048-.024h-2.088c-.64 0-1.2.008-1.68.024.064 1.168.288 1.976.672 2.424.4.448 1.016.672 1.848.672.768 0 1.288-.152 1.56-.456.288-.304.44-.76.456-1.368.288.016.632.032 1.032.048.416.016.864.024 1.344.024zm13.59-5.112v-.264c0-.448-.152-.776-.456-.984-.288-.224-.832-.336-1.632-.336-.768 0-1.296.088-1.584.264-.272.176-.408.416-.408.72 0 .16.032.32.096.48.08.144.24.28.48.408.24.128.584.248 1.032.36a22.72 22.72 0 001.8.288c2.192.304 3.696.816 4.512 1.536.816.72 1.224 1.808 1.224 3.264 0 1.536-.552 2.704-1.656 3.504-1.104.784-2.984 1.176-5.64 1.176-1.44 0-2.64-.096-3.6-.288-.944-.192-1.696-.472-2.256-.84-.544-.384-.928-.856-1.152-1.416-.224-.56-.336-1.208-.336-1.944v-.408l.048-.456c.336.016.736.04 1.2.072.464.032 1 .048 1.608.048.368 0 .72-.008 1.056-.024.352-.016.656-.032.912-.048 0 .064-.008.12-.024.168v.144c0 .448.168.792.504 1.032.336.224.936.336 1.8.336.752 0 1.272-.088 1.56-.264.288-.176.432-.44.432-.792 0-.4-.224-.712-.672-.936-.432-.224-1.328-.416-2.688-.576-1.152-.144-2.104-.344-2.856-.6-.736-.272-1.32-.6-1.752-.984a3.402 3.402 0 01-.888-1.392 6.456 6.456 0 01-.24-1.824c0-1.6.576-2.752 1.728-3.456 1.168-.72 3.016-1.08 5.544-1.08 2.672 0 4.528.352 5.568 1.056 1.056.704 1.584 1.792 1.584 3.264 0 .128-.008.264-.024.408 0 .144-.008.296-.024.456a22.57 22.57 0 00-1.32-.072 25.405 25.405 0 00-2.664-.024c-.336 0-.608.008-.816.024zM124.071 3h13.8c-.016.384-.032.832-.048 1.344v2.88c.016.4.032.76.048 1.08-1.232 1.504-2.224 3.312-2.976 5.424-.752 2.096-1.12 4.52-1.104 7.272a56.463 56.463 0 00-1.704-.024 66.682 66.682 0 00-1.752-.024c-.672 0-1.32.008-1.944.024-.608 0-1.16.008-1.656.024a16.4 16.4 0 01.432-3.504c.272-1.184.616-2.32 1.032-3.408a27.973 27.973 0 011.44-3.12 28.752 28.752 0 011.632-2.616 275.5 275.5 0 01-3.672.024c-1.248 0-2.424.008-3.528.024a38.334 38.334 0 000-5.4zm24.509 6.528c1.936 0 3.384.456 4.344 1.368.96.912 1.44 2.28 1.44 4.104 0 2.144-.624 3.736-1.872 4.776-1.232 1.024-3.12 1.536-5.664 1.536-1.44 0-2.656-.12-3.648-.36s-1.792-.592-2.4-1.056a4.227 4.227 0 01-1.296-1.752c-.256-.688-.384-1.472-.384-2.352v-.504c0-.176.008-.36.024-.552.384.032.8.056 1.248.072a41.22 41.22 0 002.88 0c.448-.016.832-.04 1.152-.072-.016.08-.024.16-.024.24v.216c0 .688.176 1.216.528 1.584.368.352.952.528 1.752.528s1.376-.184 1.728-.552c.352-.384.528-1.008.528-1.872 0-.8-.184-1.384-.552-1.752-.368-.384-.952-.576-1.752-.576-.592 0-1.08.08-1.464.24-.384.16-.664.392-.84.696-.32-.08-.712-.152-1.176-.216a18.588 18.588 0 00-1.392-.144c-.464-.048-.92-.08-1.368-.096a32.509 32.509 0 00-1.128-.024c.016-.608.024-1.32.024-2.136.016-.816.024-1.592.024-2.328 0-1.04-.008-2.056-.024-3.048 0-.992-.032-1.824-.096-2.496l1.752.048h9.576c1.072-.016 2.216-.032 3.432-.048-.016.272-.032.584-.048.936-.016.352-.024.808-.024 1.368 0 .464.008.88.024 1.248l.048 1.056a20.63 20.63 0 00-1.104-.024 38.334 38.334 0 00-1.368-.024 38.387 38.387 0 00-1.32-.024H146.948c-.896 0-1.776.008-2.64.024v2.184c0 .24.008.488.024.744.496-.288 1.104-.52 1.824-.696a10.42 10.42 0 012.424-.264zm19.69 8.16c.736 0 1.312-.232 1.728-.696.432-.48.648-1.176.648-2.088a16.83 16.83 0 00-.96-.072c-.336-.016-.68-.024-1.032-.024-.736 0-1.28.12-1.632.36-.336.224-.504.584-.504 1.08 0 .512.128.88.384 1.104.272.224.728.336 1.368.336zm2.4-4.752v-1.2c0-.592-.144-1.04-.432-1.344-.288-.32-.776-.48-1.464-.48-.72 0-1.248.168-1.584.504-.336.32-.48.872-.432 1.656a18.975 18.975 0 00-1.032-.024c-.4-.016-.816-.024-1.248-.024-.512 0-1.016.008-1.512.024-.496 0-.904.024-1.224.072-.096-2.016.408-3.576 1.512-4.68 1.104-1.104 2.984-1.656 5.64-1.656 2.576 0 4.424.496 5.544 1.488 1.136.976 1.704 2.352 1.704 4.128 0 1.008-.016 1.912-.048 2.712-.016.784-.024 1.632-.024 2.544 0 .416.008.848.024 1.296l.048 1.248c.032.4.072.76.12 1.08.048.32.096.56.144.72h-4.512c-.496 0-.816-.064-.96-.192-.128-.128-.192-.472-.192-1.032v-.6l.048-.672h-.144c-.304.912-.856 1.592-1.656 2.04-.784.448-1.792.672-3.024.672-1.52 0-2.68-.296-3.48-.888-.8-.592-1.2-1.648-1.2-3.168 0-1.552.528-2.664 1.584-3.336 1.072-.688 2.72-1.032 4.944-1.032.544 0 1.056.008 1.536.024.496.016.936.056 1.32.12zm11.952-8.28h-.792a7.758 7.758 0 00-.864 0c-.128-1.76.096-2.968.672-3.624.592-.656 1.32-.984 2.184-.984.64 0 1.176.112 1.608.336.448.208.84.44 1.176.696.352.256.68.496.984.72.32.208.672.312 1.056.312a.924.924 0 00.816-.432c.208-.304.336-.792.384-1.464.208 0 .464.008.768.024.32 0 .608-.008.864-.024.08.912.056 1.664-.072 2.256-.128.592-.328 1.064-.6 1.416-.272.352-.608.6-1.008.744a3.846 3.846 0 01-1.224.192c-.656 0-1.216-.112-1.68-.336a7.969 7.969 0 01-1.224-.72 37.43 37.43 0 01-.96-.72c-.288-.224-.576-.336-.864-.336a.984.984 0 00-.84.432c-.192.272-.32.776-.384 1.512zM194.07 21h-5.76c.016-1.04.032-2.264.048-3.672.016-1.424.024-3.008.024-4.752 0-.784-.144-1.344-.432-1.68-.272-.336-.752-.504-1.44-.504s-1.272.224-1.752.672c-.464.432-.696 1.184-.696 2.256v5.016c.016.576.024 1.072.024 1.488.016.416.024.808.024 1.176h-5.712l.048-3.24c.016-1.12.024-2.52.024-4.2 0-1.584-.008-2.976-.024-4.176-.016-1.2-.032-2.312-.048-3.336h5.712c-.016.464-.032.888-.048 1.272 0 .384-.008.784-.024 1.2l.144.048c.448-.96 1.088-1.656 1.92-2.088.832-.432 1.848-.648 3.048-.648 1.536 0 2.728.384 3.576 1.152.864.768 1.296 2.04 1.296 3.816 0 1.2-.008 2.168-.024 2.904a104.98 104.98 0 00-.024 2.28c0 .928.008 1.8.024 2.616.016.816.04 1.616.072 2.4zm12.066-7.68c0-1.248-.232-2.12-.696-2.616-.448-.496-1.08-.744-1.896-.744-.8 0-1.432.24-1.896.72-.464.48-.696 1.36-.696 2.64s.224 2.192.672 2.736c.464.544 1.104.816 1.92.816.832 0 1.472-.272 1.92-.816.448-.56.672-1.472.672-2.736zm5.568-.096c0 2.656-.688 4.672-2.064 6.048-1.376 1.36-3.408 2.04-6.096 2.04s-4.704-.68-6.048-2.04c-1.344-1.376-2.016-3.392-2.016-6.048s.704-4.568 2.112-5.736c1.424-1.168 3.408-1.752 5.952-1.752s4.536.584 5.976 1.752c1.456 1.168 2.184 3.08 2.184 5.736zm10.617-2.328v-.264c0-.448-.152-.776-.456-.984-.288-.224-.832-.336-1.632-.336-.768 0-1.296.088-1.584.264-.272.176-.408.416-.408.72 0 .16.032.32.096.48.08.144.24.28.48.408.24.128.584.248 1.032.36a22.72 22.72 0 001.8.288c2.192.304 3.696.816 4.512 1.536.816.72 1.224 1.808 1.224 3.264 0 1.536-.552 2.704-1.656 3.504-1.104.784-2.984 1.176-5.64 1.176-1.44 0-2.64-.096-3.6-.288-.944-.192-1.696-.472-2.256-.84-.544-.384-.928-.856-1.152-1.416-.224-.56-.336-1.208-.336-1.944v-.408l.048-.456c.336.016.736.04 1.2.072.464.032 1 .048 1.608.048.368 0 .72-.008 1.056-.024.352-.016.656-.032.912-.048 0 .064-.008.12-.024.168v.144c0 .448.168.792.504 1.032.336.224.936.336 1.8.336.752 0 1.272-.088 1.56-.264.288-.176.432-.44.432-.792 0-.4-.224-.712-.672-.936-.432-.224-1.328-.416-2.688-.576-1.152-.144-2.104-.344-2.856-.6-.736-.272-1.32-.6-1.752-.984a3.402 3.402 0 01-.888-1.392 6.456 6.456 0 01-.24-1.824c0-1.6.576-2.752 1.728-3.456 1.168-.72 3.016-1.08 5.544-1.08 2.672 0 4.528.352 5.568 1.056 1.056.704 1.584 1.792 1.584 3.264 0 .128-.008.264-.024.408 0 .144-.008.296-.024.456a22.57 22.57 0 00-1.32-.072 25.405 25.405 0 00-2.664-.024c-.336 0-.608.008-.816.024zM11.352 41.32c0-1.248-.232-2.12-.696-2.616-.448-.496-1.08-.744-1.896-.744-.8 0-1.432.24-1.896.72-.464.48-.696 1.36-.696 2.64s.224 2.192.672 2.736c.464.544 1.104.816 1.92.816.832 0 1.472-.272 1.92-.816.448-.56.672-1.472.672-2.736zm5.568-.096c0 2.656-.688 4.672-2.064 6.048-1.376 1.36-3.408 2.04-6.096 2.04s-4.704-.68-6.048-2.04C1.368 45.896.696 43.88.696 41.224s.704-4.568 2.112-5.736c1.424-1.168 3.408-1.752 5.952-1.752s4.536.584 5.976 1.752c1.456 1.168 2.184 3.08 2.184 5.736zM47.188 49H41.98c.032-1.104.048-2.376.048-3.816.016-1.44.024-3.04.024-4.8 0-.688-.136-1.184-.408-1.488-.272-.32-.688-.48-1.248-.48-.592 0-1.096.2-1.512.6-.416.4-.624 1.112-.624 2.136v4.872c0 .608.008 1.152.024 1.632s.032.928.048 1.344h-5.16c.032-1.088.056-2.304.072-3.648.016-1.344.024-3.008.024-4.992 0-.64-.128-1.12-.384-1.44-.256-.336-.68-.504-1.272-.504s-1.104.2-1.536.6c-.416.4-.624 1.112-.624 2.136v4.872c.016 1.216.032 2.208.048 2.976h-5.256c.016-1.072.024-2.184.024-3.336.016-1.168.024-2.536.024-4.104 0-1.6-.008-2.984-.024-4.152 0-1.168-.008-2.288-.024-3.36h5.352c-.016.448-.032.864-.048 1.248-.016.368-.032.768-.048 1.2l.144.048c.432-.928 1-1.608 1.704-2.04.704-.448 1.568-.672 2.592-.672 1.104 0 2.016.256 2.736.768.72.496 1.184 1.192 1.392 2.088h.168c.432-1.056 1.056-1.792 1.872-2.208.816-.432 1.728-.648 2.736-.648 1.36 0 2.416.376 3.168 1.128.768.736 1.152 1.792 1.152 3.168 0 1.248-.016 2.344-.048 3.288-.016.928-.024 1.872-.024 2.832 0 .848.008 1.68.024 2.496.016.8.04 1.552.072 2.256zm15.227-18.504c-.368.064-1 .208-1.896.432a386.502 386.502 0 00-5.664 1.464c-.896.24-1.528.416-1.896.528a15.455 15.455 0 00-.648-1.488c.32-.144.904-.4 1.752-.768.864-.368 1.768-.76 2.712-1.176.944-.432 1.84-.832 2.688-1.2a38.76 38.76 0 001.728-.816l.576 1.488c.224.576.44 1.088.648 1.536zm-6.72 15.192c.736 0 1.312-.232 1.728-.696.432-.48.648-1.176.648-2.088a16.83 16.83 0 00-.96-.072c-.336-.016-.68-.024-1.032-.024-.736 0-1.28.12-1.632.36-.336.224-.504.584-.504 1.08 0 .512.128.88.384 1.104.272.224.728.336 1.368.336zm2.4-4.752v-1.2c0-.592-.144-1.04-.432-1.344-.288-.32-.776-.48-1.464-.48-.72 0-1.248.168-1.584.504-.336.32-.48.872-.432 1.656a18.975 18.975 0 00-1.032-.024c-.4-.016-.816-.024-1.248-.024-.512 0-1.016.008-1.512.024-.496 0-.904.024-1.224.072-.096-2.016.408-3.576 1.512-4.68 1.104-1.104 2.984-1.656 5.64-1.656 2.576 0 4.424.496 5.544 1.488 1.136.976 1.704 2.352 1.704 4.128 0 1.008-.016 1.912-.048 2.712-.016.784-.024 1.632-.024 2.544 0 .416.008.848.024 1.296l.048 1.248c.032.4.072.76.12 1.08.048.32.096.56.144.72H59.32c-.496 0-.816-.064-.96-.192-.128-.128-.192-.472-.192-1.032v-.6l.048-.672h-.144c-.304.912-.856 1.592-1.656 2.04-.784.448-1.792.672-3.024.672-1.52 0-2.68-.296-3.48-.888-.8-.592-1.2-1.648-1.2-3.168 0-1.552.528-2.664 1.584-3.336 1.072-.688 2.72-1.032 4.944-1.032.544 0 1.056.008 1.536.024.496.016.936.056 1.32.12zm16.752-2.04v-.264c0-.448-.152-.776-.456-.984-.288-.224-.832-.336-1.632-.336-.768 0-1.296.088-1.584.264-.272.176-.408.416-.408.72 0 .16.032.32.096.48.08.144.24.28.48.408.24.128.584.248 1.032.36a22.72 22.72 0 001.8.288c2.192.304 3.696.816 4.512 1.536.816.72 1.224 1.808 1.224 3.264 0 1.536-.552 2.704-1.656 3.504-1.104.784-2.984 1.176-5.64 1.176-1.44 0-2.64-.096-3.6-.288-.944-.192-1.696-.472-2.256-.84-.544-.384-.928-.856-1.152-1.416-.224-.56-.336-1.208-.336-1.944v-.408l.048-.456c.336.016.736.04 1.2.072.464.032 1 .048 1.608.048.368 0 .72-.008 1.056-.024.352-.016.656-.032.912-.048 0 .064-.008.12-.024.168v.144c0 .448.168.792.504 1.032.336.224.936.336 1.8.336.752 0 1.272-.088 1.56-.264.288-.176.432-.44.432-.792 0-.4-.224-.712-.672-.936-.432-.224-1.328-.416-2.688-.576-1.152-.144-2.104-.344-2.856-.6-.736-.272-1.32-.6-1.752-.984a3.402 3.402 0 01-.888-1.392 6.456 6.456 0 01-.24-1.824c0-1.6.576-2.752 1.728-3.456 1.168-.72 3.016-1.08 5.544-1.08 2.672 0 4.528.352 5.568 1.056 1.056.704 1.584 1.792 1.584 3.264 0 .128-.008.264-.024.408 0 .144-.008.296-.024.456a22.57 22.57 0 00-1.32-.072 25.405 25.405 0 00-2.664-.024c-.336 0-.608.008-.816.024zm6.5 4.368c.336.016.728.032 1.176.048a40.389 40.389 0 002.832 0c.528-.016.968-.032 1.32-.048-.16.592-.352 1.32-.576 2.184-.224.864-.456 1.736-.696 2.616-.224.864-.432 1.672-.624 2.424s-.336 1.312-.432 1.68c-.256-.064-.56-.136-.912-.216a32.213 32.213 0 01-1.08-.216l-1.104-.192-.96-.168c.112-.48.224-1.08.336-1.8.112-.704.208-1.432.288-2.184.096-.768.176-1.52.24-2.256.08-.736.144-1.36.192-1.872zm21.848-1.944c0-1.248-.232-2.12-.696-2.616-.448-.496-1.08-.744-1.896-.744-.8 0-1.432.24-1.896.72-.464.48-.696 1.36-.696 2.64s.224 2.192.672 2.736c.464.544 1.104.816 1.92.816.832 0 1.472-.272 1.92-.816.448-.56.672-1.472.672-2.736zm5.568-.096c0 2.656-.688 4.672-2.064 6.048-1.376 1.36-3.408 2.04-6.096 2.04s-4.704-.68-6.048-2.04c-1.344-1.376-2.016-3.392-2.016-6.048s.704-4.568 2.112-5.736c1.424-1.168 3.408-1.752 5.952-1.752s4.536.584 5.976 1.752c1.456 1.168 2.184 3.08 2.184 5.736zm15.292 4.224c.8 0 1.376-.2 1.728-.6.368-.416.552-1.032.552-1.848 0-.736-.176-1.264-.528-1.584-.352-.336-.92-.504-1.704-.504-.784 0-1.4.16-1.848.48-.432.304-.648.832-.648 1.584 0 .832.208 1.456.624 1.872.432.4 1.04.6 1.824.6zm-3-5.712l.192.048c.448-.56 1.048-.984 1.8-1.272.768-.288 1.688-.432 2.76-.432 2.176 0 3.728.4 4.656 1.2.944.784 1.416 1.992 1.416 3.624 0 2.096-.624 3.688-1.872 4.776-1.248 1.088-3.2 1.632-5.856 1.632-1.408 0-2.656-.16-3.744-.48-1.072-.32-1.968-.848-2.688-1.584-.704-.752-1.24-1.744-1.608-2.976-.352-1.232-.528-2.744-.528-4.536 0-2.944.64-5.184 1.92-6.72 1.28-1.552 3.488-2.328 6.624-2.328 2.752 0 4.72.464 5.904 1.392 1.184.928 1.776 2.36 1.776 4.296v.72a10.305 10.305 0 00-1.272-.072 43.308 43.308 0 00-2.952 0c-.464 0-.856.016-1.176.048v-.36c0-.592-.168-1.056-.504-1.392-.336-.336-.92-.504-1.752-.504-.944 0-1.672.248-2.184.744-.496.48-.752 1.272-.768 2.376-.016.288-.04.584-.072.888-.016.304-.04.608-.072.912zm29.398-.072c0 3.264-.72 5.688-2.16 7.272-1.44 1.584-3.632 2.376-6.576 2.376-2.944 0-5.12-.792-6.528-2.376-1.392-1.584-2.088-4.008-2.088-7.272 0-3.248.752-5.552 2.256-6.912 1.504-1.376 3.632-2.064 6.384-2.064 2.752 0 4.888.688 6.408 2.064 1.536 1.36 2.304 3.664 2.304 6.912zm-8.712-4.272c-.864 0-1.536.296-2.016.888-.48.576-.72 1.72-.72 3.432 0 1.808.24 3.024.72 3.648.48.608 1.152.912 2.016.912.88 0 1.56-.312 2.04-.936.48-.624.72-1.832.72-3.624 0-1.696-.248-2.84-.744-3.432-.48-.592-1.152-.888-2.016-.888zm22.509 10.296c.736 0 1.312-.232 1.728-.696.432-.48.648-1.176.648-2.088a16.83 16.83 0 00-.96-.072c-.336-.016-.68-.024-1.032-.024-.736 0-1.28.12-1.632.36-.336.224-.504.584-.504 1.08 0 .512.128.88.384 1.104.272.224.728.336 1.368.336zm2.4-4.752v-1.2c0-.592-.144-1.04-.432-1.344-.288-.32-.776-.48-1.464-.48-.72 0-1.248.168-1.584.504-.336.32-.48.872-.432 1.656a18.975 18.975 0 00-1.032-.024c-.4-.016-.816-.024-1.248-.024-.512 0-1.016.008-1.512.024-.496 0-.904.024-1.224.072-.096-2.016.408-3.576 1.512-4.68 1.104-1.104 2.984-1.656 5.64-1.656 2.576 0 4.424.496 5.544 1.488 1.136.976 1.704 2.352 1.704 4.128 0 1.008-.016 1.912-.048 2.712-.016.784-.024 1.632-.024 2.544 0 .416.008.848.024 1.296l.048 1.248c.032.4.072.76.12 1.08.048.32.096.56.144.72h-4.512c-.496 0-.816-.064-.96-.192-.128-.128-.192-.472-.192-1.032v-.6l.048-.672h-.144c-.304.912-.856 1.592-1.656 2.04-.784.448-1.792.672-3.024.672-1.52 0-2.68-.296-3.48-.888-.8-.592-1.2-1.648-1.2-3.168 0-1.552.528-2.664 1.584-3.336 1.072-.688 2.72-1.032 4.944-1.032.544 0 1.056.008 1.536.024.496.016.936.056 1.32.12zm11.952-8.28h-.792a7.758 7.758 0 00-.864 0c-.128-1.76.096-2.968.672-3.624.592-.656 1.32-.984 2.184-.984.64 0 1.176.112 1.608.336.448.208.84.44 1.176.696.352.256.68.496.984.72.32.208.672.312 1.056.312a.924.924 0 00.816-.432c.208-.304.336-.792.384-1.464.208 0 .464.008.768.024.32 0 .608-.008.864-.024.08.912.056 1.664-.072 2.256-.128.592-.328 1.064-.6 1.416-.272.352-.608.6-1.008.744a3.846 3.846 0 01-1.224.192c-.656 0-1.216-.112-1.68-.336a7.969 7.969 0 01-1.224-.72 37.43 37.43 0 01-.96-.72c-.288-.224-.576-.336-.864-.336a.984.984 0 00-.84.432c-.192.272-.32.776-.384 1.512zM190.05 49h-5.76c.016-1.04.032-2.264.048-3.672.016-1.424.024-3.008.024-4.752 0-.784-.144-1.344-.432-1.68-.272-.336-.752-.504-1.44-.504s-1.272.224-1.752.672c-.464.432-.696 1.184-.696 2.256v5.016c.016.576.024 1.072.024 1.488.016.416.024.808.024 1.176h-5.712l.048-3.24c.016-1.12.024-2.52.024-4.2 0-1.584-.008-2.976-.024-4.176-.016-1.2-.032-2.312-.048-3.336h5.712c-.016.464-.032.888-.048 1.272 0 .384-.008.784-.024 1.2l.144.048c.448-.96 1.088-1.656 1.92-2.088.832-.432 1.848-.648 3.048-.648 1.536 0 2.728.384 3.576 1.152.864.768 1.296 2.04 1.296 3.816 0 1.2-.008 2.168-.024 2.904a104.98 104.98 0 00-.024 2.28c0 .928.008 1.8.024 2.616.016.816.04 1.616.072 2.4zm12.066-7.68c0-1.248-.232-2.12-.696-2.616-.448-.496-1.08-.744-1.896-.744-.8 0-1.432.24-1.896.72-.464.48-.696 1.36-.696 2.64s.224 2.192.672 2.736c.464.544 1.104.816 1.92.816.832 0 1.472-.272 1.92-.816.448-.56.672-1.472.672-2.736zm5.568-.096c0 2.656-.688 4.672-2.064 6.048-1.376 1.36-3.408 2.04-6.096 2.04s-4.704-.68-6.048-2.04c-1.344-1.376-2.016-3.392-2.016-6.048s.704-4.568 2.112-5.736c1.424-1.168 3.408-1.752 5.952-1.752s4.536.584 5.976 1.752c1.456 1.168 2.184 3.08 2.184 5.736zm10.617-2.328v-.264c0-.448-.152-.776-.456-.984-.288-.224-.832-.336-1.632-.336-.768 0-1.296.088-1.584.264-.272.176-.408.416-.408.72 0 .16.032.32.096.48.08.144.24.28.48.408.24.128.584.248 1.032.36a22.72 22.72 0 001.8.288c2.192.304 3.696.816 4.512 1.536.816.72 1.224 1.808 1.224 3.264 0 1.536-.552 2.704-1.656 3.504-1.104.784-2.984 1.176-5.64 1.176-1.44 0-2.64-.096-3.6-.288-.944-.192-1.696-.472-2.256-.84-.544-.384-.928-.856-1.152-1.416-.224-.56-.336-1.208-.336-1.944v-.408l.048-.456c.336.016.736.04 1.2.072.464.032 1 .048 1.608.048.368 0 .72-.008 1.056-.024.352-.016.656-.032.912-.048 0 .064-.008.12-.024.168v.144c0 .448.168.792.504 1.032.336.224.936.336 1.8.336.752 0 1.272-.088 1.56-.264.288-.176.432-.44.432-.792 0-.4-.224-.712-.672-.936-.432-.224-1.328-.416-2.688-.576-1.152-.144-2.104-.344-2.856-.6-.736-.272-1.32-.6-1.752-.984a3.402 3.402 0 01-.888-1.392 6.456 6.456 0 01-.24-1.824c0-1.6.576-2.752 1.728-3.456 1.168-.72 3.016-1.08 5.544-1.08 2.672 0 4.528.352 5.568 1.056 1.056.704 1.584 1.792 1.584 3.264 0 .128-.008.264-.024.408 0 .144-.008.296-.024.456a22.57 22.57 0 00-1.32-.072 25.405 25.405 0 00-2.664-.024c-.336 0-.608.008-.816.024zm22.383 2.424c0-1.248-.232-2.12-.696-2.616-.448-.496-1.08-.744-1.896-.744-.8 0-1.432.24-1.896.72-.464.48-.696 1.36-.696 2.64s.224 2.192.672 2.736c.464.544 1.104.816 1.92.816.832 0 1.472-.272 1.92-.816.448-.56.672-1.472.672-2.736zm5.568-.096c0 2.656-.688 4.672-2.064 6.048-1.376 1.36-3.408 2.04-6.096 2.04s-4.704-.68-6.048-2.04c-1.344-1.376-2.016-3.392-2.016-6.048s.704-4.568 2.112-5.736c1.424-1.168 3.408-1.752 5.952-1.752s4.536.584 5.976 1.752c1.456 1.168 2.184 3.08 2.184 5.736zM24.312 77h-5.208c.032-1.104.048-2.376.048-3.816.016-1.44.024-3.04.024-4.8 0-.688-.136-1.184-.408-1.488-.272-.32-.688-.48-1.248-.48-.592 0-1.096.2-1.512.6-.416.4-.624 1.112-.624 2.136v4.872c0 .608.008 1.152.024 1.632s.032.928.048 1.344h-5.16c.032-1.088.056-2.304.072-3.648.016-1.344.024-3.008.024-4.992 0-.64-.128-1.12-.384-1.44-.256-.336-.68-.504-1.272-.504s-1.104.2-1.536.6c-.416.4-.624 1.112-.624 2.136v4.872c.016 1.216.032 2.208.048 2.976H1.368c.016-1.072.024-2.184.024-3.336.016-1.168.024-2.536.024-4.104 0-1.6-.008-2.984-.024-4.152 0-1.168-.008-2.288-.024-3.36H6.72c-.016.448-.032.864-.048 1.248-.016.368-.032.768-.048 1.2l.144.048c.432-.928 1-1.608 1.704-2.04.704-.448 1.568-.672 2.592-.672 1.104 0 2.016.256 2.736.768.72.496 1.184 1.192 1.392 2.088h.168c.432-1.056 1.056-1.792 1.872-2.208.816-.432 1.728-.648 2.736-.648 1.36 0 2.416.376 3.168 1.128.768.736 1.152 1.792 1.152 3.168 0 1.248-.016 2.344-.048 3.288-.016.928-.024 1.872-.024 2.832 0 .848.008 1.68.024 2.496.016.8.04 1.552.072 2.256zm15.227-18.504c-.368.064-1 .208-1.896.432a386.502 386.502 0 00-5.664 1.464c-.896.24-1.528.416-1.896.528a15.455 15.455 0 00-.648-1.488c.32-.144.904-.4 1.752-.768.864-.368 1.768-.76 2.712-1.176.944-.432 1.84-.832 2.688-1.2a38.76 38.76 0 001.728-.816l.576 1.488c.224.576.44 1.088.648 1.536zm-6.72 15.192c.736 0 1.312-.232 1.728-.696.432-.48.648-1.176.648-2.088a16.83 16.83 0 00-.96-.072c-.336-.016-.68-.024-1.032-.024-.736 0-1.28.12-1.632.36-.336.224-.504.584-.504 1.08 0 .512.128.88.384 1.104.272.224.728.336 1.368.336zm2.4-4.752v-1.2c0-.592-.144-1.04-.432-1.344-.288-.32-.776-.48-1.464-.48-.72 0-1.248.168-1.584.504-.336.32-.48.872-.432 1.656a18.975 18.975 0 00-1.032-.024c-.4-.016-.816-.024-1.248-.024-.512 0-1.016.008-1.512.024-.496 0-.904.024-1.224.072-.096-2.016.408-3.576 1.512-4.68 1.104-1.104 2.984-1.656 5.64-1.656 2.576 0 4.424.496 5.544 1.488 1.136.976 1.704 2.352 1.704 4.128 0 1.008-.016 1.912-.048 2.712-.016.784-.024 1.632-.024 2.544 0 .416.008.848.024 1.296l.048 1.248c.032.4.072.76.12 1.08.048.32.096.56.144.72h-4.512c-.496 0-.816-.064-.96-.192-.128-.128-.192-.472-.192-1.032v-.6l.048-.672h-.144c-.304.912-.856 1.592-1.656 2.04-.784.448-1.792.672-3.024.672-1.52 0-2.68-.296-3.48-.888-.8-.592-1.2-1.648-1.2-3.168 0-1.552.528-2.664 1.584-3.336 1.072-.688 2.72-1.032 4.944-1.032.544 0 1.056.008 1.536.024.496.016.936.056 1.32.12zm16.752-2.04v-.264c0-.448-.152-.776-.456-.984-.288-.224-.832-.336-1.632-.336-.768 0-1.296.088-1.584.264-.272.176-.408.416-.408.72 0 .16.032.32.096.48.08.144.24.28.48.408.24.128.584.248 1.032.36a22.72 22.72 0 001.8.288c2.192.304 3.696.816 4.512 1.536.816.72 1.224 1.808 1.224 3.264 0 1.536-.552 2.704-1.656 3.504-1.104.784-2.984 1.176-5.64 1.176-1.44 0-2.64-.096-3.6-.288-.944-.192-1.696-.472-2.256-.84-.544-.384-.928-.856-1.152-1.416-.224-.56-.336-1.208-.336-1.944v-.408l.048-.456c.336.016.736.04 1.2.072.464.032 1 .048 1.608.048.368 0 .72-.008 1.056-.024.352-.016.656-.032.912-.048 0 .064-.008.12-.024.168v.144c0 .448.168.792.504 1.032.336.224.936.336 1.8.336.752 0 1.272-.088 1.56-.264.288-.176.432-.44.432-.792 0-.4-.224-.712-.672-.936-.432-.224-1.328-.416-2.688-.576-1.152-.144-2.104-.344-2.856-.6-.736-.272-1.32-.6-1.752-.984a3.402 3.402 0 01-.888-1.392 6.456 6.456 0 01-.24-1.824c0-1.6.576-2.752 1.728-3.456 1.168-.72 3.016-1.08 5.544-1.08 2.672 0 4.528.352 5.568 1.056 1.056.704 1.584 1.792 1.584 3.264 0 .128-.008.264-.024.408 0 .144-.008.296-.024.456a22.57 22.57 0 00-1.32-.072 25.405 25.405 0 00-2.664-.024c-.336 0-.608.008-.816.024zm21.83-4.848h5.64c-.24.704-.527 1.648-.863 2.832-.336 1.168-.68 2.368-1.032 3.6a304.496 304.496 0 01-.984 3.528 81.66 81.66 0 01-.768 2.568c-.32 1.04-.68 1.944-1.08 2.712-.4.768-.888 1.392-1.464 1.872-.56.496-1.24.864-2.04 1.104-.8.24-1.752.36-2.856.36-1.104 0-2.04-.072-2.808-.216a20.923 20.923 0 01-2.184-.48c.032-.192.08-.496.144-.912.08-.4.152-.832.216-1.296.08-.448.152-.88.216-1.296.064-.416.104-.728.12-.936.576.208 1.224.368 1.944.48.736.096 1.448.144 2.136.144.704 0 1.24-.112 1.608-.336.368-.224.656-.624.864-1.2a51.779 51.779 0 00-2.232 0c-.656 0-1.136.008-1.44.024a404.13 404.13 0 01-.696-2.28l-1.032-3.456a252.424 252.424 0 00-1.128-3.72 95.613 95.613 0 00-.96-3.096h6.12c.048.272.12.632.216 1.08a420.602 420.602 0 01.768 3.264c.144.608.288 1.208.432 1.8.176.736.32 1.432.432 2.088.128.64.24 1.232.336 1.776h.12c.112-.544.24-1.144.384-1.8.16-.656.32-1.352.48-2.088.144-.592.288-1.2.432-1.824.144-.624.28-1.208.408-1.752a114.834 114.834 0 00.552-2.544zm18.03 6.912v3.552c.304.16.648.28 1.032.36.384.08.816.12 1.296.12.864 0 1.488-.264 1.872-.792.4-.544.6-1.488.6-2.832 0-1.296-.184-2.2-.552-2.712-.368-.512-.904-.768-1.608-.768-.752 0-1.384.24-1.896.72-.496.464-.744 1.248-.744 2.352zm.072-4.728l.24.048a4.915 4.915 0 011.8-1.776c.784-.464 1.744-.696 2.88-.696 1.808 0 3.152.64 4.032 1.92.896 1.264 1.344 3.184 1.344 5.76 0 2.608-.488 4.552-1.464 5.832-.96 1.28-2.28 1.92-3.96 1.92-1.296 0-2.32-.224-3.072-.672-.752-.448-1.304-.992-1.656-1.632l-.144.024c.016.304.024.624.024.96V78.56l.048 1.68h-5.784c.016-.672.024-1.432.024-2.28.016-.848.024-1.736.024-2.664a167.2 167.2 0 00.024-2.88v-2.904c0-1.536-.008-2.896-.024-4.08 0-1.184-.008-2.312-.024-3.384h5.736c0 .208-.008.416-.024.624v1.104c0 .144-.008.296-.024.456zm18.333 9.456c.736 0 1.312-.232 1.728-.696.432-.48.648-1.176.648-2.088a16.83 16.83 0 00-.96-.072c-.336-.016-.68-.024-1.032-.024-.736 0-1.28.12-1.632.36-.336.224-.504.584-.504 1.08 0 .512.128.88.384 1.104.272.224.728.336 1.368.336zm2.4-4.752v-1.2c0-.592-.144-1.04-.432-1.344-.288-.32-.776-.48-1.464-.48-.72 0-1.248.168-1.584.504-.336.32-.48.872-.432 1.656a18.975 18.975 0 00-1.032-.024c-.4-.016-.816-.024-1.248-.024-.512 0-1.016.008-1.512.024-.496 0-.904.024-1.224.072-.096-2.016.408-3.576 1.512-4.68 1.104-1.104 2.984-1.656 5.64-1.656 2.576 0 4.424.496 5.544 1.488 1.136.976 1.704 2.352 1.704 4.128 0 1.008-.016 1.912-.048 2.712-.016.784-.024 1.632-.024 2.544 0 .416.008.848.024 1.296l.048 1.248c.032.4.072.76.12 1.08.048.32.096.56.144.72h-4.512c-.496 0-.816-.064-.96-.192-.128-.128-.192-.472-.192-1.032v-.6l.048-.672h-.144c-.304.912-.856 1.592-1.656 2.04-.784.448-1.792.672-3.024.672-1.52 0-2.68-.296-3.48-.888-.8-.592-1.2-1.648-1.2-3.168 0-1.552.528-2.664 1.584-3.336 1.072-.688 2.72-1.032 4.944-1.032.544 0 1.056.008 1.536.024.496.016.936.056 1.32.12zm17.496 1.128v-3.792a4.55 4.55 0 00-1.056-.336 6.12 6.12 0 00-1.248-.12c-.848 0-1.488.264-1.92.792-.432.528-.648 1.488-.648 2.88 0 1.328.2 2.256.6 2.784.416.512.976.768 1.68.768.736 0 1.352-.24 1.848-.72s.744-1.232.744-2.256zm-.12-11.64h5.76c-.032 1.296-.048 2.68-.048 4.152V73.016c0 1.392.016 2.728.048 4.008h-5.736v-.768c.016-.272.024-.552.024-.84v-.552c0-.192.008-.384.024-.576l-.168-.024c-.304.768-.824 1.456-1.56 2.064-.72.592-1.752.888-3.096.888-1.696 0-3.04-.584-4.032-1.752-.992-1.184-1.488-3.152-1.488-5.904 0-1.392.152-2.576.456-3.552.304-.992.712-1.792 1.224-2.4a4.77 4.77 0 011.848-1.368 6.146 6.146 0 012.304-.432c1.04 0 1.928.184 2.664.552a3.977 3.977 0 011.776 1.632l.072-.024a375.75 375.75 0 00-.048-1.2V61.52v-1.608c0-.496-.008-.992-.024-1.488zm15.237 6.768c-.736 0-1.304.208-1.704.624-.384.4-.624 1.24-.72 2.52.688.016 1.416.024 2.184.024.768 0 1.544-.008 2.328-.024a1.9 1.9 0 00.024-.312v-.336c0-.912-.16-1.552-.48-1.92-.32-.384-.864-.576-1.632-.576zm4.464 6.816c.496 0 .968-.008 1.416-.024.448-.016.856-.032 1.224-.048.032.864-.04 1.632-.216 2.304a3.354 3.354 0 01-1.056 1.704c-.512.448-1.248.792-2.208 1.032-.944.224-2.176.336-3.696.336-2.576 0-4.52-.608-5.832-1.824-1.296-1.232-1.944-3.208-1.944-5.928 0-2.864.68-4.88 2.04-6.048 1.376-1.184 3.344-1.776 5.904-1.776 1.36 0 2.496.136 3.408.408.912.272 1.632.664 2.16 1.176.544.512.928 1.152 1.152 1.92.224.768.336 1.64.336 2.616 0 .608-.016 1.152-.048 1.632-.016.48-.04.88-.072 1.2-.736-.016-1.624-.024-2.664-.024-1.04-.016-2.056-.024-3.048-.024h-2.088c-.64 0-1.2.008-1.68.024.064 1.168.288 1.976.672 2.424.4.448 1.016.672 1.848.672.768 0 1.288-.152 1.56-.456.288-.304.44-.76.456-1.368.288.016.632.032 1.032.048.416.016.864.024 1.344.024zm14.166-.912v-.432c.352.032.736.056 1.152.072h1.32c.48 0 .952-.008 1.416-.024l1.32-.048V71c.016.096.024.2.024.312 0 .992-.128 1.864-.384 2.616a4.127 4.127 0 01-1.272 1.872c-.592.496-1.384.872-2.376 1.128-.976.256-2.184.384-3.624.384-2.688 0-4.664-.632-5.928-1.896-1.264-1.264-1.896-3.28-1.896-6.048 0-2.704.648-4.648 1.944-5.832 1.296-1.2 3.272-1.8 5.928-1.8 2.528 0 4.416.408 5.664 1.224 1.248.816 1.872 2.296 1.872 4.44v.384c0 .128-.008.264-.024.408-.352-.016-.76-.024-1.224-.024a41.22 41.22 0 00-2.856 0c-.432 0-.784.008-1.056.024v-.336c-.016-.768-.184-1.304-.504-1.608-.32-.304-.904-.456-1.752-.456-.88 0-1.52.24-1.92.72-.384.48-.576 1.432-.576 2.856s.192 2.392.576 2.904c.384.496 1.032.744 1.944.744.816 0 1.384-.168 1.704-.504.336-.352.512-.824.528-1.416zm14.113-5.904c-.736 0-1.304.208-1.704.624-.384.4-.624 1.24-.72 2.52.688.016 1.416.024 2.184.024.768 0 1.544-.008 2.328-.024a1.9 1.9 0 00.024-.312v-.336c0-.912-.16-1.552-.48-1.92-.32-.384-.864-.576-1.632-.576zm4.464 6.816c.496 0 .968-.008 1.416-.024.448-.016.856-.032 1.224-.048.032.864-.04 1.632-.216 2.304a3.354 3.354 0 01-1.056 1.704c-.512.448-1.248.792-2.208 1.032-.944.224-2.176.336-3.696.336-2.576 0-4.52-.608-5.832-1.824-1.296-1.232-1.944-3.208-1.944-5.928 0-2.864.68-4.88 2.04-6.048 1.376-1.184 3.344-1.776 5.904-1.776 1.36 0 2.496.136 3.408.408.912.272 1.632.664 2.16 1.176.544.512.928 1.152 1.152 1.92.224.768.336 1.64.336 2.616 0 .608-.016 1.152-.048 1.632-.016.48-.04.88-.072 1.2-.736-.016-1.624-.024-2.664-.024-1.04-.016-2.056-.024-3.048-.024h-2.088c-.64 0-1.2.008-1.68.024.064 1.168.288 1.976.672 2.424.4.448 1.016.672 1.848.672.768 0 1.288-.152 1.56-.456.288-.304.44-.76.456-1.368.288.016.632.032 1.032.048.416.016.864.024 1.344.024zm13.59-5.112v-.264c0-.448-.152-.776-.456-.984-.288-.224-.832-.336-1.632-.336-.768 0-1.296.088-1.584.264-.272.176-.408.416-.408.72 0 .16.032.32.096.48.08.144.24.28.48.408.24.128.584.248 1.032.36a22.72 22.72 0 001.8.288c2.192.304 3.696.816 4.512 1.536.816.72 1.224 1.808 1.224 3.264 0 1.536-.552 2.704-1.656 3.504-1.104.784-2.984 1.176-5.64 1.176-1.44 0-2.64-.096-3.6-.288-.944-.192-1.696-.472-2.256-.84-.544-.384-.928-.856-1.152-1.416-.224-.56-.336-1.208-.336-1.944v-.408l.048-.456c.336.016.736.04 1.2.072.464.032 1 .048 1.608.048.368 0 .72-.008 1.056-.024.352-.016.656-.032.912-.048 0 .064-.008.12-.024.168v.144c0 .448.168.792.504 1.032.336.224.936.336 1.8.336.752 0 1.272-.088 1.56-.264.288-.176.432-.44.432-.792 0-.4-.224-.712-.672-.936-.432-.224-1.328-.416-2.688-.576-1.152-.144-2.104-.344-2.856-.6-.736-.272-1.32-.6-1.752-.984a3.402 3.402 0 01-.888-1.392 6.456 6.456 0 01-.24-1.824c0-1.6.576-2.752 1.728-3.456 1.168-.72 3.016-1.08 5.544-1.08 2.672 0 4.528.352 5.568 1.056 1.056.704 1.584 1.792 1.584 3.264 0 .128-.008.264-.024.408 0 .144-.008.296-.024.456a22.57 22.57 0 00-1.32-.072 25.405 25.405 0 00-2.664-.024c-.336 0-.608.008-.816.024zm-185.078 32.2v-.432c.352.032.736.056 1.152.072h1.32c.48 0 .952-.008 1.416-.024l1.32-.048V99c.016.096.024.2.024.312 0 .992-.128 1.864-.384 2.616a4.127 4.127 0 01-1.272 1.872c-.592.496-1.384.872-2.376 1.128-.976.256-2.184.384-3.624.384-2.688 0-4.664-.632-5.928-1.896-1.264-1.264-1.896-3.28-1.896-6.048 0-2.704.648-4.648 1.944-5.832 1.296-1.2 3.272-1.8 5.928-1.8 2.528 0 4.416.408 5.664 1.224 1.248.816 1.872 2.296 1.872 4.44v.384c0 .128-.008.264-.024.408-.352-.016-.76-.024-1.224-.024a41.22 41.22 0 00-2.856 0c-.432 0-.784.008-1.056.024v-.336c-.016-.768-.184-1.304-.504-1.608-.32-.304-.904-.456-1.752-.456-.88 0-1.52.24-1.92.72-.384.48-.576 1.432-.576 2.856s.192 2.392.576 2.904c.384.496 1.032.744 1.944.744.816 0 1.384-.168 1.704-.504.336-.352.512-.824.528-1.416zm13.033-11.424c0 .176-.04.352-.12.528-.064.176-.208.328-.432.456s-.552.232-.984.312c-.432.08-1 .12-1.704.12-.72 0-1.296-.04-1.728-.12-.432-.08-.768-.184-1.008-.312-.224-.128-.376-.28-.456-.456a1.536 1.536 0 01-.096-.528c0-.208.04-.392.12-.552.08-.16.232-.296.456-.408.24-.112.576-.2 1.008-.264.432-.064 1-.096 1.704-.096.688 0 1.248.032 1.68.096.432.064.76.152.984.264.224.112.376.248.456.408.08.16.12.344.12.552zM23.593 105H17.88c.032-1.152.048-2.368.048-3.648a333.137 333.137 0 000-7.872l-.048-3.432h5.712a247.345 247.345 0 00-.072 3.48v8.136c.016 1.12.04 2.232.072 3.336zm9.492-11.808c-.736 0-1.304.208-1.704.624-.384.4-.624 1.24-.72 2.52.688.016 1.416.024 2.184.024.768 0 1.544-.008 2.328-.024a1.9 1.9 0 00.024-.312v-.336c0-.912-.16-1.552-.48-1.92-.32-.384-.864-.576-1.632-.576zm4.464 6.816c.496 0 .968-.008 1.416-.024.448-.016.856-.032 1.224-.048.032.864-.04 1.632-.216 2.304a3.354 3.354 0 01-1.056 1.704c-.512.448-1.248.792-2.208 1.032-.944.224-2.176.336-3.696.336-2.576 0-4.52-.608-5.832-1.824-1.296-1.232-1.944-3.208-1.944-5.928 0-2.864.68-4.88 2.04-6.048 1.376-1.184 3.344-1.776 5.904-1.776 1.36 0 2.496.136 3.408.408.912.272 1.632.664 2.16 1.176.544.512.928 1.152 1.152 1.92.224.768.336 1.64.336 2.616 0 .608-.016 1.152-.048 1.632-.016.48-.04.88-.072 1.2-.736-.016-1.624-.024-2.664-.024-1.04-.016-2.056-.024-3.048-.024h-2.088c-.64 0-1.2.008-1.68.024.064 1.168.288 1.976.672 2.424.4.448 1.016.672 1.848.672.768 0 1.288-.152 1.56-.456.288-.304.44-.76.456-1.368.288.016.632.032 1.032.048.416.016.864.024 1.344.024zm9.175-6.744h.192c.336-1.216.856-2.08 1.56-2.592.72-.528 1.568-.792 2.544-.792.303 0 .591.024.863.072.288.032.56.08.816.144-.063.848-.127 1.8-.191 2.856a69.188 69.188 0 00-.12 3.048 5.909 5.909 0 00-.84-.192 5.839 5.839 0 00-.913-.072c-.96.016-1.631.264-2.015.744-.384.48-.576 1.392-.576 2.736 0 .944.008 1.944.024 3 .016 1.04.047 1.968.096 2.784h-6.049c.017-1.04.032-2.16.048-3.36.017-1.2.025-2.6.025-4.2 0-1.568-.009-2.928-.025-4.08 0-1.152-.015-2.256-.047-3.312h4.727c-.016.512-.04 1.032-.072 1.56a394.19 394.19 0 00-.047 1.656zm6.233-3.216l1.536.024c.016-.512.024-1.008.024-1.488v-1.368l1.344.048h2.832l1.368-.048-.048 1.416-.048 1.464h2.496c.816-.016 1.568-.032 2.256-.048-.016.736-.04 1.528-.072 2.376-.032.832-.04 1.624-.024 2.376a145.28 145.28 0 00-2.016-.048l-2.712-.048a68.475 68.475 0 00-.024 1.848v1.992c0 .544.136.928.408 1.152.272.224.744.336 1.416.336.56 0 1.08-.04 1.56-.12.48-.08.904-.192 1.272-.336.032.752.104 1.6.216 2.544s.216 1.784.312 2.52c-.704.176-1.392.312-2.064.408a16.12 16.12 0 01-2.304.144c-1.216 0-2.232-.128-3.048-.384-.8-.272-1.44-.648-1.92-1.128a4.13 4.13 0 01-1.032-1.728 8.372 8.372 0 01-.288-2.256v-2.328l.048-2.736-1.464-.024v-2.304c0-.864-.008-1.616-.024-2.256zm19.919 11.64c.736 0 1.312-.232 1.728-.696.432-.48.648-1.176.648-2.088a16.83 16.83 0 00-.96-.072c-.336-.016-.68-.024-1.032-.024-.736 0-1.28.12-1.632.36-.336.224-.504.584-.504 1.08 0 .512.128.88.384 1.104.272.224.728.336 1.368.336zm2.4-4.752v-1.2c0-.592-.144-1.04-.432-1.344-.288-.32-.776-.48-1.464-.48-.72 0-1.248.168-1.584.504-.336.32-.48.872-.432 1.656a18.975 18.975 0 00-1.032-.024c-.4-.016-.816-.024-1.248-.024-.512 0-1.016.008-1.512.024-.496 0-.904.024-1.224.072-.096-2.016.408-3.576 1.512-4.68 1.104-1.104 2.984-1.656 5.64-1.656 2.576 0 4.424.496 5.544 1.488 1.136.976 1.704 2.352 1.704 4.128 0 1.008-.016 1.912-.048 2.712-.016.784-.024 1.632-.024 2.544 0 .416.008.848.024 1.296l.048 1.248c.032.4.072.76.12 1.08.048.32.096.56.144.72H76.5c-.496 0-.816-.064-.96-.192-.128-.128-.192-.472-.192-1.032v-.6l.048-.672h-.144c-.304.912-.856 1.592-1.656 2.04-.784.448-1.792.672-3.024.672-1.52 0-2.68-.296-3.48-.888-.8-.592-1.2-1.648-1.2-3.168 0-1.552.528-2.664 1.584-3.336 1.072-.688 2.72-1.032 4.944-1.032.544 0 1.056.008 1.536.024.496.016.936.056 1.32.12zm16.752-2.04v-.264c0-.448-.152-.776-.456-.984-.288-.224-.832-.336-1.632-.336-.768 0-1.296.088-1.584.264-.272.176-.408.416-.408.72 0 .16.032.32.096.48.08.144.24.28.48.408.24.128.584.248 1.032.36a22.72 22.72 0 001.8.288c2.192.304 3.696.816 4.512 1.536.816.72 1.224 1.808 1.224 3.264 0 1.536-.552 2.704-1.656 3.504-1.104.784-2.984 1.176-5.64 1.176-1.44 0-2.64-.096-3.6-.288-.944-.192-1.696-.472-2.256-.84-.544-.384-.928-.856-1.152-1.416-.224-.56-.336-1.208-.336-1.944v-.408l.048-.456c.336.016.736.04 1.2.072.464.032 1 .048 1.608.048.368 0 .72-.008 1.056-.024.352-.016.656-.032.912-.048 0 .064-.008.12-.024.168v.144c0 .448.168.792.504 1.032.336.224.936.336 1.8.336.752 0 1.272-.088 1.56-.264.288-.176.432-.44.432-.792 0-.4-.224-.712-.672-.936-.432-.224-1.328-.416-2.688-.576-1.152-.144-2.104-.344-2.856-.6-.736-.272-1.32-.6-1.752-.984a3.402 3.402 0 01-.888-1.392 6.456 6.456 0 01-.24-1.824c0-1.6.576-2.752 1.728-3.456 1.168-.72 3.016-1.08 5.544-1.08 2.672 0 4.528.352 5.568 1.056 1.056.704 1.584 1.792 1.584 3.264 0 .128-.008.264-.024.408 0 .144-.008.296-.024.456a22.57 22.57 0 00-1.32-.072 25.405 25.405 0 00-2.664-.024c-.336 0-.608.008-.816.024zm21.998 4.2v-.432c.352.032.736.056 1.152.072h1.32c.48 0 .952-.008 1.416-.024l1.32-.048V99c.016.096.024.2.024.312 0 .992-.128 1.864-.384 2.616a4.127 4.127 0 01-1.272 1.872c-.592.496-1.384.872-2.376 1.128-.976.256-2.184.384-3.624.384-2.688 0-4.664-.632-5.928-1.896-1.264-1.264-1.896-3.28-1.896-6.048 0-2.704.648-4.648 1.944-5.832 1.296-1.2 3.272-1.8 5.928-1.8 2.528 0 4.416.408 5.664 1.224 1.248.816 1.872 2.296 1.872 4.44v.384c0 .128-.008.264-.024.408-.352-.016-.76-.024-1.224-.024a41.22 41.22 0 00-2.856 0c-.432 0-.784.008-1.056.024v-.336c-.016-.768-.184-1.304-.504-1.608-.32-.304-.904-.456-1.752-.456-.88 0-1.52.24-1.92.72-.384.48-.576 1.432-.576 2.856s.192 2.392.576 2.904c.384.496 1.032.744 1.944.744.816 0 1.384-.168 1.704-.504.336-.352.512-.824.528-1.416zm16.873-1.776c0-1.248-.232-2.12-.696-2.616-.448-.496-1.08-.744-1.896-.744-.8 0-1.432.24-1.896.72-.464.48-.696 1.36-.696 2.64s.224 2.192.672 2.736c.464.544 1.104.816 1.92.816.832 0 1.472-.272 1.92-.816.448-.56.672-1.472.672-2.736zm5.568-.096c0 2.656-.688 4.672-2.064 6.048-1.376 1.36-3.408 2.04-6.096 2.04s-4.704-.68-6.048-2.04c-1.344-1.376-2.016-3.392-2.016-6.048s.704-4.568 2.112-5.736c1.424-1.168 3.408-1.752 5.952-1.752s4.536.584 5.976 1.752c1.456 1.168 2.184 3.08 2.184 5.736zM153.732 105h-5.76c.016-1.04.032-2.264.048-3.672.016-1.424.024-3.008.024-4.752 0-.784-.144-1.344-.432-1.68-.272-.336-.752-.504-1.44-.504s-1.272.224-1.752.672c-.464.432-.696 1.184-.696 2.256v5.016c.016.576.024 1.072.024 1.488.016.416.024.808.024 1.176h-5.712l.048-3.24c.016-1.12.024-2.52.024-4.2 0-1.584-.008-2.976-.024-4.176-.016-1.2-.032-2.312-.048-3.336h5.712c-.016.464-.032.888-.048 1.272 0 .384-.008.784-.024 1.2l.144.048c.448-.96 1.088-1.656 1.92-2.088.832-.432 1.848-.648 3.048-.648 1.536 0 2.728.384 3.576 1.152.864.768 1.296 2.04 1.296 3.816 0 1.2-.008 2.168-.024 2.904a104.98 104.98 0 00-.024 2.28c0 .928.008 1.8.024 2.616.016.816.04 1.616.072 2.4zm11.851-6.936v-3.792a4.55 4.55 0 00-1.056-.336 6.12 6.12 0 00-1.248-.12c-.848 0-1.488.264-1.92.792-.432.528-.648 1.488-.648 2.88 0 1.328.2 2.256.6 2.784.416.512.976.768 1.68.768.736 0 1.352-.24 1.848-.72s.744-1.232.744-2.256zm-.12-11.64h5.76c-.032 1.296-.048 2.68-.048 4.152V101.016c0 1.392.016 2.728.048 4.008h-5.736v-.768c.016-.272.024-.552.024-.84v-.552c0-.192.008-.384.024-.576l-.168-.024c-.304.768-.824 1.456-1.56 2.064-.72.592-1.752.888-3.096.888-1.696 0-3.04-.584-4.032-1.752-.992-1.184-1.488-3.152-1.488-5.904 0-1.392.152-2.576.456-3.552.304-.992.712-1.792 1.224-2.4a4.77 4.77 0 011.848-1.368 6.146 6.146 0 012.304-.432c1.04 0 1.928.184 2.664.552a3.977 3.977 0 011.776 1.632l.072-.024a375.75 375.75 0 00-.048-1.2V89.52v-1.608c0-.496-.008-.992-.024-1.488zm14.156 1.248c0 .176-.04.352-.12.528-.064.176-.208.328-.432.456s-.552.232-.984.312c-.432.08-1 .12-1.704.12-.72 0-1.296-.04-1.728-.12-.432-.08-.768-.184-1.008-.312-.224-.128-.376-.28-.456-.456a1.536 1.536 0 01-.096-.528c0-.208.04-.392.12-.552.08-.16.232-.296.456-.408.24-.112.576-.2 1.008-.264.432-.064 1-.096 1.704-.096.688 0 1.248.032 1.68.096.432.064.76.152.984.264.224.112.376.248.456.408.08.16.12.344.12.552zM179.211 105h-5.712c.032-1.152.048-2.368.048-3.648a333.137 333.137 0 000-7.872l-.048-3.432h5.712a247.345 247.345 0 00-.072 3.48v8.136c.016 1.12.04 2.232.072 3.336zm11.869-5.904v-.432c.352.032.736.056 1.152.072h1.32c.48 0 .952-.008 1.416-.024l1.32-.048V99c.016.096.024.2.024.312 0 .992-.128 1.864-.384 2.616a4.127 4.127 0 01-1.272 1.872c-.592.496-1.384.872-2.376 1.128-.976.256-2.184.384-3.624.384-2.688 0-4.664-.632-5.928-1.896-1.264-1.264-1.896-3.28-1.896-6.048 0-2.704.648-4.648 1.944-5.832 1.296-1.2 3.272-1.8 5.928-1.8 2.528 0 4.416.408 5.664 1.224 1.248.816 1.872 2.296 1.872 4.44v.384c0 .128-.008.264-.024.408-.352-.016-.76-.024-1.224-.024a41.22 41.22 0 00-2.856 0c-.432 0-.784.008-1.056.024v-.336c-.016-.768-.184-1.304-.504-1.608-.32-.304-.904-.456-1.752-.456-.88 0-1.52.24-1.92.72-.384.48-.576 1.432-.576 2.856s.192 2.392.576 2.904c.384.496 1.032.744 1.944.744.816 0 1.384-.168 1.704-.504.336-.352.512-.824.528-1.416zm13.032-11.424c0 .176-.04.352-.12.528-.064.176-.208.328-.432.456s-.552.232-.984.312c-.432.08-1 .12-1.704.12-.72 0-1.296-.04-1.728-.12-.432-.08-.768-.184-1.008-.312-.224-.128-.376-.28-.456-.456a1.536 1.536 0 01-.096-.528c0-.208.04-.392.12-.552.08-.16.232-.296.456-.408.24-.112.576-.2 1.008-.264.432-.064 1-.096 1.704-.096.688 0 1.248.032 1.68.096.432.064.76.152.984.264.224.112.376.248.456.408.08.16.12.344.12.552zM203.704 105h-5.712c.032-1.152.048-2.368.048-3.648a333.137 333.137 0 000-7.872l-.048-3.432h5.712a247.345 247.345 0 00-.072 3.48v8.136c.016 1.12.04 2.232.072 3.336zm12.253-7.68c0-1.248-.232-2.12-.696-2.616-.448-.496-1.08-.744-1.896-.744-.8 0-1.432.24-1.896.72-.464.48-.696 1.36-.696 2.64s.224 2.192.672 2.736c.464.544 1.104.816 1.92.816.832 0 1.472-.272 1.92-.816.448-.56.672-1.472.672-2.736zm5.568-.096c0 2.656-.688 4.672-2.064 6.048-1.376 1.36-3.408 2.04-6.096 2.04s-4.704-.68-6.048-2.04c-1.344-1.376-2.016-3.392-2.016-6.048s.704-4.568 2.112-5.736c1.424-1.168 3.408-1.752 5.952-1.752s4.536.584 5.976 1.752c1.456 1.168 2.184 3.08 2.184 5.736zM238.79 105h-5.76c.016-1.04.032-2.264.048-3.672.016-1.424.024-3.008.024-4.752 0-.784-.144-1.344-.432-1.68-.272-.336-.752-.504-1.44-.504s-1.272.224-1.752.672c-.464.432-.696 1.184-.696 2.256v5.016c.016.576.024 1.072.024 1.488.016.416.024.808.024 1.176h-5.712l.048-3.24c.016-1.12.024-2.52.024-4.2 0-1.584-.008-2.976-.024-4.176-.016-1.2-.032-2.312-.048-3.336h5.712c-.016.464-.032.888-.048 1.272 0 .384-.008.784-.024 1.2l.144.048c.448-.96 1.088-1.656 1.92-2.088.832-.432 1.848-.648 3.048-.648 1.536 0 2.728.384 3.576 1.152.864.768 1.296 2.04 1.296 3.816 0 1.2-.008 2.168-.024 2.904a104.98 104.98 0 00-.024 2.28c0 .928.008 1.8.024 2.616.016.816.04 1.616.072 2.4zm9.306-11.808c-.736 0-1.304.208-1.704.624-.384.4-.624 1.24-.72 2.52.688.016 1.416.024 2.184.024.768 0 1.544-.008 2.328-.024a1.9 1.9 0 00.024-.312v-.336c0-.912-.16-1.552-.48-1.92-.32-.384-.864-.576-1.632-.576zm4.464 6.816c.496 0 .968-.008 1.416-.024.448-.016.856-.032 1.224-.048.032.864-.04 1.632-.216 2.304a3.354 3.354 0 01-1.056 1.704c-.512.448-1.248.792-2.208 1.032-.944.224-2.176.336-3.696.336-2.576 0-4.52-.608-5.832-1.824-1.296-1.232-1.944-3.208-1.944-5.928 0-2.864.68-4.88 2.04-6.048 1.376-1.184 3.344-1.776 5.904-1.776 1.36 0 2.496.136 3.408.408.912.272 1.632.664 2.16 1.176.544.512.928 1.152 1.152 1.92.224.768.336 1.64.336 2.616 0 .608-.016 1.152-.048 1.632-.016.48-.04.88-.072 1.2-.736-.016-1.624-.024-2.664-.024-1.04-.016-2.056-.024-3.048-.024h-2.088c-.64 0-1.2.008-1.68.024.064 1.168.288 1.976.672 2.424.4.448 1.016.672 1.848.672.768 0 1.288-.152 1.56-.456.288-.304.44-.76.456-1.368.288.016.632.032 1.032.048.416.016.864.024 1.344.024zm13.59-5.112v-.264c0-.448-.152-.776-.456-.984-.288-.224-.832-.336-1.632-.336-.768 0-1.296.088-1.584.264-.272.176-.408.416-.408.72 0 .16.032.32.096.48.08.144.24.28.48.408.24.128.584.248 1.032.36a22.72 22.72 0 001.8.288c2.192.304 3.696.816 4.512 1.536.816.72 1.224 1.808 1.224 3.264 0 1.536-.552 2.704-1.656 3.504-1.104.784-2.984 1.176-5.64 1.176-1.44 0-2.64-.096-3.6-.288-.944-.192-1.696-.472-2.256-.84-.544-.384-.928-.856-1.152-1.416-.224-.56-.336-1.208-.336-1.944v-.408l.048-.456c.336.016.736.04 1.2.072.464.032 1 .048 1.608.048.368 0 .72-.008 1.056-.024.352-.016.656-.032.912-.048 0 .064-.008.12-.024.168v.144c0 .448.168.792.504 1.032.336.224.936.336 1.8.336.752 0 1.272-.088 1.56-.264.288-.176.432-.44.432-.792 0-.4-.224-.712-.672-.936-.432-.224-1.328-.416-2.688-.576-1.152-.144-2.104-.344-2.856-.6-.736-.272-1.32-.6-1.752-.984a3.402 3.402 0 01-.888-1.392 6.456 6.456 0 01-.24-1.824c0-1.6.576-2.752 1.728-3.456 1.168-.72 3.016-1.08 5.544-1.08 2.672 0 4.528.352 5.568 1.056 1.056.704 1.584 1.792 1.584 3.264 0 .128-.008.264-.024.408 0 .144-.008.296-.024.456a22.57 22.57 0 00-1.32-.072 25.405 25.405 0 00-2.664-.024c-.336 0-.608.008-.816.024zM11.136 126.064v-3.792a4.55 4.55 0 00-1.056-.336 6.12 6.12 0 00-1.248-.12c-.848 0-1.488.264-1.92.792-.432.528-.648 1.488-.648 2.88 0 1.328.2 2.256.6 2.784.416.512.976.768 1.68.768.736 0 1.352-.24 1.848-.72s.744-1.232.744-2.256zm-.12-11.64h5.76c-.032 1.296-.048 2.68-.048 4.152V129.016c0 1.392.016 2.728.048 4.008H11.04v-.768c.016-.272.024-.552.024-.84v-.552c0-.192.008-.384.024-.576l-.168-.024c-.304.768-.824 1.456-1.56 2.064-.72.592-1.752.888-3.096.888-1.696 0-3.04-.584-4.032-1.752-.992-1.184-1.488-3.152-1.488-5.904 0-1.392.152-2.576.456-3.552.304-.992.712-1.792 1.224-2.4a4.77 4.77 0 011.848-1.368 6.146 6.146 0 012.304-.432c1.04 0 1.928.184 2.664.552a3.977 3.977 0 011.776 1.632l.072-.024a375.75 375.75 0 00-.048-1.2v-1.248-1.608c0-.496-.008-.992-.024-1.488zm15.237 6.768c-.736 0-1.304.208-1.704.624-.384.4-.624 1.24-.72 2.52.688.016 1.416.024 2.184.024.768 0 1.544-.008 2.328-.024a1.9 1.9 0 00.024-.312v-.336c0-.912-.16-1.552-.48-1.92-.32-.384-.864-.576-1.632-.576zm4.464 6.816c.496 0 .968-.008 1.416-.024.448-.016.856-.032 1.224-.048.032.864-.04 1.632-.216 2.304a3.354 3.354 0 01-1.056 1.704c-.512.448-1.248.792-2.208 1.032-.944.224-2.176.336-3.696.336-2.576 0-4.52-.608-5.832-1.824-1.296-1.232-1.944-3.208-1.944-5.928 0-2.864.68-4.88 2.04-6.048 1.376-1.184 3.344-1.776 5.904-1.776 1.36 0 2.496.136 3.408.408.912.272 1.632.664 2.16 1.176.544.512.928 1.152 1.152 1.92.224.768.336 1.64.336 2.616 0 .608-.016 1.152-.048 1.632-.016.48-.04.88-.072 1.2-.736-.016-1.624-.024-2.664-.024-1.04-.016-2.056-.024-3.048-.024h-2.088c-.64 0-1.2.008-1.68.024.064 1.168.288 1.976.672 2.424.4.448 1.016.672 1.848.672.768 0 1.288-.152 1.56-.456.288-.304.44-.76.456-1.368.288.016.632.032 1.032.048.416.016.864.024 1.344.024zm19.32-5.112v-.264c0-.448-.151-.776-.455-.984-.288-.224-.832-.336-1.632-.336-.768 0-1.296.088-1.584.264-.272.176-.408.416-.408.72 0 .16.032.32.096.48.08.144.24.28.48.408.24.128.584.248 1.032.36a22.72 22.72 0 001.8.288c2.192.304 3.696.816 4.512 1.536.816.72 1.224 1.808 1.224 3.264 0 1.536-.552 2.704-1.656 3.504-1.104.784-2.984 1.176-5.64 1.176-1.44 0-2.64-.096-3.6-.288-.944-.192-1.696-.472-2.256-.84-.544-.384-.928-.856-1.152-1.416-.224-.56-.336-1.208-.336-1.944v-.408l.048-.456c.336.016.736.04 1.2.072.464.032 1 .048 1.608.048.368 0 .72-.008 1.056-.024.352-.016.656-.032.912-.048 0 .064-.008.12-.024.168v.144c0 .448.168.792.504 1.032.336.224.936.336 1.8.336.752 0 1.272-.088 1.56-.264.288-.176.432-.44.432-.792 0-.4-.224-.712-.672-.936-.432-.224-1.328-.416-2.688-.576-1.152-.144-2.104-.344-2.856-.6-.736-.272-1.32-.6-1.752-.984a3.402 3.402 0 01-.888-1.392 6.456 6.456 0 01-.24-1.824c0-1.6.576-2.752 1.728-3.456 1.168-.72 3.016-1.08 5.544-1.08 2.672 0 4.528.352 5.568 1.056 1.056.704 1.584 1.792 1.584 3.264 0 .128-.008.264-.024.408 0 .144-.008.296-.024.456a22.57 22.57 0 00-1.32-.072 25.405 25.405 0 00-2.664-.024c-.336 0-.608.008-.816.024zm13.077 6.792c.736 0 1.312-.232 1.728-.696.432-.48.648-1.176.648-2.088a16.83 16.83 0 00-.96-.072c-.336-.016-.68-.024-1.032-.024-.736 0-1.28.12-1.632.36-.336.224-.504.584-.504 1.08 0 .512.128.88.384 1.104.272.224.728.336 1.368.336zm2.4-4.752v-1.2c0-.592-.144-1.04-.432-1.344-.288-.32-.776-.48-1.464-.48-.72 0-1.248.168-1.584.504-.336.32-.48.872-.432 1.656a18.975 18.975 0 00-1.032-.024c-.4-.016-.816-.024-1.248-.024-.512 0-1.016.008-1.512.024-.496 0-.904.024-1.224.072-.096-2.016.408-3.576 1.512-4.68 1.104-1.104 2.984-1.656 5.64-1.656 2.576 0 4.424.496 5.544 1.488 1.136.976 1.704 2.352 1.704 4.128 0 1.008-.016 1.912-.048 2.712-.016.784-.024 1.632-.024 2.544 0 .416.008.848.024 1.296l.048 1.248c.032.4.072.76.12 1.08.048.32.096.56.144.72h-4.512c-.496 0-.816-.064-.96-.192-.128-.128-.192-.472-.192-1.032v-.6l.048-.672h-.144c-.304.912-.856 1.592-1.656 2.04-.784.448-1.792.672-3.024.672-1.52 0-2.68-.296-3.48-.888-.8-.592-1.2-1.648-1.2-3.168 0-1.552.528-2.664 1.584-3.336 1.072-.688 2.72-1.032 4.944-1.032.544 0 1.056.008 1.536.024.496.016.936.056 1.32.12zM78.977 133h-5.736c.032-1.376.048-2.872.048-4.488a509.346 509.346 0 000-9.72c0-1.472-.016-2.928-.048-4.368h5.736a353.508 353.508 0 00-.072 4.32v10.08c.016 1.392.04 2.784.072 4.176zm12.134-14.952h5.736l-.048 3.264v8.352c.016 1.184.032 2.296.048 3.336h-5.712c.016-.464.024-.888.024-1.272l.048-1.2-.144-.024c-.432.944-1.064 1.64-1.896 2.088-.816.432-1.848.648-3.096.648-1.472 0-2.656-.376-3.552-1.128-.88-.768-1.32-1.992-1.32-3.672 0-1.248.008-2.264.024-3.048a128.834 128.834 0 000-4.968c0-.8-.016-1.592-.048-2.376h5.76c-.032 1.056-.056 2.32-.072 3.792v4.872c0 .752.144 1.296.432 1.632.288.32.76.48 1.416.48.688 0 1.264-.224 1.728-.672.48-.448.72-1.2.72-2.256v-3.024c0-.832-.008-1.536-.024-2.112 0-.592-.008-1.096-.024-1.512v-1.2zm17.751 8.016v-3.792a4.55 4.55 0 00-1.056-.336 6.12 6.12 0 00-1.248-.12c-.848 0-1.488.264-1.92.792-.432.528-.648 1.488-.648 2.88 0 1.328.2 2.256.6 2.784.416.512.976.768 1.68.768.736 0 1.352-.24 1.848-.72s.744-1.232.744-2.256zm-.12-11.64h5.76c-.032 1.296-.048 2.68-.048 4.152V129.016c0 1.392.016 2.728.048 4.008h-5.736v-.768c.016-.272.024-.552.024-.84v-.552c0-.192.008-.384.024-.576l-.168-.024c-.304.768-.824 1.456-1.56 2.064-.72.592-1.752.888-3.096.888-1.696 0-3.04-.584-4.032-1.752-.992-1.184-1.488-3.152-1.488-5.904 0-1.392.152-2.576.456-3.552.304-.992.712-1.792 1.224-2.4a4.77 4.77 0 011.848-1.368 6.146 6.146 0 012.304-.432c1.04 0 1.928.184 2.664.552a3.977 3.977 0 011.776 1.632l.072-.024a375.75 375.75 0 00-.048-1.2v-1.248-1.608c0-.496-.008-.992-.024-1.488zm9.645 12.648c.912 0 1.616.248 2.112.744s.744 1.256.744 2.28c0 1.04-.248 1.824-.744 2.352-.496.512-1.2.768-2.112.768-.912 0-1.616-.256-2.112-.768-.48-.528-.72-1.312-.72-2.352 0-1.024.248-1.784.744-2.28.496-.496 1.192-.744 2.088-.744zm5.543 0c.912 0 1.616.248 2.112.744s.744 1.256.744 2.28c0 1.04-.248 1.824-.744 2.352-.496.512-1.2.768-2.112.768-.912 0-1.616-.256-2.112-.768-.48-.528-.72-1.312-.72-2.352 0-1.024.248-1.784.744-2.28.496-.496 1.192-.744 2.088-.744zm5.543 0c.912 0 1.616.248 2.112.744s.744 1.256.744 2.28c0 1.04-.248 1.824-.744 2.352-.496.512-1.2.768-2.112.768-.912 0-1.616-.256-2.112-.768-.48-.528-.72-1.312-.72-2.352 0-1.024.248-1.784.744-2.28.496-.496 1.192-.744 2.088-.744z" fill="#022E35"/></svg>